<?xml version="1.0" encoding="utf-8"?>
<!-- Generator: Adobe Illustrator 25.4.1, SVG Export Plug-In . SVG Version: 6.00 Build 0)  -->
<svg version="1.1" id="Layer_1" xmlns="http://www.w3.org/2000/svg" xmlns:xlink="http://www.w3.org/1999/xlink" x="0px" y="0px"
	 viewBox="0 0 1043.9 884.6" style="enable-background:new 0 0 1043.9 884.6;" xml:space="preserve">
<g>
	<path d="M227.2,109.7c5.4,1.4,10.9,2.3,16,4.1c8.3,3,12.2,9.8,11,17.5c-1.3,8-9,15.5-16.7,15.9c-6,0.3-12.1,0.2-18.1,0.2
		c-55.5-0.1-111.1-0.1-166.6-0.2c-3.7,0.1-7.3,0-11-0.4c-7.9-1-14-6.5-15.4-13.7c-1.5-7.7,1.7-15.1,9.5-18.5
		c5.1-2.2,10.9-2.9,16.4-4.1c2.2-0.5,4.5-0.3,7-1.2c-3-1.1-6-2.1-9-3.3c-11.4-4.3-21-12.6-26.9-23.2c-7.3-12.4-6-28.1,3.3-39.1
		c11-13.4,25.4-20.1,42.8-20.2c49.5-0.1,99-0.2,148.5-0.1c5.3-0.1,10.6,0.4,15.9,1.6c16.9,3.8,30,12.8,35.7,30
		c3.9,11.7,2.1,22.8-5.5,32.8c-8.1,10.7-19,17-31.6,20.6C230.5,108.8,228.9,109.2,227.2,109.7C227.2,109.7,227.1,109.9,227.2,109.7z
		 M77.4,82C76.3,67.7,59,49.5,48.1,50.7C50.2,63.8,64.9,79.7,77.4,82z M117.9,82.9c-3.8-17.5-19.7-34.3-30.6-32.2
		C93.4,65.1,101.9,76.8,117.9,82.9z M159,82.7c-3.7-15.1-19.2-33.5-31.3-32.2C133.7,65.2,142.9,76.5,159,82.7L159,82.7z M168.3,50.4
		c3.6,15.1,17.9,30.2,29.7,31.8C195,66.5,179.4,50.3,168.3,50.4L168.3,50.4z M236.3,80.4c-0.3-13.2-15-29.2-27.7-30.1
		C208.4,60,226.6,81.7,236.3,80.4z"/>
	<path d="M261.8,833.7c-27.5-0.2-55-0.3-81.9-7.5c-10.6-2.8-20.7-6.8-28.8-14.2c-4-3.7-7.5-8-10.2-12.7c-5.2-9-4.1-17.7,2.1-26.2
		c9.7-13.2,23.1-20.8,38.4-25.1c41.6-11.7,83.9-13.4,126.4-7c14.5,2.2,28.9,6.7,42.9,11.3c10.3,3.5,19.3,10.1,25.9,18.8
		c7.4,9.6,8.1,20,1.4,30.1c-8.7,13-21.5,20.2-36.1,24.6c-20.2,6.1-41.1,7.1-62,7.8C274,833.9,267.9,833.7,261.8,833.7z M345,773.8
		l-0.5-2.4c-3.1,0-6.3-0.6-9.3,0.1c-12,3-21.9,9.4-28.6,19.9c-1.8,2.8-3.9,8.4-2.7,9.6c3.5,3.5,7.5,0,10.6-2.3
		c7.4-5.7,14.5-11.9,21.7-17.8C339.1,778.6,342.1,776.2,345,773.8z M282.1,774l-0.9-2.1c-1.5-0.4-3.1-0.7-4.7-0.8
		c-12.9-0.3-32.1,13.5-36,25.9c-0.4,1.4-0.4,3.9,0.4,4.4c1.3,0.8,3.9,1.2,5,0.4C258.1,792.6,270.1,783.3,282.1,774z M220.1,771.5
		c-3.8,0-6.9-0.5-9.6,0.1c-12.2,2.5-22.8,10-29.2,20.6c-1.6,2.6-1.6,6.3-2.4,9.4c3.4-0.7,7.5-0.5,9.9-2.4
		c10.1-7.8,19.7-16.3,29.5-24.5C218.9,774.3,219,773.5,220.1,771.5L220.1,771.5z"/>
	<path d="M217.1,479c0-7.3-0.5-14.5,0.1-21.5c1.9-25.8,4-51.5,6.5-77.2c0.7-7.4,3.4-14.5,4.9-21.9c0.2-1.7-0.1-3.5-0.9-5.1
		c-4.7-12-9.5-23.8-14.1-35.8c-0.6-1.6-0.7-4.6,0.3-5.4c1.4-1.1,4.1-1.4,6-0.9c3.2,0.8,6.1,2.6,9.2,3.6c3.1,0.9,6.2,1.2,10.2,2
		c3.1,10.2,6.6,21.5,10,32.7l2-0.3c-1.5-11.2-2.9-22.3-4.3-32.8c5.5-1.2,10.7-2.5,16-3.5c1.8-0.4,3.6-0.3,5.3,0.3
		c7,3.3,15,3.2,21.9-0.2c-1.4,12.9-2.7,25.2-4,37.5l1.8,0.4c2.9-11.8,5.9-23.5,9-36c9.7,5.4,17.2-4.2,27.1-3.5
		c-1.7,5.2-2.9,9.9-4.6,14.5c-3.5,9.6-7.2,19.2-10.7,28.8c-0.6,1.5-0.8,3-0.7,4.6c2.9,18,6.9,35.9,8.8,54.1
		c2.2,20.2,2.6,40.6,3.9,60.9c0.3,4.1-1.2,5.5-5.2,5.5c-31.9-0.2-63.8-0.2-95.7-0.3C218.8,479.3,217.9,479.2,217.1,479z"/>
	<path d="M882.4,180.1c27.9-2.3,48.8-15.5,62.4-39.5c7.4-13,10.5-28,8.9-42.9C950.9,65.8,926,38.3,894.6,33c2.3-1.8,3.8-3.6,5.7-4.5
		c31.6-15,63.2-14.1,92.2,4.9c29.5,19.3,42.6,47.9,39.3,83.5c-3.9,42.4-42.5,89.2-106,80.4c-13.3-1.8-26.2-5.9-38-12.2
		c-1.8-1-3.5-2.2-5.2-3.3L882.4,180.1z"/>
	<path d="M134.5,559.4c-0.1-17.4,2-34.5,8.1-50.8c2.8-7.1,6.8-13.7,11.8-19.6c7.8-9.3,18.5-10.3,27.7-2.3c5.6,5,10.2,10.9,13.8,17.5
		c10.8,20,16.8,41.8,22.6,63.6c8,29.9,16.6,59.7,24.1,89.7c2.1,9.1,2.7,18.4,1.7,27.7c-1.5,13.9-13,21-26.6,18.2
		c-20.1-4.2-34.4-16.9-46.4-32.3C145.6,638.4,134.8,600.6,134.5,559.4z M152.9,603.5c20.7,2.9,41.3,4.7,61-4.6
		C192.9,592.3,172.6,594.5,152.9,603.5L152.9,603.5z M163.6,622.8c16.2,3.2,32.4,6.7,48.7,9.4c4.3,0.7,9-1.1,13.6-1.8
		c0-0.7-0.1-1.3-0.1-2C206,617.7,185.2,617,163.6,622.8L163.6,622.8z M153.1,574.3c19.1,3.4,37.5,14.3,59.1,5.7
		C192.1,570.6,172.8,569.9,153.1,574.3L153.1,574.3z M205.8,553c-12.4-10.7-42.2-14.1-55.5-6.7C168.7,549.6,186,558.1,205.8,553
		L205.8,553z M225.2,649.3c-18.5-6.3-36.7-5.5-54.8,1.2C188.8,654.2,207.2,658.1,225.2,649.3L225.2,649.3z"/>
	<path d="M15.6,708.7h102.6c-0.9,11.5-1.8,22.8-2.8,34c-3.5,39.8-7.1,79.6-10.3,119.4c-0.4,4.9-2,6.1-6.6,6
		c-20.7-0.2-41.4-0.2-62.1,0c-4.9,0-6.5-1.5-6.9-6.5c-4.1-47.6-8.5-95.3-12.8-142.9C16.3,715.6,15.9,712.4,15.6,708.7z M68.4,788.4
		c9.5-0.1,17.6-8.2,17.5-17.5C85.9,762,77.2,754,67.7,754c-8.8,0-17.1,8.7-16.9,17.6C51,780.8,59.1,788.4,68.4,788.4L68.4,788.4z"/>
	<path d="M580.9,800.8c-1.4-35.4,30.3-65.1,67-64.9c34.5,0.2,63.1,29.1,63.4,63.7c0.2,26.7-23,65.7-64.4,65.7
		C606.7,865.5,579.6,831.8,580.9,800.8z M655.9,765.4c-0.6-1.1-1.1-3.7-2.5-4.3c-2-0.6-4.2-0.3-5.9,0.8c-5.5,3.5-8,8.9-7.9,15.4
		c0.1,4.3,2.3,5.7,6.2,3.8C651.8,778,654.7,772.7,655.9,765.4L655.9,765.4z M640.3,838c0.5,1,1.1,3.7,2.5,4.3c1.4,0.6,4.9,0,5.8-1.2
		c3-4,5.5-8.3,7.6-12.9c0.6-1.4-0.5-4.7-1.8-5.6c-1.3-0.9-4.3-0.4-5.9,0.6C643.4,826.3,641,831.1,640.3,838L640.3,838z M606.1,788.1
		c0.4,0.8,0.8,3.5,2,4c1.6,0.7,4.9,0.3,5.8-0.8c3.1-4.1,5.8-8.5,8-13.2c0.6-1.3-0.4-4.6-1.5-5.2c-2-0.7-4.2-0.6-6,0.4
		C609.5,776.4,607.1,781.3,606.1,788.1L606.1,788.1z M624.6,815.5c-1.2-5.5-3.8-7.3-8-5.1c-5.6,3-8.4,8-9,14.1
		c-0.1,1.7,0.9,4.2,2.2,5s4.5,0.6,5.4-0.5C618.7,824.8,621.6,820.1,624.6,815.5L624.6,815.5z M685.9,777.7c0-5.3-2.8-7.1-6.8-4.9
		c-5.4,3-7.9,8-8.6,13.9c-0.2,1.6,0.5,4.2,1.5,4.7c1.8,0.7,3.8,0.6,5.5-0.3C682.1,788.1,685.2,783.2,685.9,777.7z M670.6,824.7
		c0.4,0.7,0.9,2.9,2.2,3.4c1.8,0.7,3.8,0.5,5.5-0.4c4.6-3.1,7.5-8.3,7.6-13.9c0.2-4.1-2-5.6-5.9-4.2
		C675.6,811.2,670.7,818.6,670.6,824.7L670.6,824.7z"/>
	<path d="M857,528.7h174c-0.4,31-13.9,55.2-40,70.7c-30.2,17.9-62,16.7-92-1.2C873.4,583,859.5,559.5,857,528.7z"/>
	<path d="M528.3,553.8c-5.2,2.7-9.6,6.2-14.4,7.3c-28.3,6.6-54.7,3-75.9-18.4c-21.8-22-28.4-49.2-19.7-78.7
		c7.9-26.8,26.9-44,54.2-50.2c29.1-6.6,54.5,1.8,74.6,24.2c10.9,12.1,17.7,26,15.7,43.1c-2.2,19-20.9,32.4-39.4,28.3
		c-10.5-2.4-18.5,2.2-22.6,13c-3.8,9.8-0.7,21.2,7.9,25.5C514.1,550.6,520.5,551.6,528.3,553.8z M465.2,498.1
		c-12-0.2-22.8,10.6-22.8,22.8c-0.1,12,10.2,22.1,22.5,22.3c12.1,0,22.1-9.6,22.4-21.7C487.5,509.1,477.3,498.2,465.2,498.1z
		 M527.8,496.1c11.5,0,20.9-9.2,20.9-20.7c0-0.1,0-0.1,0-0.2c0.1-11.6-9.3-21.5-20.6-21.5c-10.6-0.1-21.5,11.3-21.6,22.5
		C506.3,487.1,516,496.1,527.8,496.1L527.8,496.1z M466.1,456.9c7.2,0,13.9-6.5,14-13.4c0-6.5-5.9-12.6-12.6-12.7
		c-6.9-0.2-14.3,7-14.4,13.9C453.1,451.1,459.2,456.8,466.1,456.9L466.1,456.9z M456.8,477.3c-0.2-5.4-5.8-10.4-11.5-10.2
		c-6.5,0.3-13,7-12.8,13.4c0.2,5.8,6.2,10.9,12.5,10.6C450.7,490.8,457,483.5,456.8,477.3L456.8,477.3z M493.5,479.5
		c0.2-5.5-4.1-10.2-9.7-10.3c-0.1,0-0.2,0-0.2,0c-6.3-0.1-12.4,5.4-12.6,11.4c-0.2,6,5.2,11.2,11.3,11.1
		C488.2,491.5,493.4,485.7,493.5,479.5L493.5,479.5z M504.5,452.1c6.1,0.2,12.3-5.3,12.7-11.3c0.3-4.9-5.2-10.4-10.7-10.5
		c-5.5-0.2-11.8,6.1-12,11.5C494.5,447.4,498.9,451.9,504.5,452.1L504.5,452.1z"/>
	<path d="M1030.1,297.7c-0.6,21.7-8.8,40.1-24.6,55c-8.1,7.6-17.4,8.8-26.9,4.4c-7.3-3.4-13.7-3.6-20.9-0.1
		c-9.6,4.6-18.7,3-26.5-4.1c-19.8-18.2-29-40.7-25.3-67.6c2.5-19.2,20.1-32.7,39.2-30.2c2,0.3,4.1,0.7,6,1.3
		c10.5,3.2,20.6,4.4,31.1,0.6c25.1-9.2,46.1,8.2,47.9,34.1C1030.3,293.3,1030.1,295.6,1030.1,297.7z"/>
	<path d="M497.1,41.2h35c0.4,3.8,0.2,7.5,1.1,11c2.9,10.9,5.4,22,9.5,32.6c5.8,15.1,9.5,30.2,9,46.5c-0.7,23.8-0.3,47.7-0.1,71.5
		c0,5-1.7,6.3-6.3,6.2c-20.2-0.2-40.3-0.2-60.5,0.1c-4.9,0.1-6.2-1.5-6.2-6.3c0.2-29.1,0.2-58.3,0.1-87.4c-0.1-9.8,4.4-18,7.5-26.7
		c4-11.2,7.6-22.5,10.7-33.9C498,50.6,497.1,46,497.1,41.2z"/>
	<path d="M660.2,180.5c-5-5.7-9.7-11-14.4-16.4c-3-3.4-2.9-6.4,0.2-10c22.4-26.5,67.8-29.1,92.9-5.2c9.2,8.7,9.3,10.5,1.1,19.9
		c-3.4,3.9-6.9,7.5-10.7,11.6c0.7,1.2,1.5,2.3,2.5,3.2c7.5,5.7,9.5,13.2,8.9,22.5c-0.9,14.1-0.5,28.2-0.4,42.3c0,3.8-1.1,5.2-5,5.2
		c-27.1-0.2-54.3-0.3-81.3-0.2c-4.5,0-5.6-1.9-5.5-5.9c0.1-13.7,0.7-27.5-0.4-41.2c-0.8-9.7,1.4-17,9.2-22.5
		C658.4,182.8,659.3,181.7,660.2,180.5z"/>
	<path d="M601.4,299.6h52.1c-5.3,9.7,1.2,16.2,4.7,23.6c1.6,3.3,2.5,6.8,2.6,10.5c0.2,34.5,0.1,69,0.2,103.5c0,3.4-1.1,5.4-4.5,5.4
		c-20.5,0-41,0-62,0c-0.2-2.8-0.4-4.7-0.4-6.6c-0.2-34.3-0.3-68.6-0.4-102.9c0-2.5,0.2-5.4,1.5-7.4
		C600.2,317.7,604.3,309.7,601.4,299.6z"/>
	<path d="M500.9,765.6c-0.9,15.8-1.8,31.1-2.5,46.4c-0.8,17-1.3,34.1-1.9,51.1c-0.1,2.7,0.1,5.1-3.8,5.1
		c-27.1-0.1-54.3-0.1-81.4-0.2c-0.8-0.2-1.6-0.5-2.4-0.8c0-5.8,0.2-12.2,0-18.5c-1-26.2-2-52.4-3.1-78.6c-0.1-2.9-0.2-5,3.7-5
		c29.5,0.1,59,0,88.5,0C498.7,765.2,499.4,765.4,500.9,765.6z"/>
	<path d="M27.6,251.3c-0.3-5.8-1.2-11.6-0.8-17.4c0.3-3.6,2.5-7.1,3.9-10.6c0.9-2.2,2.8-4.2,3-6.4c0.9-8.9,5.6-14.5,13.8-17.7
		c1.4-0.6,2.2-2.8,3.3-4.2c3.5-4.7,7.5-8.1,13.8-8.6c2.4-0.2,4.9-2,7-3.6c3-2.2,5.4-3.9,9.8-3.4c7,0.7,14.2-0.6,21.3-0.2
		c3.3,0.2,6.6,2.3,9.8,3.7c2.2,1,4.3,3.4,6.5,3.4c6.5,0,9.7,4.2,13.2,8.5c1.7,1.8,3.5,3.3,5.6,4.6c5.4,4,11.2,7.6,11.2,15.7
		c0.1,2.9,1.2,5.6,3,7.8c3.7,4,3.7,8.5,3.3,13.3c-0.5,4.7-0.6,9.4-0.3,14.1c0.6,6.2-0.1,11.5-5.2,15.9c-1.8,1.5-2.9,3.7-3.2,6
		c-0.2,6.2-3.9,9.2-8.8,11.4c-3.4,1.5-6.4,3-7.7,7.1c-0.6,1.9-2.6,3.5-4.4,4.7c-5.3,3.4-10.4,7.6-16.3,9.4
		c-6.3,1.9-13.3,1.5-20.1,1.8c-3.8,0.2-7.7-0.1-11.5-0.9c-3.4-0.8-6.5-2.7-9.6-4.3c-1.1-0.6-1.8-2.2-2.9-2.4
		c-7.1-1.5-12.4-5-15.1-12c-0.3-0.8-2.2-1-3.3-1.5c-6.7-2.5-11.1-6.7-11.7-14.3c-0.2-2.1-1.2-4.1-2.8-5.6
		C27.9,261.7,26.6,256.9,27.6,251.3z M124.7,239l13.3-11.5l-11.3-11L113.9,227L124.7,239z M43.7,262.2c2.7,3.7,5,7.2,7.7,10.3
		c0.9,1,3.8,1.7,4.4,1.1c3.9-3.7,7.4-7.8,11.4-12.1l-11.9-10.3L43.7,262.2z M72.6,222.6l12.5-11.4C72,196.1,73,198,61.7,209.5
		c-0.1,0.1-0.1,0.3-0.3,0.8L72.6,222.6z M55.4,216.3L44,226.6l11.1,12.1c4.3-4.1,8.2-7.7,11.2-10.6L55.4,216.3z M108.6,223.1
		l11.4-12l-11.6-11.6l-11.6,10.6C100.8,214.5,104.5,218.6,108.6,223.1L108.6,223.1z M102.3,227.5l-11.7-10.8l-11.8,10.2l11.9,12.3
		L102.3,227.5z M119.6,246.2c-10.2-13.1-12.1-13.2-22.6-2c-0.3,0.4-0.5,0.9-0.7,1.4l12,11.7L119.6,246.2z M90.7,251.7l-11.5,9.5
		l11.3,11.7l11.8-10.4L90.7,251.7z M72.7,234.1l-10.1,9.2l11.1,13.8l11.5-12.2L72.7,234.1z M60.2,281.7c3,2.7,6.1,5.2,9.3,7.5
		c1.3,0.8,4,1.2,5,0.4c3.1-2.6,6.1-5.4,9-8.4l-10.4-12L60.2,281.7z M96.5,279.5l12.5,11.9l11.7-10.6l-12.5-11.4L96.5,279.5z
		 M125.6,251.8l-12.2,10.4l14,13.1l9.1-11.1L125.6,251.8z M80,193.5c3.8,4,7.5,7.8,11.4,11.8l11.8-12.4
		C96.9,187.6,86.8,185.8,80,193.5L80,193.5z M142.7,234.4l-10.5,9.9l9.8,11.9C146,248.7,146,242.2,142.7,234.4L142.7,234.4z
		 M38.6,254.3l12.6-9.7l-11.6-9.3C36,241,35.6,248.2,38.6,254.3L38.6,254.3z M81.5,294.4c6.3,2,11.6,3.7,16.8-0.7l-7.3-7.7
		L81.5,294.4z"/>
	<path d="M403.9,682.7l7.4,0.7c2.6,7.5,1.3,9.4-6.2,9.4l-47.9-0.3h-5.8c-2-8-1.7-8.3,7.4-9.9c-2.6-1.6-4.3-2.7-6-3.7
		c-21.4-12.7-31.9-32.2-34.6-56.3c-0.3-2.7,0.5-4.2,3.5-4.2c40.9,0.1,81.8,0.2,122.7,0.2c0.2,0,0.3,0.2,1,0.6
		C445,648,433.2,669.9,403.9,682.7z"/>
	<path d="M59.5,461.6c0-1.9,0-3.2,0-4.4c0.1-1.6,0.2-3.3,0.3-5.2l8.6-1.2c-8.7-5.9-17.8-11.2-25.8-17.7s-13.8-15.3-17.6-26h160.2
		c-9.4,21.7-25.5,35.3-47.5,42.7l0.6,1.3c1.1,0.3,2.2,0.6,3.4,0.8c1.2,0.2,2.2,0.2,3.5,0.3c0.3,0.6,0.6,1.3,0.7,2
		c1,8.6,0.9,8.8-7.7,8.7l-72.6-0.7C63.7,461.9,61.9,461.7,59.5,461.6z"/>
	<path d="M221,230.4h140c-1.3,12.3-6.9,21.9-14.7,30.3c-7.8,8.5-17.7,13.9-28.6,18.5c5.8,0.6,7.1,3.6,5.3,8.6h-65.1
		c-0.1-2.3-0.2-4.6-0.3-7.1l6.1-1.8C241,269.6,226,254.9,221,230.4z"/>
	<path d="M539.4,393.5c-4.9,0-9.9,0.4-14.8-0.1c-6.1-0.6-9-3.5-9.1-9.7c-0.2-22.7-0.1-45.4,0-68.2c0-2,0.8-3.9,2.2-5.4
		c4.4-4.1,5.5-9.2,5.7-14.9c0.5-12.8,1.3-25.6,1.9-38.4c0.1-1.1,0-2.2-0.2-3.3c-2-7-2-7,5.4-7c6.4,0,12.8,0.2,19.2,0.2
		c4.1,0.1,4.3,2.3,3.3,5.5c-0.8,2.5-1.7,5.1-1.6,7.7c0.8,13,1.9,25.9,3.2,38.9c0.2,2.9,1.3,5.7,3.2,7.9c3.7,4,4.6,8.4,4.5,13.5
		c-0.2,19.8,0,39.6-0.1,59.4c0,10.8-3.4,14.2-14.1,14.2h-8.8L539.4,393.5z"/>
	<path d="M747.4,593.4c0.6,13.7,1.1,27.8,1.7,41.8c0.4,9.9,0.8,19.8,1.3,29.6c0.3,4.7-2,7-6.3,7.1c-4.3,0.1-7.1-1.5-6.9-6.8
		c0.7-22.2,0.9-44.3,1.6-66.5c0.1-4.5-1.3-6-5.6-7.4c-16-5.3-27-15.8-29.5-32.9c-2.4-16.3,3.8-29.6,17.8-38.6
		c17.2-11.1,41-6.8,52.8,9c12.6,16.8,10.1,39.2-6.1,53.4c-2.9,2.6-6,4.8-9.4,6.7C755.4,590.5,751.7,591.6,747.4,593.4z"/>
	<path d="M415.1,109.5c4.4,2.7,3.3,4.8,0,6.6c-1.3,0.7-2.7,1-4.2,1c-15,0.1-30,0-46.6,0l3.9-8.5c-20.8-9.3-34.4-25-38.5-49.5h128.1
		C457,80.4,438.5,102.4,415.1,109.5z"/>
	<path d="M599.4,88.2c5.3,1.9,5.2-1.3,5.2-4.4c-0.1-18.9-0.1-37.8-0.1-56.7c0-1.3-0.4-2.8,0.1-3.8c0.7-1.2,2.2-2.7,3.3-2.7
		c1.1,0,2.8,1.7,2.9,2.9c0.3,3.3,0.3,6.6,0.2,9.9c0,18.3,0,36.6,0,54.9c5.3,1.7,5.1-1.5,5.1-4.5c-0.1-18.3-0.3-36.7-0.2-55
		c0-3-2.1-8.1,3.4-8.1c5.5,0,3.5,5.2,3.5,8.2c0.2,24.4-0.1,48.8,0.3,73.2c0.1,7.5-2.1,13.7-7.5,18.1c-9.9,8-11.9,17.9-11.1,30.2
		c2,31.8,3,63.7,4.2,95.6c0.3,7.6-5.9,11.4-11.9,7c-2-1.4-3.3-5.2-3.2-7.9c0.6-20.3,1.7-40.7,2.4-61c0.6-15.9,1.2-31.9,1-47.8
		c-0.3-4.5-2.2-8.8-5.4-12.1c-10.1-10.2-12.9-21.9-12.2-36c1.1-20.3,0.3-40.7,0.3-61c0-1.3-0.3-3,0.3-3.7c1.1-1.3,2.6-2.2,4.3-2.5
		c0.7-0.1,2.4,2.2,2.4,3.4c0.2,6.6,0.1,13.2,0.1,19.8v44.4c5.3,1.9,5.5-1.2,5.5-4.6c-0.1-18.7-0.1-37.4-0.1-56.1
		c0-1.5-0.3-3.1,0.2-4.4c0.4-1.1,1.9-2.6,2.8-2.5c1.5,0.2,2.8,1.1,3.5,2.4c0.6,1.8,0.4,4,0.4,6c0.1,17.8,0.1,35.6,0.1,53.4
		L599.4,88.2z"/>
	<path d="M169.9,367.3c10.6,1.4,16.9,6.6,17.4,14.5H31c-0.9-7.6-0.3-14.9,5.8-20.9c6.1-6,13.4-8.3,21.7-6.6
		c7.1,1.5,10.6,6.9,11.3,16.8c0.3,3.3,0.2,6.6,5.6,4.6c0.3-7.5,0.2-14.8-5-21.2c-0.8-1.3-1.1-2.9-0.6-4.4c4.2-11,12.6-17,24-18.3
		c11.9-1.4,21.8,2.3,27.8,13.4c1.3,2.5,1.8,5.4,2.5,7.7c-5.7,1-11,1.4-15.9,3c-6.5,2.2-10.3,7.4-11.7,14.1c-0.2,1.1,0.7,2.5,1.1,3.7
		c1.1-0.9,2.7-1.6,3.1-2.7c2.7-7.7,8-11.7,16-11.9s14.6,2.6,18.2,10.6c0.6,1.3,1.9,2.2,3.7,4.2c1.4-10.3-4.4-14.9-10.3-19.2
		c4.8-6.6,12.8-8.8,21.8-6.3c9,2.5,14.5,9.1,15.1,18.1c0.2,2.7-0.1,5.5,0.2,8.2c0.1,0.9,1.3,1.7,2,2.5c0.9-0.9,2.3-1.6,2.5-2.6
		C170,372.2,170.1,369.7,169.9,367.3z"/>
	<path d="M773.4,865.9c-23.2,0.3-42.5-18.1-43.2-41.3c-0.8-21.5,22.1-41.4,44.4-41.3c21.1,0.1,38.6,18.7,39.6,40.5
		C814.9,842.3,794.1,868.6,773.4,865.9z M740.4,832.4l6.3,12l11.4-12H740.4z M766.8,857.9v-18.7l-13.4,12.6L766.8,857.9z
		 M798.7,844.5c1.7-3.2,3.5-5.6,4.4-8.2c0.4-1.1-1.1-4-1.9-4c-5-0.4-10.1-0.2-16.5-0.2L798.7,844.5z M778.1,838.2v19.1l13.5-4.8
		L778.1,838.2z M801.5,809.8l-14.3,11.6h18.7C804.4,817.5,803.1,814.1,801.5,809.8z M739.3,821.2h18.3l-14.4-11.6L739.3,821.2z
		 M788.4,796.8l-9.3,16.6l1.6,1.3l14-12.5L788.4,796.8z M764,813.4l1.1-0.8l-7.4-15.7l-7.2,5L764,813.4z M779,792.8h-11.1
		c1.5,4.5,2.8,8.6,4.6,13.9L779,792.8z"/>
	<path d="M760.2,423.9v44.6c0,2,0.7,4.4-0.2,5.9c-1,1.8-3.4,2.7-5.2,4c-0.6-1.5-1.8-2.9-1.9-4.4c-0.2-14.7-0.3-29.3-0.2-44
		c0-4.4-1.2-6.6-5.8-8.1c-24-8.2-33.7-35.3-20-55.1c9.8-14.6,29.1-19.6,44.8-11.7c14.6,7.2,22.1,25.4,16.9,41.7
		C784.1,410.9,774.2,419.3,760.2,423.9z"/>
	<path d="M816.7,591.6c-0.2-2.2-0.6-4-0.6-5.8c-0.1-18.9,0-37.8-0.4-56.7c-0.2-3.5-1.5-7-3.6-9.8c-3.2-4.4-7.5-8-11.1-12.1
		c-14.6-16.7-15.9-39.2-3.3-55.6c11.6-15.1,31.7-15.6,44.1-1c11.8,13.8,12.7,34.7,1.5,50.6c-4.5,6.4-10.4,11.8-15.9,17.3
		c-3.3,3.3-5,6.7-4.9,11.6c0.5,18,0.5,35.9,0.9,53.9C823.3,588.4,822,591.1,816.7,591.6z"/>
	<path d="M820.9,252.9c1.8-3.1,3.5-6.3,5.1-9c6.9-2.1,14.2-3.8,21-6.6c9.9-4.1,14-13.2,11-23.4c-1.5-5.2-5.2-8.2-10.8-8.8
		c-2.4-0.2-4.8-0.9-7.7-1.4c3.8-6.7,8.6-4.7,13-3.5c8.2,2.1,11.2,7.7,11.8,20.6c4.4-3.1,8.9-7.3,14.1-9.7c5.7-2.6,11.8-1.5,17.3,2.2
		c-0.7,3.3-2.4,5.4-5.7,4.1c-9.6-3.7-15.8,0.6-20.9,8.1c-1.7,2.5-3.5,5-4.8,6.8l21.3,2.9c-2.7,5.4-5.2,6.9-9.9,5.5
		c-12-3.6-12.2-3.3-17.9,9.5l19.4,4.1l-5.2,6.5c-10.5-7.4-20-6.7-28.4,3.3c2.6,1.1,5.1,2.3,7.5,3.7c8.5,5.5,8.6,15.2,0.1,20.7
		c-2.8,1.7-5.9,2.9-9.1,3.5c-1.3,0.2-2.9-1.8-4.4-2.8c1.3-1.4,2.8-2.6,4.3-3.8c0.6-0.4,1.9,0.5,2.6,0.2c2.2-0.9,5.6-1.6,6.3-3.3
		c0.7-2.5,0.1-5.3-1.5-7.3c-4.5-5-10.5-6.5-17-4.8c-2.4,0.6-4.8,1.5-7.5,2.4l9,5.4c-7.5,9.5-16.2,15.6-28.1,13.5
		c-8.1-1.5-13,1.2-16.5,8c8.8,5,15.9,4.7,21.8-2.2c3.1-3.6,5.9-3.1,9.5-2.2c-4.7,10.3-16.9,15.9-29.4,13.6
		c-10.4-1.9-10.4-1.9-16.6,7.8c11.1,5.7,14.3,5.4,23.1-2.2c2.4-2.1,4.4-3,7-0.5c-5.4,10-13,14.8-23.3,11.9
		c-9.8-2.7-16.5-1.5-21.3,7.9c-1.7,3.3-4.9,4.1-9,1.6c1.5-1.9,2.8-3.5,4.1-5.1c4-4.7,6.1-9.9,5.5-16.2c-0.5-4.7-2.5-7.2-7.3-8.1
		c-2.2-0.4-6-3.1-5.8-3.9c1-4.3,4.6-3.6,8-2.8c8.1,2,10.9,7.9,11.5,16.4c5.1-5.6,8.6-10.7,7.6-18c-1.2-9.1-9.9-6.4-16.5-10.8
		c3.6-1.5,6.2-3.6,8.6-3.4c8.4,0.7,12.2,5,14.2,14.7c6-4.7,8.8-15.7,4.7-21.5c-1.3-1.8-4.6-2.2-6.9-3.4c-1.7-0.9-4.7-2.1-4.6-2.9
		c0.3-3.4,3-4.4,6.1-3.5c6,1.9,12.3,4.7,12.5,12.7c0.2,1.7,0.6,3.4,1.1,5.1c4.9-6.6,7.8-13,5.9-20.7c-1.7-7.2-7.9-7.8-13.7-8.8
		c0.9-5.5,3.7-7.2,8.7-5.1c7.6,3.2,10.9,9.4,10.7,17.6l1.4,0.4c2-4.7,4.6-9.2,5.8-14.1c1.1-4.3-2.3-6.8-6.1-7.8
		c-3-0.7-6.2-0.4-9.2-0.9c-1.7-0.3-3.2-1.5-4.8-2.2c1.3-1.4,2.4-3.4,4-3.9C808,234.8,817.8,240.9,820.9,252.9z M813.9,266.7
		c17,1.1,36.3-11.9,40-25.7c-5.1,2-10,5-15.2,5.7C826.6,248.4,822.1,258.5,813.9,266.7z M825.7,279.2c-9.5-7.6-18.1-6.1-23.6,3.7
		C809.7,287.2,819,285.8,825.7,279.2L825.7,279.2z"/>
	<path d="M463,284.4c1.3,6-2.6,5.9-6.5,5.9h-52.8l4.7-8.5c-1.6-1.1-4.3-2.8-6.9-4.7c-9.4-6.6-16.1-16.4-18.8-27.5
		c-0.8-3.1-0.4-4.5,3-4.5l103.8,0.1c0.2,0,0.3,0.2,1,0.5c-4.3,17.8-16.2,29-33.2,37L463,284.4z"/>
	<path d="M534,826.1c0.9-28.2,1.6-56.4,3-84.6c0.5-7.1-1.8-14.1-6.3-19.6c-8.8-11.5-12.2-24.4-9-38.8c1.6-7.2,6-12.6,12.1-16.3
		c7.2-4.4,15.9-2.7,21.4,4.8c9,12.2,9.4,25.6,3.4,39.1c-2.6,5.9-6.9,11.2-11,16.3c-2.7,3-4,6.9-3.9,10.9
		c1.7,39.2,3.4,78.4,4.9,117.6c0.2,2.9,0.2,5.9,0,8.8c-0.4,4.6-3.9,7.8-7.8,7.7c-5-0.2-8.3-3.3-8.3-8.3c-0.1-12.5,0-24.9,0-37.4
		L534,826.1z"/>
	<path d="M297.8,555.3c0.6-2.5,1.8-5,1.8-7.4c0.2-11,0-22,0-33c0-1.5-0.4-3.2,0.2-4.3c0.8-1.6,2.5-2.7,3.8-4
		c0.8,1.5,2.4,2.9,2.4,4.4c0.3,12.8,0.6,25.7,0.2,38.5c-0.1,3-1.9,6.4-4,8.7c-20.5,24.2-16.1,16.8-15.7,46.4c0.4,28,1.8,56.1,3,84.1
		c0.2,4.7-2,6.8-6,7.7c-4.4,1-7.4-1.8-7.3-7c0.5-22.5,1.2-45.1,1.7-67.6c0.3-13.6,1-27.2,0.2-40.7c-0.5-5.3-3-10.1-7-13.6
		c-11.8-9.5-14.6-21.6-13.4-35.7c0.5-5.6-0.1-11.4,0-17c-0.1-1.8,0.3-3.6,1.1-5.2c0.7-1.2,2.4-1.8,3.6-2.7c0.6,1.3,1.8,2.6,1.8,3.9
		c0.2,11.4-0.1,22.8,0.3,34.1c0.1,3.2,1.9,6.4,2.9,9.6l1.5-0.5c0-12.7,0-25.4,0-38.2c0-1.7-0.4-3.5,0.2-4.9c0.6-1.4,2.1-2.9,3.2-4.3
		c0.9,1.4,2.5,2.7,2.6,4.1c0.4,4.6,0.2,9.2,0.2,13.7c0,10.1-0.1,20.2,0.1,30.3c0,2,1.5,4,2.3,5.9l2-0.6c0-6.9,0-13.7,0-20.6
		c0-8.6-0.2-17.2-0.2-25.9c-0.2-1.6,0-3.3,0.6-4.8c0.8-1.1,2-1.9,3.3-2.1c0.5-0.1,1.6,1.7,1.9,2.8c0.2,1.3,0.2,2.6,0.1,3.8v46.5
		c4.4-0.7,4.1-3.9,4.1-6.6c0-12.8-0.1-25.7,0.1-38.5c0-3-1.5-7.9,3.3-7.9c4.5,0,2.6,4.9,2.6,7.6c0.2,11.9,0.2,23.8,0.2,35.8
		c0,1.6,0.2,3.1,0.3,4.7L297.8,555.3z"/>
	<path d="M782.2,750c-19.2-0.4-33.8-15.1-33.3-33.5c0.4-15,17.3-29.6,33.7-29.2c17.5,0.4,31,14.3,30.8,31.4
		C813.2,734,798.3,751.5,782.2,750z"/>
	<path d="M986.5,630.2c17.9,0.1,32.4,14.7,32.3,32.6c0,0,0,0.1,0,0.1c0,17.6-15.7,34.1-32.4,34c-18.6-0.2-34-16.5-33.9-36.2
		C952.7,645.4,969.6,630.2,986.5,630.2z M989.2,653.6c0.4-0.8,0.8-1.6,1-2.4c0.2-1.7,0.3-3.3,0.4-5c-1.7,0.1-4.1-0.5-5.1,0.4
		c-2.6,2.3-5.8,5.1-6.5,8.1c-1.2,5.5-0.5,11.3-0.8,17c-0.3,4.6,2.2,7.3,6.1,8.6c3.7,1.2,7.4,1,9.7-2.8c2.3-4-0.1-6.9-2.9-9.5
		c-0.2-0.3-0.5-0.5-0.7-0.8C996.6,660.2,996.5,659.1,989.2,653.6z"/>
	<path d="M383.6,419.8c0.5-1.8,0.9-3.6,1.1-5.5c0.2-4,0.6-8.1,0-12.1c-1.3-9.6,3.5-16.2,10.1-21.9c6.9-6.2,15.6-10.1,24.7-11.3
		c-1.7,20.4-5.1,39.3-23.9,50.3c-8,4.7-10.5,10-9.7,18.9c1,12.4,0.7,24.9,0.5,37.4c0,2-2,5.4-3.4,5.5c-3.8,0.5-3.2-3-3.2-5.5
		c0-15,0.1-30.1-0.3-45.1c-0.2-2.6-1.5-4.9-3.6-6.4c-19.4-10.8-27-28.6-30.3-49.1c-0.8-5.4,0.5-6.7,5.5-4.8
		c5.9,2.1,11.5,4.6,16.9,7.7c7.9,4.6,12.9,11,11.6,21.1c-0.6,5-0.1,10.3,0.2,15.4c0.1,1.8,1.2,3.6,1.8,5.5L383.6,419.8z
		 M395.1,408.4c5.6-3.7,6.4-8.5,5.9-13.7c-0.1-1.2-1.4-2.2-2.1-3.4c-1.1,0.8-2.7,1.3-3.3,2.4C393.3,398.3,393.7,403,395.1,408.4
		L395.1,408.4z"/>
	<path d="M668.9,580.1l6.3,4.8l-17.4,27.6l16.6,1v11.7c-3.6,0-6.8-0.1-10.1,0c-7.1,0.2-7.4,0.6-7.2,7.6c0,1.6,0.2,3.2,0.4,5.2
		l15.4-4.6c4.5,9,4.5,9-4.2,13.2l-8.4,4c1.4,3.3,2.7,6.2,4.2,9.9l12.8-9.8l6.4,8.6L671.7,670l8.8,8.9l8.3-11.5l10.6,5.3l-9.7,12.8
		l22.3,5.7c1.3,9.1-1.5,11-9.4,9.5c-28.6-5.4-46.6-23.4-54.4-50.6c-7.4-25.7-1-48.9,18.5-68C667.2,581.4,667.8,580.9,668.9,580.1z"
		/>
	<path d="M1007,442.8c0-16.9,0-33.8,0-50.6c0-6.5,3.3-10.7,8.8-11.1c5.5-0.4,9.8,3.4,10.7,9.6c0.2,1.6,0.3,3.3,0.2,4.9
		c0,31.9,0.1,63.8,0,95.8c0,5.3,0.8,11-4.4,15.2c-3.6,2.9-6.6,2.7-9.8,0c-4.1-3.4-5.6-7.9-5.5-13.2
		C1007.2,476.5,1007.1,459.6,1007,442.8L1007,442.8z"/>
	<path d="M41.6,646.4c2.5,11.8,5,23.2,7.5,35.1h9.3c3.6,2.7-2,9.8,6.2,9.2v-8.9c0.9-0.2,1.8-0.4,2.7-0.4c13.3,0,26.7,0,40.6,0
		c0.2,3,0.3,5.8,0.5,9.3h12.7v11.7H10.5c-0.1-3.8-2.2-8.7,2.5-10.5c3.5-1.3,7.8-0.3,12-0.3c0.3-3.6,0.5-6.2,0.8-9.1
		c1.1-0.2,1.9-0.4,2.8-0.4c10.4-0.6,10.5-0.6,8.8-11.1c-0.8-5.1-1.5-10.1-2.8-15.1C33.2,650.4,35.3,647.6,41.6,646.4z"/>
	<path d="M334.6,534c0.3-15.7,15.3-29.3,32.2-29c16.2,0.3,29.9,14.1,29.5,29.6c-0.4,17.2-14.4,31.8-30.3,31.6
		c-17.4-0.1-31.5-14.3-31.4-31.8C334.5,534.3,334.6,534.2,334.6,534z M361.9,545l-11.5,9.3l11.5,5.1V545z M341.4,531.4h15l-10.6-9.9
		C344.2,525.1,343,527.9,341.4,531.4z M369.4,526.5l10.1-10.9l-10.1-3.3V526.5z M361.8,512.4l-10.6,3.9l10.6,9.3V512.4z
		 M345.6,548.6c3.9-3.3,7-5.9,10.8-9.2H342L345.6,548.6z M369.7,559.4l7.9-3.9l-7.9-9.4V559.4z M385.1,521.8l-10.4,9.2h14.6
		L385.1,521.8z M374.9,539.7l10.6,8.9c1.3-3.5,2.2-5.9,3.3-8.9H374.9z"/>
	<path d="M821,778.2c0.4-5.7,4.1-10.7,9.4-12.8c4-1.8,5.4-4.3,5-8.6c-0.6-5.8-1.3-11.7-0.9-17.5c0.4-3.1,2.1-5.9,4.6-7.7
		c1.5-0.9,6,0.6,7.4,2.4c6.1,7.8,11.6,16,17,24.2c0.8,1.2,0.6,3.7,0,5.2c-3.6,8-3,16.1-0.4,24.2c1.5,4.6,0.8,8.3-2.4,12.1
		c-4.4,5.3-8.1,11.3-12.3,16.8c-1.3,1.7-2.9,3.2-4.8,4.3c-3.5,1.8-5.7,0.5-5.9-3.5c-0.4-5.9-0.7-11.7-0.7-17.6
		c0-3.1-0.9-4.9-3.9-6.3C826.4,790.3,822.1,785.3,821,778.2z"/>
	<path d="M942,747.5c0.1,1.8,0.1,3.7,0,5.5c-0.9,6.8,0.9,10.9,8.2,13.6c9.1,3.3,10.3,13.2,3.5,20.1c-0.7,0.9-1.5,1.6-2.5,2.1
		c-8.6,3.7-10.9,10.4-9.1,19.1c0.4,1.8,0.6,3.9-0.1,5.4c-1,2.1-2.5,4.6-4.5,5.5c-1.3,0.6-4.6-0.8-5.4-2.2
		c-5.9-9.6-11.5-19.5-17.1-29.4c-0.3-0.9-0.5-1.8-0.4-2.7c-0.3-8.3-0.7-16.7-0.9-25.1c0-1.8,0.5-3.5,1.5-5
		c4.6-6.4,9.4-12.6,14.3-18.8c1.3-1.7,3-3.2,4.9-4.4c4-2.4,7.3-0.6,7.6,4C942.2,739.5,942,743.5,942,747.5L942,747.5z"/>
	<path d="M191.1,388.6c-0.8,3.8-0.9,7.1-2.3,9.7c-0.8,1.5-3.7,2.6-5.7,2.6c-22.2,0.2-44.3,0.2-66.5,0.2c-30.2,0-60.5,0-90.7,0
		c-4.6,0-9.1-7.4-6.6-11.3c0.7-1.1,3.1-1.4,4.8-1.4c46.5,0,93.1,0.1,139.6,0.2C172.6,388.6,181.5,388.6,191.1,388.6z"/>
	<path d="M757.3,66.6c0,14-11.7,26-25.3,26.1c-15.1,0.1-27-11.3-27.1-26c-0.1-12.5,12.9-24.9,26.1-24.9
		C745.6,41.6,757.3,52.7,757.3,66.6z"/>
	<path d="M837.3,604.8c15.7,0,27,11.9,27.4,27.7c0.2,12.1-12,29.4-26.9,28.6c-16-0.7-28.4-12.8-28.5-29
		C809.1,617.6,822.2,604.8,837.3,604.8z M833.7,632.8L833.7,632.8c0-2.7,0.2-5.5-0.1-8.2c-0.1-1.3-0.7-3.3-1.5-3.5
		c-1.1-0.3-2.8,0.4-3.9,1.2c-6.5,5-6,17.4,0.9,22c2.9,1.9,4.4,1.1,4.6-2.2C833.8,639,833.7,635.8,833.7,632.8L833.7,632.8z
		 M840.4,646c7-2.4,8.9-6.6,9.5-11.6c0.7-5-1.2-10-5.1-13.3c-1.9-1.6-4.2-1.4-4.3,1.6C840.3,630.2,840.4,637.6,840.4,646z"/>
	<path d="M434,611.9c-3.2,0.2-4.1,0.3-5,0.3H328.8c0.2-6,1.9-7.5,9.8-8.9c2.3-8.6,5.7-11.6,12.5-10.5c2.1,0.5,4.1,1.4,5.7,2.8
		c3,2.2,4.7,1.4,7.1-1.2c3.5-3.7,7.4-7.6,11.9-9.9c5.4-2.7,10.4,1.5,11.9,9c4.2,1,7.2,0.6,9.9-3.8c3.7-6.1,13.1-4.6,16.6,2.3
		c0.9,2.1,1.5,4.2,1.9,6.4c4.4,1,9.2,0.9,12.4,3C431.2,603.1,431.9,607.6,434,611.9z"/>
	<path d="M65.2,513.7l4.8-3.2l18.5,19l1.4-0.8c-0.5-3.4-0.2-6.6-3.5-9.7c-5.3-5-10.1-10.6-14.8-16.1c-2.6-3-2.4-3.2,2-6.6l14.4,15.3
		l1.3-0.7c-0.5-1.6-1.2-3.2-2-4.7c-2.4-3.5-5-6.8-7.6-10.1c-3.3-4.1-1.8-6.4,2.7-8.1c3.7,4.6,7.3,9.1,11.3,14.1
		c4.2-5.1,7.9-9.5,11.6-14.1c3.4,1.4,4.7,2.9,2.1,6.1c-3.4,4.3-6.6,8.8-9.6,13.4c-1,1.9-1.9,3.9-2.5,5.9l1.4,0.8
		c4.4-4.8,8.7-9.7,13.4-14.2c1.2-1.2,3.5-1.4,5.2-2c-0.4,1.7-0.4,3.8-1.4,5c-4.6,5.7-9.8,10.9-14.3,16.7c-2.1,2.7-3.3,6.2-4.9,9.3
		l1.8,1.1c5.1-5,10.2-10.1,15.5-14.9c1.2-1.1,3.3-1.3,4.9-2c-0.5,1.7-0.5,3.8-1.6,5.1c-5.2,6.2-10.5,12.3-16,18.2
		c-2.4,2.5-3.7,5.8-3.6,9.3c0.2,33.9,0.1,67.9,0.2,101.8c0,1.3,0.4,2.8-0.1,3.8c-0.8,1.6-2,3.9-3.4,4.2c-3.3,0.7-3.6-1.8-3.6-4.5
		c0.2-21.3,0.2-42.6,0.3-63.8c0.1-12.8-0.2-25.7,0.4-38.5c0.3-6.6-1.4-11.3-6.3-15.8C77,527.3,71.7,520.7,65.2,513.7z"/>
	<path d="M707.5,461.4h18.9c0,7.5,0.3,14.4-0.2,21.3c-0.1,1.5-3.2,3.7-5.1,4c-4.1,0.6-8.3,0.2-13.5,0.2c0,5.1-0.2,10,0,14.9
		c0.2,3.9-1.1,5.8-5.3,5.6c-4.2-0.2-8.4-0.2-12.6,0.1c-4,0.3-5.2-1.6-5.1-5.2c0.1-4.9,0-9.9,0-15.8c-5,0-9.5-0.1-14,0
		c-3.4,0.1-5.1-1.1-4.9-4.8c0.2-4.9,0-9.9,0-14.8c0-3.7,1.6-5.8,5.7-5.6c4.5,0.2,9.1,0,14,0c0-4.9,0-8.8,0-12.8
		c0-4.2,1.6-6.6,6.2-6.4c5.1,0.2,10.2,0,15.9,0L707.5,461.4z M673.4,480.7c3.7,0,7.3,0.9,10.1-0.2c3-1.4,5.4-3.8,6.9-6.8
		c0.4-0.8-3.1-5-5.4-5.7c-3.5-1-7.5-0.3-11.5-0.3L673.4,480.7z M701.9,473c0.6,0.7,1.2,1.5,1.7,2.3c2.7,5.5,7.7,5.6,12.6,4.8
		c1.3-0.2,3.2-2.7,3.2-4.1c0-2.7,2.1-7-2.5-7.6C711.6,467.6,705.9,467,701.9,473L701.9,473z M696,479.5c-4.5,3.6-5.6,10.7-3.1,22
		c2.6-0.8,6.2-0.7,7.5-2.4C703,495.6,699.7,483.2,696,479.5L696,479.5z M698,469.4c4-6.5,2.7-13.1,1.8-19.5
		c-0.1-0.7-2.4-1.5-3.6-1.4c-1.4,0.1-2.6,0.7-3.5,1.8C690,455.3,692.7,465.3,698,469.4z"/>
	<path d="M494,593.3c4.4-7.1,9.5-12.1,17.5-12.9c8-0.8,13,3.3,13.9,11.3c1.1,9.7-2.6,18.2-8,25.7c-5.4,7.5-11.8,13.9-17.6,21.1
		c-1.7,2-2.7,4.4-2.9,7c0,12.6,0.3,25.3,0.8,37.9c0.2,4.9-1.9,6.9-7.1,7.7c-0.2-2.3-0.6-4.3-0.6-6.4c0.2-12.6,0.7-25.3,0.4-37.9
		c-0.3-3.5-1.7-6.9-4-9.5c-9.5-10.8-18.6-21.7-22.9-35.8c-2.7-8.7,0.4-16.1,8.1-19.7c6.9-3.2,14.7-0.5,19.4,6.7
		C492,589.8,492.8,591.3,494,593.3z M496.6,631.3l1.9,0.8c7.9-10.2,18-19,19.9-32.9c0.3-3.1-0.1-6.2-1.2-9.1
		c-1.5-4.2-5.1-5.4-8.9-3.3c-6.7,3.8-11.1,9.8-11.6,17.6C496.2,613.3,496.6,622.3,496.6,631.3z M489.9,632.2
		c0.4-1.6,0.7-3.2,0.9-4.8c0.1-7.1,0.2-14.3,0.3-21.4c0.1-8.2-4.4-13.9-10.9-17.9c-6.5-4-11.1-0.6-11,6.8c0.1,1.5,0.3,2.9,0.7,4.3
		C473.2,611.9,481.5,621.4,489.9,632.2L489.9,632.2z"/>
	<path d="M806.8,144.6c1-7.2,5.4-13.3,11.6-15.3c6.3-2,10.6,0,15.7,6c6.6,7.8,13.3,15.5,20.2,23c4,4.3,4.8,8.8,2,14
		c-5,9-13.9,11.8-22.7,6.7c-9.9-5.7-18-13.3-23.1-23.6C808.8,152,808,148.2,806.8,144.6z"/>
	<path d="M721.9,706.2c1.5,8.1,0.4,9.7-7.9,11c-20.4,3-38.4-3-54.4-15.5c-23.6-18.6-32.8-43.7-32.4-73c0.1-9.8,1.1-10.6,11.6-11.5
		c-4,25.1,1.7,48,18.3,67.1C674.2,703.9,696.2,711.2,721.9,706.2z"/>
	<path d="M491.3,333.7c-0.3,16.1-13.4,29.1-29.2,28.8c-15.6-0.3-27.7-13.6-27.3-29.7c0.3-12.3,16-25.5,30.1-25.2
		C480.2,307.7,491.6,319,491.3,333.7z M459.3,315c-9.2,0.9-16.3,8.9-16,16.7h17.2C460.1,325.9,459.7,320.7,459.3,315z M466.9,315.5
		v16.1H484C483,323.3,480.1,320.5,466.9,315.5L466.9,315.5z M466.6,355c6.9-1.1,11.7-3.8,15-9.1c2.2-3.4,0.7-5.6-2.5-6.9
		c-7.5-3.2-12.6,0.1-12.6,8V355z M459.6,354.6c2.9-13.2-2.4-18.2-15.7-15.3C443.9,347.1,450.6,353.8,459.6,354.6L459.6,354.6z"/>
	<path d="M777.8,161.2c-0.1-5.8,5-12,11.4-13.9c6.1-1.8,11.6,0.1,14.8,6.2c4.5,8.8,10.5,16.8,17.7,23.5c5.7,5.3,6,10,2.2,15.6
		c-4.5,6.9-9.7,9-16.8,6.4c-9.5-3.5-16.2-10.6-21.5-18.8c-3.7-5.7-6.1-12.2-9.1-18.3L777.8,161.2z"/>
	<path d="M892.9,732.9c0-5.5-0.1-11,0-16.5c0.2-7.7,5.8-13.5,14.2-14.9c8.7-1.4,18.3,2.8,20.2,9.5c0.8,3,0.5,6.2-0.8,8.9
		c-6.5,11.8-13.3,23.5-20.5,35c-1.4,2.3-6.2,5-7.6,4.2c-2.5-1.4-4.7-5.2-5.1-8.2C892.5,745,893,738.9,892.9,732.9L892.9,732.9z"/>
	<path d="M390,139.7c0.9,5.9-1.8,7.6-6.5,7.5c-15.9-0.1-31.9,0.1-47.8-0.1c-10.2-0.1-17.6-5.8-23.6-13.2c-2.4-2.9-4.2-3.5-7.8-2.1
		c-9.7,4-20.3,0.3-25.8-8.6c-6.1-9.8-5.4-18.6,2.2-26c8.3-8,20.1-9.5,28.6-3.6c8.6,5.9,11.7,16.3,7.1,26.2c-1.5,3.2-1,5.4,0.7,8
		c5.5,8.4,12.7,13.1,23.3,12.6c14.6-0.7,29.3-0.5,44-0.7C386.1,139.6,387.9,139.7,390,139.7z M295.5,97.5c-6.6,0-13.6,6.9-13.5,13.4
		c0.1,7.7,7.2,14.9,14.8,15.1c7.6,0.1,14.5-6.8,14.6-14.3C311.3,104.8,303.2,97.5,295.5,97.5z"/>
	<path d="M885.8,824c0.3,4.4,0.4,8.8,0.8,13.2c0.5,5.1-1.6,8.8-5.9,11.5c-8,5-20,4-26-2.2c-4-4.1-5.4-9-2.7-14.1
		c5.8-10.8,12.1-21.3,18.3-31.9c1.9-3.3,5.2-5.7,8.7-3.8c2.6,1.5,5.3,4.8,5.8,7.6c1.2,6.4,1,13.1,1.3,19.7L885.8,824z"/>
	<path d="M892.9,821.8c0-5.3-0.2-10.6,0-15.9c0.2-4.7,2-8.7,7-10.1c5-1.3,8.3,1.6,10.4,5.4c5.6,10.5,11.3,20.9,15.9,31.9
		c3.8,9-5,18.8-15.2,18.1c-12.7-0.9-18.2-6.9-18.3-19.6v-9.9L892.9,821.8z"/>
	<path d="M876.8,760.4c-3.7-5.2-7.6-9.9-10.8-15.2c-4.4-7.1-8.3-14.6-12.5-21.9c-5.3-9.4-2.4-17.1,7.9-20.6c5.6-2.1,11.7-1.6,17,1.2
		c4.3,2.3,6.9,5.6,6.9,10.9c0,10.6,0.3,21.2,0.2,31.8C885.6,753.3,884,755.7,876.8,760.4z"/>
	<path d="M505.5,726.2c0.3,0.5,0.5,0.6,0.5,0.7c0.5,11.8,0.4,12-11.5,11.9c-30.6-0.2-61.2-0.5-91.8-0.7c-3.8,0-6.8,0-6.6-5.4
		c0.2-4.6,0.4-7.4,6.4-7.3c33.4,0.4,66.7,0.4,100.1,0.5C503.6,726,504.5,726.1,505.5,726.2z"/>
	<path d="M210.5,285.1c0,10.1-10.2,21.4-19.3,21.4c-11.7,0-21.7-9.6-21.8-21c-0.1-10.2,10.5-19.7,21.8-19.7
		C201.7,266,210.3,274.5,210.5,285.1z"/>
	<path d="M923.6,655.8c0,10.6-9.6,20.8-19.4,20.8c-11.7,0-21.3-10.1-21.2-22.1c0.1-9.5,10.5-18.6,20.9-18.6
		c10.7-0.2,19.5,8.3,19.7,19C923.7,655.2,923.7,655.5,923.6,655.8z"/>
	<path d="M965.9,255l-1.3-5.6c-12.7,1.6-20.9-5-27-15c-1.2-2-1.8-5.5-0.9-7.4c0.7-1.4,4.5-1.9,6.8-1.6c9.7,1.2,17.5,5.9,24.2,14.6
		c5.8-16,16.5-24.1,32.6-24.6c1.7,13.2-8.9,29.9-21.1,33.8c-2.8,0.9-6.1,0.6-7.5,4.4C971.4,254.6,968.2,254.5,965.9,255z"/>
	<path d="M634.8,540.6c-0.1-10.3,9.5-19.7,20.2-19.7c10.5,0,19.6,8.7,19.6,18.9s-9.9,20.9-19.4,21
		C644.1,560.6,635.1,551.7,634.8,540.6z"/>
	<path d="M844.9,83.5c3.9,0,7.7,0,11.6,0c6.1,0,11.4,0.3,16.5-5.3c6.6-7.2,18.5-5,24,2.9s2.6,18.5-6.6,23.9
		c-7.4,4.4-18.1,0.9-22.6-7c-1.2-2-3.3-3.3-5.6-3.6c-12.6-0.4-25.3-0.3-37.9-0.4c-2.8,0-5.7,0.2-5.6-4.1c0.1-3.9,1.6-6.3,5.9-6.3
		L844.9,83.5z M883.1,83c-4,0.1-7.2,3.3-7.1,7.3c0.2,4.7,3,6.8,7.4,7c3.8,0.2,7-2.7,7.2-6.5c0-0.2,0-0.5,0-0.7
		C890.5,86.1,887.1,83,883.1,83z"/>
	<path d="M729.2,315.3c-1.6,2.3-3.3,4.5-5.2,6.6c-4.5,4.5-9.4,8.7-14,13.2c-3.3,3.2-6.7,2.8-9.8,0.1c-5.1-4.5-9.9-9.3-14.6-14.1
		c-0.9-1-1.3-2.4-1.3-3.8c0-0.6,1.9-1.9,2.4-1.7c5.9,2.9,7.5-2.5,10.5-5.2c1-1.1,1.9-2.2,2.7-3.5l-7-7.8l-11.4,3.4l-0.8-1.2
		c0.7-1.4,1.6-2.6,2.6-3.8c6.9-6.5,13.8-13.1,20.9-19.4c1-0.9,4-1,5-0.1c8.4,7.3,16.6,14.9,24.9,22.5c-6,7.8-8.7-0.9-14.4-2.6
		c-2.1,3.2-7.1,7.7-6.3,10.5c2,6.6,7.8,9.6,15.6,4.8L729.2,315.3z M695.6,320.6l10,10.2c9-7.1,9.9-9.1,6.9-12.7
		C706.2,310.9,706.2,310.9,695.6,320.6L695.6,320.6z M707.2,303.4c2.4-3.7,5.8-6.9,6.4-10.5c0.3-2-4.6-7.1-6-6.7
		c-4,1.1-7.4,4.3-11.6,7.1L707.2,303.4z"/>
	<path d="M619.8,503.2l5.8,4.8c-6.2,7.5-14.4,2.7-21.2,4.4c-0.3-0.8-0.6-1.2-0.5-1.4c5-8.2,5-8.2-1.9-15.4c-1.2-1.3-2.4-2.7-3.7-4.1
		c-3.9,2.6-6.6,9.2-13.1,3.3l7.1-8.1h-1.5c-0.5-2.4-2.2-5.7-1.3-7c3.6-5,6.4,0,9.3,1.7c9.7-6.4,10.8-8.4,8.2-16.9h17.7
		c-1.1,2.7-3.6,6.3-2.8,7.4c2.6,3.6,6.5,6.3,10,9.4c3.3-2,6.4-5.9,9.8-0.3l-4.8,6.4l6.5,4c-3,4.8-5.2,8.1-10,3.5
		c-0.8-0.8-3.5-0.7-4.6,0.1C625.7,497.4,622.9,500.3,619.8,503.2z M615.1,497.6l11.1-10.1c-9-13-11.9-13.2-21.3-2.6
		c-0.4,0.5-0.7,1-0.9,1.6L615.1,497.6z"/>
	<path d="M836.4,329.8c10.9-0.1,20.2,9,20.3,19.7c0.1,10.7-9.7,21.2-19.7,21.3c-11.8,0.1-22.2-9.8-22.3-21.3
		C814.5,339.3,825,329.8,836.4,329.8z M844.5,351.3c0.1-5-3.5-9.2-8.1-9.4c-4.8,0.1-8.7,3.8-9.1,8.6c-0.2,4.8,4.2,9.4,8.8,9.4
		C840.8,359.8,844.5,356,844.5,351.3z"/>
	<path d="M255.1,853.9c21.3,0,42.5-0.1,63.8,0.1c2.4,0,6.6-1.9,6.4,3.3c-0.2,4.6-3.8,4.1-6.9,4.1c-36.5,0-72.9,0-109.4-0.1
		c-7,0-13.9,0.1-20.9-0.2c-1.9-0.1-5.2-1.6-5.3-2.7c-0.4-3.7,2.5-4.6,5.8-4.6c12.5,0.1,24.9,0,37.4,0L255.1,853.9L255.1,853.9z"/>
	<path d="M877.3,398.1c-12.2-0.3-21.4-9.8-21.1-21.4c0.4-10.1,10.9-19.8,21.4-19.6c11.1,0.1,20,9.1,20,20.2c0,0.1,0,0.2,0,0.3
		C897.4,388.5,887.6,398.3,877.3,398.1z M885.6,378.5c-0.1-4.8-4.4-9.4-9-9.4c-4.3,0-8.2,4.1-8.2,8.6c0,5,4.2,9.3,8.9,9.3
		C882,387,885.7,383.2,885.6,378.5C885.6,378.5,885.6,378.5,885.6,378.5L885.6,378.5z"/>
	<path d="M236.3,193.2c3.2-10.2,11.4-12.4,19-4.9c0-2.3-0.1-4.2,0-6.1c0.5-10.8,9-17.7,20.3-16.6c10.4,1,16.9,9.6,15,20.2
		c-0.3,1.6-1.8,3.9-3.1,4.2c-7.3,1.5-13.6,5.9-17.6,12.1C260,193.4,249.2,189.4,236.3,193.2z"/>
	<path d="M314.8,222.7h-44.5c-1.6-15.3,7.7-27.2,21.4-27.4C306.6,195.1,315.6,205.5,314.8,222.7z"/>
	<path d="M598.4,612.1c8.3-5.1,10.4-16.1,21.4-20.1c-0.8,2.8-0.8,4.1-1.4,5.1c-1.9,3.1-3.4,6.7-6.1,9.1
		c-9.4,8.3-10.8,18.7-10.3,30.6c0.9,21.8,0.6,43.6,1,65.4c0.1,4.5-1.2,7-6.7,6.9c-0.3-1.7-0.4-3.4-0.5-5.1
		c-0.1-26.4-0.1-52.8-0.1-79.2c0.1-3.3-1.2-6.4-3.7-8.6c-4.6-4.9-8.9-10.2-12.7-15.8c-1-1.4-1.3-4.9-0.3-5.8
		c2.9-2.7,4.8,0.1,6.5,2.3c3.2,4.2,6.4,8.4,9.7,12.6C596.3,610.6,597.3,611.4,598.4,612.1z"/>
	<path d="M411.7,240.1c-3.1-13.4,1.2-19.5,12.8-18.1c1.5-4.9,4.2-8.8,10.1-8.3c5.5,0.5,8.4,3.9,9.2,9.1c10.2,0.2,12,1.4,14,9.1
		c5.8-0.5,7.9,2.3,6.6,8.2L411.7,240.1z"/>
	<path d="M867.5,46.8c0.1,10.5-8.8,20-18.6,20.1c-10.8,0.3-19.7-8.3-20-19.1c0-0.2,0-0.5,0-0.7c-0.2-9.6,9.3-18.8,19.3-18.8
		C858.8,28.3,867.5,36.6,867.5,46.8z M847.2,40.4c-3.6,0.4-5.8,3-6.1,7.2c-0.1,4,3,7.4,7,7.5c0.2,0,0.4,0,0.7,0
		c4.3-0.4,6.6-3,6.4-7.4c-0.1-4.2-3.7-7.5-7.9-7.3C847.3,40.4,847.2,40.4,847.2,40.4z"/>
	<path d="M344.1,191.9c-10.8-1.5-20.9-0.2-28.5,7l-18.5-10.4c-0.6-3.7-1.7-8.3-2-13c-0.1-2.1,0.7-4.1,2.1-5.6
		c5.9-5.7,13.1-6.1,20.5-3.6c7,2.4,10.2,8,10.9,15.1c0.1,1.5,0.1,2.9,0.2,3.7c4,0,8.1-0.6,11.8,0.2c1.8,0.4,3.1,3.3,4.7,5.2
		C344.7,190.9,344.4,191.4,344.1,191.9z"/>
	<path d="M264.1,222.8h-41.9c-2.7-8.2,1.1-17,9.7-22c6.8-4.2,15.4-4.7,22.7-1.2c8.6,4,13.1,7.9,10.2,17.7
		C264.3,219.1,264.1,220.9,264.1,222.8z"/>
	<path d="M434.4,187.1c-10.2,0-18.1-8.7-17.9-19.5c0.2-7.6,9.1-15.3,17.4-15.2c9.1,0.1,17.4,8.3,17.5,17.2
		C451.4,178.3,442.9,187.1,434.4,187.1z"/>
	<path d="M321.6,222.4c-1.1-5.3-2.4-10.3-2.8-15.3c-0.1-1.8,1.7-4.3,3.3-5.5c8.5-5.9,17.8-6.8,27-2.2c8.8,4.4,12.2,12.6,12.4,22.9
		L321.6,222.4z"/>
	<path d="M659.3,280.1v13c-3.4,0.3-6.6,0.8-9.8,0.8c-17,0.1-34,0-51.1,0.3c-6.3,0.1-4.4-4.8-5.1-7.7s-0.2-6.4,3.9-6.4
		C617.8,280,638.5,280.1,659.3,280.1z"/>
	<path d="M492.8,719.5h-83.2c0.8-10.2,0.8-10.2,9.7-10.2c24.4,0,48.8,0,73.6,0V719.5z"/>
	<path d="M859.1,117.2c8.4-0.1,16.5,8,16.5,16.6c0,8.2-9.3,17.9-17.1,17.8c-8.2-0.1-17-9.3-17.1-17.8
		C841.4,126.1,850.7,117.3,859.1,117.2z"/>
	<path d="M379.3,376.7c-5.1-2.8-9.9-5.2-14.5-8c-0.9-0.6-1.3-2.4-1.4-3.7c-0.2-6-0.4-12.1-0.2-18.1c0.1-3.8-1.3-5.8-6-6.6
		c-0.4,4.2-0.9,8.3-1,12.4s0,8.4,0,12.4c-4.6,0.9-7.1-0.3-6.8-4.4c0.6-8.7,0.5-17.6,2.5-25.9c1.6-6.6,4-6.7,10.2-3.4
		c2.7,1.5,5.3,3.2,7.9,5c6.7,4.6,10.1,10.6,9.4,19.1C378.9,362.3,379.3,369.4,379.3,376.7z"/>
	<path d="M384.9,378.3c0-9.1,0-18.6,0.1-28.1c0-1.3,0.3-2.5,1-3.6c6-8,13.9-13.7,23.8-19.3c1.9,5.8,3.9,10.7,4.9,15.7
		c1,5.1,0.7,10.2,1.4,15.3c0.7,5.5-1.5,7.4-7.4,6.2c-0.5-7.5-1-15.3-1.5-23l-2-0.7c-1.3,2.6-2.7,5.2-4,7.9c-0.1,0.4-0.1,0.7,0,1.1
		C403.2,363.2,399.3,373.6,384.9,378.3z"/>
	<path d="M56.7,563.4c-0.4,8-9.1,16.5-16.5,16.1c-8.9-0.4-16.9-8.7-16.7-17.2c0.2-7.8,9.9-15.9,18.4-15.5
		C50.5,547.4,57.1,554.8,56.7,563.4z"/>
	<path d="M946.8,484.3c-7.3,1-14.3,3-21.1,2.7c-14.3-0.7-25.4-18.6-20.8-32.2c1.6-4.8,6.6-7.4,11.4-6c4.4,1.3,5.8,4.2,4.5,10.1
		c-2.2,10.2,2.9,15.4,12.7,12.8C940.4,469.9,944.7,473.5,946.8,484.3z"/>
	<path d="M973.8,422.2c-0.5,9.8-5.2,16.7-13.4,20.9c-7.4,3.9-15,2.8-21.9-1.7c-3.2-2.1-6.6-4.7-4.7-9.3c1.6-3.8,6.7-5.3,11.4-3.7
		c1.1,0.3,2.1,1.1,3.1,1.1c2.4,0,5.5,0.4,6.9-0.9c1.4-1.3,1.5-4.5,1.7-6.9c0.3-3.1-0.9-6.8,0.4-9.3c1.6-2.5,4.3-4.1,7.3-4.4
		c2.2,0,5.2,2.6,6.5,4.8C972.7,415.6,973,419.1,973.8,422.2z"/>
	<path d="M897.9,415.5c5.3-6.9,9.6-10.5,17.3-6.8c5.2,2.5,10.2-1.4,10.8-7.3c0.2-2.4,0-4.9,0.6-7.1c1.2-4.3,4.2-7.1,8.8-6.6
		s6.4,3.8,6.6,8.1c1,17.4-14.5,31.2-31.3,27.1C906.3,421.8,902.5,418.2,897.9,415.5z"/>
	<path d="M364.6,870c-8.6,0-15.6-7.1-15.6-15.7c0-0.2,0-0.4,0-0.6c0.2-7.5,8.8-15.2,16.8-15.1c8.1,0.3,14.4,7.1,14.1,15.1
		c0,0,0,0,0,0C379.8,862.6,372.7,870.1,364.6,870z"/>
	<path d="M1001.4,751c5.7-6.2,11.2-13,17.6-18.8c2.3-2.1,8.6-3.6,10-2.2c3.4,3.3-0.9,6.8-3.2,9c-5.9,5.9-12.2,11.4-18.8,16.5
		c-4.4,3.7-10.8,3.9-15.4,0.5c-6.4-4.5-12.5-9.5-18.5-14.5c-1.1-0.9-2.1-3.8-1.6-4.4c1.1-1.3,3.7-2.7,5-2.2
		c5.3,1.9,10.3,4.3,15.1,7.2C995.4,744.8,998.6,748.5,1001.4,751z"/>
	<path d="M23.1,616.7c0-6,6.3-9.6,12.5-6.6c2.9,1.6,6.5,1.6,9.4,0c2.3-1.1,6.7-0.2,8.9,1.5c1.7,1.3,3,6,2,7.6
		c-3.9,6.4-8.8,12.3-13.4,18.3c-0.6,0.7-2.5,0.8-3.6,0.6C33.2,636.6,23,622.9,23.1,616.7z"/>
	<path d="M820.4,390.4c-0.4-5.3,3.4-10.1,8.7-10.8c16.6-2,30.3,11.3,26.7,31c-0.3,1.7-4.4,3.7-6.7,3.8c-2,0.1-5.8-2-6-3.6
		c-0.9-5.8-0.4-12.4-6.5-15.4C831.7,392.9,826.1,392,820.4,390.4z"/>
	<path d="M1003.5,867.3c4.8-8.9,12.9-15.6,22.5-18.7c2.1-0.7,4.8,0.2,7.2,0.4c-0.8,2.2-1.1,4.9-2.6,6.4c-6.1,6.4-12.8,11.7-21.8,14
		c-14.5,3.7-25.2-2.5-35-11.9c-1.4-1.4-1.9-3.7-2.8-5.6c2.1-0.6,4.4-2,6.4-1.7C988.4,851.8,996.3,858.3,1003.5,867.3z"/>
	<path d="M584.4,539.8l11.2,16.4c0-7.7-0.1-14.6,0-21.4c0.1-3.3,0.6-6.7,6-6.7v28.3l1.2,0.4c4.1-5.6,8.2-11.2,12.3-16.8l2.3,0.5
		c0,1.9,0.7,4.2-0.1,5.6c-3.1,5.8-6.6,11.4-10.5,16.7c-5.2,6.9-12.5,6.2-17-1.1c-2.7-4.4-5.3-8.8-8.3-13
		C579,545.1,579.7,542.4,584.4,539.8z"/>
	<path d="M535.6,35.1h-41.7v-8.5c0-4.1,2.2-6.2,6.1-6.2c10.2-0.1,20.5-0.2,30.7,0.2c1.7,0.1,4.2,2.7,4.7,4.5
		C536.2,28,535.6,31.2,535.6,35.1z"/>
	<path d="M386.5,170.8c6.8-0.2,12.6,5.1,12.8,12c0,0.3,0,0.5,0,0.8c-0.1,7.5-6.5,14.4-13.1,14.3c-7.2-0.1-14.4-7.5-14.3-14.7
		C372,177.2,379.6,170.8,386.5,170.8z"/>
	<path d="M302.3,24.5c8,0,13.8,5.7,13.8,13.8c0,7.8-8.6,16.4-16.3,16.3c-7.5-0.2-14.3-7.4-14.4-15.3C285.2,32.2,294,24.5,302.3,24.5
		z M292.9,37.3c0,6.2,4,10.6,8.3,10.6c4,0,8.1-4.6,8.1-8.8s-3.7-7-9.4-6.8C295.7,32.3,293,34.1,292.9,37.3z"/>
	<path d="M871.3,295.3c6.6,0,11.9,5.4,11.9,12c0,0.2,0,0.3,0,0.5c-0.1,6.5-5.9,12.5-12.1,12.5c-7.2,0-13.8-6.4-13.5-13.1
		C857.9,301.3,864.9,295.3,871.3,295.3z"/>
	<path d="M137.2,849.3l-4.7-0.9c3.7-5.7,5-6,12.4-3c5.4-4.9,8.2-4.9,13.3,0.5l-5.6,2.8c4.2,8,3.3,13.8-2.6,18.9
		c-3.4,2.9-6.6,2.5-9.9,0C134.6,863.4,133.6,857.5,137.2,849.3z"/>
	<path d="M1001.5,839.4c3.7-4.5,7.2-8.9,11-13c0.8-0.9,3.3-1.5,3.8-1c1.1,1.1,1.7,2.7,1.6,4.3c-1.8,9.6-8.1,16.2-15.5,21.9
		c-1.1,0.5-2.4,0.3-3.4-0.3c-5.8-3.8-10.6-8.8-12-15.7c-0.5-2.6,1.7-5.7,2.7-8.6c2.3,1.3,5,2.2,6.7,4.1
		C998.6,833.6,1000,836.9,1001.5,839.4z"/>
	<path d="M152.9,726.9c-6.6-0.1-12.7-6.4-12.5-12.8c0.1-5.4,6.2-11,11.8-11c6.8,0,12.5,5.6,12.4,12.1
		C164.3,721,158.5,727,152.9,726.9z"/>
	<path d="M37.8,509.2c-6.1,0.1-12.3-5.8-12.3-11.7s6-12.1,11.9-12.3c6.4-0.2,11.6,4.9,11.8,11.2c0,0,0,0,0,0
		C49.2,502.2,43.2,509.1,37.8,509.2z"/>
	<path d="M1001.2,793.2c2.5-3.5,4.4-6.8,7.1-9.5c1.6-1.6,4.3-2,6.6-3c0.3,2.2,1.5,4.6,0.8,6.4c-1.4,4.1-3.6,8-6.3,11.4
		c-2.9,3.3-6.6,7.5-11.7,5.2c-6-2.7-11.1-7-11.3-14.3c-0.1-2.5,2.1-5.1,3.2-7.6c2.1,1.1,4.6,1.9,6.2,3.5
		C998,787.6,999.3,790.4,1001.2,793.2z"/>
	<path d="M597.6,596.7c4.2-4.8,7.4-8.6,10.8-12.4c3.2-3.5,4.8-9.3,12.8-9c-5.7,9-9,18.2-16.7,24.4c-5.9,4.8-10.9,3.7-15.4-2.3
		c-3.3-4.2-6.4-8.5-9.2-13c-1.1-1.8-1.8-5.7-0.8-6.6c3-2.8,5.2,0,6.9,2.5C589.7,585.4,593.2,590.5,597.6,596.7z"/>
	<path d="M620,560.3c-4.2,8.2-8.1,16.7-16,22.3c-6.2,4.4-10.9,3.4-15.3-2.7c-4-5.6-7.9-11.3-11.8-17c3.4-4.1,6-4,8.8-0.2
		c3.1,4.2,6.8,8.1,9.6,12.6c2.3,3.7,4.4,2.6,6.4,0.4c3.7-4.1,6.8-8.6,10.6-12.6c1.7-1.8,4.3-2.9,6.5-4.3L620,560.3z"/>
	<path d="M1002.2,823.3c-4.7-0.3-9.1,0.6-12.2-1.1c-7-3.8-13.5-8.6-20-13.3c-1.1-1-1.6-2.6-1.3-4.1c0.9-1.3,2.3-2.1,3.9-2.3
		C982.3,801.8,998.2,812.2,1002.2,823.3z"/>
	<path d="M975.3,471.5c5.3,0.2,9.6,4.6,9.6,9.9c0,4.8-6,11.2-10.4,11.1c-4.9,0-10.8-6.4-10.6-11.5
		C964.1,476,969.6,471.4,975.3,471.5z"/>
	<path d="M1002.8,823.5c1.7-3.6,2.4-6.2,4-8.2c5.2-6.7,12.3-11.6,20.4-14.1c1.9-0.6,4.3,0.5,6.5,0.8c-0.6,1.9-0.6,4.3-1.7,5.7
		C1024.8,816.2,1016.2,822.3,1002.8,823.5z"/>
	<path d="M991.8,780.2c-10.2-1.6-17.4-6.5-23.3-13.7c-1.7-2.1,0.8-5.5,4.1-5.1c9.4,1,18.1,5.2,24.6,12c0.8,0.8,1.1,3.4,0.7,3.7
		C996,778.4,993.9,779.4,991.8,780.2z"/>
	<path d="M553.3,230.5v10.9c-9.1,0-18.2,0.2-27.2-0.3c-1-0.1-2.6-4-2.4-6c0.2-1.7,2.4-4.4,3.9-4.5
		C536,230.3,544.4,230.5,553.3,230.5z"/>
	<path d="M1002.9,703.8c4.2,9.6,4.1,18.9,2.4,28.3c-0.3,1.8-3.3,4.5-4.8,4.3c-2-0.3-4.4-2.5-5.4-4.6
		C991,723.4,994.3,711.1,1002.9,703.8z"/>
	<path d="M1002.9,777.8c6.7-11.3,16.2-15.3,26.6-17.5c1.3-0.3,3.5,1,4.4,2.2c0.5,0.6-0.5,3-1.4,4.1c-5,6.2-12.1,10.4-19.9,11.8
		C1009.9,778.9,1007,778.1,1002.9,777.8z"/>
	<path d="M889.6,428.8c4.6,0,9,4.3,9.2,9.2c0.2,4.9-5.2,10.8-9.8,10.9c-5.2,0.1-10.6-5.2-10.5-10.1
		C878.6,434.6,885,428.9,889.6,428.8z"/>
	<path d="M891.6,490.3c0.1,5.4-4.9,10.9-9.7,10.8c-4.7-0.1-9.3-4.9-9.4-9.8c-0.2-5.1,4.5-9.7,9.8-9.8
		C887.3,481.3,891.5,485.2,891.6,490.3C891.6,490.2,891.6,490.2,891.6,490.3z"/>
	<path d="M370.4,330l-4.6-2.5c5.8-12.8,25-12.3,33-3.8c0.9,1.1,1.3,2.7,0.9,4.1c-0.4,0.8-2.6,1.5-3.8,1.3c-2.9-0.5-5.7-1.5-8.3-2.9
		C382.3,323.2,375.7,324.4,370.4,330z"/>
	<path d="M788.7,219.3c0,4.4-5.2,9.5-9.7,9.4c-4.5-0.1-8.3-3.8-8.2-7.9c0-4.4,4.7-9.7,8.8-9.8C784.2,210.8,788.6,214.8,788.7,219.3z
		"/>
	<path d="M381.5,51.8c-6.1-8.3-6-11.1-0.7-21.9c-8.1-10.3-8.2-13.5-0.3-19.1c0.2,3.2-0.3,6.4,0.7,9c1,2.8,3.8,5.1,4.8,7.9
		c0.6,1.7,0,4.4-1,6.1c-2.3,4.2-4,8.1-2.2,13C383.3,48.1,382,50,381.5,51.8z"/>
	<path d="M365.7,289.6c0,4.4-5,9.4-9.2,9.3c-3.7-0.1-7.6-4.3-7.7-8.1c-0.1-4.6,4.6-9.5,9-9.4C362.2,281.5,365.7,285.1,365.7,289.6z"
		/>
	<path d="M395.6,52c-5.6-5.8-5.4-11.4-2.1-16.8c2.3-3.8,2.1-6.2-1-9.5c-4.6-4.8-2.8-11.3,3.7-14.3c0.2,1,0.2,2,0,3.1
		c-1.5,3.7-0.6,6.7,2.2,9.4c3.3,3.3,3.5,6.9,0.9,10.8c-2.6,3.7-4,7.7-2.2,12.4C397.5,48.2,396.3,50,395.6,52z"/>
	<path d="M787.8,113.8c-1,1.1-1.8,2.9-2.9,3.1c-1.6,0.3-3.2-0.1-4.4-1.1c-3.2-3-6-6.4-9-9.5c-2-2.1-4.6-3.8-6.2-6.2
		c-0.9-1.3-0.4-3.6-0.6-5.5c1.7,0.1,4-0.5,5,0.4c5.6,5.2,10.9,10.8,16.2,16.3C786.7,112.1,787.3,112.9,787.8,113.8z"/>
	<path d="M409.4,12.6c1.6,4.2,2.9,8.3,4.8,12.1c1.9,3.8,2.2,7.1-0.3,10.8c-2.3,3.4-4.2,7-1.5,11.2c0.3,0.9,0.1,2-0.6,2.7
		c-1,0.3-2,0.1-2.8-0.5c-4.2-3.2-4.1-7.6-1.6-11.3c3.3-5,3.3-8.9-0.2-13.9C404.1,19.2,405.5,15.1,409.4,12.6z"/>
	<path d="M673.8,26.1c2.9-4.9,4.9-5.5,8-2.2c5.6,6,11.4,11.7,17.1,17.4c-2.1,4.2-4.3,4.2-7.1,1.7C685.7,37.4,679.7,31.8,673.8,26.1z
		"/>
	<path d="M699.7,95.1c-7.1,10.8-18.6,21.2-25.4,22.3c0.9-2.4,1.1-4.6,2.3-5.9c5.3-5.5,10.9-10.8,16.6-15.9
		C694.3,94.7,696.8,95.3,699.7,95.1z"/>
	<path d="M660.3,72.1c0.1-4.8,2.2-6.1,5.7-6c7.7,0.2,15.4,0,23,0.3c1.6,0.1,3.1,1.5,4.6,2.4c-1.5,1.1-2.9,3.1-4.4,3.2
		C679.7,72.3,670.2,72.1,660.3,72.1z"/>
	<path d="M451.6,398.4c-3.8-0.2-6.8-3.3-7-7.1c0.2-4.2,3.5-7.5,7.7-7.9c4-0.1,7.4,3,7.7,7C460.1,394.3,455.7,398.5,451.6,398.4z"/>
	<path d="M764.9,45c0.3-1.9,0-4.4,1.1-5.6c5.4-5.7,11.1-11.1,16.9-16.5c0.8-0.8,2.8-0.4,4.2-0.5c-0.1,1.4,0.5,3.4-0.3,4.2
		c-6.3,6.5-12.9,12.9-19.4,19.2L764.9,45z"/>
	<path d="M769.7,72.1c-0.8-4.6,1.6-5.7,5-5.7c7.7-0.1,15.3-0.2,23,0c1.3,0,2.6,1.2,3.9,1.9c-1.1,1.2-2.2,3.3-3.4,3.5
		c-4.5,0.5-9.1,0.3-13.7,0.3C779.5,72.1,774.6,72.1,769.7,72.1z"/>
	<path d="M735.4,115.2c0,3.3,0.3,6.6-0.2,9.9c-0.2,1.3-2.2,2.3-3.3,3.4c-0.9-1.1-2.5-2.1-2.6-3.3c-0.4-6.2-0.5-12.4-0.2-18.6
		c0.1-1.6,2.2-3.2,3.4-4.8c0.9,1.5,2.4,3,2.6,4.6C735.4,109.4,735.5,112.3,735.4,115.2L735.4,115.2z"/>
	<path d="M735.1,18.1c0,3.1,0.3,6.3-0.1,9.3c-0.2,1.5-2,2.8-3,4.2c-0.9-1.3-2.5-2.5-2.6-3.8c-0.4-5.5-0.4-11-0.4-16.5
		c0-1.6,0.5-3.2,1.3-4.6c0.8-0.9,1.9-1.5,3.1-1.5c0.6,0,1.5,1.6,1.6,2.5c0.2,3.5,0.1,6.9,0.1,10.4L735.1,18.1z"/>
	<path d="M588,734.3c-0.3,4.2-3.8,7.4-8,7.3c-3.7-0.2-6.3-2-6.6-5.9c-0.3-3.9,4-8.4,7.8-8.4C584.9,727.4,587.9,730.5,588,734.3z"/>
	<path d="M38.6,327.2c0.1,3.8-3.4,7.7-7,7.9c-3.8,0.1-7-2.9-7.2-6.7c-0.1-4.2,3.2-7.7,7.4-7.8c0,0,0.1,0,0.1,0
		c3.6-0.1,6.6,2.8,6.6,6.3C38.6,327.1,38.6,327.2,38.6,327.2z"/>
	<path d="M831.6,865.9c-3.2-0.5-6.2-2.4-5.9-6.6c0.3-3.9,2.4-7.1,7-6.9c4.1,0.2,6.5,2.5,6.7,6.6C839.6,862.6,835.9,866,831.6,865.9z
		"/>
	<path d="M696.4,394.8c1.7,2.4,4.1,4.5,4.8,7.1c0.9,3.2-3.7,7.4-7.1,7.5c-3.2,0.1-6.8-3.5-6.7-6.6
		C687.5,399.3,691.4,395.8,696.4,394.8z"/>
	<path d="M812.7,423.5c-1.6-2.3-4-4.3-4.5-6.8c-0.8-3.6,3.9-8.2,7.2-7.1c2.7,1,4.9,3.1,6,5.8C822.5,418.4,817.7,422.6,812.7,423.5z"
		/>
	<path d="M191,230.4c0.1,5.6-3.7,10.4-6.8,9.5c-2.7-1-4.8-3-5.9-5.7c-1.1-3.6,3.6-8.6,7.1-7.8C187.7,227,189.7,229.5,191,230.4z"/>
	<path d="M978.2,395.1c-1.7-2.2-4.2-4.2-4.7-6.6c-0.7-3.4,3.9-7.3,7.4-7.2c3.6,0.2,5.7,2.4,6,5.8
		C987.2,390.6,983.1,394.4,978.2,395.1z"/>
	<path d="M565.8,862.8c0.7-3.6,2.2-7,6.8-6.8c4.2,0.1,6.1,3.2,5.9,7.1c-0.2,4.2-3.2,6.1-7.1,6.1
		C567.6,869.1,565.7,866.8,565.8,862.8z"/>
	<path d="M131.5,330.1c-1.2-1.6-3.7-3.7-4.1-6.2c-0.7-3.8,3.5-7.7,7.1-7.4c3.8,0.4,6.1,2.7,5.9,6.5
		C140.1,327.3,137.3,329.5,131.5,330.1z"/>
	<path d="M353.4,480.2c-3.7-0.4-5.7-2.9-5.5-6.6s2.3-6.8,6.5-6.6c4.1,0.2,6.3,3,6.2,7C360.5,478.1,357.7,479.9,353.4,480.2z"/>
	<path d="M1013.5,619.5c0.2-5.8,3.8-9.5,7.5-9c3.4,0.4,5.8,2.2,5.8,6c0,3.4-4.6,7.6-7.9,6.7C1016.6,622.6,1014.7,620.4,1013.5,619.5
		z"/>
	<path d="M310.3,711c3.9-3.5,6-6.3,8.8-7.5c2.8-1.2,7.8,3.7,6.6,6.3c-1.4,2.9-3.9,5.2-6.9,6.4C317,716.7,314.2,713.6,310.3,711z"/>
	<path d="M163.6,184.3c-1.7-2-4.6-3.9-4.7-5.9c-0.3-3.8,2.1-7.7,6.4-7.3c2.3,0.2,5.3,3,6.3,5.3C172.7,179.3,168.2,183.3,163.6,184.3
		z"/>
	<path d="M927.2,692.2c-0.7-1.2-2.9-3-3.1-5.2c-0.5-3.9,3.5-8.2,7-7.2c2.5,0.9,4.5,2.9,5.4,5.4C937.4,688.4,932.7,692.2,927.2,692.2
		z"/>
	<path d="M793.6,663.7c-0.9,5.4-3.1,8-7.1,8.1c-3.5,0.1-6.6-2.3-5.6-5.7c1.2-3,3.6-5.4,6.6-6.6C789,659,791.8,662.5,793.6,663.7z"/>
	<path d="M30.3,181.8c-1.1-1.3-3.7-3.1-3.8-5c-0.2-3.7,1.3-7.5,6-7.7c3.8-0.1,6.4,2,6.3,5.9C38.6,179.2,35.5,180.8,30.3,181.8z"/>
	<path d="M581.2,657.8c-2.4,1.7-4.6,4.4-7.1,4.7c-1.9,0.2-4-3-6-4.7c2.1-2.4,3.9-5.6,6.6-6.8c1.3-0.6,4.3,2.7,6.5,4.2
		C581.2,656.1,581.2,657,581.2,657.8z"/>
	<path d="M703.5,356.4c-2.4,1.7-4.7,4.6-7.2,4.8c-1.8,0.2-4.8-2.9-5.7-5.1c-1.1-2.9,3.2-7.7,5.9-6.9c2.5,0.8,4.6,3,6.9,4.6
		L703.5,356.4z"/>
	<path d="M244.4,509.7c-2.5,1.6-4.9,4.3-7.5,4.4c-1.7,0.1-5.2-3.3-5.2-5.3c-0.1-3.6,2.6-6.9,6.7-6.1c2.2,0.4,4,2.9,6.1,4.4
		C244.5,508,244.5,508.8,244.4,509.7z"/>
	<path d="M445.1,146c-2.6-3.5-5.2-5.5-5.2-7.4c0.1-3.5,2.2-7.2,6.4-6.5c2.1,0.3,5.5,3.8,5.2,4.8C450.7,139.7,448.2,142,445.1,146z"
		/>
	<path d="M714,633.1c1,1.5,3.4,3.6,3.5,5.8c0.2,4-3.1,6.5-6.8,6c-1.9-0.2-4.7-3.1-4.9-5.1C705.3,635.9,708.2,633.7,714,633.1z"/>
	<path d="M160.5,336.8c-1.1-1.2-3.3-2.7-3.8-4.7c-0.8-3.1,3.5-8.3,6.2-7.5c2.2,0.7,5,3.3,5.3,5.3
		C168.8,333.9,165.6,335.9,160.5,336.8z"/>
	<path d="M367.7,738.7c-1.2-1.7-4.2-4.4-3.8-5.5c1.3-2.8,4.1-4.8,6.3-7.1c1.8,1.9,5,3.6,5.2,5.7
		C376.1,735.7,372.7,737.5,367.7,738.7z"/>
	<path d="M455.1,688.4c-2.6-3.7-5.3-5.7-5.4-7.9c-0.2-3.6,2.6-6.6,6.3-5.9c2.1,0.4,5.1,3.7,5,5.6C460.9,682.5,458,684.7,455.1,688.4
		z"/>
	<path d="M719.6,861.5c-2.5,1.6-4.9,4.1-7.6,4.6c-3.1,0.6-5.6-1.8-5.3-5.4c0.3-3.9,2.8-6.4,6.5-5.8c2.3,0.3,4.3,2.7,6.5,4.1
		L719.6,861.5z"/>
	<path d="M356.1,437.9c-2.5,1.6-4.9,4-7.6,4.4c-1.3,0.2-4.4-3.2-4.5-5.1c-0.1-3.3,1.8-6.8,5.9-6.1c2.3,0.4,4.2,2.9,6.3,4.4
		C356.2,436.4,356.1,437.2,356.1,437.9z"/>
	<path d="M864.7,676.2c-0.9,5.3-3.6,7.6-7.4,7.2c-1.6-0.2-4-2.5-4.4-4.2c-0.7-3.4,3.5-7.6,6.8-6.7
		C861.7,673,863.3,675.1,864.7,676.2z"/>
	<path d="M657,116.9c-4.1,2.5-6.5,4.8-9.3,5.3c-1.3,0.3-4.2-2.7-4.7-4.6c-0.8-3,3.7-6.9,6.9-6C651.9,112.2,653.6,114.3,657,116.9z"
		/>
	<path d="M1027.7,199.1c-2.3,1.5-4.5,4.1-7,4.2c-1.7,0.1-3.7-2.9-5.5-4.6c2-2,3.8-4.9,6.2-5.6c1.5-0.5,4.1,2.2,6.2,3.5
		C1027.6,197.4,1027.6,198.3,1027.7,199.1z"/>
	<path d="M560.4,596.6c-2.2,1.7-4.3,4.4-6.8,4.8c-1.7,0.3-3.9-2.5-5.9-3.9c2.1-2.2,3.8-5.2,6.3-6.4c1.3-0.6,4.1,2.1,6.2,3.3
		C560.2,595.1,560.3,595.8,560.4,596.6z"/>
	<path d="M899.7,116.7c2.6,3.7,5.5,6.3,5,7.5c-1.3,2.7-3.5,4.8-6.2,6.1c-0.7,0.4-5.1-3.4-4.8-4.7
		C894.3,122.9,896.9,120.7,899.7,116.7z"/>
	<path d="M337.2,38.2c-2.2-3.6-4.6-6.1-4.1-7.2c1.1-2.4,3.8-4.1,5.8-6.1c1.7,1.8,5,4,4.7,5.3C343,32.6,340.2,34.5,337.2,38.2z"/>
	<path d="M559.6,572.1c-2.5,1.6-4.9,3.7-7.7,4.4c-1.1,0.3-4.2-2.7-4.3-4.3c-0.3-3,1.9-5.7,4.9-6.1c0.4,0,0.9,0,1.3,0
		c2,0.2,3.8,2.4,5.6,3.6C559.5,570.6,559.6,571.4,559.6,572.1z"/>
	<path d="M1031,28.5c-3.9,2.6-6,4.9-8.6,5.4c-1.2,0.2-4.3-2.8-4.4-4.5c-0.5-2.7,1.3-5.3,4-5.7c0.5-0.1,1.1-0.1,1.6,0
		C1025.7,23.9,1027.5,26,1031,28.5z"/>
	<path d="M131.6,671.9c-2.3,1.6-4.5,3.8-7,4.4c-1.1,0.3-4.1-2.4-4.4-4c-0.5-3.4,1.6-6.3,5.4-5.9c2,0.2,3.9,2.1,5.8,3.3
		C131.5,670.3,131.5,671.1,131.6,671.9z"/>
	<path d="M907,242.8c-2.2,1.5-4.2,4-6.6,4.2c-1.7,0.2-3.6-2.7-5.4-4.2c1.8-2,3.3-5,5.5-5.7c1.6-0.5,4.1,2.1,6.3,3.4L907,242.8z"/>
	<path d="M485.4,382.3c-2.3,1.5-4.4,3.7-7,4.3c-1.2,0.3-3.1-2.3-4.7-3.6c2-2,3.7-4.6,6.1-5.8c1.1-0.5,3.5,1.7,5.3,2.7L485.4,382.3z"
		/>
	<path d="M739.2,765.3c-3.9,2.4-6.1,4.4-8.7,5.2c-0.9,0.3-4.1-3.6-3.9-3.9c1.5-2.4,3.6-4.5,6.1-6C733.5,760.2,736,762.9,739.2,765.3
		z"/>
	<path d="M834.1,3.7c-3.7,2.5-5.9,4.4-8.5,5.4c-0.5,0.2-3.2-2.7-3.4-4.4c-0.4-2.8,1.6-5.5,4.4-5.9c0.4-0.1,0.9-0.1,1.3,0
		C829.5-1.2,831.1,1.2,834.1,3.7z"/>
	<path d="M193.7,203.1c-2.2,1.4-4.3,3.4-6.7,3.9c-1.2,0.2-2.9-2.6-4.3-4c1.9-1.8,3.6-4.2,5.8-5.1c1.1-0.4,3.4,2,5.1,3.1L193.7,203.1
		z"/>
	<path d="M791.2,610.2c-2.2,1.4-4.3,3.3-6.6,3.8c-1.3,0.3-3.1-2-4.6-3.1c1.9-2,3.5-4.5,5.8-5.7c1.1-0.5,3.5,1.7,5.3,2.7
		C791.1,608.6,791.2,609.4,791.2,610.2z"/>
	<path d="M792.9,636.6c-3.4,2.4-5.2,4.6-7.4,5c-1.4,0.3-3.3-1.9-5-3c2-2.1,3.7-4.5,6.1-6C787.3,632.2,789.7,634.5,792.9,636.6z"/>
	<path d="M495,288.3c-1.9-3.1-4.1-5.6-3.7-6.3c1.6-2.2,3.6-3.9,6-5.2c0.4-0.2,3.8,3.2,3.5,4C499.8,283.2,497.7,285,495,288.3z"/>
	<path d="M1023,222.1c2.2,3.2,4.6,5.5,4.2,6.4c-1.1,2.3-3.4,4.1-5.3,6.1c-1.4-1.4-4.1-3.2-3.8-4.2
		C1018.6,227.9,1020.6,225.8,1023,222.1z"/>
	<path d="M457.8,34c-1.8-3.1-4-5.4-3.6-6.3c1.3-2.1,3.2-3.8,5.5-4.8c0.5-0.2,3.9,3.1,3.6,4C462.6,29.1,460.4,30.8,457.8,34z"/>
	<path d="M546,618.5c3.4-2.5,5.4-4.5,7.9-5.3c0.9-0.3,2.8,2.3,4.2,3.6c-2,1.8-3.8,4.1-6.2,5.3C551.1,622.5,549,620.4,546,618.5z"/>
	<path d="M187.4,462.7c-1.8-2.8-3.9-4.7-3.5-5.6c1-2.2,3.1-3.9,4.7-5.8c1.5,1.5,4.4,3.4,4.2,4.5
		C192.1,457.9,189.8,459.7,187.4,462.7z"/>
	<path d="M793.3,771.9c-2.1-2.7-4.4-4.7-4.1-5.4c1.2-2.2,3-4,5.1-5.3c0.4-0.3,4.1,2.8,3.9,3.6C797.5,767,795.5,768.9,793.3,771.9z"
		/>
</g>
</svg>
