<?xml version="1.0" encoding="UTF-8"?>
<svg id="svg5" xmlns="http://www.w3.org/2000/svg" viewBox="0 0 512 512">
  <defs>
    <style>
      .cls-1 {
        fill: #fff;
        stroke-width: 0px;
      }
    </style>
  </defs>
  <g id="layer3">
    <g id="g11000">
      <path id="path4586-3" class="cls-1" d="m460.88,284.85l.19,2.46-.43.41-.88-1.49-.17,1.38-.1,1.57-.43.37.4,3.31-.23,1.28.21,3.16-.52.3.61,4.42.24,3.65.57,4.68.09,3.64.59,4.81.09,4.42-.46.08-.38,1.17-.45.44-.54-1.35-.56-1.01-.43.96-.12,3.65-.38,1.99-.24,3.89-.5,1.34-.51-.09-.52-.53-.28,3.76-.44,2.72-.29,4.42-.49,3.67-.56.78-.63,3-.61,4.28-.73,3.76-.81,2.6-.88,4.98-.91,2.69-.42-.67-.92,2.86-.58.36-.8,1.75-.99,2.94-.65.67-.82,1.51-.31-.86-.15-1.55.78-4.75.19-3.29-.19-1.8-.09-2.34-.61.58-.25-1.61-.42-.61-.23-1.76-.39-.85-.46-.43-.21-2.25-.71,1.37-.52-.26-.82,2.64-.91,3.69-.8,1.73.1-1.79.31-2.4v-1.5s-.05-1.28-.05-1.28l.23-2.42.06-2.01.25-2.56.36-2.22v-1.92s-.11-1.54-.11-1.54l-.02-2.07.11-2.41-.32.44-.25-.75-.05-2.3-.25-1.09-.31-.11-.29,1.65-.29.19-.29.05-.24-.8-.26-.69-.23-1.11-.28-.32-.21-1.44-.08-2.25-.27-.92-.21-1.68-.2-1.96-.15-2.23-.32-.7-.3-1.45-.29-1.5-.23-2.05-.33-.76-.3-.17-.29-.11-.32-1.36-.33-.61-.32-1.77-.2.92-.34-.47-.36-1.76-.36-.65-.32-.39-.35-.85-.2.66-.32-.3-.39-.79-.39-1.92-.3.02-.36-.46-.32-.11-.42-1.12-.34-.16-.08,1.38-.42-1.11-.33-.11-.28.26-.13,1.09-.03,1.5-.15.96-.24.47-.14,1.1-.29.15-.19.94-.34-.28-.37-.99.06,2.02-.19,1.07-.25.6-.29.18-.19.94-.2.9.03,2.01-.15,1.39-.12,1.63-.28.4-.21,1.05-.25.71-.31-.56-.26.8-.29.29-.21,1.27-.24,1.25-.31.21-.32-.15-.26-1.46-.25,1.17-.31-.24-.31-.29-.27.91-.29-.55-.28-.89-.27-1.1-.3-.59-.31-.38-.25-1.51-.3-.46-.3-.25-.31-.78-.29.34-.3-.97-.31-.47-.25.84-.21,1.18-.33-1.18-.32.3-.31-.74-.31-.17-.28.38-.27.58-.11,1.68-.07,1.88-.28.88-.17,1.72-.33-.04-.29.99-.25,1.35-.24,1.51-.29-.61-.31-.12-.28,1.38-.33.57-.31.06-.31.82-.29,1.15-.32.53.16-7.44.2-7.04-.6-7.66.12-5.99.24-5.12-1.12-7.41.4-3.33.66-2.35-1.46-6.33-1.01-5.33-1.73-5.9-2.5-6.06-2.99-6.22-3.49-5.33-2.64-5.39-2.35-4.87-.87-3.12-.82-2.97.45-1.59-2.03-4.03-1.95-3.97,1.6-.41,3.55,2.34,2.07.38-3.78-5.08-3.3-4.54-.59-2.4-1.51-3.06.73-1.2,2.88.94-1.12-2.69-.5-2.15,1.05-.91-1.28-2.75,4.05,2.13,3.38,1.53,4.74,3.7,3.02,1.53,4.01,3.16,3,1.88,4.39,4.49,4.42,5.51,2.94,2.48,3.87,4.71,3.21,3.75,3.54,5.17,3.4,5.38,2.72,3.8,2.15,2.38,2.34,3.14,2.05,2.46,2.6,4.63,2.81,5.93,2.75,7.6,1.32.73,1.78,2.86.08-3.52,1.19.45,2.03,4.26.65-1.75v-3.73s1.16.46,1.16.46l1.14.47.82-.74h0Z"/>
      <path id="path4588-8" class="cls-1" d="m335.99,482.77l1.74-1.58,2.38-1.97,1.09-1.2.37-.68,1.86-1.8v-.42s-.44-.06-.44-.06l-1.48.85,2.11-1.88,2.08-1.9.93-1.15,1.04-1.24,2.3-1.93,2.15-2.08,2.01-2.03,1.46-1.7,1.09-1.4.79-1.16,2.14-2.22,1.28-1.67,1.88-1.81,1.97-2.11,1.92-2.2,1.55-2.04.46-.98.85-1.39,1.56-2.09,1.11-1.73,1.25-1.89,1.63-2.21,1.67-2.07,1.48-2.24.67-1.39.46-1.13,1.06-1.87.86-1.69.81-1.66.34-1.07-.3-.11v-.59s1.01-1.99,1.01-1.99l.32-1.11-.91.88.11-.83.3-1.04.55-1.4.96-1.98.37-1.21.85-1.89.86-1.94,1.17-2.25,1.03-2.2,1.1-2.32.56-1.71.34-1.39.92-2.27.83-2.24.57-1.9.32-1.5.52-1.9.6-2.2,1.01-2.68.97-2.57.93-2.03-.8.97-.36-.44.25-2.05-.54.06.33-2.18.19-1.93.44-2.63-.29-.77-.13-1.16-.27-.73.1-1.86.04-1.74.5-3-.05-1.79-.37-.59-.19-1.29-.64.82-.63.76-.68.79-.19-1.33-.33-.73-.26-.99-.36-.72-.74,1.26-.88,2.95-.8,1.27-.41-.56-.88,1.69-.75,1.01-.28-.88-.82,1.44-.63.46-1.13,2.91-1.01,3.44-1.14,2.22-1.03,1.56-.98,1.36-1.14,1.92-.61.13-.62.17-.09-1.07-.21-.82-.64.32-.47-.16-.22-.87-.35-.54-.89.94-1.2,2-.5-.11-1.04,1.43h-.53s-.65.32-.65.32l-1.21,1.95-1.08,1.4-1.42,2.93-1.36,1.97-1.15,1.33-.18-.73-1.08,1.22-.91.79-1.5,2.34-1.45,1.98-.92.67-1.47,1.83-.96.76-1.45,1.75-1.23,1.24-1.31,1.35-1.64,2.51-1.79,2.39-1.57,1.55-1.98,2.51-1.34,1.08-.32-.34-1.9,1.99-1.09.65-1.63,1.46-1.95,2.04-1.65,1.38-1.97,1.89-1.79,1.4-2.26,2.12-2.19,1.93-2.15,1.75-2.4,2.36-2.56,2-2.44,2.25-1.49,1.69-2.36,2-2.31,1.94-.88,1.16-2.27,1.92-2.6,1.74-2.62,1.8-2.45,1.76-2.74,1.73.57-.8.42-.71-1.01.18-.13-.39-.79.04-.62-.08-2.23,1.01-.65-.09-2.27,1.02-2.09.84-1.35.32-1.54.43-.91.04.18-.54-.57-.14-.7-.08-3.02,1.44-2.38.84-2.74,1.05-3.06,1.3-1.25.11-2.42.7-.78-.12-1.67.28-3.03,1.18-2.7.78-3.06,1.01-2.53.59-3.13,1-3.15.96-2.51.42-3.19.72-1.84.4-1.75.32-1.59.22-.52-.12-1.5.18-1.93.38-1.53.17-1.14.04-1.97.36-1.55.41-1.86.35-1.68.36-1.7.13-1.98.24-1.98.24-1.91.28-1.79.26-1.82.24-1.26.27-1.41.26-.21.24-1.51.26-1.93.2-1.24.24h-1.77s-1.99.04-1.99.04l-2.08.06-1.75.15-1.49.17-2.05.05-2.04.04-1.94-.1h-1.8s-1.66.05-1.66.05l-.67.15-1.12.11-1.54.04-.77.13-1.48.03-1.91-.11-1.71-.05h-1.45s-.49.14-.49.14l-1.26.03-1.18.02h-1.27l-1.01.04-.34.14-.28.15-.94.05-.93.05h-1.12s-1.82-.15-1.82-.15l-1.96-.24-1.51-.09-.75.07-1.64-.18-1.39-.11-1.84-.26h-.97s-1.49-.17-1.49-.17l-1.91-.35-1.16-.08-1.85-.33,1.98.44,1.94.42,2.05.42,1.43.4,2,.31,1.96.36,2.03.33,1.89.19,2.25.31,1.75.34,2.2.26,1.96.11,1.52.28,1.93.25,1.79.26.65.25,2,.19,1.82.2,1.97.16,1.8.17,1.09.22,1.99.14,1.81.14,1.14.19,2.17-.03,1.7-.15,2.2-.06,1.93.06,1.84-.15,1.94-.14,1.92-.19,2.06-.08,1.52.04,1.96-.08.56.15.81.12.96.1,1.83-.09,1.53-.02,2.02-.21,2.03-.29,1.8-.35,2.02-.29,1.99-.27,1.65-.15,1.8-.23,1.63-.18,1.59-.18,1.2-.05,1.89-.31,1.57-.19.21.19,1.85-.33,1.9-.51,1.8-.39,1.74-.36,1.49-.25,1.92-.51,1.87-.49,1.71-.59,1.42-.3,1.35-.28,1.5-.37,1.57-.42-.92.61.5.16,1.44-.22,1.6-.3.41.16-.96.61-.36.42-.77.54,1.66-.35.96-.06,1.44-.27,2.15-.65.72.03,1.23-.2,1.82-.5,2.26-.8,1.25-.27,1.28-.29-.25.4.4.12.73-.04-.05.31-.33.42.28.16-.65.56.79-.05.24.19.57.03,1.15-.24,1.72-.57.82-.09,1.48-.45,2.18-.91,1.28-.35,1.8-.71,1.74-.69,2.22-1.07,2.22-1.22,1.78-.77,1.65-.7,1.37-.54,1.18-.42,1.36-.55.97-.29h.52s1.01-.31,1.01-.31l-.44.6.92-.25,1.07-.37,1.8-.96,1.56-.77,2.01-1.25,1.5-.79,1.48-.79,1.35-.7,1.36-.72.99-.4.9-.34.54-.04-.36.62-1.05,1.1.32.15.92-.34,1.04-.45-.14.32.58-.23-.11.29.08.15.8-.43h.27s.29,0,.29,0l.58-.25.17.09.63-.28v.23s.12.12.12.12l.64-.29.81-.45.83-.47,1.13-.8.82-.48.12.14.2.07-.11.31-.51.63.4-.07-1.01.93-.73.76.58-.25-.33.48-.04.25.02.2-.04.25-.55.62-.9.83-.52.59-.03.23-.32.44-.22.37.19.07-1,.87-.23.39-.85.76-.7.67-.47.53-.68.65-.88.77-1.26.91-1.12.84-1.13.83-1.01.79-.6.56-1.31.91-.82.69-1.05.79-.38.43-.32.41.72-.25-.62.56-.64.57-1.11.8-1.37.87-.97.72-.36.41-1.43.81-1.21.79-1.42.74-1.34.81-1.74,1.34.48.21-1.95,1.41v.46s2.79-1.15,2.79-1.15l1.33-.26-.63.81h.86s1.97-.69,1.97-.69l3.01-1.46,2.21-.92,3.11-1.67,1.04-.19,1.83-.74,1.57-.56-.45.78.62.11,2.78-1.48-.34.7-.52.81h.68s1.67-.69,1.67-.69l2.54-1.43,1.58-.67,2.71-1.65.99-.24,1.53-.7,2.27-1.38,3.09-2.28,3.1-2.49,2.38-1.64,1.7-.99.83-.2-.98,1.35-.66,1.09,1.32-.63-.99,1.34.41.18-1.37,1.59-.8,1.15,2.28-1.53,1.75-1.04.71-.06-1.01,1.4,2.2-1.55.95-.33,1.52-.91,1.13-.54-1.15,1.52-.03.55-.24.76,1.73-1.09.07.49-1.12,1.5-1.98,2.13-2.8,2.59-1.09,1.39,1.16-.45-2.46,2.29-1.66,1.73-1.31,1.48-3,2.48-.07.51-.14.57h0Z"/>
      <path id="path4590-3" class="cls-1" d="m356.16,210.11l.96,1.27,2.12,1.61.82,1.23v.79s-.3.62-.3.62l-.6.41.69,1.2,1.34,1.52-1.6-.4-.06.81-.82.26.54,1.17,1.61,1.67,1.17,1.55-.05.84-.1.8,1.83,1.78.69,1.35.89,1.45.21,1.02,1.36,1.75.54,1.31.02.89.27,1.1.78,1.5.7,1.47.43,1.29.3,1.19,1.42,1.95,1.18,1.9,1.2,1.96.94,1.84.74,1.72.79,1.8,1.57,2.25.96,2.1,1.37,2.27.81,2.04,1.05,2.21.98,2.22.52,1.88.88,2.29.51,2.03,1.11,2.56.89,2.48,1.07,2.53.44,2.19.81,2.61.73,2.76.29,2.29.76,2.86.46,2.71.25,2.52-.22,1.51-.26,1.39-.29,1.32.76,2.78.42,3.03.28,3.04.57,2.94-.18,2.3.06,2.98.06,3.21-.42,1.99-.25,1.11-.3.78-.35-.36-.34.21-.34-.35-.29-1.21-.32-1-.35-.09-.29.64-.14,1.48-.28.8-.14,1.52-.2,1.39-.27,1.11-.34-.32-.32.99-.33.24-.31.73-.32-.02-.31-.29-.14-1.52-.25-1.1h-.34s-.32-.59-.32-.59l-.33.14-.28-.93-.32.05-.31-.25-.22-1.26-.18-1.44-.33-.48-.32-.68-.29.56-.29.63-.33-.23-.32-.66-.23.9-.26.73-.3.59-.17,1.33-.1,1.56-.27,1.09-.33.02-.3.92-.26.97-.23,1.15-.31.82-.2,1.43-.36.83-.23,1.65-.38.84-.31-.4-.35.52-.33,1.24-.23,1.58-.36,1.18h-.32s-.23-.54-.23-.54l-.34.15-.37.8-.26-.5-.4.62-.39.62-.38,1.39-1.02,3.13-1.08,3.31-1.22,3.17-1.14,1.45-1.35,3-1.44,3.41-1.46,4.07-1.32,4.16-1.38,1.41-1.92,3.78-1.52,1.66-.57-.76-1.95,3.51-1.92,2.71-1.55,1.5-1.51,1.32-2.23,4.07-2.52,3.59-2.11,2.14-2.42,2.69-2.63,3.71-2.09,3.4-2.68,3.53-2.76,3.47-2.89,2.48-3.34,3.59-3.51,3.27-2.95,3.24-2.23,1.15-3.27,2.26-3.91,3.19-3.4,2-3.75,2.38-2.87,1.33-.64-.43-2.81,1.18-3.37,1.67-2.58.93-2.41.73-3.88,1.82-1.6.09-3.49,1.25-3.43,1.15-4.28,1.67-4.6,2.09-4.31,1.32-4.23,1.21-4.7,1.46-2.25.04-3.8.61-3.87.57-3.55.36-5.4,1.06-5.36,1.16-5.39.62-4.03.02-5.57.7-4.1.79-4.67.64-5.75.21-5.73.04-5.69-.29-4.75-.65-5.7-.64,3.17.34,3.2.24,3.18.28,2.42.35,2.95.25h3.25s2.96-.14,2.96-.14l3.16-.07,2.91-.23,3.1-.15,3.01-.25,3.03-.21,2.88-.46,3.23-.31,1.63-.55,2.91-.57.84.27.43.34,2.35-.09,1.63.08h1.87s1.86-.04,1.86-.04l3.33-.62,2.1-.12,2.94-.61,2.97-.76,2.94-.79,2.89-.79,2.88-.81,2.86-.87,2.64-.73,2.44-.65,2.59-1.06,2.01-1.05,2.11-1.08,2.38-1.15,1.57-1.04,1.71-1.1,2.63-1.24,2.38-1.34,2.37-1.29,2.39-1.25,2.35-1.23,2.32-1.35,2.38-1.29,1.72-.69,2.24-1.19,2.3-1.63,1.97-1.54,1.95-1.56,1.92-1.67,2.23-1.55,1.55-1.54,2.01-1.71,1.32-1.48,1.84-1.74,1.96-1.92,1.99-1.55,1.95-1.59,1.85-1.97,1.27-.74,1.75-1.49,1.43-1.03,1.75-1.64-2.11,1.41-.42-.66-2.01,1.28-2.3,1.61-1.79.88-.34-.68-1.58.63-.93-.08-3.05,2.27-2.01.88-2.98,1.95-2.14.92.31-1.2-.16-.85-2.07.77-.2-.85.65-1.53.65-1.55-2.09.76-1.58.26-3.93,2.84-3.23,1.58-2.84,1.13-1.04-.32-1.71.2-3.55,1.7-3.72,1.76-4.04,2.32-3.61,1.46-3.98,1.75-2.55.49-3.53,1.05-3.13.68-3.99,1.16-4.34,1.57-4.3,1.08-4.44,1.08-4.02.63-3.43.27-2.5-.1-4.57,1.07-3.51,1.05-4.54.85-4.89.6-4.52.06-4.88.09-4.83-.08-4.72-.26-4.67-.06-4.59-.11-4.91-.5-4.56-.26-5.1-.62-5.14-.87-3.73-1.17-4.5-1.3-4.92-1.02-5.09-1.44-5.17-1.64-4.76-1.31-4.36-1.95-5.22-2.12-2.99-1.78-3.86-2.14,3.85,1.78,3.85,1.7,3.96,1.52,3.88,1.31,4.02,1.35,3.58.9,3.8.99,3.37.67,4.63,1.18,3.5,1.19,3.6.38,4.61.87,3.66.33,4,.4,2.75-.07,2.14-.24,3.82.16,1.88-.34,2.22-.28,3.23-.12,3.92.03,2.74-.36,2.61-.39,3.2-.34,3.91-.34,3.36-.54,4.17-.37,3.54-.06,3.26-.69,2.69-.79,3.16-.82,2.47-.88,3.22-.98,3.7-.93,3.38-.52,3.73-1.15,2.82-1.25,3.55-1.2,2.64-1.31,2.52-1.35,2.94-1.47,1.88-1.34,2.03-1.41,2.7-1.58,2.9-1.62,2.95-1.65,2.91-1.69,2.87-1.73,2.58-1.94,2.53-2,2.29-2.07,2.94-2.1,1.05-1.59,2.05-2.12,1.34-1.81,1.4-1.89-.15-.87-.3-.75-.5-.61-1.62.45.65-1.47,1.22-1.86-.26-.83.88-1.71.63-.24.75-.41.75-.42.76-.44.02.41.62-.21.93-.68.47-.03-.14.57-.69.94.07.37.46-.02.46-.06.3.11.37.06-.26.64.72-.42.45-.07.72-.44.46-.09.56-.22.65-.35.84-.71.74-.52.74-.48.35.06.79-.61.65-.36.19.24-.2.64.03.42.49-.12.55-.23.82-.75.6-.34.18.23.55-.27.19.2.63-.43.46-.15.2.22.7-.51.62-.42.45-.15.13.28.29.08.3.07-.06.51.26.14.16.26.35.02.44-.11.49-.16.69-.5.84-1,.78-.75.48-.22.53-.31-.15.67.38-.02-.11.6-.27.76.15.3.55-.29,3.45-4.32,3.13-3.58,3.06-4.94,2.73-3.13,2.21-5.23,2.34-4.97,1.18-5.01,1.04-5.07,1.69-4.26,1.33-4.66.69-5.08,1.12-4.4,1.1-3.79.81-4.14.95-3.38,1.05-2.72.02-4.97.56-3.83-.75-5-1.49-4.78.59-3.02-1.15-4.78-1.59-4.45-1.31-4.19-.61-3.56-.36-3.19-1.23-3.83.64-2.05,1.79-.41,1.62-.63,1.93-.18.95-1.51,1.46-.8,2.42.75.51-1.98,2.23.37.99-1.35.12-2.31,2.74,1.23,1.61-.5.96-1.39-1.72-3.89-1.09-3.14.38-1.8-.63-2.68-.52-2.53,2.63.54.73-1.49-.66-2.61-1.72-3.23,2.87.58.16-1.98,1.25-.83.64-1.35,2.79.71.89-1.16.26-1.78-2.91-3.75-2.27-3.15-3.09-3.33-.89-2.22.35-1.48-2.67-3,.61-1.38h0Z"/>
      <path id="path4592-5" class="cls-1" d="m401.86,434.23l-.75,1.06-.44.43-.65.84-.55.63-.3.2-.61.72-.03-.23-.5.51-.84,1.17-.6.68-.44.4-.86,1.15-.88,1.29-.81,1.01-.84,1.06-.91,1.27-.35.25-.49.46-.84,1-.36.25-.52.47-.81.93-.47.39.02-.28-.94,1.09-.65.62-.29.12-.04-.2-.02-.25-.58.51.42-.75.35-.68-.42.3-.13-.09-.08-.16.31-.64-.23.03-.8.83-.89.99-.92,1.03-.5.4-.83.89-.87.93-.36.2-.54.43-.97,1.07-1.02,1.13-.63.53-.06-.14v-.22s-.16-.02-.16-.02l-.05-.16-.63.53-.06-.16-.09-.13.39-.65.19-.45-.41.26.08-.3v-.2s-.11-.12-.11-.12l-.64.55.05-.28.35-.62.38-.59.08-.27.34-.55.3-.51.75-.93.55-.79.31-.54.42-.66.74-.96.39-.65.72-.97.31-.58.73-.87.74-.95.61-.9.72-.98.41-.68.2-.45.5-.79.58-.87.53-.84.2-.46.21-.47.4-.7.02-.23.34-.65.28-.58.57-.91.19-.47-.23.12.43-.77.1-.36.48-.85.3-.64.08-.36.45-.84-.36.33-.11-.07.2-.52.26-.61.62-1.01.61-1.01.24-.6.37-.77.59-1.02.63-1,.57-1.04.23-.62.62-1.08.52-1.01.45-.95.08-.43.28-.7.14-.49.06-.37-.08-.14-.3.29-.44.57.19-.6-.26.19-.21.1-.25.19.02-.3.18-.56.23.07.45-.34.31-.06-.09.63.14.24.2.14-.11.69-.65,1.49-.76,1.59-.61,1.37-.09.6-.32.93-.5,1.17-.32.91-.63,1.34-.1.58.06.31-.06.5-.12.59.42-.24-.4,1.01.33-.08-.23.75-.53,1.15v.43s.46-.29.46-.29l-.82,1.52-.42,1.01.36-.1-.54,1.17-1.1,1.78-.78,1.41-.08.49-.22.67.43-.23.71-.65.18.13.73-.69.08.26.57-.45.11.28,1.03-1.16-.34.87-.39.92.07.28.68-.62.7-.67.53-.41,1.07-1.3.65-.59.24.06-.19.69h.28s-.04.44-.04.44l.57-.48.79-.86.42-.24.06.31.87-1.02.51-.4.18.15.94-1.15,1.01-1.34.71-.78Z"/>
      <path id="path4594-6" class="cls-1" d="m481.46,308.01l-.31.56-.08,2.05-.37.22v2.62s-.39.23-.39.23l-.64-2.76-.44-.39-.62-2.25-.48-.91-.5-.99-.73-3.3-.54-.9-.69-2.41-.68-2.01-.53-.83-.74-2.19.43,3.53.75,4.3v2.2s-.03,2.25-.03,2.25l-.21,1.21-.08,1.97-.04,2.28-.14,1.83-.58-2.02-.3.9-.53-1.27-.22,1.37-.38.08-.48-.88-.5-.72-.09,2.22v2.63l-.18,1.69-.33.5-.34.4-.21,1.52-.1,2.41-.23,1.58-.31.83-.08,3.12-.09,3.36-.26,2.7-.4.26-.09,3.68-.11,3.81-.33,2.94-.34,3.36-.45,1.97-.44,1.03-.48,2.8-.51,3.21-.59,3.5-.58,4.16-.54,1.16-.68,2.55-.74,4.02-.84,3.6-.89,3.03-.97,4.33-.97,4.21-.79,3.83-.71,3.52-1.22,4.29.92-2.71.89-2.89.86-2.56.8-3.2.73-3.15.75-3.02.71-2.73.66-2.52.64-3.23.45-3.19.58-3.28.53-1.91.53-2.64.34-3.28.39-2.98.41-2.16.25-3.25.08-3.06.29-2.78.14-3.22v-3.46s-.26-2.2-.26-2.2l.02-3.23v-3.15s-.19-3.14-.19-3.14l-.21-3.2v-2.68l-.15-3.05-.22-3.08-.26-3.07-.02-2.16.05-1.75.37.21.05-1.67-.3-2.87.03-1.58-.2-2.4.17-.87-.46-2.88-.31-2.43-.34-2.55v-1.37s-.65-3.03-.65-3.03l-.74-3.04.48.46-.1-1.57-.09-1.46-.5-2.47.31-.11-.09-1.31.02-1.05-.66-2.63-.5-2.26.23-.38-.5-2.14-.85-2.69-.46-1.98-.4-1.8-.11-1.2.71.87-.63-2.18-.24-1.39-.67-2.2-1.15-2.79-.71-1.93-.78-1.99-.39-1.39-1.04-2.29-1.11-2.29-1.21-2.23-.87-1.96-.65-1.63-1.21-2.15-1.21-2.13-1.29-1.89-1.32-2.12-1.19-2.14-1.51-2.16-.48-1.22-1.15-1.96-.21-.85-1.16-1.94-1.01-1.72-1.36-1.99-1.5-1.69-1.58-2.06-1.59-1.95-1.39-1.86-.91-1.42-1.21-1.65-1.55-1.84-1.68-1.75-1.52-1.73-1.63-1.52-1.56-1.69-1.66-1.46-.45-.9-.77-1.15-2.06-1.91-1.38-1.59-1.87-1.57-1.84-1.62-1.8-1.58-1.7-1.52-1.06-1.16v-.43s-.73-.91-.73-.91l-.85-.98-.85-.98-.63-.83.33-.17-.49-.75-1.22-1.16-1.45-1.24.3-.21-.86-.95-1.24-1.12-.25-.56-.03-.4.45-.09-1.2-1.07-1.66-1.23-.42-.62-.64-.74-1.54-1.12-1.34-1.03-1.11-.92-1.05-.89,1.38,1.14,2.23,1.44,1.62,1.27,1.4,1.2,1.82,1.4,1.89,1.46,1.17,1.17,1.73,1.47,2.15,1.28,2.34,1.6,2.32,1.54,2.33,1.96,1.56,1.63,1.55,1.66,2.1,2,2.29,2.07,2.11,2.03,1.74,1.92,2.07,1.88,1.96,1.74,1.25,1.69,1.96,2.17,1.69,2.06,1.91,2.15,1.33,1.94,1.97,2.38,1.84,2.21,1.81,2.19,1.72,2.3,1.7,2.14,1.61,1.97,1.68,2.43,1.47,2.4,1.15,2.14,1.12,2.15,1.27,2.36.7,1.75,1.19,2.43,1.41,2.72,1.53,2.78,1.49,2.65,1.33,2.19,1.41,2.71,1.32,2.47,1.44,2.88,1.21,3.13,1.05,2.91.89,2.75,1.19,2.82,1.11,3.14,1.1,3.06.96,3.16.64,2.76.27,1.94.87,3.33.41,2.52.81,2.82.76,2.92.72,2.97.65,3.06.68,2.92.65,2.87.52,3.29.38,3.21h0Z"/>
      <path id="path4596-3" class="cls-1" d="m70.74,382.3l-.99-1.38-.33-.82-1.89-2.21.18-.39,2.32,1.82h.6s-.06-.58-.06-.58l1.15.56-2.2-2.38-2.68-2.74-1.57-2.01-2.44-2.75-.26-.82-1.05-1.61-2.31-2.84-.6-1.24-1.3-1.93-1.26-1.92,1,.62-.43-1.07,1.48,1.26,1.18.85-1.16-1.84.45-.06-.77-1.42.6.16h.49s-1.31-2.02-1.31-2.02l.99.62,2.14,2.14-.31-.92.68.23-2-2.64-2.32-2.93-1.44-2.25-2.03-2.88-.71-1.5-1.4-2.34-1.2-2.15-1.47-2.5.14-.42.03-.56.54.14-.91-1.9-1.13-2.2-.53-1.42-.16-.89.28-.23-.58-1.5-.54-1.47-1.17-2.39-1.29-2.6-1.94-3.31-1.81-3.41-1.63-3.41-.71-2.09-.89-2.43-.91-2.52-1.69-3.64-1.51-3.63-.46-1.89-1.13-3.26-.4-1.88.55.41.73,1.37.18-.14.4.42-.28-1.22.15-.24.72,1.31-.26-1.16v-.59s.4.46.4.46l.41.46.4.42.56.84.96,2.15.92,1.83,1.02,2.09.66.95,1.06,2.24.86,2.06,1.04,1.95.91,1.49.82,1.27,1.01,1.75.42.32,1.01,1.61.98,1.55.85,1.2.61.68.44.35,1.11,1.75,1.13,1.99,1.06,1.55.95,1.28.67.71.07-.29.77.9.32.11.82.99.87,1.06.96,1.18.35.13,1.15,1.53,1.23,1.74.59.47,1.06,1.25,1.01,1.14,1.26,1.62,1.22,1.74,1.3,1.65.95.97,1.11,1.21.81.73.99.99-.58-1.05.05-.32.97.91.18-.16.99,1,.72.58,1.04,1.06.93.87,1.1,1.1,1.09,1.05.83.66.25-.06.29,1.08v.77s-.71,0-.71,0l-2.52-2.3-1.68-1.29-.91-.32-2.09-1.91-2.53-2.7,1.62,2.73,2.68,3.64-.45.31.39,1.27-2.8-2.77-1.43-.93.91,1.93-1.52-1.02,1.09,2.02.04.82,2.62,3.39,1.94,2.72,1.73,2.5,3.16,3.54-.78-.03,1.53,2.2.17.87-1.58-.92-.36.36-2.48-1.98.98,1.66.21.9-.39.32-1.77-1.16-3.13-2.92-2.25-1.85-1.52-.98-2.77-2.67.1.91-2.32-2.07-.66-.03-.48.18v.75s.12.9.12.9l1.89,2.78.63,1.44-2.48-2.23-.16.6-1.75-1.38-1.03-.49.47,1.24.22.95.38,1.13,1.27,2.06,1.09,1.86.21.93-1.09-.53-.82-.22,2.69,3.33,3.07,3.5,2.28,2.81.73,1.39.82,1.41.76,1.34.94,1.48,1.17,1.67Z"/>
      <path id="path4598-7" class="cls-1" d="m320.08,152.32l-.76-.5-2-.33-1.87-.34-.5-.49-1.28-.39-.81-.44-1.77-.27-1.43-.33-2.24-.12-1.8-.24-.05-.55-1.64-.29-1.13-.37.77-.58-.22-.47-.46-.44-2.11-.07-2.23.02-.44-.48-1.34-.27-2.33.13-2.47.56-2.54.43-1.66-.08-1.74.08-1.94.22-1.23-.13-2,.28-2.07.31-.81-.29-2.05.44-1.94.38-2.09.46-2.29.8-2.09.59-2.19.8-1.03-.13-1.97.53-1.71.32-.18-.56-2.11.94-2.06.91-2.02,1.19-1.58,1.24-1.96.92-1.91,1.27-1.58.54-1.9,1.05-1.32.38-1.65.81-1.12.24-1.28.42-1.88,1.28-1.64,1.53-1.7,1.04-1.35.55-1.41,1.52-1.6,1.49-1.47.93-1.57,1.26-1.58,1.17-1.46,1.71-.86.07-1.51,1.22-.59,1.89-.63,1.96-.68,2.1-1.57,2.72-.92,2.38-1.47,2.72-1.25,2.66-1.32,2.72.16,1.63-.28,2.19-.66,2.66-1.33,2.94.25,1.67-.43,2.5-.04,2.1.11,1.96.65,1.29v2.33s-.01,2.34-.01,2.34l-.26,2.6.21,2.27-.15,2.65.98.94.59,1.89-.26,2.66-.16,2.64-.05,2.71.66,2.18.67,2.37.32,2.69,1.13,1.75,1.39.44.77,2.3,1.28,1.29.81,2.34.03,2.48.54,2.38,1.31,1.65,1.3,1.48,1.36,1.37.79,2.32,1.61,1.45,1.63,1.22,1.62.1,1.48,1.23,1.53,1.13,1.68,1,1.17,1.8,1.4,1.49,1.72.85,1.19,1.62,1.71,1.01,1.05,1.68,1.23,1.56,1.86.96,2.03.16,1.53,1.17,1.15,1.39,2.06-.22,1.8.78,1.63.82,1.46.97,1.9-.28,1.85-.42-2,.14-1.58-1.01-1.96-.25-2.04.37-.22-1.88-1.69-1.24-2.02-.69-1.5-1.43-1.77-.89-1.8-.85-1.87-.83-1.41-1.54-1.31-1.8-.17-2.03-1.88-1.07-.95-2.13-1.01-2.28.39-2.21-1.61-1.58-.6-2.47-1.37-1.43-1.41-1.27-1.5-1.1-.96-2.12-1.5-.87-.96-2.12.04-2.64-.92-2.11-.39-2.34-.19-2.43.82-2.38.19-2.61-.09-2.45-.7-1.77-.17-2.36.79-2.69-.2-2.09-.43-1.78.13-2.3.12-2.24.65-2.77,1.61-2.66-.16-1.91.5-2.44-.18-1.76,1.16-2.65.28-2.08,1.53-2.64,1.21-2.65.68-2.29.59-2.18,1.54-2.65,2.42-2.61,2.16-2.63,2.71-2.39,2.74-2.39,2.88-1.98,2.98-1.87,3.15-1.64,3.03-2.1,2.55-.43,3.52-1.52,3.46-1.73,3.5-1.09,1.28-.79,1.57-.72,1.46-.73,1.29-.73,1.72-.47,1.68-.64,1.72-.41,1.62-.25,1.6-.24,1.7-.48,1.49-.07,1.79-.45,1.67-.18,1.52-.04,1.71-.46,1.84-.22,1.19.22,1.65.06,2.03-.15,1.6.15,1.9-.37,2.04-.02,1.86-.31,2.08-.03,1.68.19,1.06.36,1.87.17,1.01.4,1.57.33,1.52.36-.07.46.59.47,1.24.46,2.08.28,2.1.21,2.04.08,1.65.43,1.98.32,1.5.49,1.87.43.29.52-.81.31,1.81.6.38.55,1.62.61,2.06.55.97.61.81.6,1.8.17,2.13.5,2.05.63,1.79.73,1.65.2,2.1.67,1.31.09,1.87.46,2.06.68,1.89.88.84.75,1.84.95,1.81.91,1.52.92,1.93.85,1.93.89-.18-.45.42-.17.83.06,1.49.54-.06-.37-.2-.44-.27-.47-.09-.39-.21-.43.23-.22-.26-.45-.28-.45-.65-.61.09-.3.45-.12-.58-.58-.1-.39-.51-.56-.02-.35-.54-.56-.6-.58-.11-.39-.72-.61-.02-.35-1.75-.75-1.76-.72-1.32-.75-1.57-.76-1.53-.74-1.16-.68-.13-.42-.79-.6-1.7-.58-1.39-.63-1.24-.6-.77-.52-1.33-.57-1.39-.56-1.69-.33-1.6-.55-.29-.38-.36-.4-.63-.45-1.1-.49-.97-.46-.42-.4-.79-.44-.5-.4-1.66-.32-1.46-.42-.62-.41-1.34-.41-1.63-.33-1.57-.1-1.68-.28-.99-.39-1.57-.2-1.56-.2-1.28-.3-.9-.33-1.19-.26-1.29-.23-1.16-.27-1.56-.09h0Z"/>
      <path id="path4600-0" class="cls-1" d="m403.53,168.28l-2.14-1.46-2.2-1.38-1.21-1.1-2.14-1.42-1.55-.57-2.21-1.11-2.25-1.27-2.15-.97-2.04-1.13-1.64-1.04-1.08-.84-1.71-1.02-1.68-.99-1.98-1.02-2.19-.88-2.19-.89-1.37-.84-.03-.41-.35-.51-1.24-.77.4-.23.09-.35.21-.32-1.21-.77-2.33-.98-2.47-.69-1.19-.74-2.21-.86-2.38-.81-1.64-.76.27-.36-1.5-.74-1.32-.61-1.81-.63-1.75-.63-2.28-.48-1.74-.55-1.27-.52-1.41-.51-1.06-.48-.22-.39-.08-.37-.95-.47-.92-.46-1.84-.46-1.31-.46-.84-.45-1.93-.42-2.23-.24-1.57-.4-2.11-.14-1.97-.25-1.8-.29-1.47-.33-2.1-.18-2.17.04-1.96-.12-2.06.06-2.1.06-1.77-.13-1.71-.13-2.11.13-2,.15-1.99.16h1.65s1.88-.13,1.88-.13l1.66-.25,1.69-.22,1.81-.09,1.81-.06,1.28.22,1.88.05,1.5-.19,1.53-.17,1.57-.17,1.97.04,1.86.14,1.89.13,1.93.16,1.66.3,1.69.34,1.65.36.18.37,1.35.42,2,.36,1.71.43,2.14.31,1.98.18,1.91.34,1.75.45,1.87.35,1.86.34,1.88.37,1.86.5,1.87.43,1.78.36,1.84.35,2,.64,1.94.64,1.6.68,1.75.67,1.83.68,1.65.71,1.55.72.09.36,1.43.76,1.69.79,1.14.7,1.73.82,1.43.8,1.08.71.75.61v.34s1.08.75,1.08.75l.97.72,1.39.86,1.07.8,1.68,1.01,1.95,1.07,2,.97,1.83,1.07,1.29.95,1.73,1.1,1.13.91,1.87,1.05,1.82,1.17,1.94,1.23,1.62.83.4.36-.11.06-.03.11.11.19-.14.04.14.22.38.36.53.43-.47-.21h-.19s-.27-.06-.27-.06v.13l-.5-.23-.03.11-.04.1.14.22h-.19s.27.3.27.3l-.54-.26-.09.07-.35-.12-.43-.18-.14.03-.36-.13-.15.02-.26-.06-.39-.15-.15.02-.05.09-.32-.1-.03.1-.38-.13.03.15-.37-.12.08.17-.16.02-.14.04-.16.02.22.26h-.22s-.31-.08-.31-.08l.09.19-.46-.18-.6-.3.02.14-.3-.07-.17.03-.52-.22h-.21s.07.18.07.18l-.14.04h-.22s.02.15.02.15l.14.22.36.34.66.48.34.33.65.46.25.28.48.4.04.16.47.41.38.35.54.43Z"/>
      <path id="path4602-3" class="cls-1" d="m310.87,133.92l-.09-.03.03-.04-.11-.02-.1-.03-.05-.03-.06-.03v-.04s0-.04,0-.04l-.07-.04h-.19s-.2-.02-.2-.02h-.22s-.06-.02-.06-.02l-.08-.03-.07-.03-.02-.04-.08-.03-.15-.02-.12-.02-.13-.02-.1-.03-.04-.03.12-.04-.03-.04-.05-.03-.1-.03v-.04s.04-.04.04-.04l-.12-.02-.06-.03-.13-.02h-.19s-.08-.03-.08-.03l-.11-.02h-.16s-.14-.03-.14-.03l-.13-.02-.02-.04-.02-.04.12-.04-.04-.03-.08-.03-.12-.02.02-.04-.02-.04.03-.04.15-.04.06-.04.08-.04-.02-.04-.11-.02-.1-.02h-.17s-.05-.04-.05-.04l-.11-.02v-.04s.04-.04.04-.04l-.1-.03.04-.04.12-.04v-.04s-.11-.02-.11-.02v-.04s-.06-.03-.06-.03l-.23.02h-.22s-.15-.01-.15-.01h-.21s-.08-.04-.08-.04h-.2s0-.05,0-.05l-.1-.03-.13-.02h-.17s-.19,0-.19,0h-.18s-.15-.01-.15-.01h-.14s-.13-.03-.13-.03h-.18s-.08-.03-.08-.03l.07-.04-.08-.03.08-.05-.03-.04-.07-.03-.14-.02-.1-.02-.15-.02.02-.04v-.04s-.09-.03-.09-.03h-.23s-.13-.01-.13-.01h-.17s-.16-.02-.16-.02v-.04s.13-.04.13-.04l-.03-.03v-.04s-.04-.03-.04-.03l.04-.04-.05-.03.08-.04.02-.04-.05-.03.02-.04.1-.04.04-.04.06-.04v-.04s0-.03,0-.03l-.06-.03-.07-.03.14-.05.02-.04.1-.04.15-.04.12-.04.11-.04-.13-.02-.13-.02h-.16s-.13-.03-.13-.03v-.04s.13-.05.13-.05l-.08-.03-.03-.04-.23.02-.23.02h-.19s-.16-.02-.16-.02l-.23.03h-.22s-.22.05-.22.05l-.2.04h-.19s-.16-.02-.16-.02v-.04s-.09-.03-.09-.03l-.13-.02h-.19s-.23.02-.23.02h-.22s-.21.02-.21.02h-.19s-.22.02-.22.02l-.22.02-.15.05-.24.04-.23.02-.22.04h-.16s-.18,0-.18,0l-.05-.03h-.17s-.22.01-.22.01h-.14s-.22.01-.22.01h-.2s-.14,0-.14,0h-.18s-.18.01-.18.01h-.13s-.2,0-.2,0l-.1-.02h-.16s-.2.02-.2.02h-.18s-.16,0-.16,0h-.15s-.19,0-.19,0l-.05-.04.1-.06-.09-.02-.11-.02-.21.02h-.14s-.2,0-.2,0l-.2.02h-.18s-.13-.01-.13-.01l-.07-.03.04-.05-.21.02-.21.04-.22.03h-.15s-.18,0-.18,0l-.11-.02-.21.03-.22.04-.08-.02-.09-.02v-.04s-.1-.01-.1-.01l.04-.05-.05-.03-.04-.03h-.15s-.19.01-.19.01l-.07-.03-.09-.02h-.17s-.11,0-.11,0l-.06-.03h-.17s-.23.04-.23.04l-.2.02h-.12s-.22.04-.22.04l-.21.02-.19.02-.2.02h-.16s-.11-.01-.11-.01l-.09-.02.06-.05-.03-.04h-.13s-.2,0-.2,0l-.11-.02h-.18s-.2.03-.2.03h-.14s0-.05,0-.05v-.04s.11-.06.11-.06l.06-.05-.07-.02-.02-.04v-.04s-.11-.02-.11-.02l-.21.03-.06-.03h-.17s-.16,0-.16,0l-.21.03h-.13s-.02-.05-.02-.05l.03-.05.08-.05.08-.05v-.04s-.04-.03-.04-.03l-.02-.04.06-.05.15-.06v-.04s0-.04,0-.04l-.02-.04.09-.06h-.14s-.16,0-.16,0l.04-.05h-.13s-.1-.03-.1-.03l-.09-.02-.03-.04v-.04s-.08-.02-.08-.02l-.05-.03h-.17s-.19.03-.19.03l-.05-.03h-.17s-.04-.03-.04-.03l.06-.05.09-.06.05-.05-.07-.02.02-.05-.1-.02h-.15s.01-.04.01-.04v-.04s-.11-.02-.11-.02l.03-.05.05-.05-.09-.02-.04-.03h-.1s-.07-.04-.07-.04l-.18.02h-.17s-.13,0-.13,0l.05-.05-.04-.03.11-.07.23-.07.12-.07.06-.06.03-.05-.11-.02-.04-.04.13-.07-.05-.03-.08-.02-.09-.02.09-.06.06-.06.2-.07-.03-.04.05-.05.14-.06.09-.06.07-.05.11-.06.19-.07.04-.05.21-.07.09-.06.18-.06.22-.06.24-.05.17-.07.2-.06.23-.06.17-.06.12-.06.24-.05.2-.06.23-.05.21-.06.12-.06v-.05s.17-.06.17-.06l.2-.06.2-.05.22-.04.19-.06.22-.04.23-.05.22-.02.23-.05.17-.06.23-.03.21-.06.16-.06.15-.06.19-.05.16-.05.22-.04.16-.05.17-.05.15-.05.24-.04.19-.06.05-.05.17-.06.12-.05.17-.05v-.04s.08-.05.08-.05l.07-.05.08-.05.05-.05v-.04s.1-.05.1-.05l.14-.05.2-.06.09-.05.03-.05-.06-.03.06-.05.17-.05.22-.05.09-.05.19-.05.12-.05-.05-.04.08-.05.03-.04.05-.05-.07-.03-.08-.03.19-.05.2-.05.16-.05.17-.05.15-.05.13-.05.08-.05v-.04s-.01-.03-.01-.03l.05-.04.11-.05.12-.05-.04-.03.06-.04-.05-.03v-.03s-.11-.02-.11-.02l-.07-.02v-.04s.1-.05.1-.05l.06-.04-.05-.03v-.04s-.16,0-.16,0l.07-.05-.04-.03-.11-.02h-.16s.19-.06.19-.06l.06-.05.04-.05-.11-.02h-.17s-.05-.03-.05-.03l.03-.04v-.04s-.17,0-.17,0l-.09-.02.03-.04-.09-.02.02-.04v-.03s.02-.04.02-.04l.02-.04v-.04s-.05-.03-.05-.03l.13-.05.14-.05.09-.05-.02-.04v-.04s.18-.05.18-.05l.23-.04.15-.05.13-.05.18-.05.04-.04-.03-.03.11-.05.17-.05.14-.05.03-.04-.12-.02v-.04s.11-.05.11-.05l.07-.04.06-.04.06-.04h-.16s-.07-.03-.07-.03v-.07s.01-.05.01-.05l.18-.05.26-.04.18-.05.12-.05-.04-.04.18-.05.19-.05.02-.04.09-.05-.09-.03-.1-.02.04-.04.04-.04-.05-.03-.09-.03-.12-.02h-.14s-.17-.02-.17-.02h-.21s.03-.04.03-.04l.1-.05-.05-.03-.09-.03v-.04s-.05-.03-.05-.03v-.04s-.02-.04-.02-.04l.03-.04.19-.05.03-.04.12-.05-.05-.03.03-.04-.08-.03-.08-.03h-.18s-.01-.05-.01-.05l-.25.02h-.21s.14-.05.14-.05l.11-.05.04-.05.19-.05.12-.06-.04-.04-.09-.03h-.17s-.22,0-.22,0h-.19s-.14,0-.14,0l-.22.02h-.21s-.17,0-.17,0v-.04s-.13-.02-.13-.02h-.2s-.14,0-.14,0l-.05-.03h-.18s-.19,0-.19,0l-.23.02-.04-.03h-.14s-.07-.04-.07-.04l.06-.05-.03-.03-.08-.02-.05-.03.09-.05v-.04s.01-.04.01-.04l.12-.05.15-.05.14-.05.12-.05.13-.05.1-.05.18-.05.13-.05v-.04s.16-.05.16-.05l-.1-.02-.07-.03.11-.05.14-.05.06-.04.14-.05.17-.05.06-.04.15-.04.12-.04-.02-.03.08-.04.13-.05.1-.04.14-.05.2-.04.21-.04.22-.02.22-.03.2-.04.21-.04.1-.05.24-.04.23-.02.21-.04.18-.05.1-.05.06-.04.17-.04.19-.04.11-.04.06-.04.09-.04.14-.04.15-.04.16-.04.11-.04.16-.04.24-.04h.23s.21-.05.21-.05l.18-.04.19-.04.03-.04.19-.04.2-.04-.08-.03.08-.04-.09-.02h-.19s-.06-.03-.06-.03l.06-.04-.04-.03-.1-.02-.08-.03v-.04s.18-.05.18-.05l.06-.04h-.19s-.04-.04-.04-.04l-.1-.02-.12-.02-.03-.03-.12-.02v-.03s0-.04,0-.04l.02-.04.06-.04.12-.04.11-.04.15-.04.22-.04.07-.04.15-.04v-.04s.06-.04.06-.04v-.04s.13-.04.13-.04l.08-.04v-.04s-.1-.03-.1-.03v-.04s.16-.04.16-.04l.09-.04.13-.04.19-.04.18-.04.23-.03.21-.04.1-.04.17-.04.23-.03.2-.03.19-.04-.03-.03-.06-.03v-.03s.02-.04.02-.04l.04-.04.05-.04.14-.04v-.04s.03-.04.03-.04l-.13-.02v-.03s.02-.04.02-.04l-.07-.03.06-.04.04-.04.14-.04v-.04s.08-.04.08-.04l.06-.04.14-.04-.03-.03.1-.04.02-.04-.14-.02h-.15s-.07-.04-.07-.04l-.13-.02.02-.04-.12-.02-.04-.03-.06-.03.02-.04h-.17s-.17-.02-.17-.02l-.02-.03-.05-.03-.15-.02v-.04s.14-.04.14-.04v-.04s-.13-.02-.13-.02l-.09-.02h-.14s-.09-.03-.09-.03h-.16s-.23,0-.23,0l-.11-.02v-.04s-.21,0-.21,0h-.2s-.1-.02-.1-.02h-.19s-.19,0-.19,0h-.14s-.14-.02-.14-.02h-.15s-.25.02-.25.02l-.24.02h-.18s-.16-.02-.16-.02l-.13-.02-.24.02h-.17s-.03-.04-.03-.04l-.06-.03h-.2s-.16-.01-.16-.01h-.16s.04-.05.04-.05l.02-.04-.1-.02.04-.04-.07-.03.05-.04.2-.05.1-.05.08-.05-.05-.03v-.04s-.18,0-.18,0l.02-.04.02-.04.11-.05.21-.04.13-.05.22-.04.07-.04.11-.04-.02-.03v-.03s-.03-.03-.03-.03l-.02-.03-.05-.03-.08-.02-.03-.03-.12-.02.14-.04.13-.04.02-.04-.08-.02.08-.04.13-.04v-.03s.06-.04.06-.04l.06-.04v-.03s.12-.04.12-.04v-.04s-.13-.02-.13-.02h-.18s.06-.05.06-.05l-.12-.02.09-.04.05-.04.04-.04.16-.05.17-.04.16-.04.15-.04.15-.04.19-.04.23-.04.25-.02.23-.04.23-.04.13-.04.14-.04.19-.04-.15-.02.02-.04.03-.04-.13-.02.19-.04.13-.04.15-.05-.04-.04-.06-.03-.05-.03-.02-.03v-.04s-.03-.03-.03-.03l.09-.04.09-.04v-.03s-.1-.02-.1-.02v-.03s-.01-.03-.01-.03v-.03s.02-.04.02-.04l.18-.04.17-.04.09-.04-.06-.03v-.03s-.08-.02-.08-.02l-.1-.02.08-.04v-.03s-.08-.02-.08-.02l.04-.04-.06-.03v-.04s-.01-.03-.01-.03l.02-.04.12-.04.02-.04.15-.04.11-.04-.06-.03v-.04s-.05-.03-.05-.03l-.04-.03-.07-.03-.11-.02h-.2s-.07-.03-.07-.03l.08-.04v-.03s.05-.04.05-.04l-.07-.03v-.04s.15-.04.15-.04l-.08-.03.04-.04-.08-.03.04-.04.04-.04.17-.04.23-.04.12-.04.19-.04.15-.04.06-.04.21-.04.11-.04.21-.03.21-.03.22-.03.11-.04.22-.03.12-.04.2-.04.12-.04.1-.04.25-.03.18-.04.24-.03h.25s.14-.05.14-.05l.13-.04.03-.04.09-.04v-.04s.05-.04.05-.04l-.16-.02-.11-.02-.04-.03.13-.04.19-.03.05-.04-.03-.03.06-.04.02-.03.13-.04.04-.04.16-.04-.11-.03-.03-.04.18-.04.27-.02v-.04s.17-.04.17-.04l-.04-.03-.11-.02-.03-.03-.04-.03-.09-.03.02-.04h-.21s-.1-.03-.1-.03h-.22s-.1-.03-.1-.03h-.19s-.25,0-.25,0h-.17s-.25,0-.25,0l-.07-.03h-.2s-.12-.03-.12-.03l-.14-.02-.14-.02h-.25s-.15,0-.15,0l-.02-.03-.09-.03.08-.04-.09-.02.04-.04v-.03s-.1-.02-.1-.02h-.16s0-.05,0-.05l.05-.04v-.03s-.05-.03-.05-.03l.08-.04-.11-.02h-.15s-.05-.04-.05-.04l.08-.04v-.03s0-.03,0-.03l-.07-.02-.09-.02.03-.04-.07-.03-.13-.02v-.03s-.05-.03-.05-.03l.08-.04v-.03s0-.04,0-.04v-.03s.1-.04.1-.04l-.1-.03h-.24s-.06-.02-.06-.02l-.08-.03.22-.04.15-.04.14-.04-.02-.03.15-.04.06-.04.08-.04.19-.04.09-.04.08-.04.02-.04-.02-.03.2-.04.09-.04.06-.04.21-.04.14-.05.22-.04-.11-.03.08-.05-.03-.04v-.04s-.25,0-.25,0l-.11-.03.1-.04.06-.04.14-.04.06-.04.28-.02.25-.04.26-.04.15-.04.25-.04.11-.04.26-.02.26-.02.23-.03.17-.04.04-.04.04-.04.21-.03.25-.02h.24s.24-.03.24-.03l.17-.03.2-.03.23-.02.25-.02.15-.03.11-.04.23-.02.23-.02.21-.03.08-.04.22-.03h.25s.14-.04.14-.04l.05-.03.18-.03.15-.03h.25s.18-.04.18-.04l.08-.04.21-.03.23-.02.11-.03.23-.02.13-.03.13-.03.15-.03-.02-.03.13-.03-.08-.03.04-.03-.1-.03.05-.04.2-.03.22-.03.11-.04v-.04s.21-.02.21-.02l.15-.03h.25s.24-.03.24-.03l.14-.03v-.03s.09-.03.09-.03l.18-.03.15-.03.16-.02.18-.02.12-.03.14-.03.16-.03.16-.02.19-.02h.23s.23-.01.23-.01h.23s.22-.01.22-.01l.21-.02.21-.02h.24s.24,0,.24,0h.25l.21-.02h.25s.23,0,.23,0l.22-.02.06-.04h.26s.22-.02.22-.02l-.03.03.06.03.02.03.09.03-.02.03-.1.03-.14.02-.11.02.04.03v.03s.06.03.06.03l.05.03-.02.03-.08.03-.07.03-.18.02-.12.02-.11.02-.16.02h-.22s-.17.02-.17.02h-.2s-.21,0-.21,0h-.21s-.17.03-.17.03l-.06.03-.14.02-.13.02v.03s-.12.03-.12.03h-.19s-.16.04-.16.04h-.19s-.18.02-.18.02h-.2s-.17.02-.17.02h-.2s-.2,0-.2,0h-.2s-.19,0-.19,0h-.21s-.17.02-.17.02l-.17.02h-.2s-.17.03-.17.03l-.17.02h-.19s-.15.03-.15.03l-.08.03v.03s-.03.03-.03.03l.08.03-.21.02-.2.02-.13.03-.05.03h-.2s-.2.03-.2.03l-.13.03-.21.02-.18.02-.13.03-.18.02h-.22s-.19.02-.19.02h-.19s-.19.03-.19.03h-.19s-.2.01-.2.01h-.18s-.19.01-.19.01h-.2s-.21.02-.21.02h-.19s-.19.01-.19.01l-.18.02-.19.02h-.2s-.2.03-.2.03l-.13.03-.14.03-.2.02-.09.03-.08.03-.1.03-.14.03-.18.02h-.21s-.09.05-.09.05l-.09.03-.04.03-.05.03-.17.03-.18.02-.19.02-.15.03-.19.02-.18.02h-.19s-.21.02-.21.02h-.19s-.18.01-.18.01h-.2s-.16,0-.16,0h-.2s-.21.03-.21.03l-.2.02-.17.03-.2.03-.16.03-.06.03-.07.04h-.18s-.21.02-.21.02h-.21s-.19.05-.19.05l-.2.02-.16.03-.18.03-.15.03h-.15s-.07-.03-.07-.03h-.15s-.22.01-.22.01l-.2.02h-.19s-.2.03-.2.03h-.18s-.2.03-.2.03l-.16.04-.2.02h-.19s-.2.03-.2.03l-.2.02-.14.04-.21.03h-.16s-.21.02-.21.02h-.2s-.15,0-.15,0l-.19.04-.19.04h-.21s-.22.04-.22.04l-.19.03-.16.04-.21.03-.18.04-.13.04-.09.04-.19.04-.08.04-.2.02-.19.04-.14.04-.21.03-.17.04-.2.03-.19.02-.2.03.08.02-.04.04-.13.04-.04.04-.1.04-.18.04-.2.04-.12.04-.2.03-.19.04-.2.04-.12.04-.2.04-.11.04-.15.04-.14.04-.14.04-.17.04-.21.03-.19.04-.07.04-.11.04-.03.03-.1.04-.1.04-.07.04-.09.04-.07.04.03.02.02.03-.03.04-.13.04-.18.04-.11.04-.2.03-.19.04-.11.04-.17.04-.13.04-.13.04-.06.04-.1.04-.12.04-.06.04-.11.04-.18.04-.05.04-.06.04-.06.04-.12.04-.17.04-.15.04-.08.04-.13.05-.07.04.04.02-.07.04-.08.04h.09s.04.03.04.03l.08.02-.07.04-.11.04v.03s-.09.04-.09.04l.04.02-.1.04-.12.05-.06.04-.05.04.02.03h.13s.05.03.05.03l-.09.05-.11.05-.2.05-.04.04-.1.05-.2.05-.15.05h.12s-.02.04-.02.04l.18-.02h.14s0,.03,0,.03l-.1.05-.04.04h.1s-.02.04-.02.04l-.05.04h.09s.05.04.05.04l.19-.02h.13s.11,0,.11,0h.09s.02.04.02.04l.02.02.05.02.03.02-.14.05-.08.04.07.02-.06.04v.03s.06.01.06.01l.06.02.03.02-.03.03-.03.03-.02.03.05.02.06.02.04.02-.02.03v.03s.14,0,.14,0l.07.02h.14s.17-.02.17-.02l-.07.04-.04.04v.03s.1,0,.1,0h.12s.06.02.06.02h.09s-.06.05-.06.05l-.19.04-.12.05-.13.05-.03.04-.05.04-.13.04.07.02-.07.04v.03s-.05.04-.05.04l-.11.04-.18.04-.14.04-.1.04v.03s-.1.04-.1.04v.03s-.07.04-.07.04l-.09.04-.12.04.02.03h.11s-.06.05-.06.05l-.09.05-.19.04-.15.05-.15.05-.09.04-.16.05-.17.05-.1.05-.08.04h.07s0,.04,0,.04h.08s.15,0,.15,0l.17-.02h.09s.07.02.07.02l-.03.04-.03.03-.06.04h.1s-.02.04-.02.04l.05.02h.11s0,.04,0,.04l-.03.03.02.03.07.02.03.03-.08.04h.1s.19-.01.19-.01h.09s.15,0,.15,0l.05.02h.14s.1,0,.1,0h.15s.2-.04.2-.04h.16s.17-.03.17-.03l.18-.02-.06.04-.06.04v.03s-.15.05-.15.05h.12s0,.04,0,.04h.11s0,.04,0,.04l-.13.04-.02.03v.03s.04.02.04.02l-.05.04-.12.04-.05.04-.06.04-.1.04.02.03-.05.04-.1.04-.06.04.02.03.06.02h.13s.15,0,.15,0l.03.02v.03s.04.02.04.02l-.05.04v.03s-.03.03-.03.03v.03s-.06.04-.06.04l-.12.04v.03s-.09.04-.09.04l.05.02-.09.04-.07.04-.13.05-.16.05-.04.04-.19.04-.2.04-.1.04-.04.04-.13.05-.08.04-.19.05-.11.05-.07.04-.16.05-.06.04-.12.05-.03.04.08.02-.19.05-.16.05-.2.04-.2.03-.18.05-.15.05-.19.05-.13.05-.19.02-.21.05-.14.05-.19.05-.16.05-.18.04-.18.05-.12.05-.04.04-.1.05-.17.05-.11.05-.12.05-.16.05-.09.05-.19.05-.2.04-.18.02-.19.03h-.14s-.18.06-.18.06l-.19.05-.19.05-.18.05-.18.05-.17.05-.12.05-.12.05-.19.04-.18.05-.2.04-.16.06-.14.06v.04s-.19.06-.19.06l-.16.06-.14.06-.13.06-.09.05-.18.06-.17.07-.09.06-.22.06-.18.07-.2.07-.22.06-.21.04-.21.04-.21.06-.13.06-.08.05-.05.05v.03s0,.04,0,.04l-.11.06-.09.05.06.02h.08s-.07.06-.07.06l.05.02-.07.05-.13.06-.05.05.05.02h.08s-.05.06-.05.06l.17-.03h.11s-.02.04-.02.04l.05.02.17-.02h.1s.05.02.05.02l-.05.04-.07.05v.03s.08.01.08.01l-.04.04-.02.04-.05.04-.11.06-.02.04h.13s0,.03,0,.03v.03s.1,0,.1,0l.18-.03h.15s.01.02.01.02l.05.02-.03.04-.14.06v.03s-.06.04-.06.04l-.07.05v.03s-.17.06-.17.06l-.18.05-.09.05-.13.06v.03s-.07.05-.07.05l-.15.06-.11.05.03.02.04.02-.02.04.03.02-.04.04-.07.05-.06.05-.13.06h.14s.17-.04.17-.04l.04.02h.09s-.11.06-.11.06v.04s.02.03.02.03h.08s0,.04,0,.04l-.07.05.04.02h.14s.05,0,.05,0l-.04.04-.06.04.02.02-.05.04-.06.04.04.02-.02.03-.15.05-.08.05-.07.05v.03s-.1.05-.1.05l-.06.04-.16.05-.1.05-.13.05-.03.04-.17.05-.12.06-.12.05-.07.05-.06.04-.1.05.03.02-.06.04-.07.05.03.02.05.02v.03s-.09.05-.09.05l-.08.05-.15.05-.11.05-.09.05-.07.05-.13.05-.16.05-.15.05-.15.05-.13.06-.17.04-.12.05-.14.05-.03.04-.14.06-.16.05-.14.06-.11.05-.08.05-.15.05-.15.05-.13.05-.09.05-.12.05-.13.05-.11.05-.13.05-.06.04-.14.06-.1.05-.12.05-.09.05-.15.05-.1.05-.06.05-.13.06-.15.06-.16.06-.1.06-.15.06-.17.06-.12.06-.16.06-.17.06-.11.06-.06.05-.04.04-.07.05-.06.05.03.02-.07.05-.11.06v.03s-.14.06-.14.06l-.16.05-.16.05-.13.06-.1.06-.16.06-.13.06-.16.05-.07.05-.13.06-.16.07-.17.05-.15.06-.11.06-.15.07-.16.04-.19.07-.15.07-.15.07-.13.07-.18.06-.18.06-.18.06-.16.04-.18.07-.14.07v.03s-.1.07-.1.07l-.17.07-.14.07-.14.07-.18.06-.08.06-.05.05-.12.07-.1.06v.04s.04.02.04.02l-.03.05v.04s-.19.07-.19.07l-.18.07-.13.07-.17.07-.12.07-.18.08-.07.06v.04s-.16.05-.16.05l-.15.07-.15.05-.15.05-.16.05-.15.07-.16.05-.15.07-.14.04-.15.04-.16.05-.12.02-.13.07-.17.06-.16.05-.16.07-.16.06-.16.06-.16.07-.15.07-.14.03-.17.07-.13.03-.12.02-.1.07-.16.07-.17.06-.14.08-.16.06-.15.07-.16.06-.15.07-.12.07-.17.08-.12.08-.18.08v.04s-.07.06-.07.06l-.13.08-.07.06.04.02-.06.06v.03s-.1.07-.1.07l-.03.05.03.02.03.02h.07s.03.03.03.03l.12-.02h.09s-.04.05-.04.05l-.03.05.03.02-.06.06-.14.08-.1.07v.04s-.06.05-.06.05v.04s-.08.06-.08.06l.02.03-.02.04-.09.07-.16.07-.16.06-.16.08-.16.06-.13.08-.12.08-.17.08-.11.08-.13.08-.13.08-.08.07-.03.05-.02.04-.09.07-.09.07-.11.07-.16.07-.16.06-.16.08-.08.07-.12.08-.16.08-.05.06-.13.08-.12.07-.15.08-.1.07-.08.06-.11.07-.04.05-.08.06-.13.08-.14.06-.14.06-.12.07-.14.07-.13.08-.15.07-.08.07-.07.06-.14.07-.15.07-.13.08-.06.06-.05.06-.02.04-.13.07-.07.06-.07.06-.12.07-.14.07-.11.07-.12.07-.14.06-.11.07-.1.07-.12.06-.13.07-.13.06-.13.07-.13.06-.12.07-.12.07-.13.07-.03.05-.11.08-.07.06.04.02-.12.08-.05.06-.04.05-.07.06-.1.08-.13.08-.14.06-.15.08-.05.06-.1.08-.15.08-.13.08-.12.07-.13.06-.12.07-.12.07-.13.06-.13.07-.13.06-.13.08-.13.07-.13.08-.14.08-.06.07-.11.07-.13.07-.13.07-.1.08-.09.07-.03.05-.14.08-.09.08-.14.08-.09.08-.14.06-.14.08-.09.07-.13.08-.14.07-.13.08-.13.06-.13.07-.14.06-.1.03-.14.07-.12.08-.13.06-.12.05-.11.08-.13.07-.13.07-.12.08-.11.08-.1.08v.04s-.08.07-.08.07l-.12.08-.13.08-.12.09-.14.07-.05.06-.11.08-.02.05-.08.07-.12.08-.11.08-.13.08-.13.08-.11.07-.13.07-.12.08-.11.08-.12.08-.08.07-.1.08-.09.07-.14.08-.12.09-.14.09-.08.08-.14.07-.12.05-.14.07-.12.05-.06.07-.04.06-.1.09-.06.07-.11.08-.11.09-.13.08-.14.08-.09.08-.15.09-.11.09-.04.06-.07.07-.07.08-.14.09-.1.09-.13.08-.14.09-.12.09-.12.09-.14.07-.13.1-.11.09-.1.09.03.02-.07.08-.06.07-.05.07-.08.08-.04.06v.03s-.07.09-.07.09l-.14.09-.1.09-.11.09-.08.08-.13.1-.09.09-.07.08-.06.07-.15.09-.14.11h-.08s-.15.09-.15.09l-.14.09-.13.09-.14.1-.14.08-.13.09-.14.08-.13.08-.11.05-.14.08-.14.1-.13.06-.08.02-.11.09-.09.09-.12.1-.13.1-.13.09-.13.1-.12.09-.13.1-.15.09-.13.11-.12.1-.08.09-.03.06-.1.1-.05.07-.12.1h.04s0,.05,0,.05l-.09.09-.02.06-.06.08-.06.08-.09.09-.13.11h.05s.1-.03.1-.03h.04s.12-.04.12-.04l.03.02h.04s-.05.09-.05.09l.04.02v.04s-.06.08-.06.08l-.07.08-.07.08-.07.09v.05s.04.01.04.01l.02.03-.11.1-.12.09-.07.08-.13.1-.05.07-.06.08-.12.1-.09.09-.1.1-.04.07-.03.06h.05s-.13.1-.13.1l-.12.1-.03.06-.1.1v.04s-.07.09-.07.09l-.1.1-.11.1-.13.09-.1.1-.11.1-.13.09-.04.07-.1.1-.05.08.02.03v.05s.05,0,.05,0l-.02.05-.02.05-.04.07v.03s-.09.1-.09.1l-.04.07-.06.08-.08.09-.08.09-.11.1.06-.02.09-.05.09-.06.09-.06.05-.02.08-.04.08-.04.07-.03.06-.06.09-.07.07-.07.09-.07.09-.06.09-.06.09-.07.08-.05.08-.05.07-.03.08-.06.08-.06.08-.06.08-.07.07-.04.09-.06.07-.03.07-.03.09-.06.08-.04.09-.05.08-.07.08-.06.08-.06.1-.07.08-.04.11-.07.09-.08.07-.07.09-.07.09-.05.1-.08.06-.02.1-.06.07-.03.1-.06.06-.02.08-.04.06-.02.08-.04.09-.05.09-.07.09-.07.07-.07.05-.06.07-.07.07-.07.08-.06.09-.06.09-.06.09-.06.09-.07.03-.05.05-.06.11-.07.08-.07.06-.06.07-.06.09-.07.08-.06.09-.07.09-.05.08-.06.08-.06.07-.06.09-.06.09-.06.08-.06.1-.07.08-.06.09-.05.09-.05.09-.05.08-.05.1-.06.09-.06.09-.06.09-.07.1-.07.05-.06.09-.06.09-.07.09-.05.08-.03.09-.05.07-.03.09-.05.09-.07.05-.06.09-.07.1-.07.11-.07.11-.06.09-.07.09-.04.11-.06.1-.06.1-.07h.04s.1-.04.1-.04l.1-.06.1-.06h.06s.1-.07.1-.07l.08-.03.08-.03h.03s.08-.02.08-.02l.07-.02.09-.04h.05s.04,0,.04,0h.05s.1-.05.1-.05l.1-.06.1-.05.1-.05.07-.02.08-.03.06-.02.09-.07.1-.05.1-.07.06-.06.09-.04.1-.06.09-.06.09-.06.04-.05.06-.06.09-.06.08-.06.1-.05.1-.06.08-.07.1-.06.05-.05.07-.06.1-.07.07-.06.08-.07.1-.07.1-.05.11-.07.09-.04.1-.05.1-.06.1-.07.09-.04.08-.03.1-.05.09-.04.11-.06.11-.06.07-.06.09-.07.08-.06.02-.04.04-.05.08-.06.1-.05.1-.06.09-.05.1-.05.09-.06.1-.06.1-.05.1-.05.09-.03.11-.05.11-.06.1-.05.08-.06.09-.06.08-.06.11-.06.08-.06.06-.05.09-.06.05-.05.08-.06.05-.05.07-.06.1-.06.1-.05.08-.02h.05s.1-.04.1-.04l.09-.03.11-.06.1-.06.09-.03.08-.02.11-.05v.02s.1-.02.1-.02l.02.02.09-.03.08-.02.1-.04.11-.06.1-.06.1-.04.1-.04.1-.06.11-.06.11-.05.09-.03.02.02h.06s.05,0,.05,0l.1-.04.11-.05.1-.04.08-.02.09-.03.1-.04.1-.05.1-.04h.07s.09-.07.09-.07l.1-.06.11-.05.1-.04.1-.06.09-.05.1-.04.1-.05.1-.04.1-.05.1-.06.09-.05.1-.04.11-.05h.05s.08-.02.08-.02l.11-.05.09-.06.11-.04.1-.06.11-.05.08-.02.11-.05.1-.06.09-.03.1-.05.09-.04.1-.04.1-.03.11-.04h.05s.05,0,.05,0l.12-.06.11-.04.11-.04.09-.02.1-.03.12-.05.11-.04.12-.06.13-.06h.08s.01.02.01.02l.09-.02.11-.04.09-.02.12-.05.1-.03.12-.06.1-.03.12-.05.1-.03.12-.05.11-.06.11-.04h.08s.09-.04.09-.04l.1-.03.11-.04.11-.04-.02.04h.06s.07,0,.07,0h.06s0,.03,0,.03l-.07.05v.03s-.03.04-.03.04l.12-.05.11-.03h.06s.03.01.03.01l.02.02h.06s.12-.04.12-.04l.1-.03h.06s.06,0,.06,0l-.02.04-.03.04h.07s.1-.03.1-.03l.1-.03h.07s.09-.03.09-.03h.05s.06,0,.06,0l.1-.03.08-.02h.04s.03.02.03.02l.02.02h.04s-.02.04-.02.04v.03s.02.02.02.02v.03s-.06.05-.06.05l.03.02h.07s-.02.03-.02.03l-.03.04h.03s0,.04,0,.04h.03s-.03.05-.03.05l-.04.04v.06s.06,0,.06,0l.09-.02v.02s.1-.01.1-.01v.02s-.03.05-.03.05l-.04.04h.07s.04,0,.04,0l.09-.02.02.02h.07s.09-.03.09-.03h.07s.06-.01.06-.01l.03.02-.04.04.02.02h.03s-.06.06-.06.06v.03s-.05.04-.05.04l-.05.05-.08.05-.02.04v.02s0,.03,0,.03l.03.02.02.02.1-.02h.07s-.06.04-.06.04l.02.02.03.02.03.02v.03s.05,0,.05,0h.12s-.01.03-.01.03h.08s.09-.04.09-.04h.07s.05,0,.05,0h.07s.06-.02.06-.02l.08-.02.1-.03.12-.05.11-.04.11-.04.12-.06.11-.04.11-.05.11-.05.11-.03h.05s.04.02.04.02h.08s.11-.04.11-.04l.12-.04.12-.03.12-.06h.05s.06,0,.06,0l.11-.03.09-.02.13-.04.12-.06.11-.03.11-.03.11-.05.11-.05.12-.05.11-.05.11-.04.12-.04.11-.04.12-.05.13-.05.11-.03.09-.02.11-.03h.09s.09-.03.09-.03l.11-.03.13-.05.11-.02.1-.02.13-.04.12-.04h.07s.1-.02.1-.02v.03s.03.02.03.02h.07s.09-.02.09-.02l.11-.02.09-.02.03.02-.03.04h.04s0,.05,0,.05l-.08.06v.03s0,.03,0,.03l-.07.05.1-.02.03.02h.04s.05.02.05.02l.09-.05.08-.05.11-.05.06-.05.1-.05.11-.05.12-.04.12-.05.13-.05.13-.04h.08s.12-.04.12-.04l.12-.05.13-.05.11-.05.09-.05h.05s.12-.03.12-.03l.12-.04.11-.03.12-.05.11-.03.11-.03.12-.05.11-.05.12-.04.09-.05.11-.04.12-.05.12-.04.11-.03.11-.04h.06s.09-.01.09-.01l.02.02h.06s.03.02.03.02l.1-.02h.05s.09,0,.09,0l.13-.05.12-.06.13-.04.13-.04.13-.04h.09s.07,0,.07,0l.11-.02.11-.03.11-.04.11-.04.11-.03.11-.04.12-.04.13-.04.1-.02.12-.03.1-.02.12-.03.12-.04h.07s.11-.02.11-.02h.07s.11-.03.11-.03v.03s-.08.04-.08.04v.02s.02.02.02.02h.04s0,.04,0,.04v.03s.04,0,.04,0h.06s.04.02.04.02v.02s.04.02.04.02l.11-.02.12-.03.11-.02.03.02-.02.03-.03.03-.06.04v.03s.01.02.01.02l-.06.04h.04s.03.03.03.03v.02s.07,0,.07,0l.03.02v.03s.09-.01.09-.01l.12-.03.12-.03h.06s.07,0,.07,0h.09s.05,0,.05,0l.1-.02.12-.03.13-.04h.1s.14-.05.14-.05l.13-.03.13-.04h.08s.13-.03.13-.03l.09-.05.13-.05.14-.05.13-.03h.04s.09,0,.09,0h.04s-.02.05-.02.05h.06s.12-.02.12-.02v.03s.06,0,.06,0h.09s.11-.03.11-.03h.06s.02.02.02.02h.04s.04.02.04.02h.09s.11-.02.11-.02h.08s.1-.02.1-.02h.08s.09-.02.09-.02h.09s.11-.04.11-.04h.08s.12-.03.12-.03l.11-.03.12-.04.11-.03.1-.02.11-.02.12-.04.11-.04.12-.03h.09s.1-.03.1-.03h.06s.1-.01.1-.01l.12-.03h.09s.11-.03.11-.03h.07s.13-.03.13-.03h.1s.01.01.01.01h.09s.05,0,.05,0h.08s.09-.02.09-.02h.04s.09,0,.09,0h.09s.12-.05.12-.05l.11-.02.12-.03.1-.04.11-.03.11-.02.11-.02.11-.02h.08s.12-.02.12-.02l.12-.03.12-.03.12-.04.1-.04.08-.04.11-.04.12-.04.08-.04.12-.03.12-.04.11-.04.09-.04h.09s.12-.02.12-.02h.1s.11-.02.11-.02l.13-.03.12-.04.12-.02.13-.03h.08s.11-.01.11-.01h.11s.12-.03.12-.03l.03.02.02.02h.1s.05,0,.05,0l.12-.04.12-.04.12-.03.13-.03h.09s.11-.02.11-.02l.13-.03.13-.02v.02s-.04.03-.04.03v.02s0,.03,0,.03h.11s.04,0,.04,0h.08s.06,0,.06,0l-.02.03.03.02h.1s.05,0,.05,0l.12-.02h.06s.09,0,.09,0h.09s.12-.04.12-.04l.12-.02h.1s.12-.03.12-.03l.11-.03.11-.04.13-.03.12-.02.06-.04.12-.04.13-.04.06-.04.12-.04.13-.03.14-.03h.11s.09-.01.09-.01h.11s.1-.02.1-.02l.11-.02.04.02h.09s.04.01.04.01h.1s.14-.03.14-.03h.09s.13-.03.13-.03l.13-.03h.11s.02.02.02.02h.11s.13-.03.13-.03h.09s.12-.02.12-.02h.1s.12-.02.12-.02h.09s.09,0,.09,0h.08s.09,0,.09,0l.11-.03.12-.02.12-.02.11-.02.09-.03.12-.03.12-.02.12-.02.1-.03.07-.03.11-.03.06-.03.06-.03.11-.03.12-.03.13-.02.13-.02.13-.03.13-.03.09-.04.13-.02.13-.02h.07s.11,0,.11,0l.11-.03h.12s.08-.01.08-.01h.11s.1-.02.1-.02l.12-.02.11-.02.11-.02h.09s.1,0,.1,0l.12-.03h.13s.02,0,.02,0h.1s.1,0,.1,0h.08s.1,0,.1,0l.11-.02h.09s.11-.01.11-.01h.12s.11-.04.11-.04l.12-.02h.09s.04.02.04.02l-.02.03h.11s.08,0,.08,0h.09s.09,0,.09,0h.12s.1-.02.1-.02l.02.02h.08s.09,0,.09,0h.12s.11-.02.11-.02l.04.02h.08s.08,0,.08,0h.11s.11-.02.11-.02h.1s.05.01.05.01h.09s.1,0,.1,0h.1s.02.02.02.02h.12s.07,0,.07,0h.1s.14-.01.14-.01l-.02.03h.06s.11.01.11.01l.02.02.02.02h.06s-.04.04-.04.04v.02s.04.02.04.02v.02s-.03.03-.03.03l-.04.03h.13s.11-.04.11-.04l.12-.02h.12s.08,0,.08,0h.11s.13-.02.13-.02h.12s.13-.03.13-.03h.12s.11-.03.11-.03l.12-.02h.08s.09,0,.09,0l.13-.02h.12s.11-.01.11-.01h.1s.08,0,.08,0h.06s.07.02.07.02h.11s.1,0,.1,0h.12s.12-.02.12-.02l.12-.02.12-.02h.12s.12-.01.12-.01h.13s.08,0,.08,0h.08s-.08.04-.08.04v.02s-.01.02-.01.02v.02s.02.02.02.02l.04.02v.02s-.03.02-.03.02h.1s.09,0,.09,0h.07s.05.02.05.02l.04.02-.05.03v.02s.04.01.04.01l-.1.03-.05.03v.02s-.02.03-.02.03h.08s.11.01.11.01v.03s0,.02,0,.02h.1s.07,0,.07,0l.03.02h.09s.08.02.08.02h.13s.04,0,.04,0h.09s.09,0,.09,0h.09s.12,0,.12,0h.07s.03.03.03.03l-.06.03h.06s.05.03.05.03h.09s.03.02.03.02h.06s.05.02.05.02l.02.02h.05s0,.03,0,.03l.03.02h.12s.1,0,.1,0h.06s.06.03.06.03h.12s.1,0,.1,0l.12-.02h.11s.11,0,.11,0h.1s.03.02.03.02h.1s.09.01.09.01h.07s-.03.04-.03.04l.03.02h.09s.04.02.04.02l.04.02v.02s.04.01.04.01h.07s.09.02.09.02l.04.02h.08s.03.03.03.03h.12s.11,0,.11,0h.11s.1,0,.1,0h.11s.06,0,.06,0h.11s.12-.01.12-.01h.12s.1,0,.1,0h.11s.12-.02.12-.02h.12s.11,0,.11,0h.11s.05.02.05.02l-.03.03.04.02h.09s.07.02.07.02h.13s.11,0,.11,0h.1s.02.03.02.03l.03.02.04.02h.06s.03.03.03.03h.06s.09.02.09.02h.07s.12,0,.12,0h.11s.1,0,.1,0h.08s.06.03.06.03h.09s.12,0,.12,0h.11s.06.02.06.02h.08s.02.03.02.03l-.03.02-.02.02v.02s-.01.02-.01.02l.03.02h.07s.07.02.07.02h.07s-.05.04-.05.04l-.06.02.04.02v.02s.11,0,.11,0h.07s.1.02.1.02h.1s.12-.01.12-.01h.14s.12,0,.12,0h.14s.03.02.03.02h.1s.07.02.07.02h.11s.03.02.03.02l.04.02.04.02.06.02h.09s.08.02.08.02l.03.02v.02s.09.01.09.01l.04.02v.02s.03.02.03.02l.03.02v.02s-.02.02-.02.02l-.08.02.02.02-.05.02-.04.02v.02s.11,0,.11,0h.13s.09,0,.09,0l.06.02h.1s.08.02.08.02h.09s.11.01.11.01l.03.02-.02.02v.02s-.07.02-.07.02h.08s.07.03.07.03h.09s.05.03.05.03l-.04.02-.05.02-.07.02v.02s-.04.02-.04.02l.04.02h.1s.05.03.05.03v.02s-.08.02-.08.02l-.05.02-.03.02h.09s.04.03.04.03l.03.02.03.02Z"/>
      <path id="path4586-4-1" class="cls-1" d="m49.27,256.08l-.29-2.96.3-.89.75,1.12.06-1.89v-2.07s.32-.83.32-.83l-.42-3.79.15-1.78-.22-3.71.42-.8-.52-4.84-.19-4.16-.43-5.01v-4.14s-.42-4.98-.42-4.98l.05-4.87.43-.48.4-1.62.44-.86.45,1.04.48.66.45-1.42.28-4.12.46-2.48.45-4.38.57-1.83.5-.31.48.16.52-4.2.62-3.18.6-4.78.76-4.1.64-1.21.87-3.47.96-4.67,1.05-4.18,1.06-3.07,1.32-5.33,1.19-3.15.43.32,1.23-3.28.68-.73,1.03-2.14,1.33-3.33.8-1.03,1.05-1.89.31.58.06,1.31-1.26,4.86-.48,3.18.05,1.59-.11,2.17.73-.92.12,1.4.4.35.07,1.58.34.61.45.16-.02,2.1.91-1.74.53-.02,1.19-3.02,1.41-4.06,1.07-2.07-.32,1.79-.61,2.49-.18,1.48-.09,1.23-.55,2.52-.31,2.05-.58,2.7-.65,2.42-.24,1.97-.09,1.54-.25,2.14-.42,2.57.38-.61.16.67-.25,2.4.11,1.04.29-.02.5-1.87.32-.33.3-.17.14.74.16.63.08,1.08.24.22v1.46s-.22,2.38-.22,2.38l.14.89-.02,1.74-.07,2.06-.15,2.39.21.65.09,1.49.08,1.56-.05,2.2.2.73.26.09.26.03.12,1.41.23.57.06,1.89.31-1.1.25.42.09,1.88.25.62.24.35.21.87.27-.8.25.25.24.8.1,2.08.28-.1.26.43.28.04.23,1.18.29.11.25-1.59.23,1.17.29.05.29-.35.27-1.27.23-1.7.28-1.12.29-.58.28-1.27.29-.23.31-1.1.26.25.2,1.05.24-2.27.34-1.23.32-.72.3-.25.32-1.08.32-1.03.28-2.23.36-1.56.37-1.82.33-.49.36-1.19.34-.81.19.58.37-.91.31-.36.41-1.42.44-1.4.32-.26.27.13v1.58s.42-1.31.42-1.31l.25.24.23.3.41-1.02.17.58.1.96.06,1.19.17.63.22.4-.03,1.65.2.49.23.26.15.85.32-.38.11,1.07.2.51.37-.94.39-1.31.09,1.3.34-.33.16.82.25.18.32-.42.34-.64.39-1.86.39-2.08.41-.96.46-1.89.29.05.44-1.08.47-1.48.49-1.65.15.69.26.14.5-1.5.4-.61.29-.05.43-.88.48-1.24.39-.56-1.54,8.19-1.44,7.78-.76,8.57-1.07,6.68-1,5.73-.08,8.43-.8,3.74-.88,2.65.5,7.31.29,6.18.91,6.9,1.62,7.18,2.11,7.44,2.67,6.49,2.02,6.54,1.87,5.93.7,3.77.7,3.6-.35,1.87,1.8,4.99,1.81,4.93-1.29.42-3.04-2.98-1.69-.48,3.43,6.34,3.11,5.72.77,3.02,1.64,3.87-.38,1.53-2.4-1.15,1.36,3.44.82,2.77-.59,1.24,1.62,3.54-3.54-2.51-2.85-1.69-4.28-4.33-2.49-1.56-3.51-3.51-2.49-1.89-3.92-5.02-4.01-6.23-2.43-2.44-3.35-5.05-2.7-3.84-3.05-5.5-2.9-5.68-2.24-3.73-1.71-2.05-1.9-2.87-1.64-2.06-2.15-4.49-2.33-5.87-2.28-7.82-1.04.02-1.45-2.29v4.49s-.92.34-.92.34l-1.69-3.76-.45,2.72.16,4.72-.9.39-.88.37-.56,1.65h0"/>
      <path id="path4588-4-9" class="cls-1" d="m204.44,28.96l-2.13,1.4-2.88,1.75-1.36,1.08-.51.62-2.3,1.62-.06.39.45.06,1.74-.75-2.59,1.7-2.56,1.72-1.2,1.05-1.33,1.14-2.8,1.76-2.66,1.91-2.51,1.88-1.86,1.58-1.42,1.31-1.06,1.09-2.68,2.08-1.67,1.58-2.33,1.7-2.48,1.99-2.44,2.1-2.03,1.95-.68.94-1.17,1.35-2.04,2.01-1.51,1.67-1.68,1.83-2.14,2.15-2.15,2.01-1.99,2.19-.98,1.36-.71,1.12-1.48,1.85-1.24,1.67-1.18,1.65-.59,1.07.27.12-.15.6-1.45,1.99-.58,1.12,1.1-.86-.31.84-.55,1.05-.87,1.42-1.41,1.99-.66,1.24-1.28,1.91-1.3,1.96-1.67,2.28-1.51,2.24-1.6,2.37-.94,1.76-.66,1.44-1.41,2.33-1.32,2.31-.99,1.98-.66,1.57-.94,1.99-1.08,2.3-1.57,2.78-1.5,2.68-1.32,2.1.96-.97.22.52-.71,2.19h.5s-.82,2.33-.82,2.33l-.63,2.08-1.01,2.82.08.88-.16,1.29.07.85-.52,2.04-.44,1.92-1.12,3.23-.37,2,.18.72-.12,1.47.73-.79.72-.72.76-.75-.14,1.52.11.89v1.18s.14.9.14.9l.91-1.25,1.42-3.12.97-1.24.21.74,1.13-1.69.87-.96.02,1.08,1.02-1.42.63-.36,1.64-3.02,1.7-3.67,1.5-2.24,1.24-1.51,1.15-1.3,1.44-1.9h.52s.54,0,.54,0l-.22,1.27-.06,1.01.59-.18.32.33-.07,1.09.13.75.95-.83,1.49-1.99.36.29,1.21-1.36.41.16.59-.16,1.49-1.93,1.23-1.32,1.97-3.05,1.64-1.94,1.28-1.24-.1.95,1.19-1.13.93-.66,1.88-2.37,1.74-1.96.91-.53,1.71-1.78.97-.63,1.68-1.71,1.34-1.15,1.45-1.27,2.15-2.61,2.23-2.44,1.75-1.46,2.46-2.56,1.41-.97.08.51,2.21-1.96,1.06-.51,1.8-1.39,2.31-2.03,1.81-1.3,2.29-1.85,1.94-1.31,2.65-2.11,2.53-1.9,2.43-1.69,2.96-2.41,2.91-1.94,3-2.28,2.03-1.79,2.86-2.01,2.82-1.95,1.33-1.25,2.83-1.93,2.99-1.67,3.08-1.74,2.96-1.73,3.19-1.65-.94.86-.77.78.89-.07-.15.49.63.07.43.18,2.36-.9.44.2,2.42-.91,2.18-.73,1.27-.22,1.49-.32.74.06-.51.62.35.24.49.17,3.37-1.37,2.47-.73,2.93-.96,3.41-1.23,1.09-.02,2.49-.6.54.2,1.58-.19,3.4-1.13,2.86-.69,3.37-.94,2.63-.5,3.5-.93,3.53-.89,2.56-.34,3.45-.63,2-.35,1.85-.27,1.64-.16.38.15,1.53-.13,2.11-.33,1.57-.13h1.11s2.17-.31,2.17-.31l1.83-.37,2.08-.29,1.93-.31,1.77-.08,2.16-.18,2.17-.18,2.15-.22,2.02-.2,2.05-.18,1.52-.22,1.67-.2.42-.22,1.79-.2,2.17-.12,1.5-.18,1.85.07,2.14.03,2.26.02,2.01-.07,1.75-.09,2.26.04,2.26.06,2.05.18,2,.08,1.88.05.88-.1,1.35-.03,1.76.05.99-.07,1.71.06,2.08.21,1.92.15,1.67.1.68-.08,1.48.07,1.4.07,1.48.1,1.22.04.51-.08.45-.1,1.15.04,1.13.04,1.34.09,2.04.29,2.14.37,1.74.22.96.02,1.83.31,1.59.23,2.04.39,1.18.12,1.7.29,2.07.49,1.36.2,2.04.47-2.1-.57-2.06-.55-2.18-.55-1.43-.46-2.18-.46-2.09-.48-2.18-.46-2.1-.33-2.42-.45-1.78-.43-2.38-.4-2.2-.25-1.53-.35-2.02-.36-1.84-.35-.54-.25-2.13-.31-1.9-.3-2.09-.27-1.88-.27-1.04-.26-2.1-.25-1.88-.24-1.09-.23-2.4-.12-1.97.02-2.42-.08-2.03-.16-2.08.03-2.17.02-2.18.07-2.22-.04-1.55-.12-2.09-.03-.45-.17-.73-.16-.9-.14-1.93-.02-1.58-.06-2.2.09-2.27.17-2.06.24-2.23.17-2.17.16-1.73.07-1.92.13-1.71.09-1.67.09h-1.18s-2.04.2-2.04.2l-1.62.1-.06-.2-1.99.23-2.16.41-1.96.29-1.88.27-1.55.16-2.13.41-2.06.4-1.98.51-1.49.22-1.41.2-1.6.29-1.69.34,1.26-.59-.33-.21-1.43.12-1.63.2-.24-.21,1.29-.58.61-.41,1.07-.51-1.72.24h-.9s-1.46.16-1.46.16l-2.34.52-.61-.09-1.21.11-1.92.38-2.49.66-1.26.18-1.3.2.48-.41-.26-.17-.65-.03.25-.33.56-.42-.13-.2.93-.55-.71-.03-.09-.22-.47-.09-1.14.15-1.84.44-.77.02-1.55.34-2.44.77-1.31.25-1.97.58-1.89.57-2.51.92-2.6,1.1-1.94.65-1.78.58-1.46.43-1.21.31-1.44.44-.97.2-.43-.08-1.02.23.7-.62-.9.16-1.09.27-2.02.83-1.71.66-2.33,1.12-1.66.69-1.63.68-1.47.59-1.49.62-1.02.31-.91.25-.47-.03.6-.64,1.42-1.08-.19-.22-.93.25-1.09.35.28-.34-.6.18.23-.31v-.18s-.87.36-.87.36l-.22-.05-.25-.03-.61.2-.1-.13-.66.22.11-.25-.05-.16-.68.24-.9.39-.91.4-1.32.73-.91.41-.04-.17-.14-.1.23-.33.72-.63-.37.03,1.28-.89.96-.73-.6.19.5-.48.14-.26.07-.22.14-.27.75-.6,1.15-.78.71-.57.13-.25.47-.44.35-.37-.13-.1,1.26-.81.37-.39,1.09-.71.91-.63.65-.51.88-.61,1.12-.71,1.52-.82,1.37-.76,1.38-.75,1.26-.72.79-.53,1.59-.81,1.05-.63,1.3-.72.54-.41.47-.4-.77.19.81-.52.83-.53,1.37-.71,1.64-.76,1.21-.64.51-.38,1.68-.69,1.46-.68,1.65-.62,1.6-.69,2.22-1.19-.36-.27,2.44-1.23.2-.47-3.13.88-1.38.14.93-.75-.82-.08-2.16.51-3.45,1.18-2.46.72-3.6,1.39-1.07.09-2.02.58-1.7.41.71-.74-.56-.17-3.19,1.23.57-.68.78-.77-.66-.07-1.86.56-2.94,1.21-1.75.54-3.17,1.42-1.05.16-1.72.58-2.64,1.19-3.71,2.03-3.77,2.25-2.81,1.46-1.95.86-.87.14,1.35-1.28.96-1.04-1.48.54,1.34-1.26-.36-.2,1.79-1.48,1.1-1.07-2.69,1.36-2.03.92-.73.02,1.37-1.31-2.61,1.39-1.05.28-1.77.82-1.28.48,1.52-1.42.14-.53.4-.71-2.03.98.02-.46,1.48-1.39,2.5-1.96,3.46-2.36,1.41-1.27-1.32.4,3.04-2.08,2.08-1.56,1.65-1.33,3.64-2.21.15-.47.23-.51h0"/>
      <path id="path4588-4-7-4" class="cls-1" d="m292.73,325.87l.79-1.21.86-.8.6-1.34.38-1.38.77-1.27.24-1.48.07-1.35-.31-.99.71-.85.7-.84.4-1.31.41-1.29.69.04.7-.7.67-.74.51-1.13.39-1.2.28-1.26.7-.4.43-1.2.63.37.67-.05.66-.32.55-.83.16-1.27.28-1.15.55-.64.38-1,.44-.88.62-.3.67.38.57-.55.23-1.09.13-1.16.41-.79.32-.92.29-.97.07-1.19-.25-1.27-.12-1.24.38-.84.02-1.22-.6-1.23-.12-1.3v-1.08s.13-.95.13-.95l.41-.63.04-1.03.38-.63.41-.58.7.02.6-.23.7-.05.28-.76.13-.92.63-.21.59-.33.39-.63.2-.84.41-.59.51-.57.94.35.95.51.92,1.06-.77-1.68-.31-1.55.34-1.05-.51-1.63.48-.77.38-.87.73-.52-.13-1.35.09-1.08-.09-1.19.46-.71.43-.74,1.13.08.48-.77-.06-1.16.29-.88-.64-1.38-.62-1.35-.65-1.4.39-.81.13-.93.29-.81.17-.94-.79-1.35-1.58-1.23-.81-1.35.15-.97-1-1.33-.63-1.2.42-.75-.82-1.17-.27-1.02-1.63-1.22-1.94-.68-1.26-1.18-.87-1.17-.74-1.1-1.05-1.08.04-.94.06-.93.82-.57.72-.61.08-.85.41-.74.89-.57.75-.63-.12-.94-.83-1.02.59-.67-.38-.92.58-.64.42-.69-.71-.92-.25-.87-1.67-.79-.64-.93-.13-.85,1.26-.42-.03-.77.32-.7-1.01-.82-.61-.82.53-.69-.38-.83.47-.65-.35-.77.12-.7.04-.71-1.55-.6-1.18-.69v-.78s-1.29-.69-1.29-.69l.38-.7,1.41-.4-.49-.76.84-.61.05-.69-.71-.69.14-.67-.5-.69.27-.71-.76-.71-.53-.7-.24-.71-1.66-.54-.43-.77-1.67-.48-2.13-.03-1.42-.41-1.54-.33-1.99.28-1.78-.17-.74-.56-1.09-.43-1.49-.22-1.02-.43,1.74-.44,1.73-.43,1.26-.65,1.67-.48,1.4-.56,1.5-.5.55-.7,1.66-.48.5-.66.75-.64,1.35-.52,1.27-.53,1.64-.39,1.97-.13,1.77-.24,1.75-.23-.23-.68.99-.55.52-.61-.24-.66,1.83-.27,1.12-.49,2.01-.09,1.68-.25-.44-.64.77-.49-.04-.6,1.05-.41-.35-.63-.41-.63,1.3-.36.42-.55.21-.32.44-.27.77-.21,1.29.05.78-.17.06-.34.7-.18.98-.06-.02-.35-.81-.39-.26-.36-.58-.37.69-.2.16-.32.06-.33-.33-.37-.41-.36-.36-.35-.92-.33-.83-.33-1.32-.18-.88-.34-.39-.35-1.01-.29.64-.24.26-.3.08-.33-.67-.34-.87-.31-.16-.34-.21-.34.55-.27-.24-.31-.47-.3-1.08-.18-.9-.23-.61-.28-1.04-.17-.69-.26.02-.3-.38-.28-.65-.25-1.11-.1-.82-.21-.79-.19-.74-.2-.91-.15-1.1-.03h-1.12s-.96-.13-.96-.13l-.94-.11-.85-.13-.39-.27-.09-.31-.74-.19-1.09-.04-.4-.23-.65-.17-.27-.27-.95-.07-.64-.17.03-.31-.86-.1-.21-.27-.33.35-.35.35-.35.37-.96.35.06.31-.31.36-.2.36.43.25-.11.38-.86.41-.1.38.56.24-.87.38-.5.4-.73.42-1.2.32-.32.39-.55.41-.34.4-.55.42-1.04.4-.43.44-.56.44-.95.42.27.32.85.1.21.34-.51.46.56.2.4.25.61.21-.16.41-.72.44-.27.42-1.07.37-.99.41-.93.44-.36.45-.61.47.06.37.38.28.72.13.17.34.02.38-.42.45-.23.42-.4.45-.42.45-.74.48-.13.43-.52.5-1.08.43-.13.44.58.19v.38s-.08.41-.08.41l-.43.48.27.32.16.35.72.11-.31.43-.36.44-.2.42-.1.4-1.49.39-1.27.66-.8.7-.67.7-1.14.65-1.34.43-1.23.56-1.26.5-.44.68-.8.72-.56.72.05.55-.88.76-.63.76-.25.69.24.5-.47.7-.43.7-1.02.68-.81.75-.63.74-.89.71-.93.69-.74.75-1.03.72-.57.83-.72.8-.58.8-.31.76.06.61-.42.8-.06.68.47.38-.18.77.23.52.21.54.62.26.9-.05.24.55.17.6.04.64-.06.69.07.63-.14.73-.35.8-.08.72-.73.85-.12.78v.71s.5.39.5.39l.34.52.77.12.38.46.38.46.31.51.34.5.11.65.08.66-.11.76-.51.82-.8.83-.18.85.17.67.26.62-.22.51.15.38-.18.48-.08.46.29.28.02.44.04.43.19.34v.47s.21.35.21.35l-.08.48v.46s.24.33.24.33l.35.25.36.25.54.03.37.26.02.47.07.43-.08.48-.27.55.19.43-.49.44-.34.51.29.33-.13.51v.44s.06.43.06.43l.03.46-.21.5-.38.46-.17.5.06.44-.06.48v.47s.17.39.17.39l-.37.47.02.49-.28.47-.19.49-.08.49-.16.49-.25.5-.47.36-.38.41-.38.41-.29.48-.07.51-.43.44-.14.55-.24.54.07.52.12.53.47.24v.53s-.01.53-.01.53l-.22.53-.38.46-.12.56.15.5-.46.35-.22.52-.5.26-.28.51.12,1.32.89.85.13,1.29.83.92,1.33-.14,1.21.48.75,1.02,1.17.62,1.3.2,1.27-.31,1.33.15,1.25-.36,1.18.64,1.29.39,1.29.56.81,1.13,1.12.97,1.37.14.77,1.16.7,1.21.99.96,1.14.65,1.19.23,1.11.75,1.2.21,1,1.06,1.05.83,1.12.48,1.09-.19.98-.43,1.19.57,1.1.98.85,1.27.23,1.49.33,1.53.89,1.19.15,1.52.58,1.44-.05,1.48.13,1.54.96.8.83,1.13.54,1.58-.03,1.75.84.81.5,1.44.62,1.18.48,1.36-.25,1.65.07,1.69-.03,1.78.54,1.29-.02,1.77-.42,1.76-.7,1.56-.92,1.07-.49,1.8.16,1.55-.9,1.29-.73,1.62-.69,1.77-1.08,1.12-.38,1.65-.44,1.66h0Z"/>
      <path id="path4590-6-9" class="cls-1" d="m118.93,312.86l-.78-1.77-1.79-2.64-.63-1.66.09-.83.33-.52.59-.15-.49-1.56-1.04-2.19,1.42,1.17.16-.79.8.14-.34-1.43-1.25-2.48-.85-2.13.18-.81.23-.73-1.4-2.7-.41-1.68-.57-1.89v-1.1s-.95-2.44-.95-2.44l-.26-1.56.15-.86-.03-1.2-.43-1.88-.36-1.81-.14-1.47-.03-1.3-.92-2.7-.7-2.51-.7-2.59-.47-2.33-.31-2.09-.34-2.21-.95-3.14-.41-2.62-.74-3.07-.28-2.49-.45-2.83-.37-2.8-.04-2.17-.26-2.82v-2.34s-.37-3.28-.37-3.28l-.2-3.07-.32-3.27.13-2.5-.06-3.2.05-3.32.31-2.54.07-3.49.29-3.13.43-2.81.55-1.42.55-1.28.56-1.18.12-3.5.46-3.55.59-3.48.37-3.61.76-2.38.78-3.33.87-3.61.87-1.92.49-1.06.43-.66.14.67.3.02.14.65-.15,1.58-.06,1.37.22.37.38-.5.51-1.56.42-.68.53-1.61.54-1.43.51-1.06.14.64.5-.89.29-.02.42-.59.21.28.12.58-.35,1.87-.14,1.47.23.29.05.93.26.12-.07,1.3.23.2.15.55-.18,1.62-.25,1.79.1.82.05,1.04.35-.39.36-.46.17.54.05,1.02.39-.82.36-.6.35-.41.46-1.37.47-1.7.46-1.03.23.27.44-.8.42-.9.46-1.15.42-.7.51-1.52.46-.67.6-1.76.47-.68.08.74.37-.32.55-1.22.59-1.72.56-1.13.2.27-.02.87.25.11.46-.65v.85s.43-.42.43-.42l.42-.42.63-1.39,1.53-3.03,1.64-3.26,1.7-3.02,1.1-.91,1.74-2.79,1.96-3.32,2.27-4.27,2.31-4.6,1.25-.83,2.53-3.74,1.44-1.14-.08,1.53,2.48-3.48,2.14-2.43,1.41-1.01,1.31-.81,3.07-4.37,3.02-3.55,2.09-1.75,2.57-2.42,3.37-3.92,3.06-3.86,3.49-3.76,3.6-3.71,3-2.2,4.14-3.73,4.09-3.26,3.97-3.54,1.92-.76,3.39-2.04,4.64-3.26,3.41-1.75,4.03-2.25,2.67-1.05-.15.84,2.52-.9,3.37-1.52,2.26-.69,1.99-.47,4.01-1.75.92.22,3.29-1.1,3.21-1.01,4.42-1.67,5.27-2.26,4.3-1.28,4.25-1.2,5.05-1.54,1.61.11,3.5-.57,3.61-.56,3.18-.35,5.71-1.21,6.06-1.37,5.54-.74,3.65-.08,6.21-.89,5.14-.94,5.63-.77,6.32-.34,6.3-.16,6.01.17,4.6.5,5.96.49-3.37-.26-3.47-.17-3.32-.19-2.27-.27-2.97-.18-3.61.07-3.41.2-3.45.14-3.35.3-3.37.23-3.36.34-3.25.29-3.4.56-3.42.4-2.26.64-3.39.69-.36-.3.11-.39-2.16.11-1.27-.1h-1.58s-1.56,0-1.56,0l-3.54.68-1.82.09-3.1.65-3.26.82-3.21.86-3.1.83-3.05.85-3.05.91-2.67.74-2.39.63-2.95,1.15-2.53,1.2-2.6,1.23-2.78,1.26-2.14,1.23-2.26,1.3-2.89,1.34-2.81,1.51-2.7,1.42-2.62,1.35-2.51,1.29-2.59,1.46-2.49,1.32-1.52.57-2.26,1.17-2.68,1.8-2.39,1.73-2.36,1.76-2.4,1.91-2.37,1.59-2.04,1.82-2.34,1.88-1.81,1.78-2.21,1.96-2.36,2.16-2.03,1.53-2,1.57-2.22,2.2-1.04.52-1.77,1.43-1.29.85-1.82,1.61,1.8-1.04-.31,1.28,1.68-.94,2.05-1.35,1.34-.48-.38,1.27,1.08-.22.3.59,2.92-2.22,1.47-.5,2.75-1.88,1.62-.6-1.11,1.84-.62,1.46,1.46-.42-.61,1.49-1.47,2.27-1.46,2.31,1.43-.4.84.21,3.89-3.27,2.68-1.53,2.19-.98.19.85.93.16,3.09-1.89,3.32-2.04,4.13-3,3.23-1.77,3.83-2.27,1.87-.48,3.05-1.34,2.52-.85,3.63-1.64,4.44-2.35,4.03-1.67,4.28-1.75,3.6-1.13,2.85-.63,1.76-.06,4.9-1.99,4.19-1.88,4.95-1.75,5.13-1.48,4.27-.77,4.84-.92,4.76-.75,4.59-.55,5-.8,5.03-.74,5.05-.38,5.17-.57,5.53-.29,5.47-.06,3.37.46,4.39.43,5.56.13,5.45.48,5.54.66,5.58.5,4.3,1.02,5.68,1.11,2.63,1.02,3.77,1.21-4.19-.99-4.15-.91-4.42-.75-4.42-.59-4.45-.57-4.23-.26-4.34-.26-4.01-.04-5-.25-3.23-.45-4.36.3-4.9.05-4.25.4-4.47.41-3.45.66-2.88.72-4.26.66-2.6.8-2.87.83-3.71.88-4.15.85-3.32,1.06-3.15,1.07-3.59,1.14-4.16,1.27-3.78,1.43-4.16,1.31-3.11.71-3.54,1.54-3.1,1.57-3.41,1.67-2.88,1.66-3.46,1.89-3.64,1.82-2.87,1.09-3.66,2.05-3.07,2.14-3.37,2.02-2.83,2.16-2.72,2.2-2.98,2.36-2.2,2.17-2.28,2.25-2.71,2.46-2.75,2.45-2.71,2.43-2.64,2.44-2.56,2.45-2.47,2.82-2.4,2.86-2.25,3-2.49,2.78-1.29,2.47-1.95,3.02-1.41,2.7-1.42,2.78-.26,1.6-.13,1.45.03,1.29.94-.14-.8,2.35-1.16,2.79-.1,1.58-.87,2.65-.38.15-.48.39-.48.39-.48.42.08-.74-.36.07-.62.73-.25-.18.2-.93.57-1.3.06-.69-.23-.19-.24-.13-.12-.35-.17-.29.3-.99-.47.38-.24-.1-.47.39-.25-.08-.34.09-.41.26-.6.78-.5.49-.49.4-.16-.31-.55.6-.41.25-.04-.53.26-.98.1-.74-.27-.08-.33.07-.6.79-.39.21-.03-.51-.34.13-.04-.47-.42.34-.26-.03-.04-.5-.48.42-.41.32-.26-.04v-.56s-.11-.32-.11-.32l-.13-.31.17-.82-.09-.4v-.55s-.17-.26-.17-.26l-.24-.1-.28-.06-.48.38-.69,1.1-.59.71-.29.02-.34.14.26-1-.19-.23.22-.92.35-1.08.02-.61-.35.1-2.89,4.62-2.46,3.41-2.66,5.38-2.07,2.58-2.07,6.02-2.01,5.22-1.19,6.08-.99,6.06-1.36,4.09-1.09,4.75-.58,5.68-.92,4.17-.94,3.29-.72,3.83-.89,2.7-1.02,1.8-.14,5.06-.68,3.19.52,5.47,1.28,5.77-.85,2.04.82,5.11,1.29,5.05.94,4.41.15,3.19-.14,2.63.68,3.77-1.19.91-2.17-1.21-1.99-.9-2.22-1.48-1.39.31-1.79-.61-2.47-2.56-.99,1.09-2.29-2.1-1.35.25-.65,1.72-2.56-3.14-1.75-.86-1.28.39.86,4.49.37,3.37-.81,1.21.02,2.67-.06,2.47-2.5-2.22-1.06.8.07,2.71.99,3.92-2.67-2.28-.56,1.71-1.36.04-.87.91-2.48-2.22-1.04.65-.54,1.63,2.06,5.23,1.62,4.3,2.4,4.88.55,2.68-.49,1.36,2.16,4.34-.67,1.18h0"/>
      <path id="path4592-1-7" class="cls-1" d="m124.59,76.9l.97-1.08.55-.47.83-.86.7-.66.37-.23.77-.75.02.19.62-.54,1.08-1.18.76-.7.56-.43,1.1-1.15,1.14-1.27,1.02-1.01,1.06-1.06,1.15-1.24.43-.28.61-.48,1.05-1,.45-.27.65-.49,1.02-.93.58-.41-.04.24,1.18-1.08.81-.63.35-.15.04.17v.2s.72-.52.72-.52l-.54.7-.46.63.52-.32.15.06.09.12-.41.6.28-.06.99-.82,1.11-.97,1.16-1.01.61-.42,1.04-.88,1.09-.91.43-.22.66-.44,1.22-1.04,1.27-1.09.77-.53.07.11-.02.19h.19s.04.14.04.14l.77-.53.06.13.09.1-.5.6-.26.41.49-.27-.11.27v.18s.09.1.09.1l.79-.54-.08.25-.46.57-.49.55-.12.25-.44.51-.4.48-.95.89-.7.74-.41.5-.55.62-.94.92-.51.61-.92.93-.42.54-.92.84-.94.92-.8.87-.93.95-.54.66-.28.42-.65.76-.76.84-.7.81-.28.44-.29.44-.54.68-.05.21-.46.62-.38.55-.75.89-.27.45.27-.14-.58.75-.17.34-.65.83-.43.62-.14.33-.61.81.45-.34.11.06-.29.5-.38.59-.83.99-.82,1-.36.58-.52.75-.81,1.01-.84.99-.79,1.03-.35.6-.84,1.07-.73,1.01-.64.94-.16.41-.41.69-.23.48-.13.36.06.12.37-.31.56-.58-.31.58.31-.2.24-.12.3-.2-.08.3-.29.55-.23-.05-.53.36-.33.08.2-.61-.11-.22-.18-.12.24-.66.95-1.48,1.07-1.57.87-1.34.2-.58.49-.9.73-1.14.49-.88.89-1.31.19-.54-.03-.28.14-.47.21-.55-.5.27.58-.96-.37.11.36-.71.74-1.11.06-.39-.56.32,1.11-1.47.6-.96-.42.14.75-1.12,1.45-1.73,1.05-1.36.14-.45.31-.62-.52.26-.88.67-.19-.09-.9.71-.07-.21-.7.48-.1-.23-1.31,1.18.47-.81.53-.87-.06-.23-.84.65-.87.69-.66.45-1.36,1.31-.82.63h-.28s.28-.63.28-.63l-.32.06.08-.4-.71.52-1,.89-.51.29-.05-.25-1.11,1.05-.64.46-.2-.09-1.2,1.19-1.29,1.37-.9.82"/>
      <path id="path4594-1-3" class="cls-1" d="m32.08,249.09l.18-1.03-.14-2.47.27-.7-.22-3.02.28-.72.73,2.43.38-.07.67,1.89.45.51.47.59.84,3.09.48.48.74,2.14.69,1.7.47.44.75,1.89-.65-3.87-.92-4.39-.16-2.64-.14-2.69.08-1.65-.05-2.4-.09-2.69.02-2.27.58,1.68.2-1.36.5.9.12-1.82.31-.5.43.5.44.31v-2.66s-.07-3-.07-3l.11-2.1.27-.9.29-.8.16-1.92.06-2.78.19-1.98.27-1.23.07-3.47.08-3.69.25-3.12.39-.69.12-3.93.14-4.01.36-3.3.38-3.68.48-2.39.47-1.45.54-3.18.58-3.57.68-3.86.68-4.4.61-1.58.79-2.96.86-4.27.96-3.93,1.02-3.43,1.11-4.54,1.1-4.37.88-3.81.76-3.43,1.34-4.43-1.04,2.93-1,3.08-.97,2.83-.89,3.32-.82,3.26-.85,3.21-.8,2.97-.75,2.78-.73,3.41-.51,3.24-.66,3.49-.6,2.25-.59,2.93-.39,3.38-.45,3.2-.46,2.47-.31,3.39-.12,3.08-.34,3.05-.19,3.39-.05,3.54.22,2.02-.06,3.41-.04,3.36.15,3.21.17,3.3v2.98s.11,3.28.11,3.28l.2,3.29.25,3.28.05,2.49v2.09s-.32.1-.32.1v2.02s.32,3.13.32,3.13l.02,1.92.25,2.7-.1,1.21.5,3.08.37,2.71.41,2.85.08,1.73.71,3.21.79,3.19-.39-.14.22,1.93.2,1.8.61,2.75-.2.43.21,1.64.11,1.39.77,2.87.64,2.55-.1.73.64,2.42.96,2.87.62,2.27.56,2.1.29,1.55-.59-.55.8,2.44.42,1.7.86,2.46,1.28,2.89.86,2.1.93,2.14.57,1.64,1.17,2.38,1.23,2.36,1.29,2.22,1.04,2.13.84,1.84,1.31,2.18,1.32,2.17,1.3,1.79,1.41,2.13,1.38,2.28,1.56,2.1.71,1.46,1.34,2.1.45,1.11,1.37,2.08,1.22,1.87,1.54,2.06,1.48,1.54,1.71,2.07,1.69,1.93,1.58,1.94,1.15,1.59,1.42,1.76,1.7,1.87,1.75,1.68,1.68,1.76,1.64,1.41,1.72,1.72,1.66,1.35.76,1.11,1.07,1.34,2.17,1.85,1.68,1.71,1.93,1.49,1.97,1.58,1.96,1.56,1.89,1.54,1.34,1.27.31.62,1.01,1.04,1.14,1.1,1.15,1.09.94.97-.03.38.81.89,1.5,1.22,1.71,1.27v.41s1.21,1.05,1.21,1.05l1.54,1.17.58.71.35.57-.15.28,1.49,1.1,1.89,1.19.75.74.97.84,1.78,1.08,1.61,1.02,1.41.94,1.36.91-1.76-1.16-2.44-1.31-1.95-1.25-1.75-1.22-2.11-1.36-2.17-1.41-1.54-1.24-2.04-1.46-2.06-1.02-2.37-1.37-2.28-1.27-2.56-1.84-1.93-1.69-1.92-1.72-2.37-1.95-2.46-1.93-2.31-1.92-2.04-1.94-2.12-1.67-1.95-1.5-1.6-1.8-2.16-2.08-1.95-2.06-2.06-2.02-1.67-2.06-2.14-2.27-1.96-2.06-1.91-2.02-1.9-2.21-1.78-1.96-1.63-1.72-1.86-2.33-1.72-2.41-1.44-2.26-1.41-2.27-1.53-2.42-1.01-1.99-1.48-2.56-1.66-2.75-1.7-2.68-1.61-2.49-1.36-1.93-1.55-2.55-1.41-2.25-1.57-2.67-1.5-3.2-1.32-3.01-1.17-2.91-1.33-2.64-1.34-3.12-1.29-2.96-1.21-3.18-.92-2.96-.52-2.25-1.12-3.39-.67-2.79-.96-2.71-.93-2.83-.9-2.89-.85-3.02-.84-2.77-.8-2.71-.75-3.31-.62-3.33h0"/>
      <path id="path4596-9-8" class="cls-1" d="m436.61,119.08l.91.99.11.5,2.04,1.71-.52.12-3-1.67-1.03-.21-.23.3-1.66-.64,2.47,1.85,3.18,2.22,1.69,1.51,2.87,2.21.06.48,1.05,1.16,2.72,2.27.48.83,1.43,1.45,1.39,1.45-1.49-.73.3.68-2.07-1.23-1.71-.89,1.24,1.34-.82-.16.76.99-.99-.33-.87-.21,1.48,1.5-1.5-.71-2.88-1.87.15.55-1.1-.37,2.43,2.04,2.96,2.35,1.71,1.69,2.58,2.28.75,1.04,1.71,1.78,1.46,1.61,1.85,1.93-.36.13-.23.25-.91-.34,1.08,1.37,1.41,1.65.57.97.06.52-.55-.03.67,1.04.62,1.01,1.55,1.82,1.76,2.02,2.83,2.79,2.65,2.83,2.39,2.78.98,1.55,1.29,1.86,1.35,1.95,2.65,3.12,2.4,3.06.7,1.38,1.85,2.68.65,1.37-.94-.65-1.24-1.32-.32-.05-.68-.53.46.9-.26.03-1.22-1.26.43.85v.35s-.69-.55-.69-.55l-.71-.56-.68-.52-.94-.86-1.61-1.87-1.53-1.64-1.68-1.82-1.1-.94-1.72-1.89-1.34-1.64-1.66-1.67-1.46-1.33-1.31-1.14-1.59-1.49-.7-.4-1.58-1.39-1.52-1.32-1.33-1.06-.98-.66-.72-.4-1.69-1.44-1.67-1.56-1.6-1.28-1.45-1.08-1.04-.65-.19.12-1.18-.78-.56-.19-1.25-.84-1.31-.88-1.44-.97-.59-.2-1.69-1.2-1.77-1.33-.93-.44-1.56-.99-1.49-.9-1.79-1.22-1.67-1.25-1.82-1.21-1.39-.75-1.57-.91-1.2-.57-1.43-.74.68.68-.19.16-1.42-.69-.38.05-1.41-.73-1.06-.45-1.46-.76-1.33-.63-1.54-.77-1.53-.74-1.21-.48h-.45s-.1-.63-.1-.63l.28-.42,1.25.1,3.54,1.64,2.48.99,1.48.35,3,1.46,3.56,2.02-1.95-1.82-3.42-2.51.9-.06-.2-.74,3.89,2.1,2.2.86-.92-1.23,2.32.93-1.18-1.33.25-.43-3.28-2.41-2.27-1.86-1.94-1.68-3.9-2.49,1.35.17-1.61-1.45.13-.49,2.3.8.81-.11,3.38,1.58-.91-1.07.08-.51.84-.07,2.53,1.03,4.1,2.32,3.12,1.59,2.24.97,3.75,2.25.2-.47,3.24,1.86,1.15.27.93.11.32-.35.15-.48-2.15-2.06-.48-.92,3.4,2.03.54-.21,2.49,1.38,1.6.68-.3-.78.02-.54-.18-.69-1.31-1.5-1.05-1.31.06-.51,1.67.71,1.33.46-3.13-2.67-3.61-2.84-2.5-2.17-.52-.91-.65-.95-.57-.89-.78-1.02-1.07-1.18Z"/>
      <path id="path4598-0-6" class="cls-1" d="m148.57,385.6l1.11.88,2.28,1.11,2.19,1.07.88.76,1.64.92,1.19.8,2.11.93,1.81.87,2.57.91,2.21.89.48.63,2.1.87,1.61.79-.41.39.65.59.9.63,2.52.74,2.62.67.94.64,1.87.69,2.74.56,2.58.16,2.85.31,2.22.55,2.2.4,2.37.31,1.76.44,2.45.24,2.56.22,1.38.43,2.48.08,2.41.09,2.59.03,2.62-.22,2.57-.11,2.58-.27,1.65.25,2.54-.14,2.35-.04.76.42,2.48-.47,2.48-.47,2.23-.68,1.54-.74,2.46-.53,2.14-.78,2.18-.35,2.37-.68,1.9-.29,2.18-.58,1.7-.24,1.86-.37,2.31-.94,1.8-1.06,2.24-.84,1.97-.55,1.51-1.08,1.9-1.13,2.03-.84,2.04-1.07,2.13-1.06,1.69-1.31,1.46-.34,2.06-1.15.18-1.12.28-1.19.37-1.3,1.79-2,.86-1.59,1.8-2.05,1.52-1.98,1.73-2.11-.53-.8.19-1.36.85-1.85,2.03-2.42-.46-.87.7-1.76.13-1.34-.07-1.2-.93-.5.25-1.56.34-1.61.83-1.97.13-1.53.82-2.05-1.22-.2-.37-1.15,1.15-2.23,1.05-2.23.98-2.31-.14-1.53v-1.74s.62-2.28.62-2.28l-.75-1.04-1.61.28.06-1.82-1.01-.65.14-1.94,1.19-2.5.54-2.24-.67-1.17-.7-1.04-.78-.94.39-2.29-.92-1.03-1.02-.82-1.62.42-.79-.98-.86-.89-1.05-.75-.03-1.86-.42-1.49-1.06-.71-.1-1.78-.91-.99.05-1.97-.2-1.84-1.04-1.04-1.57-.06-.67-1.42-.33-1.73-1.74.3-1.17-.96-1.09-1-.99-1.13-1.78.32-1.84.44,1.9-.13,1.11,1.16,1.59.35,1.82-.41-.57,2.3.77,1.55,1.28.86.43,1.75.95,1.03,1.01.93,1.12.84.3,1.71.06,1.98-1.18,2.33,1.09.97-.49,2.24-.51,2.31-1.92,2.35.64,1.4-1.02,2.37.59,1.2.79,1.01,1.05.78-.17,1.82,1.28.5-.06,1.74-1.55,2.4v1.65s-.72,1.93-.72,1.93l-.99,2-2.28,2.1-1.5,2.11-.99,1.89.22,1.24-.71,1.74-2.14,2.09-.44,1.47.06,1.2-.87,1.63-.78,1.56-1.65,1.96-3.02,1.94-.08,1.24-1.13,1.63.09,1.12-2.03,1.79-.55,1.33-2.47,1.75-1.86,1.7-.95,1.44-.73,1.37-2.12,1.65-3.44,1.58-2.91,1.56-3.72,1.32-3.66,1.26-3.89.92-3.98.78-4.22.53-3.75.83-3.61-.32-4.52.19-4.23.33-4.45-.23-1.42.23-1.83.07-1.65.12-1.38.18-2.09-.2-1.92-.04-2.06-.26-1.99-.38-1.94-.38-1.92-.2-1.85-.52-2.01-.27-1.98-.49-1.84-.57-1.83-.23-2.09-.53-1.53-.72-1.97-.75-2.28-.69-1.91-.83-1.96-.4-2.28-.84-1.89-.43-2.25-.83-1.91-.92-1.31-.85-2.06-.98-1.26-.89-1.78-1.04-1.73-1.06-.15-.51-.81-.8-1.46-1.07-2.2-1.22-2.16-1.14-2.01-.94-1.77-1.21-2.01-1.2-1.6-1.22-1.91-1.3-.47-.77.63-.06-1.89-1.49-.55-.85-1.68-1.42-2.04-1.52-1.07-1.17-.91-1.09-1.64-.93-2.01-1.48-1.95-1.6-1.74-1.63-1.44-.87-1.94-1.65-1.11-.58-1.65-1.26-1.85-1.62-1.74-1.81-.85-1.29-1.68-1.88-1.62-1.81-1.38-1.74-1.66-1.75-1.65-1.79.22.68-.28.12-.63-.3-1.22-1.14.12.54.25.68.3.73.16.57.26.67-.11.26.3.7.32.72.64,1.03.02.41-.3.08.59.98.19.59.54.93.12.52.57.94.63.98.21.59.74,1.06.14.53,1.57,1.5,1.58,1.47,1.28,1.42,1.49,1.49,1.47,1.47,1.17,1.29.28.63.87,1.07,1.58,1.29,1.38,1.28,1.26,1.2.87.96,1.34,1.19,1.4,1.18,1.55.96,1.61,1.25.44.62.5.66.77.81,1.19,1.01,1.08.94.58.67.93.84.66.7,1.63.95,1.52,1.03.79.75,1.44.99,1.67.97,1.49.65,1.72.94,1.17.85,1.61.8,1.61.8,1.43.83,1.09.74,1.34.75,1.42.74,1.34.75,1.63.67h0Z"/>
      <path id="path4598-0-5-8" class="cls-1" d="m49.58,372.24l-.36.05.42,1.02.32.9-.51-.14-.06.43-.33.09.27.82.02.53.57,1.17.2.77-.81-.49.02.59-.27.23-1.08-.95-.66-.34-.55-.18.39.99.5,1.09-.65-.25-.18.35.56,1.16,1.19,1.58.92,1.43-.02.55.2.71.38.88-.22.27.4.91.39.92-.54-.06.51.98.38.86.43.94.89,1.28.51.98.77,1.17h-.52s.27.8.27.8l-.05.51-1.02-.56.79,1.15.68,1.06,1.11,1.31,1.34,1.31.54.94,1.1,1.26v.5s.59.96.59.96l-.21.29.25.67-.38.13-.22.27.72,1.03,1.24,1.26.31.73-.26.29,1.25,1.19.95,1.08.09.54.47.8.24.67,1.16,1.17-.83-.2.22.65,2.27,1.53,2.29,1.54,2.39,1.6,2.14,1.77,2.33,1.63,2,1.65,2.06,1.6,1.89,1.55,2.41,1.24,2.48,1.45,2.46,1.58,1.66,1.46,2.4,1.16,2.28,1.4,2.34,1.25,2.37,1.19,2.44.96,2.48,1.29,2.38,1.25,2.12,1.27,2.46,1.2,2.09,1.23,2.47.74,2.58,1.04,1.62,1.1,1.61,1.08,1.67,1.1,2.48,1.05,2.47,1.09,1.85,1.07,2.8.92,2.71.51,2.21.98,2.73.73,2.06.94.5.79,1.23.85,2.45.77,2.33.7,2.35.66,1.11.82,2.57.7,2.55.63,2.79.29,2.16.58,2.19.55,2.4.53,1.08.68,1.46.62,2.2.47.8.63,1.87.52.3.64.53.64,1.79.54,2.59.32.98.58.23.61,2.75.22,1.51.51,1.26.51.94.54,2.57.17,2.64.09-2.59-.21-1.06-.57-2.16-.36-2.8-.17,1.41-.67-.98-.65-1.96-.49-.73-.66-1.66-.51-1.85-.49-2.09-.49-1.02-.64-.86-.7.89-.63-2.45-.54-.62-.75-.88-.8,1.25-.62-2.44-.67-.77-.82-2.34-.61-2.51-.58-2.73-.55-1.99-.81-2.83-.51-2.22-.84-.78-.87-2.48-.88-1.8-.89-1.67-.91-.08-.75-1.52-.98-2.07-1-2.64-.86-2.38-1.04-1.29-1.05-2.44-.99-2.55-.92-2.32-1.1-2.38-1.11-2.34-1.32-1.05-1.15-2.7-1.1-2.57-1.32-2.63-1.08-2.21-1.42-2.61-1.26-2.03-1.47-2.59-1.59-2.74-1.49-2.75-1.47-2.58-1.73-1.86-1.69-2.35-1.83-1.72-1.7-1.93-1.82-1.38-1.59-1.36-1.61-1.1-1.53-2.17-2.04.34-.6-1.37-1.78-2.01-2.11-1.11-1.66-1.15-1-1.01-1.02-1.08-1.03-1.14-1.02-.67-.9-1.03-1.09-.67-.91-.44-.75-.47-.76-.92-1.05-.24-.6-.96-1.11-.53-.83-.31-.66-1.09-1.18-.75-1.03.09-.33-.32-.72-.82-1.15-.24-.66-1.23-1.37-.75-1.14-1.21-1.37-.89-1.26-.42-.83.09-.3-.6-1.02.14-.26-.27-.71-.24-.68.75.51.42.07.03-.41-.77-1.22-.94-1.35-1.15-1.49-.41-.87-.84-1.28-.29-.74-.67-1.15.55.27,1.04,1.02-.43-.96.54.24-.33-.82-.81-1.33.12-.27.22-.14-1.24-1.57-1.07-1.59-.88-1.44-.56-1.12-1.2-1.55-1-1.6-1.08-1.36-1.13-1.65-1.05-1.69-.68-1.35.12-.27-.62-1.3-.67-1.35-.41-1.02-.94-1.66-.93-1.67-.33-.19-.61-.7-.77-1.03-.91-1.48-.34-.26-.27-.12-.24-.06-.32-.22-.26-.1-.46-.48-.23-.05-.22-.03-.02.31-.4-.36-.55-.67-.07.24-.31-.19-.11.18-.35-.27-.1.2-.06.26-.31-.18v.36s-.37-.26-.37-.26l.72,1.44.73,1.43.3.88.49,1.13.44,1.07.18.68-.36-.2-.04.34.69,1.3.37.91.27.76-.02.34.34.84.38.89.86,1.36.5,1.06-.27-.06h-.23s-.1.2-.1.2l.17.59.09.48-.21.03v.33s-.18.1-.18.1l.7,1.18.41.89-.13.17.3.76.58,1.06.82,1.19.61,1.09.04.42.62,1.04.59,1,.28.68v.36s.26.62.26.62l.33.71.19.57.61.99h0"/>
      <path id="path4600-3-5" class="cls-1" d="m363.76,68.53l-3.06-.44-2.9-.33-2.81-.56-3.28-.4-.87.19-2.38-.06-3.01-.2-2.17.03-2.89-.17-2.85-.24-2.47-.27-2.87-.15-2.88-.13-2.94-.02-2.49.16-2.64.16-2.72-.05-1.45-.21-1.76-.16h-2.56s-.9-.22-.9-.22l-1.28-.18-1.21-.19-2.6.06-3.25.35-2.32.5-2.67.15-3.15.44-3.06.54-2.92.38-1.29-.09-2.88.4-2.43.39-2.61.55-2.69.57-2.33.73-2.51.63-2.31.52-2.36.58-2.15.5-1.52.22-1.39.18-2.11.52-2.08.53-2.47.86-2.28.72-2.04.58-2.51.99-2.1,1.03-2.36.93-1.84,1-2.21,1.07-2.31,1.08-2.22.99-2.25,1.21-1.64,1.09-2.08,1.18-1.63,1.11-1.74,1.18-2.12,1.23-2.13,1.25-1.74,1.26-1.62,1.22-1.66,1.25,1.83-1.21,1.55-1.15.92-.84.96-.85,1.46-1.05,1.5-1.04,1.89-.99,1.81-1.12.62-.63.67-.65.64-.64,1.61-1.03,1.81-1.03,1.72-1,1.82-1.01,2.06-.97,2.19-.98,2.21-.94,1.42-.35,2.22-.82,2.27-.97,2.34-.88,2-.91,1.37-.75,1.84-.78,2.13-.76,1.74-.72,1.64-.69,1.67-.68,2.06-.7,1.73-.65,1.41-.59,1.29-.58,2.29-.68,2.21-.63,2.35-.53,2.23-.53,2.16-.53,2.28-.46,2.29-.42,1.35-.02,2.41-.34,2.39-.38,2.21-.22,2.38-.34,2.36-.24,2.17-.14,1.56-.04h.38s1.28.09,1.28.09l2.27-.08,2.15-.04,2.42-.1h2.34s2.67-.09,2.67-.09l2.65-.13,2.12-.2,2.55-.07,2.46.09,2.6.02,2.36.17,2.12-.06,2.51.05,2.53.05,1.29-.14.89.11.33.11.41.11.58.11.29.11.64.13.87.12.97.11-.26.06.21.11.07.1.45.12-.28.06.44.13.4.12.62.13.2.11.77.14-.38.05.36.12-.09.08-.22.06.25.11-.09.08.22.1.05.09-.16.07.22.11.37.12-.03.08.39.12-.12.07.49.13-.09.08.54.13.23.11.25.11.22.11.71.15.15.11.04.1.59.15-.23.06-.52.02.47.14.02.09.23.12-.35.04.18.12.56.15.27.12.16.11.51.15.64.16.89.18,1.09.16.84.18,1.01.15.73.17.93.18.51.17.95.19.86.19.96.18"/>
      <path id="path4602-8-3" class="cls-1" d="m141.65,332.38l.15.1.15.13.13.08.14.09.14.1.15.1.14.11.15.11.17.12.12.05.09.02.04-.03.15.11.15.1.15.1.15.11.15.09.12.05.13.07.12.06.15.09.15.11.13.12.16.12.15.1.14.08.15.11.15.12.14.07.15.1.13.07.08.02.15.09.14.08.11.05.12.06.15.08.16.11.17.11.13.12.15.1.15.09.14.07.16.12.16.11.15.11.1.11.15.12.14.12.16.11.14.07.14.07.11.03.16.1.14.07.16.11.16.11.15.08.15.11.12.11.16.11.14.06.15.1.15.08v-.04s.08-.01.08-.01l.15.06h.09s.18.11.18.11l.12.03.18.12.17.08.14.06.1.03h.08s.09.02.09.02l.12.04.13.05.14.06.09.02.17.09.16.12.17.09.16.12.17.1.16.08.14.05.15.07.15.06.18.11.17.11.16.08h.06s.16.05.16.05l.12.03.12.04.17.1.12.11.16.09.16.1.16.08.15.1.16.08.14.11.16.1.16.08.16.1.14.1.15.1.15.1.16.09.16.09.18.09.17.08.14.11.18.11.15.11.12.1.14.1.14.1.15.05.15.05.13.03.15.05.19.1.15.11.17.08.18.09v-.04s.03-.04.03-.04l.11.02.14.04v-.05s.06-.02.06-.02l-.05-.07-.07-.09.12.02.14.04.19.1.17.07.16.05.12.02v-.05s.07-.02.07-.02h.08s.1,0,.1,0l.02-.04.02-.04-.14-.11-.02-.07.03-.04-.02-.06.12.03h.1s.18.09.18.09l.12.02.06-.02.14.04.03-.03h.07s.12.02.12.02h.08s.09,0,.09,0l.13.03h.08s.16.05.16.05l.11.02.04-.02h.1s.12.04.12.04l.13.03h.08s.19.08.19.08l.17.11.17.06.16.05.07-.02.14.04h.07s.06-.03.06-.03h.11s.15.06.15.06l.18.07.18.1.05-.02-.03-.06.02-.04.13.03h.11s.16.06.16.06l.04-.03v-.05s.15.05.15.05l.15.05.17.09.15.04.17.09.17.07.17.07.13.02h.08s.17.05.17.05l.15.05h.1s.15.05.15.05l.17.06.13.02.02-.05h.09s.15.03.15.03l-.04-.07.06-.02h.08s.06-.03.06-.03h.11s.15.05.15.05l.17.05.18.1.18.07.15.04h.08s.16.03.16.03h.1s.07-.02.07-.02l.15.03.19.08.18.08.16.1.17.09.17.05.17.06.17.07.16.04.06-.02.17.06h.11s.13.02.13.02l.06-.03.15.03.18.07.16.07.16.08.16.08.17.07.17.06.17.06.18.08.14.09.17.07.17.07.18.06.17.09.13.02h.11s.19.09.19.09l.16.03.15.04.16.04.17.06.18.07.17.04.17.05h.11s.09-.01.09-.01l.18.05h.12s.18.06.18.06l.18.08.17.08.18.07.17.04.18.07.15.03h.12s.18.07.18.07l.18.06.15.03.18.07.18.07.16.03.17.05.15.03.16.04h.09s.11-.02.11-.02h.14s.18.09.18.09l.18.05.19.09.09.08.17.08.19.07.2.07.17.03.19.05.18.08.18.04.16.03.17.03.19.08.2.07.13.09.19.05.19.07.15.08.17.07.18.07.17.07.14.08.19.06.11.08.18.07.13.08.06.07.04.07.15.08.12.08.07.07.15.08.17.07v.06s.14.08.14.08l.04.06.09.07.18.07.2.05.15.08.13.08.09.07v.05s.12.07.12.07l.03.06.07.07-.05.04.06.07.14.07v.05s.09.07.09.07l.14.07.15.07.09.07.13.07.05.06.13.07.13.07.15.07.02.06.12.07.18.05.14.07.16.06.12.07.17.04.17.05.16.05.16.05.17.05.17.04.16.06.14.06.13.07.19.06.19.05.17.02.18.05.14.06.09.07.18.06.14.07.17.06.18.03.19.05.18.04.18.04h.17s.16.02.16.02l.12.06.11.06.14.06.14.06.15.06.17.06.18.05.19.03.16.02.17.04.15.05.15.05.16.02.16.04h.15s.16.04.16.04h.13s.15,0,.15,0l.17.03.16.05.17.04h.16s.17.03.17.03l.11-.02.18.04.17.02h.14s.11-.02.11-.02l.13.06.18.04.18.03h.15s.09-.03.09-.03h.16s.17.04.17.04l.16.02.09-.02h.14s.17.02.17.02h.14s.16.02.16.02l.16.02.16.02.16.02.17.02h.16s.16.05.16.05l.15.05.17.04h.17s.18.03.18.03l.15.05.07.06.16.05.15.04.12.05.17.02h.16s.16.04.16.04l.13.05.15.04.17.02.13-.02.17.02.16.03.16.03.16.02.16.02.1-.03h.16s.17,0,.17,0h.16s.19.02.19.02l.17.05.06.06.16.05.19.04h.18s.15.05.15.05l.14.05h.18s.18.04.18.04h.15s.15-.03.15-.03l.18.02.18.02h.16s.15-.02.15-.02l.14-.02.12-.03.1-.04.05-.05h.19s.18.04.18.04h.17s.15-.02.15-.02h.17s.15,0,.15,0h.16s.17,0,.17,0h.18s.15.05.15.05h.17s.17.04.17.04h.17s.18,0,.18,0l.16-.02.15-.02.12-.04h.2s.01-.06.01-.06l.08-.05.17.03.18.02h.19s.16.05.16.05l.2.02h.19s.16-.04.16-.04l.12-.04v-.05s.06-.05.06-.05l.11-.04.03-.05.04-.05.09-.04h.18s.13-.04.13-.04l.05-.05.1-.04.16-.02.07-.04.07-.05v-.05s.17-.02.17-.02l.12-.04.14-.02h.17s.15,0,.15,0l.13-.02.15-.02h.17s.16,0,.16,0h.16s.15.01.15.01l.14.03.15.02.15.02.15.02h.16s.13.05.13.05l.15.02h.17s.16.02.16.02l.13-.03.14-.03h.15s.14.04.14.04h.16s.15.02.15.02l.13.03h.16s.13.02.13.02l.14.02.15-.02h.16s.14.02.14.02h.15s.15.03.15.03l.1.04.09.04v.05s.06.05.06.05l.11.04.11.04h.16s.07.05.07.05v.05s.11.04.11.04l.14.03h.16s.17,0,.17,0l.14.02.13.03h.15s.16,0,.16,0h.15s.14.02.14.02l.14.02.13.02h.15s.14.03.14.03l.09.04-.02.06.12.03.14.02.14.03h.17s.12.01.12.01l.12.03.14-.04h.17s.13-.04.13-.04l.05-.05.14-.03h.16s.14-.04.14-.04l.11-.04.14-.04.16-.03.15.02h.18s.06-.07.06-.07l.15-.03.12-.04.1-.04.15-.03.11-.05.15-.02.15-.02.15-.02h.16s.15,0,.15,0h.15s.15,0,.15,0l.1.03h.16s.15,0,.15,0l.15-.02.15-.02.15-.03h.15s.17-.02.17-.02l.16-.03.13-.05.16-.03h.15s.17,0,.17,0h.16s.14.02.14.02h.14s.09.05.09.05l.12.02h.17s.14,0,.14,0l.08.04.11.02.13.02.14-.04.13-.04.14-.03.15-.03.15-.02.15-.02h.15s.15-.03.15-.03l.16-.03.1-.05.14-.04.15-.03.13-.05.15-.02.15-.03h.15s.15-.04.15-.04l.15-.02.15-.02h.15s.14-.05.14-.05l.16-.02.16-.04.1-.06.07-.06.12-.05.09-.06.15-.04.09-.05.13-.04.12-.05.14-.04.06-.06.06-.06.14-.05.13-.05.09-.06.15-.04h.16s.15-.06.15-.06l.08-.05.1-.05.07-.06.1-.05.07-.06v-.05s.09-.06.09-.06l.14-.04.02-.06.03-.06.11-.06.04-.06.03-.06.07-.06.07-.06.07-.06-.08-.04-.02-.05.06-.06.07-.06.1-.06v-.06s.06-.06.06-.06l.15-.05.13-.06.05-.07.07-.06.07-.06.16-.04.15-.05.11-.06.16-.04.13-.06.16-.04h.15l.17-.03.16-.04.14-.06.15-.05.07-.07.15-.05.15-.05.16-.03h.13s.15-.01.15-.01h.12s.15-.02.15-.02l.15-.02.13-.05.13-.05.13-.05.13-.05.12-.06.1-.06.13-.06.08-.06.14-.02.15-.02.14-.05.11-.06.14-.03.14-.02.13-.05.14-.04.14-.04.13-.06.15-.03.14-.06.08-.07.04-.06.16-.05.09-.07.15-.04.14-.05.15-.05.15-.02h.14s.14-.03.14-.03l.14-.02.14-.02h.14s.11,0,.11,0l.04.05h.13s.12.02.12.02l.15-.03.15-.03h.13s.08-.08.08-.08l.15-.06.15-.06.09-.07.14-.02.15-.03.16-.03.14-.07.11-.06.11-.07.12-.06.13-.06.12-.07.15-.05.14-.04.13-.06.09-.07.13-.06.12-.06.12-.06.14-.06.14-.02.13-.02.14-.05.1-.07.12-.06.09-.07.08-.07.14-.05.12-.06.09-.07.13-.06.1-.07.13-.06.11-.07.13-.06.14-.04.13-.06.14-.03.14-.04.1-.07.12-.06.1-.07.1-.07.09-.07.08-.07v-.07s.11-.08.11-.08l.14-.05.12-.07.13-.06.1-.08.13-.07.14-.04.09-.08.13-.07.1-.08.14-.07.14-.07.15-.04h.12s.15-.06.15-.06l.13-.02.14-.04.14-.06.13-.02.14-.05h.12s.11-.01.11-.01h.1s.14-.06.14-.06h.12s.14-.06.14-.06l.13-.02.14-.05.14-.06h.1s.14-.02.14-.02h.12s.04.04.04.04l.13-.04.13-.05.12-.07.13-.06.12-.08.13-.07.04-.08.08-.08.1-.08.13-.05.12-.02.12-.07.1-.07.12-.06.11-.07.13-.05.14-.08.15-.05.08-.09.11-.09.15-.05h.1s.13-.08.13-.08l.15-.05.09-.08.07-.08.1-.08.09-.08.08-.09.12-.08v-.07s.08-.09.08-.09v-.06s.07-.09.07-.09l.02-.07-.07-.03.04-.08-.06-.04.09-.09v-.07s.07-.08.07-.08l.05-.08.06-.09-.04-.05.04-.08.11-.09.08-.09.13-.07.07-.08.11-.07.1-.08.06-.08.03-.08.11-.08.12-.07.1-.08.09-.09.13-.07.06-.08.04-.08.08-.09.12-.07.1-.08.1-.08.07-.08.06-.08.11-.08.07-.08.05-.08.1-.08.08-.09.12-.07.1-.08.1-.08.1-.09.13-.07.07-.09-.03-.06.08-.09.07-.09.12-.02.13-.06.13-.06.1-.09.12-.05.11-.08.12-.08.12-.04.12-.07.12-.08.1-.09.09-.09.12-.04.12-.08.12-.08.12-.04.14-.08.14-.05.08-.11.14-.1.1-.1.11-.1-.02-.07.07-.11.13-.08.12-.09.13-.08.12-.09.09.02.13-.03.13-.03.14-.08.13-.03.13-.09h.09s.1,0,.1,0l.12-.04.13-.07.11-.09.11-.09.12-.04h.09s.06.04.06.04h.1s.12-.07.12-.07l.12-.04.1-.02h.08s.12-.06.12-.06l.11-.08h.09s.09-.02.09-.02l.11-.04.11-.09.12-.04.06.03.11-.06.1-.08.11-.04.11-.06h.08s.11-.05.11-.05l.11-.09.11-.04.1-.02.11-.08.1-.02.11-.08.11-.07.11-.06.08-.1.11-.08.06-.1.1-.09.05-.09.1-.09.12-.05.11-.04.12-.09.09-.1.11-.04.12-.07h.08s.1-.02.1-.02l.11-.08.09-.1.11-.09.11-.06.1-.06.1-.06.1-.05.1-.07.1-.06.1-.06.1-.06.1-.04h.09s.06,0,.06,0h.07s.09,0,.09,0l.1-.04.1-.04.06.02.06.03.07.02.11-.05.1-.02.04.05.12-.05.1-.1h.08s.11-.04.11-.04l-.08.08-.05.09-.06.09-.04.08-.07.09-.09.07-.09.06-.09.07-.06.08-.07.08-.05.08-.05.08-.08.08-.09.07-.09.08-.1.05-.1.06-.1.07-.1.06h-.08s-.09.05-.09.05l-.08.02-.06-.02h-.08s-.09.05-.09.05l-.09.08-.09.05-.09.05-.08.09-.1.07-.09.03-.1.05h-.07s-.08.03-.08.03h-.07l-.09.03-.04-.03h-.07s-.06,0-.06,0l-.04-.03-.06-.02-.09.04-.09.03h-.07s-.08.03-.08.03l-.09.03h-.08s-.09.05-.09.05l-.1.08-.08.09-.09.08-.05.09-.1.02-.1.03-.11.07-.1.09h-.08s-.08.01-.08.01l-.1.06h-.08s-.09.04-.09.04l-.1.05-.1.04h-.07s-.06-.02-.06-.02h-.07s-.08.01-.08.01l-.05-.03h-.07s-.02-.05-.02-.05l-.09.02-.04-.03h-.08s-.02-.04-.02-.04h-.08s-.09.03-.09.03h-.07s-.06,0-.06,0h-.08s-.1.06-.1.06l-.1.05h-.08s-.09.08-.09.08l-.09.06-.1.06-.1.05-.09.02h-.07s-.1.06-.1.06l-.1.06-.09.07-.09.07-.09.03-.09.02-.09.02-.1.04-.09.02-.09.02-.02-.05h-.08s-.04-.04-.04-.04l-.03-.04-.05-.02v-.05s-.04-.04-.04-.04h-.09s-.09.02-.09.02l-.1.04-.1.02-.11.05-.1.07-.1.07-.02-.05h-.07s-.06-.03-.06-.03l-.1.02h-.08s-.1.04-.1.04l-.09.02-.1.04v-.06s.06-.08.06-.08v-.07s-.05-.02-.05-.02l-.05-.02-.04-.03-.06-.02-.03-.04h-.08s-.1.04-.1.04h-.07s-.04-.04-.04-.04l-.05-.03-.05-.03-.11.05h-.09s0-.06,0-.06l-.05-.03-.04-.04v-.06s-.09.03-.09.03l-.1.03-.03-.05h-.09s-.09.02-.09.02l-.1.04h-.07s-.1.02-.1.02l-.1.05-.1.06-.1.02-.1.07-.06-.02h-.09s-.11.06-.11.06h-.08s-.1.02-.1.02h-.07s-.04-.04-.04-.04h-.08l-.05.08-.1.07-.11.05-.1.07-.11.06-.11.03h-.1s-.11.07-.11.07l-.06-.02-.1.02h-.09s-.11.06-.11.06h-.09s-.11.06-.11.06l-.1.04-.1.04-.11.04-.11.03h-.08s-.1,0-.1,0l-.1.06-.11.05-.09.07-.11.05-.1.05-.1.06-.1.05-.1.06-.07.07-.07.07-.09.07-.11.04-.1.02-.11.05h-.07s-.09-.01-.09-.01l-.1.04-.1.02-.1.04-.1.03-.1.05-.1.04-.1.04-.1.06-.11.05h-.1s-.1.07-.1.07l-.1.06-.1.06-.11.04-.1.02-.11.03-.11.05-.11.04-.11.06-.07.07-.1.06-.11.05-.05.07-.07.07-.05.07-.11.06-.11.04-.09.06-.11.06-.08.07-.11.05-.11.04-.11.06-.11.06-.09.07-.03.07-.08.07-.12.06-.12.05h-.11s-.1.07-.1.07l-.12.05h-.1s-.12.03-.12.03l-.04.07-.11.07v.05s-.01.06-.01.06l-.1.07-.12.05-.11.06-.05.07-.1.06-.11.06-.05.07-.08.07.03.04-.03.06-.04.06-.05.07-.08.06-.08.06-.07.06-.07.06-.11.03-.11.05-.07.07-.11.05-.09.06-.06.06-.06.06-.07.06-.1.05-.1.05-.1.05-.07.06-.07.06-.08.06-.1.06-.1.06-.02.06-.07.06-.02.06v.05s-.1.04-.1.04l-.1.05-.1.06-.05.06-.03.06-.07.06-.06.06-.11.05h-.09s-.12.02-.12.02l-.12.03-.11.05-.11.05-.11.02-.07.06-.12.05-.1.05-.11.05-.12.03h-.1s-.1.02-.1.02l-.11.03-.09.06-.12.03-.1.05-.11.05-.12.04-.12.03-.1.06-.05.06-.12.04-.12.04h-.08s-.11,0-.11,0l-.11.02-.12.04h-.1s-.1,0-.1,0l-.12.03-.12.04-.07.06-.1.05-.06.06v.05s0,.05,0,.05l-.06.06-.07.06-.11.05-.1.05-.11.04-.06.06-.11.05-.08.06-.05.06-.1.05-.11.04-.1.05-.08.06-.1.06-.12.04-.07.06.02.05-.07.06-.02.06-.09.06-.03.06-.06.06-.02.05.06.03v.05s0,.05,0,.05l.03.04-.11.04-.11.04-.11.05-.12.02-.05.06-.11.05-.06.06-.1.05-.12.02-.11.04-.1.05-.09.05-.11.04-.11.02-.11.03-.11.03-.12.02-.1.05-.11.04-.11.02-.12.04-.1.05-.08.05-.04.05-.02.05-.1.05-.1.04-.09.05-.11.03-.1.05-.11.04-.1.04-.12.03h-.12s-.11.05-.11.05l-.12.03-.09.05-.13.03-.12.03h-.12s-.13.02-.13.02l-.13.04h-.09s-.08-.04-.08-.04l-.12.02-.12.04h-.12s-.12.04-.12.04h-.11s-.14,0-.14,0l-.13.03h-.12s-.14.04-.14.04l-.14.02-.13.04-.09.06-.1-.02h-.12l-.07-.03-.02-.05h-.1s-.12,0-.12,0l-.09-.02h-.13s0-.04,0-.04l-.09-.03h-.13s-.1,0-.1,0h-.1s-.08-.03-.08-.03l-.09-.02h-.12s-.12.04-.12.04l-.13.02h-.11s-.13,0-.13,0h-.12s-.11,0-.11,0l-.13.02-.1-.02-.06-.04v-.05s-.01-.05-.01-.05l.05-.05h-.11s-.08-.04-.08-.04l-.08-.03h-.1s-.09-.03-.09-.03l-.1-.02h-.13s-.13.02-.13.02l-.05-.03-.09-.02-.05-.04h-.12s-.15,0-.15,0l-.13.04-.11-.02h-.13s-.13,0-.13,0h-.13s-.14.02-.14.02h-.12s-.14-.02-.14-.02l-.15.02-.09-.03h-.14s-.12-.03-.12-.03l-.08-.04-.02-.05-.02-.05-.1-.03h-.15s-.14.03-.14.03l-.14.03-.12.04-.13.03h-.14s-.14.03-.14.03l-.1.05-.09.05-.14.02-.11.05-.14.02h-.14s-.14.03-.14.03l-.11.04-.1.05-.14.02v.05s-.08.05-.08.05l-.13.03-.11.04-.02.05-.08.05-.1.04-.13.02-.13.02-.12.03-.09.04-.13.02-.12.02-.13.02h-.14s-.14.03-.14.03l-.07.05-.13.03-.13.03-.09.05v.05s-.05.05-.05.05l-.12.03-.1.04-.14.02h-.13s-.12.02-.12.02l-.13.02h-.13s-.12.04-.12.04l-.1-.02-.08-.03h-.13s-.13,0-.13,0l-.12.03h-.13s-.12,0-.12,0h-.13s-.11.03-.11.03l-.1.03-.12.02-.11.03-.13.02h-.13s-.13.02-.13.02h-.12s-.05.03-.05.03v.05s-.11.03-.11.03l-.08.04h-.14s-.13.02-.13.02l-.12.03-.09.04-.12.02h-.13s-.11.04-.11.04l-.04.05-.1.03h-.13s-.13.02-.13.02l-.11.03h-.12s-.12.01-.12.01l-.1.03-.12.02-.1-.02h-.13s-.13,0-.13,0l-.12.02h-.12s-.12,0-.12,0l-.09-.03h-.12s-.12-.02-.12-.02h-.13s-.07-.03-.07-.03h-.12s-.11-.03-.11-.03h-.12s-.12,0-.12,0h-.12s-.11.01-.11.01h-.12s-.13,0-.13,0l-.1.03-.1.03-.12.02h-.12s-.13-.01-.13-.01l-.09-.03h-.12s-.12-.02-.12-.02h-.12s-.1-.02-.1-.02l-.05-.04-.07-.03-.06-.03-.11-.02-.04-.04-.1-.02-.09-.03h-.13s-.11-.02-.11-.02l-.07-.04-.1-.03-.11-.02h-.12s-.09-.04-.09-.04l-.08-.03-.09-.02h-.11s-.1-.03-.1-.03l-.09-.02-.1-.02-.09-.02h-.12s-.1-.03-.1-.03l-.11-.02-.1-.02h-.12s-.08-.05-.08-.05l-.12-.02h-.12s-.1-.03-.1-.03l-.08-.03-.09-.03-.13-.02-.1-.03-.06-.04-.12-.02-.08-.04-.07-.04-.13-.02h-.13s-.13,0-.13,0h-.13s-.13-.01-.13-.01l-.12.02h-.13s-.13-.03-.13-.03h-.13s-.08-.02-.08-.02l-.03-.04-.05-.04-.11-.03-.12-.02-.08-.04-.1-.03-.06-.04h-.13s-.11-.04-.11-.04l-.1-.04-.03-.04-.08-.04-.12-.02-.1-.03v-.04s-.07-.05-.07-.05l-.13-.03-.12-.03-.13-.03-.05-.05-.03-.05-.03-.05.02-.04-.1-.04-.14-.03h-.14s-.15-.01-.15-.01l-.07-.04-.12-.03-.13-.03-.05-.05-.14-.02h-.14s-.13-.04-.13-.04l-.14-.02h-.13s-.11.02-.11.02h-.14s-.13,0-.13,0l-.08-.05-.07-.05-.13-.03-.09-.04-.15-.03-.11-.05-.15-.02h-.14s0-.04,0-.04l-.08-.04-.03-.04-.03-.04-.03-.04-.09-.04v-.04s-.1-.04-.1-.04v-.04s.01-.04.01-.04v-.04s.03-.03.03-.03l-.12-.03-.04-.05v-.04s-.07-.04-.07-.04l-.03-.04-.05-.04-.06-.04-.08-.04.04-.04-.05-.05.04-.04.05-.03-.13-.03-.07-.04-.03-.05-.11-.04-.03-.04-.08-.04-.03-.04-.1-.04-.13-.03-.08-.05-.14-.03-.07-.05h-.13s-.14-.02-.14-.02l-.13-.04-.14-.02h-.12s-.14,0-.14,0h-.13s-.14-.03-.14-.03h-.13s-.12,0-.12,0h-.12s-.09.02-.09.02h-.12s-.06.04-.06.04l-.09.02h-.14s-.14-.02-.14-.02h-.12s-.14-.02-.14-.02l-.12-.04-.12-.03h-.12s-.13-.03-.13-.03h-.12s-.13-.03-.13-.03h-.12s-.12-.01-.12-.01l-.12-.03-.06-.05v-.05s-.1-.05-.1-.05l-.02-.05-.11-.04-.13-.04-.07-.05-.13-.04-.11-.04-.11-.04-.14-.03-.13-.02h-.13s-.13-.05-.13-.05l-.13-.03-.12-.04-.06-.05-.02-.05-.09-.05-.14-.03-.12-.04-.07-.05-.14-.02-.1-.04-.11-.04-.07-.05-.12-.04-.12-.03-.12-.04-.13-.02-.12-.03-.1-.04-.02-.04-.02-.04-.08-.04-.05-.04-.11-.04-.05-.05-.12-.03-.12-.03-.04-.04-.07-.05-.1-.05-.13-.03-.12-.03-.12-.02-.09-.05-.13-.03-.12-.03-.08-.04-.05-.05-.09-.04-.08-.04-.02-.04-.08-.04-.1-.04-.06-.04-.06-.04-.02-.04-.07-.04-.02-.04-.08-.04-.07-.04-.04-.04-.13-.02-.11-.05-.13-.03h-.11s-.1-.05-.1-.05l-.13-.03-.12-.03-.11-.04-.12-.04-.09-.05v-.04s-.09-.05-.09-.05l-.13-.03-.11-.04-.06-.05-.09-.05-.08-.05-.03-.04-.07-.05-.08-.05-.03-.04-.06-.05-.02-.04-.07-.05-.03-.04-.07-.05-.08-.05-.13-.04-.09-.04-.05-.05-.05-.05-.1-.05-.12-.04-.12-.03-.07-.05-.12-.04-.07-.05-.12-.05-.02-.04-.06-.05-.11-.04-.08-.05-.02-.05-.08-.05v-.04s-.05-.05-.05-.05v-.04s.05-.02.05-.02l-.03-.05-.09-.05v-.04s0-.03,0-.03l-.1-.05-.02-.04-.03-.04-.07-.05-.11-.05-.11-.05-.12-.02-.12-.04-.09-.05-.07-.05-.1-.05-.03-.05-.13-.04-.1-.05-.12-.03-.12-.05-.06-.05-.1-.05-.07-.05-.06-.05-.08-.05-.03-.05-.07-.05-.08-.05-.07-.05-.1-.04-.08-.05-.09-.05-.03-.05-.1-.05-.08-.06-.13-.05-.03-.05.02-.03-.02-.05.02-.03-.12-.04-.12-.04-.11-.05-.12-.04-.1-.05-.11-.06-.03-.05-.05-.05-.12-.05-.07-.06-.11-.06-.14-.04-.12-.05-.12-.05-.06-.06-.12-.06-.03-.05-.07-.06-.08-.06-.1-.06v-.05s-.1-.06-.1-.06l-.11-.06-.11-.06-.12-.02-.13-.05-.12-.05-.12-.04-.12-.05-.13-.04-.12-.02-.13-.06-.06-.06-.12-.06-.1-.06-.12-.05-.09-.06-.12-.06-.12-.05-.13-.05-.02-.05-.09-.07h.09s0-.05,0-.05l-.06-.06-.07-.06-.08-.06v-.05s-.08-.06-.08-.06l-.03-.05v-.05s.03-.03.03-.03v-.05s-.08-.07-.08-.07l.02-.04h.09s-.1-.07-.1-.07l-.11-.06-.1-.06-.09-.06-.06-.06-.09-.06-.07-.06-.07-.06-.02-.06-.1-.07-.11-.07-.13-.06-.13-.05-.12-.06-.14-.05-.11-.07-.11-.02-.13-.03-.13-.07-.14-.05-.13-.06-.13-.06-.13-.07-.09-.07h-.1s-.06,0-.06,0l-.11-.02-.04.03-.11-.02-.11-.02-.14-.06-.12-.02-.13-.03-.13-.06-.12-.06-.12-.06-.13-.06-.13-.04-.11-.02-.12-.03-.1-.07-.07-.06-.13-.06-.08-.07-.12-.06-.13-.06-.08-.07-.12-.07-.11-.07-.13-.06-.13-.05-.11-.02-.06-.06-.09-.07-.13-.05-.12-.07-.13-.04-.13-.07-.11-.07-.1-.07-.05-.06-.1-.07-.08-.07-.04-.06-.13-.06-.1-.07-.13-.06-.12-.03-.12-.05h-.09s-.12-.06-.12-.06l-.12-.05-.12-.06-.12-.04-.1-.07-.13-.06-.11-.06-.11-.07-.1-.07-.08-.07h-.06s0,.03,0,.03l.02.04.02.04h-.05s-.02.02-.02.02l-.02.02h-.04s.07.06.07.06l.05.05.07.05.04.05v.03s.02.04.02.04l.04.05v.03s0,.03,0,.03h-.03s.02.05.02.05l.04.04.03.04.05.04-.02.02v.03s-.02.01-.02.01h-.03s.03.05.03.05l-.03.02v.03s.06.05.06.05v.03s.04.04.04.04l.02.04h-.04s.02.06.02.06l.07.06.09.05.06.05v.03s.04.05.04.05h-.05s0,.04,0,.04h-.04s0,.04,0,.04h-.06s-.03.01-.03.01h-.05s-.03.02-.03.02v.03s.03.04.03.04l.04.05.07.05.09.05.07.05.07.05.05.04v.04s.04.04.04.04l.02.04.04.04.1.05.09.05.03.05.08.05.08.05.07.05.05.05.04.04.06.05v.03s.04.04.04.04l.06.05.05.04.04.04.03.04.06.05.03.04.06.05v.02s0,.03,0,.03v.03s0,.03,0,.03v.04s.05.04.05.04l.02.04.05.05.05.05.09.05.03.04.05.05v.03s-.02.02-.02.02v.03s-.04.01-.04.01v.03s.05.05.05.05l.1.05.07.05.04.05.03.04v.04s.09.05.09.05l-.03.02v.04s.02.03.02.03l.04.05h-.08s-.02.01-.02.01l.02.04v.04s-.05,0-.05,0v.03s-.04.01-.04.01l-.03.02-.08-.02h-.04s-.05.01-.05.01l-.02.02h-.07s-.07-.02-.07-.02h-.08s-.01.02-.01.02l.02.04v.03s.02.03.02.03h-.05s-.03.02-.03.02h-.05s.06.05.06.05v.03s.04.05.04.05l.09.05-.03.02.03.04.06.05.04.04.09.04.09.05.05.05.08.05v.03s.02.04.02.04l.08.05.02.04.09.05.09.05.04.05.09.05.08.05.04.05v.03s.03.05.03.05l-.02.02.02.04.03.04.06.05v.03s-.04.02-.04.02v.03s-.02.02-.02.02l.03.04v.04s.1.05.1.05l.08.05.08.05.1.04.1.04.09.05v.03s.06.04.06.04v.03s0,.03,0,.03l.06.05.04.04v.04s.04.04.04.04h-.04s0,.05,0,.05l.04.04v.03s.07.05.07.05l.07.05.08.05.03.04.06.04.08.04.06.05.09.04.07.05.08.04.09.05.04.04v.03s-.04.01-.04.01h-.07s-.02.02-.02.02l-.03.02.03.04.03.04h-.04s-.04.03-.04.03v.03s-.09-.02-.09-.02h-.05s-.09-.01-.09-.01l-.03.02h-.04s0,.04,0,.04l.02.04.05.04v.03s-.03.02-.03.02l.04.04.03.04.02.04-.02.02-.09-.02h-.07s-.08-.01-.08-.01l-.03.02v.04s-.01.02-.01.02h-.05s-.04.02-.04.02v.03s.01.03.01.03v.03s-.07,0-.07,0l.07.05.04.04v.03s.01.03.01.03l.04.04.02.03v.03s.02.04.02.04v.03s.03.04.03.04l.05.04.04.04-.02.02v.04s-.06,0-.06,0h-.05s.02.05.02.05l.06.05-.02.03.04.04v.03s-.05,0-.05,0l.03.04.06.05-.02.02v.03s.03.03.03.03v.03s-.04.02-.04.02v.03s-.09-.01-.09-.01h-.08s.03.03.03.03l-.02.02v.03s-.06,0-.06,0l-.04.02v.04s-.02.02-.02.02l.05.05v.04s-.07,0-.07,0l-.11-.03h-.06s0,.04,0,.04h-.05s.02.05.02.05l-.02.02.05.05-.04.02v.03s-.03.02-.03.02v.03s.06.05.06.05v.03s-.08,0-.08,0h-.04s-.02.03-.02.03v.03s-.02.03-.02.03l-.11-.04h-.09s-.08-.02-.08-.02h-.09s-.11-.05-.11-.05l-.1-.05-.1-.03-.11-.04v.03s-.05.02-.05.02h-.08s-.1-.03-.1-.03l-.11-.03h-.09s-.02.02-.02.02h-.05s-.09,0-.09,0h-.08s-.11-.05-.11-.05l-.11-.04h-.07s-.04,0-.04,0h-.04s-.07,0-.07,0h-.05s-.08,0-.08,0h-.08s-.03.01-.03.01h-.06s-.09-.02-.09-.02l-.09-.02-.09-.03-.08-.02-.1-.04-.09-.03-.09-.02-.1-.04-.1-.05-.09-.03h-.07s-.1-.04-.1-.04l-.09-.04-.09-.02-.1-.03-.09-.02-.1-.04-.09-.05-.09-.03-.1-.04h-.07s-.06,0-.06,0l-.1-.03h-.07s-.1-.04-.1-.04l-.1-.05-.1-.05h-.07s-.08-.03-.08-.03h-.05s-.1-.02-.1-.02h-.06s-.05,0-.05,0h-.07s-.07-.02-.07-.02l-.1-.03-.1-.05-.09-.03-.09-.02-.09-.05-.1-.04-.09-.05-.09-.05-.09-.05-.1-.05-.1-.04-.1-.04-.1-.03-.1-.03h-.05s-.07,0-.07,0l-.1-.06-.1-.03-.09-.03-.09-.03-.1-.04-.08-.02-.08-.02h-.07s-.11-.06-.11-.06h-.07s-.04,0-.04,0h-.07s-.08-.02-.08-.02h-.06s-.07-.02-.07-.02h-.06s-.03.02-.03.02v.03s0,.03,0,.03v.03s.05.05.05.05l-.03.02.02.04.03.05h-.04s-.1-.01-.1-.01l-.1-.03h-.07s-.04,0-.04,0v.03s-.04.02-.04.02l.04.05-.09-.02-.09-.02h-.04s-.06.01-.06.01l-.02.03.06.06h-.04s-.03.03-.03.03l.03.05.05.05.02.04.05.05v.03s0,.03,0,.03l-.02.02.02.04v.04s-.02.02-.02.02h-.06s-.03.01-.03.01h-.07s-.07-.01-.07-.01l-.03.02v.04s-.05,0-.05,0h-.06s-.01.03-.01.03l-.03.02-.09-.02h-.07s-.11-.05-.11-.05l-.11-.04h-.08s-.07-.02-.07-.02h-.05s-.07,0-.07,0l-.11-.04-.11-.06-.1-.03-.11-.05-.1-.07-.12-.05-.11-.05-.1-.06h-.07s-.11-.04-.11-.04l-.1-.03-.1-.03.07.06.08.06.05.05.09.06.06.06.04.05-.02.02.03.04.03.05v.03s-.09-.02-.09-.02l-.03.02.04.05.02.04.05.05.08.06-.09-.03-.03.02v.03s-.03.01-.03.01l.03.04-.02.02h-.03s.04.06.04.06l.04.05v.03s.09.06.09.06l.02.04.03.04v.03s-.03.02-.03.02l.02.04-.09-.02h-.06s-.1-.04-.1-.04l-.09-.02-.1-.04h-.06s-.09-.03-.09-.03h-.06s.02.04.02.04l.06.06v.03s-.01.03-.01.03l-.02.03h-.08s-.09-.03-.09-.03h-.06s-.03.02-.03.02l.02.04v.03s-.03.02-.03.02l.03.04.02.04v.04s-.05,0-.05,0v.03s-.06,0-.06,0l-.02.02.03.04-.08-.02h-.03s-.07,0-.07,0h-.04s-.1-.04-.1-.04l-.08-.05-.1-.04-.1-.04-.09-.03-.1-.04-.1-.05-.09-.03-.08-.02-.09-.03-.1-.04-.09-.04h-.04s-.03.03-.03.03h-.06s-.11-.04-.11-.04l-.1-.05-.09-.05-.09-.06-.1-.05-.1-.04-.09-.06-.09-.03-.09-.04-.1-.05-.09-.03-.1-.04-.1-.05h-.06s-.03,0-.03,0h-.04s-.1-.02-.1-.02l-.08-.02h-.07s-.1-.05-.1-.05h-.06s-.03.02-.03.02v.04s-.06,0-.06,0v.04s-.03.02-.03.02v.04s-.08-.02-.08-.02l-.03.02.1.07.04.05.03.05-.03.02-.1-.04h-.07s-.1-.05-.1-.05l-.1-.05-.09-.03-.03.02-.11-.06-.09-.02h-.06s-.05,0-.05,0l-.09-.03-.1-.04-.09-.03-.09-.04-.07-.02h-.05s-.07,0-.07,0h-.05s-.07-.01-.07-.01h-.06s-.06-.02-.06-.02l-.02.02-.08-.02v.03s-.03.02-.03.02l.02.04-.02.02h-.04s-.03.02-.03.02l.02.04.05.05-.02.02h-.05s-.03,0-.03,0l-.08-.02h-.05s0,.03,0,.03h-.06s-.04,0-.04,0l-.08-.02v.03s-.07-.01-.07-.01l-.1-.05h-.07s-.08-.04-.08-.04h-.07s-.05-.02-.05-.02l-.09-.03h-.06s-.05-.01-.05-.01l.03.04h-.04s-.02.03-.02.03l.05.05v.03s-.02.02-.02.02h-.03s-.03.02-.03.02l-.08-.02-.02.02-.02.02v.03s.03.05.03.05l.06.06.08.06.04.05.02.04.08.06v.03s.03.05.03.05l.04.05.07.06-.08-.02h-.04s-.06,0-.06,0h-.05s0,.04,0,.04l.04.05-.03.02v.03s-.08-.02-.08-.02h-.05s-.06,0-.06,0l-.03.02-.1-.05-.1-.05h-.07s-.1-.05-.1-.05l.03.04.03.05v.03s0,.03,0,.03l-.08-.02h-.05s0,.03,0,.03l-.02.02-.1-.05-.09-.06-.1-.05-.1-.05h-.05s-.1-.04-.1-.04l-.08-.02-.09-.03-.1-.06-.1-.04h-.06s-.09-.05-.09-.05h-.03s-.09-.02-.09-.02h-.06s-.06-.02-.06-.02l.02.04-.02.02h-.05s-.02.01-.02.01l.04.05.04.05v.03s-.04,0-.04,0l.09.06.04.05.03.05.09.07.05.05v.03s0,.04,0,.04h-.07s-.06-.02-.06-.02h-.04s-.05,0-.05,0h-.03s-.1-.03-.1-.03h-.07s-.1-.06-.1-.06h-.06s-.02.02-.02.02l-.08-.02.02.04.02.04h-.07s-.11-.06-.11-.06h-.06s-.03.01-.03.01h-.07s-.01,0-.01,0h-.06s-.02,0-.02,0l-.07-.02h-.06s-.07-.03-.07-.03h-.06s.03.03.03.03l-.02.02v.03s-.03.01-.03.01l.07.06.02.04h-.03s0,.04,0,.04l.05.05.07.06.04.05.08.06.09.06.05.05.03.04v.03s-.04.01-.04.01l.02.04.03.05.08.07-.03.02v.03s-.1-.03-.1-.03h-.07s.02.03.02.03h-.02s-.07,0-.07,0h-.03s-.05,0-.05,0v.03s.01.03.01.03l.02.03h-.07s-.05-.02-.05-.02l.04.05h-.03s-.1-.03-.1-.03h-.06s-.05-.02-.05-.02l-.07-.02h-.04s-.01.03-.01.03h-.05s-.03,0-.03,0h-.02s.02.05.02.05l-.02.02-.07-.02-.1-.04-.1-.06h-.06s-.08-.03-.08-.03h-.06s-.06-.03-.06-.03h-.02s-.05.01-.05.01l-.1-.05-.08-.02-.07-.02h-.03s-.05.01-.05.01l-.09-.04-.07-.02-.07-.02h-.03s-.04.01-.04.01h-.06s-.09-.05-.09-.05l-.07-.02h-.05s-.07-.02-.07-.02l-.1-.05h-.05s-.09-.04-.09-.04l-.08-.02-.02.02-.11-.07-.1-.04h-.07s-.11-.07-.11-.07l-.1-.05-.09-.04-.09-.06-.1-.06-.1-.05-.1-.06-.09-.06-.09-.06-.02.02.05.05v.03s-.02.01-.02.01l-.08-.03h-.05s0,.03,0,.03h-.04s0,.03,0,.03h-.05s.05.05.05.05l.03.04-.08-.03-.07-.02.02.04h-.06s-.04,0-.04,0h-.05s-.07-.03-.07-.03l-.09-.04-.08-.03h-.05s-.06-.01-.06-.01h-.02s-.01.03-.01.03v.03s.02.04.02.04h-.04s-.04,0-.04,0l-.02.02-.08-.03-.08-.03-.07-.06-.09-.06-.09-.05-.09-.05-.09-.05-.09-.04-.09-.05-.09-.06h-.06s-.07-.03-.07-.03l-.08-.03-.09-.04-.1-.05-.09-.07-.09-.06-.09-.04-.06-.06-.09-.07-.1-.06-.1-.07-.09-.04-.07-.02-.1-.07-.1-.06h-.06s-.08-.04-.08-.04l-.09-.05-.07-.02-.08-.03-.02.02-.09-.05-.07-.02-.07-.02-.06-.02h-.04s-.08-.03-.08-.03l-.1-.06-.09-.07-.09-.04-.09-.05-.06-.02-.09-.05-.08-.03-.08-.04-.09-.05-.08-.04-.09-.05-.09-.05h-.04s-.07-.02-.07-.02l-.09-.04-.09-.04v.02s-.07-.02-.07-.02v.03s-.04,0-.04,0h-.05s-.06-.02-.06-.02l-.1-.05-.07-.02-.07-.03-.09-.04-.09-.07-.1-.06-.07-.02-.09-.05-.09-.05-.09-.06-.08-.05-.07-.03-.07-.02-.09-.05-.08-.03-.09-.06h-.02s-.05,0-.05,0h-.03s-.05,0-.05,0h-.04s-.08-.04-.08-.04h-.05s0,.02,0,.02l-.02.02-.06-.02h-.03s0,.03,0,.03h-.02s-.04,0-.04,0l-.07-.02-.1-.05-.1-.07-.1-.06-.07-.03-.08-.04h-.03s-.06,0-.06,0l-.07-.02-.09-.06-.09-.06-.09-.05-.08-.04-.09-.06-.08-.04-.07-.03-.08-.04h-.03s-.04,0-.04,0l-.06-.02-.08-.04-.09-.05-.07-.03h-.02s-.06,0-.06,0l-.09-.05-.08-.04-.1-.06-.08-.07-.09-.07-.09-.06-.09-.07-.09-.06-.08-.04-.08-.04-.08-.04-.08-.07-.08-.07-.09-.06-.09-.07-.07-.02-.09-.04-.07-.02-.07-.03.04.06-.02.02-.06-.02h-.03s-.1-.05-.1-.05l-.07-.03-.09-.05-.06-.02-.09-.06-.09-.06-.09-.06-.09-.05-.08-.04-.08-.04-.09-.06-.09-.07-.08-.04-.09-.06-.09-.07-.09-.06-.09-.06-.09-.07-.09-.07-.06-.07-.09-.06-.08-.07-.08-.07-.09-.07-.07-.02v.03s-.08-.04-.08-.04l-.09-.05-.06-.03-.07-.04-.07-.03h-.05s-.1-.08-.1-.08l-.09-.08-.1-.08-.08-.08-.08-.05-.09-.05-.08-.04-.09-.06-.08-.07-.07-.07-.07-.07-.09-.07-.09-.08-.1-.06-.07-.03-.09-.06-.09-.07-.06-.07-.07-.07-.08-.07-.07-.04-.09-.06-.09-.07-.09-.07"/>
    </g>
  </g>
</svg>