<?xml version="1.0" encoding="UTF-8"?>
<svg width="3356" height="845.46" data-name="Layer 2" version="1.1" viewBox="0 0 3356 845.46" xmlns="http://www.w3.org/2000/svg">
 <defs>
  <style>.cls-1{fill:#23b73c;}</style>
 </defs>
 <path class="cls-1" transform="translate(16.78,11.47)" d="m1537 104.44a78.37 78.37 0 0 0 14 14.09 36.31 36.31 0 0 1 11.77 14.95 15.57 15.57 0 0 0 1.18 2.52c7 11 7.26 18.61 8.78 27.34 0.89 5.34-0.2 5.87-4.78 3.16-3.92-2.3-2.91 2-2.72 4.72 0.29 4.27 3.58 10.52 3.57 15.09 0 1.51 1.77 2.84 2.88 3.87 3.31 3.08 6.55 6 9.69 9.17 4.87 4.77 11.28 18.8 10.41 23.69a6.6 6.6 0 0 1-4.83 5.62c-2.15 0.49-4.45-4.77-6.43-8.21-3.14-5.5-6.21-12.23-9.51-16.3-5-6.19-10.54-12.87-16.35-17.6-3.76-3.05-7-4.21-9.13-1-2 3.07-5-3.17-7.27-6.64-1-1.44-1-3.53-2.79-4.28-1.47-0.63-1.62 0.83-1.68 2.08-0.19 3.55-1.14 6.34-4.54 7.48 6 3.48 10.82 9.8 15.36 7.75 3.78-1.68 10.92 5.86 13.61 13 1.44 3.8 1.34 5.69-1.5 4.52-1.73-0.7-3.38-1.24-3.38 1.21s1.88 4.51 3.41 6.36c2.56 3.09 5.07 6.45 7.66 9 5.51 5.43 8.66 13.2 12.13 20.3 1.8 3.69 3.45 7.4 5.41 11 4.47 8.13 6.26 23.18 3.56 30.75a21.28 21.28 0 0 0-1.23 12.07c0.72 4.16-0.48 7-1.63 9.66s-2.54 5-3.69 7.82c-1.79 4.35-3.6 7.79-7.86 1-1.57-2.47-2.41-1.51-1.9 1.78 1 6.44-0.56 9.28-4.5 9.35-6.06 0.13-6.75 1.45-6.59 11.33 0 2.59 0.43 5.29 0.56 7.93 0.18 3.84 0.69 8.69-2.17 9.43s-5.48-2.81-7.33-6.59c-1.58-3.2-4.4-7-1.6-10.82 1-1.32 1.67-2.82-0.17-4.52-2.66-2.44-5.38-5-8-1.58-4 5.4-3.23 16.95 2.13 24.87a124.83 124.83 0 0 1 14.12 26.8c5.46 14.77 3.72 28.9 0.06 43.28a7.17 7.17 0 0 1-3.58 4.65c-2.52 1.43-4.18 3.88-5.32 8.07-1.74 6.33-5.74 6.88-8.22 1.25-5.16-11.69-12.49-20.8-20.65-29.35-1.82-1.9-2.4-5.63-5.62-6.83 0.46 8.82-3.71 16.89-3.32 24.24 0.41 7.5 2.37 16.1 6.28 22.57 4.55 7.57 7.52 16.64 14.06 20.9 2.59 1.69 1.87 7.47 1 11.47a30.6 30.6 0 0 0 0.15 14.77c0.79 3.1 1.65 7.1-0.79 10.17s-5.12 1.73-7.06 0.07c-6.56-5.59-11-15.09-12.86-25.94-2.24-13.35-6.74-25.53-9.88-39-1.73-7.45-3.09-14.78-2.37-23 0.81-9.36-2.21-18-4.19-26.87-1.43-6.38-3.93-12.41-5.13-19-0.81-4.42-2.36-5.24-5.37-3.46-8.7 5.12-17.22-1.54-17.23-14.85 0-12.24-6.45-19.1-12.21-26.64-3.29-4.29-7-8.17-9.66-13.2-2.26-4.18-4.91-5.83-7.72-2.8s-6 3.75-9.91 3.83c-5.42 0.11-9.56 2.88-10.26 9.94-0.77 7.68-6.44 9.71-10.36 13.73-5.88 6-11.33 12.45-14.18 21.82a13.12 13.12 0 0 1-7.69 8.83c-5.26 2.19-7.51 6.76-6.66 13.68a56.22 56.22 0 0 1-1.64 20.7c-2.06 8.22-2 18.8 1.18 24.14s7.32 11.37 12.46 15.44c6 4.71 5.3 15.94-0.62 21.49-3.12 2.94-7 4.07-10.14 1.86-4.18-2.95-6.11-8.13-4.92-14.32 1-5.14 1.68-10-1-14.74-2.6 1.5-2.36 4.59-3.34 6.86-3.34 7.76-10.55 9.74-15.26 3.59-4.86-6.33-9.71-13.36-10.61-22.19-1.37-13.28-8-23.66-13.51-34.91-5-10.34-9.94-20.84-15.78-31-7.23-12.55-5.26-27.18-7.39-40.76-0.45-2.9 0.4-6.55-3.07-7.51-3.3-0.91-3.16 2.83-3.91 5.18-2.48 7.79-8.3 8.77-14 2-4.59-5.44-8.79-11.46-10.65-18.51s-5.85-10.56-12.26-10c-6 0.49-10-2.15-13.42-7.88-4.43-7.41-11.58-9.89-18.37-8.66-8.9 1.61-17.86-1-26.84-1.72-5.93-0.5-11.72-2.19-17.62-0.39-4.78 1.46-7.64-2.77-10.32-6.57-7.14-10.06-7.2-10.09-17.23-5.41-3.61 1.69-7.44 3-11.31 0.38-12.73-8.49-29.36-11.6-37.13-27.39a9.7 9.7 0 0 0-4.41-3.74c-5.22-2.4-12-6.57-15.23-0.91-2.91 5.1 3.68 8.87 8.09 11.65 6.92 4.38 12.84 9.11 13.94 17.71 0.3 2.39 1.1 4.89 4.8 3.9 8.08-2.16 10.22-0.89 10.26 7.62 0 6.5 1.47 8.52 7.56 6.06a8.47 8.47 0 0 1 5.47-0.27c6 2.05 8.76-0.95 11.4-5.27 5.13-8.39 11.62-7.79 16.5 1.94 2.92 5.84 6.49 8.67 12.42 9.12 8.92 0.68 14 5.69 16.13 15s7.07 18.94-2.63 26c-1.32 1-0.93 3.06-0.56 4.69 2.08 9.13-1.73 14.26-8.39 19.75-9.76 8-20 14.3-32.68 16.63a15.82 15.82 0 0 0-9.58 5.76c-3.47 4.31-7.66 6.82-13.37 6.5-4.59-0.26-7.51 3-10.23 6.14-5.28 6.17-11.7 10.12-19.82 11-5 0.55-8.42 3.67-12.07 6.91-10 8.82-13.66 8-21.23-3.13-5.93-8.64-11-17.51-11.65-28.3-1.11-18.28-12-30.89-25.44-41.21-10-7.63-15.53-16.53-16.2-28.66-0.38-6.87-1.72-13.32-9.55-16.62-2-0.85-4.06-3.64-4.67-5.85-3.39-12.09-13.22-20.21-19.63-30.25-1.75-2.74-3.39-6.32-7.77-3.62-3.69 2.27-4.22 4.65-1 8.47 4.56 5.44 6.29 12.26 9.09 18.66 4.14 9.7 10.14 18.89 16.3 27.75 4.32 6.22 6.62 12.52 6.76 19.8 0.22 11.63 3.77 21.79 13.65 29.28 6.52 5 10 11.88 11.1 19.91 0.67 5.15 3.4 8.36 7.83 10.53 13.17 6.46 20.07 18.19 25 31.29 2.78 7.27 21.18 17 28.67 14.73 4.81-1.47 9.61-3.15 13.56-6.45a14.3 14.3 0 0 1 12.39-3.19c3.86 0.68 7.55 0.54 10.95-2.21 4.2-3.42 7.39-1.7 10.18 2.6 5.94 9.19 6 19.5-0.51 28.24-4.1 5.51-7 11.59-9.91 17.84-11 23.88-23.73 46.55-44.13 64.34-11.26 9.82-22 20.71-28.92 34.46-5.06 10-11.82 19.08-19.31 27.59-6.85 7.75-12.27 15.93-7.61 26 1.27 2.77 0.47 6.55 0.41 9.84-0.06 2.84-0.42 6 1.7 7.83 8.11 7 6.25 16.38 4.6 25.31a161.86 161.86 0 0 0-2.21 17.76c-1 13.44-10.24 22.9-23.23 29.66-11.67 6.07-21.95 13.42-32.72 19.9-3.57 2.15-5.6 4.77-5.66 8.07 0 2.39-0.48 4.82-0.15 7.07 1.88 13.49-7.25 22.54-21.56 29.75a14.18 14.18 0 0 0-8 10.8c-1.2 6-5.25 9.58-13.14 13.08-8.1 3.6-14 8.7-21.42 12.22-10.12 4.8-22.14 7.48-33.36 10.41-2.62 0.68-5.45 0-8-0.48a50.7 50.7 0 0 0-21.44 0.6c-6.35 1.45-13.05 2.31-18.65-0.33-6-2.88-9.4-6.63-4.9-11.4 2.17-2.29 1.43-4.37-1.23-6.36-4.65-3.46-8.31-7.57-12.68-11.58-6.89-6.28-9.49-14.54-11-23.51-2.36-13.77-5.23-29-18-43.34-7.67-8.57-10.77-18-9-30 1.62-10.63 4.71-19.78 12.37-28.73 5.54-6.48 7.06-15.22 0.74-22.91-5.25-6.36-3.29-13.76-4.65-20.57-3.6-17.95-13.83-32.19-27.53-45.15a61.28 61.28 0 0 1-10.92-13.87c-3.18-5.45-3.53-10.54 0.6-15.43 2.33-2.77 3.25-5.62 1.94-9.26s0.36-7.2 1.89-10.52a28.13 28.13 0 0 0 2.34-14.06c-0.53-7.35-4.58-11.67-11.87-10.27-13.91 2.67-22.57-2.64-30-14.5-6.09-9.72-16.94-8.33-26.7-6.26-12.49 2.65-22.1 11.54-34.08 15-2.13 0.61-4.47 2.2-6.35 1.72-12.6-3.2-24.76 0.91-37.06 0.28-1.12-0.06-2.44-0.31-3.33 0.16-14.61 7.74-23.78-1.22-33.28-11.36a104.13 104.13 0 0 0-21.85-17.52c-7.66-4.68-11.5-12.45-11.4-21.63 0-3.29 0.6-7-2.55-8.36-8.79-3.65-13.76-12.06-21.17-17.3-6.32-4.48-10.41-11.05-6.88-19.75 1-2.4 1.06-4.57-0.33-6.42-5.17-6.85-3.44-12.88 0.61-20.07 8-14.16 7.09-30.08 7.78-45.35 0.1-2.29-1.26-4.77-2.49-6.78-4.95-8.15-3.24-15.87 3.07-22.91 13.91-15.5 26.37-31.85 35.18-50.41 2.76-5.8 9.23-8.37 14.81-10.63 12.92-5.23 20.54-13.39 22.79-26.7 2.12-12.45 9.13-22.38 22.94-27.06 7-2.37 9.56-8.64 14-13.16 2.84-2.91 5.21-5.24 9.55-3 12.58 6.59 26.32 2.57 37.28-4.84 14-9.35 28-9.3 42.88-9.35s29.63 3.19 44.8-0.19c7.26-1.61 11.89 0.25 11.89 7.36s6.34 14.54-2.57 21.26a2.32 2.32 0 0 0-0.14 2c8 2 9.39 12.75 20.52 11.6 10-1 18.5 2.9 23.85 11.32 2.07 3.27 5.43 4.16 9.16 4.68 4.18 0.59 8.41 1.3 11.68 4.07 2.63 2.25 4.71 5.87 9 2.67 3.58-2.65 6.6-5.41 5.58-10.45-2.36-11.77 5.06-18.39 18.11-17 2.68 0.28 4.47 1.67 6.56 3 8.39 5.43 16.78 10.6 27.83 11.22 7.68 0.44 15.34 3 22.94 5 5.24 1.32 9.87 1.32 14.24-1.68 5-3.38 10.14-3.59 16.42-1.22 4.79 1.82 10.4 1.73 15.64 2.06 2.94 0.19 5.55-1.27 6-4.1 1.91-11.22 4.22-22.14 4.77-32.94 0.42-8.48-5.66-11.72-14-7.86s-15.93 4.8-24.36-0.68c-3.18-2.06-5.24-0.93-7.34 1.63-4.16 5.07-9.48 5.3-14.15 0.41-10.3-10.71-19-22-24.35-34.25-1.42-3.23-9.51-4.75-14.58-2.24-3 1.49-5.69 3.11-9.47 2.89-1.56-0.09-3.62 0-3.77 1.67-0.12 1.54 1.8 2.16 3.2 2.83 4 1.92 8.38 3.32 9.06 8.21 0.46 3.35 0.79 6.08-4.08 6.86a5 5 0 0 0-4.49 4.39c-0.3 1.78 0.14 4.23-2.8 4.5a5.88 5.88 0 0 1-5.7-3.56c-3.77-8.68-12.33-13.71-18.86-20-4.76-4.57-12.47-6.43-15.44-12.86-1.42 2.37 0.06 4.71-2.45 6.09-4.9 2.67-5.66 6.87-5.75 11.42a5.64 5.64 0 0 1-4.72 5.87c-4 0.91-5.69-2.07-6.23-4.25-1.79-7.17-8-9.21-14.89-11.78-11.4-4.26-18.24-12.92-26.33-19.76-1.93-1.65-3.18-3.79-5.06-5.43-6.4-5.55-13.1-5.71-20.43-0.09-5.8 4.49-11 7.43-18.46 2.92-4.15-2.49-13.3 1.09-15.46 7.48-3.46 10.42-14.21 13.07-23.25 17.53-5.73 2.85-8.92 5.64-9.19 11.35-0.53 12.23-12.45 20.27-26 16.71-6.49-1.69-12.08-3.7-18.56 1.53-1.62 1.31-4.74 2-6.12 0.85-5.66-4.85-14.07-6.84-17.19-13.95-4-9.15-7.07-17.65 1.53-27.54 3.5-4 3.11-8.9 2.9-13.19-0.18-3.53 1.89-5.64 6-6.8 7.11-2 14.24-4.5 20.66-1 2.28 1.24 5.27 1.11 8.12 0.44a82.86 82.86 0 0 1 20.9-2.35c3.64 0.1 6.16-0.84 5.83-4.3-0.2-2 1-3.91 2.57-5.72 4.23-5 2-10.17-5-11-6.09-0.73-10.2-2.78-11.74-7-1.37-3.75 0.57-5.62 6.06-5.42 3.71 0.15 6.85-0.1 9.84-2.26a6.82 6.82 0 0 1 5-1.21c7.77 1.23 13.59-1.89 19-5.73a50.34 50.34 0 0 1 14.55-7.2c11.35-3.53 17.8-10.73 28.21-14.43 4.74-1.7 8.52-2.95 13.46-1.79 1.9 0.45 4.38 0.89 5.9-0.56s-0.59-2.29-2.19-3a10.29 10.29 0 0 1-5-4.5c-1.46-2.45 1.17-4.26 4.44-5.77 3.87-1.77 7.94-1.4 12-0.69 3.87 0.68 3.56 2.41 3.51 4.26-0.06 2.5-5 5.21-0.13 7.86 4.68 2.53 9.65-0.68 14.33 0h0.72c9.34 1 18.63 1.27 26.85-2.6 0.86-0.4 2.8-0.23 4.16-0.08 11.4 1.31 18.39-1.46 20.74-7.5a6.93 6.93 0 0 1 3.52-3.49c2.54-1.28 5.24-2.1 7.93 0.09 0.89 0.72 1.93 1.66 3.81 1.15s1.43-1.67 0.87-2.55a7.56 7.56 0 0 0-2-1.45c-3.25-2.18-5-4.17 1.43-5.68-13.07-1.22-20.57-6.42-18.57-10.73-7.42 0-11.76 2-17.17 3.64-3.5 1-4 2 0.52 3.06 8.91 2.05 9.27 5.78 0.34 8.6-5 1.57-7.61 3.64-7.43 6.81s-1.57 5.91-9.36 5.52a11.41 11.41 0 0 0-3.93 0.82c-7.94 2.78-10.38 2.59-14.25-2-3.24-3.76-7.67-7-8.94-10.7-0.55-1.57-2.56-1.83-5.61-1s-6.38 1.65-8.7 3.16a17.17 17.17 0 0 1-13.67 2.36c-4.86-1.15-9.56-5.5-7.56-7.3s1.05-3.08-0.68-4.43c-3.7-2.84-2.84-3.93 4.64-5.53a274.12 274.12 0 0 0 33.64-8.91c3-1 7.75-1.69 11.61-2.4a40.11 40.11 0 0 0 4.32-0.81c7.4-2.6 19.94-2.07 32-2.27 2.58 0 5.42 0.08 7.71-0.07 7.8-0.48 16.62-0.43 24.91-0.5 6.51 0 13.93 0.05 19.07 0.89a29 29 0 0 0 8.3 0.35 28.13 28.13 0 0 1 3.14-0.15c11.21 0.33 22.46 0.48 33.86 1.29 5.8 0.42 9.3 1.12 10.6 2.5 0.42 0.44 0.19 1.38 3.94 1 2.2-0.23 7.95 0.39 5.69-1.06-1.77-1.17 4.83-2.25 9.81-1.95a7.52 7.52 0 0 1 3.25 0.59c0.44 0.42 3 1 0.13 1.33-0.75 0.08-2.12 0.11-1.18 0.43a9.11 9.11 0 0 0 3.48 0.31c2.54-0.32 4.79-0.69 7.21-1 3.56-0.42 0-1-1.43-1.51-1.15-0.41-2.77-0.94 0.83-0.81 2.29 0.1 6.92-0.18 8.1 0.8 0.37 0.33 1.93 0.5 4.8 0.41a125 125 0 0 1 13.31 0.45 149.78 149.78 0 0 0 16.69 0.38 46.07 46.07 0 0 1 8.45 0.2c3.06 0.36 4.54 0.13 5.26-0.24-3.28-0.48-6.36-0.08-9.47-0.74-1.44-0.3-3.76-0.57-3.3-0.81a9.53 9.53 0 0 1 2.65-0.05c2.2 0.15 5.47 0.27 6 0.62 0.83 0.54 1.26 0.29 3.09 0.31 10.77 0.24 20.86 0 34.41 2 2.75 0.41 5.86 0.77 9.76 1a98.51 98.51 0 0 0-11.55-1.54c-9-1-15.24-2.09-14.07-2.29s9 0 15.08 0.28a56.07 56.07 0 0 1 6.59 0.54c1.43 0.25 3.79 0.51 6.3 0.84 5.47 0.74 10.81 1.68 17.44 2.52a22.59 22.59 0 0 1 7.55 2.03c0.81 0.38 0.69 1.08 3.65 1.19 2.53 0.09 3.56-0.36 1.56-1.14a21.25 21.25 0 0 0-5-1.53c-5.85-0.83-10.13-2-16.27-2.4-3.07-0.23-5.2-0.68-7.46-1s-3.14-0.52-1.69-0.56a58.31 58.31 0 0 1 6.18 0.33c4.94 0.54 9.11 0.71 14 1-7.55-1.12 0.5-0.5 4.26-0.45-6.49-0.69-6.24-0.5 1.87-0.27l6.57 0.25c4.37 0.2 9.17 0.28 4.4 0.13-2.88 0 0.57 0.17 4.2 0.26 5.36 0.17 10.92 0.3 13.2 0.54 1.08 0.13 7.52 0.22 11.15 0.36 3.34 0.13 6.8 0.21 6.17 0.38-0.37 0.12 3.29 0.19 2.73 0.34-3.55-0.11-7.16-0.19-10.39-0.31a61.92 61.92 0 0 0-9.89 0.27c-2 0.33-1.44 0.83 2.47 0.84 3.31 0 7.39-0.12 10.59 0 0.7 0 2.76-0.06 3.1-0.11a85.11 85.11 0 0 1 12.22-0.3c13.44 0.12 27.66 0.57 39 1 4.69 0.21 10.71 0.34 16.26 0.9 4.17 0.39 18.14 1.83 19.86 1.68 4.23-0.35 16.26 0.67 26.72 1.53 1.8 0.15 3.83 0.35 5.62 0.5 2 0.18 3.65 0.28 2.16-0.14-2.17-0.57 0.45-0.41 4.21-0.09 5.77 0.51 11 1 15.91 1.29 4.67 0.34 10.24 0.94 16.47 2s11.73 1.92 17.48 2.91a22.42 22.42 0 0 0 4.13 0.53c2.9-1 15.59 1.15 22.82 1.61 3.26 0.21 3.48 0-0.46-1.17a13.93 13.93 0 0 0-3.83-0.67c-3.59-0.53-8.25-1.4-8.74-1.87s-2.25-0.83-5.76-1.3c-3.31-0.45-6.15-1-8.66-1.42-1.37-0.22 0.36-0.11 1.59 0a76.83 76.83 0 0 1 9.93 1.31 47.91 47.91 0 0 0 9.82 1.49c1.33 0 0.94-0.18-1.09-0.63-4.63-1-4.87-1.56 0-1.09 4.18 0.41 8.8 1 13.31 1.6a31.37 31.37 0 0 1 6.5 1.49c1.57 0.56-0.69 0.28-2.36 0.11-2.38-0.24-4.76-0.47-7-0.67-2.66-0.23-2.61 0 0.28 0.82a33.21 33.21 0 0 0 7.21 1.3c11.41 1.07 22.07 1.77 36.91 4.59 4.55 0.88 8.38 1.46 11.8 1.81a134.31 134.31 0 0 1 13.44 2 38.14 38.14 0 0 0 9.72 0.9c4.65-0.1 10.87 0.89 21.1 4.59 11.08 4.1 18.91 5.7 24.39 5.58 3.65 0 6.07-1 14.41 2.22 1.34 0.52 2.15 0.54 1-0.32-5.43-3.92 0-2.48 4.09-1.5 8.51 2.08 16.08 3.79 22 4.1-1.67-0.28-3.52-0.68-5-0.79-2.29-0.19-4.78-2-7-3s-1.39-1.45-1.26-1.87c0.29-1 2.81-0.57 6.23 0.52 3.12 1 6.3 1.84 9.06 4.23a19.77 19.77 0 0 0 7.39 3.79c11 3.74 19.66 4.71 30.87 10.69 9.68 5.33 15.5 6.29 22.41 8.93a26 26 0 0 1 14.59 13.34c0.71 1.42 0.14 1.42-0.64 1.27a13.42 13.42 0 0 1-4.38-2.12c-7.68-5-13.31-5.5-22-10.73-0.38-0.22-1-0.3-1-0.22 1.27 1.8 2.44 3.61 4 5.54 1.17 1.5 2.22 1.52 3.25 2 3.64 1.72 6.25 1.83 10.53 4.9 3.08 2.22 5.66 4.62 7.13 7.44s-0.62 2.13-2.42 1.5c-3.9-1.36-5.61-0.53-4.37 3.51 1 3.56-0.36 3.25-5.45-0.44-1.58-1.13-3.08-2.1-3.55-1.59-0.81 0.89-2.33 0.9-4.63 0.15-1.36-0.44-1.58 0.17-0.19 2s3.18 3.41 4.45 3.58c1.83 0.25 3.93 1.83 6.42 4.45a16.49 16.49 0 0 0 3.44 2.88 20.16 20.16 0 0 1 7 7 24.81 24.81 0 0 0 3.74 4.36c3.6 3.54 4.56 5.7 4.15 7.68s3.22 6.59 4.26 9.65c0.12 0.35 0.66 1 0.92 1.48 1.41 2.6 4.12 6.16 3.13 7.21s-3.71-2.9-5.89-5.28a70.86 70.86 0 0 0-9.55-8.81c-9.84-7.31-19.68-17.27-29.66-28.3-1.25-1.38-3.09-3.28-2.79-3.76 1-1.71-2.32-5.31-5.29-8.68-1.8-2-1.68-3-1.6-4s-0.53-2.4-3.07-4.49a7.06 7.06 0 0 0-3.6-1.81c-1.66-0.14-0.26 1.51 1.1 3.14 1.54 1.87 2.3 3.38 1.2 3.62s-3.29-1.8-5.11-3.06c-3.49-2.45-8.62-4.15-9.73-3.38-0.73 0.51 0.31 1.49 2.26 3.15 6.37 5.48 6.58 6.5 2.82 6.56-3.12 0.07-7.15-1.22-13-4.66-4.19-2.45-6.55-2.86-7.61-1.76s-3.51 1.09-8.66-1.65c-7-3.65-10.38-2.58-7.2 2.19 2.86 4.33 7.69 9.58 8 13.49 0.13 1.56 4.37 3.8 6 3.64 1.78-0.17 3-0.73 6.8 2.52 0.92 0.8 2 1.22 2.18 0.85 1.76-3.2 8.33 2.17 13.58 5.82 2.55 1.76 5.11 4.12 7.61 6.24 1.01 1.05 2.17 2.14 3.32 3.25zm-551.64 21.56c5.44-0.21 8.62-0.13 11.63-0.51 4.17-0.52 5.12-3.53 5.93-6.35 0.62-2.19-1.2-3.76-3.47-4.83-12.06-5.73-22.73-13.29-35.79-16.87-3.65-1-5.37-3.59-6.59-6-0.94-1.86 1-2.78 3-3.24 3.68-0.86 9.72-1.66 7.1-5-2.29-2.94-7 0.25-10.49 1.11-4.87 1.22-10.18 2.31-5.79 8.26 1.13 1.53 1.82 4-1.39 5.09s-6.39 1.51-9.57-0.44-6.59-3.88-9.1-6.24c-3.77-3.52-8.1-3.63-12.74-3.08s-6.79 2.89-7.25 6.37c-0.27 2-0.58 4.13-2.72 5.33-5.94 3.29-2.94 10.17-8 14.06-1.08 0.82 0.39 1.81 1.5 2.56 8.48 5.73 23.48 6.13 31.39 0.48 6.69-4.74 14.08-6 23.1-3.27a48.42 48.42 0 0 1 13.84 7.2c5.4 3.8 11 6.12 15.41 5.37zm116.64 34.61c10 0.67 12.2-2.61 7.36-10-5-7.63-11.08-14.69-13.82-22.7-2-5.81-6.1-10.08-13.78-11.56a23.49 23.49 0 0 1-7.21-3.24c-10.16-6.21-11.95-16.74-4.15-21.52a5.57 5.57 0 0 1 4.09-0.36c1.72 0.32 3.75 2.72 5.11 0.64 0.23-0.35-0.1-1.18-0.51-1.64-1.48-1.65-3.52-1.9-5.54-1.89a59.21 59.21 0 0 0-24.67 5.22c-3.07 1.39-5.65 3.71-2.53 7.16 5.62 6.19 10.59 13.85 17.32 18.75 10.11 7.34 11.23 14.15 9.94 22.67-0.41 2.71-0.37 5.51 2.88 7.56 8.31 5.3 16.98 9.8 25.51 10.93zm-276.78-41.61c-5.95-5-15.35-3.72-20.13-9-4.43-4.89-7.35-10.53-13.48-14.08a22.39 22.39 0 0 0-6-2.56c-3.23-0.77-6.73-0.91-9.74 0.79-2.26 1.27-3.15 2.85 0 4.15 9.16 3.75 16.47 9.4 24 15.26 6.62 5.03 14.62 8.76 25.35 5.44zm68.88-125c3.21 1.23 5.3 2.27 7.8 3.27 2.15 0.87 5.67 1.55 8 0.83 3.21-1 6.26-0.84 10.3 0a9.3 9.3 0 0 0 5.33-0.42c2-0.5 0.33-1.19-0.44-1.73-1.22-0.84-3.43-0.49-4.88-0.38a73.75 73.75 0 0 1-22.46-1.24c-0.47-0.11-1.2-0.13-3.65-0.33z"/>
 <path class="cls-1" transform="translate(16.78,11.47)" d="m312.07 3.39c1.22-0.08 3.33-0.26 2.51-0.05-2.39 0.65-0.73 0.66 2.66 0.36 1-0.08 0.93 0.11 0.79 0.13-3.63 0.43-3.39 1-7.09 1.42-1.52 0.19-3.21 0.44-4.55 0.58-4.82 0.54-9.34 0.9-14.36 2.79a46.37 46.37 0 0 1-6.59 1.45c-7 1.27-10.15 2.31-12.13 4-1.29 1.11-5.25 2.6-9.12 3.22-5.19 0.8-12.32 3.51-17 4.08 5.53-0.46 9.5-0.09 19.6-3.15a13.41 13.41 0 0 0 3.57-1.22c3.26-2.43 7.88-2.61 10.67-3 4-0.57 6.05-0.38 2.59 1.49-0.93 0.51-3.44 1.44-1.69 1.33a28.62 28.62 0 0 0 5.15-1.19c2.89-0.86 1.56-0.91 2.16-1.34 3.38-2.36 1.4-3.32 5.45-5.33a9 9 0 0 1 4.11-1.07c2.3 0 5.24-0.65 8.87-1.33a70.59 70.59 0 0 1 10.06-1.36c1.68 0 4.29-0.39 8.15-0.92-1.3-0.16-1.89-0.41-0.39-0.91a14.55 14.55 0 0 1 3.1-0.66 22.89 22.89 0 0 1 3.23-0.25c3.55-0.07 8.33-0.43 14.59-0.95 4.16-0.32 8.71-0.65 4 0.17-1.48 0.28-0.62 0.26 1 0.13 3.56-0.28 6.64-0.46 11.45-0.94 0.1-0.1-3.6 0.18-1.71-0.09 2.09-0.29 3.87-0.32 5.49-0.43 3.47-0.2 5.71-0.39 6.51-0.54 1.06-0.2 4.45-0.31 7.36-0.41s8.93-0.37 3.27 0c-2.19 0.15-3.91 0.3-6.79 0.47-1.76 0.11-3.81 0.2-6.31 0.53a69.46 69.46 0 0 1 9-0.32c0.34 0 2.55-0.1 4-0.17a50.57 50.57 0 0 0 6.1-0.54 28.78 28.78 0 0 1 3.09-0.27c2.54-0.15 2.91-0.14 3.48-0.15h0.84c0.91 0 2.15-0.07 4.63-0.21l2.14-0.12c0.21 0-1.23 0-2.67 0.09-6.65 0.29-6.66 0.18-5.17 0.21h7.93c6.11 0 12.48 0.05 18.43 0.17 4.78 0.11 7.77 0 5.22-0.4-1-0.16-1.65-0.26-0.3-0.33a21 21 0 0 1 4.33 0.11 49.51 49.51 0 0 0 8.54 0.5c28-0.14 57 0.41 82.41 0 3.7-0.06 7.47-0.11 11-0.23 2.17-0.06 5.32 0 3-0.93-1.15-0.45 1.6-0.25 3-0.18 8.48 0.44 15.19 0.35 22 0.26 1.33 0 2.62-0.09 4.17 0 20.08 1.55 34.05 0.37 51.96 1.11 9.23 0.42 18 0.56 27 0.93a70.35 70.35 0 0 0 14.79-0.75 39.86 39.86 0 0 1 7.58-0.63c2.25 0.05 4.46 0.08 3.49-1.15-0.6-0.74 1.91-0.48 3.34-0.49 7 0 14 0 21.44 0.39 1.71 0.1 4.84 0.41 3.43-0.73-0.93-0.75-0.75-1.83-5.15-1.95-5.79-0.2-11.92-0.62-17.65-0.62-7.25-0.1-11.51-1.67-17-2.25-1.64-0.19-0.21-0.28 0.18-0.4 1.4-0.44-0.58-0.78-4.65-0.86-1.19 0-2.79 0-3.5-0.08-8.1-0.52-18.26 0-28.58 0.35-0.34 0-0.7 0-1.17 0.07 0.3 0.11 4.18 0 3.94 0.13s-1.68 0.63-5.69 1.09c-4.48 0.52-5.43 0.19-6.7 0-3.62-0.5-4.76-0.48-12.73 0.44 1 0.12 3.23-0.07 4.72-0.08 1.76 0 5.09-0.26 3.68 0.25-1.08 0.39-1.5 0.85-5.75 1.32-12 1.34-23.62 2.45-34.49 2.83a142 142 0 0 0-16.64 1.57c-10.82 1.62-21.63 3.62-32.57 4.53-7.32 0.63-16.66 2.12-23.68 5.67a15.13 15.13 0 0 1-3.35 1.42c-12.83 2.4-23.09 7.84-35.27 11.83-3.61 1.16-5.94 1.44-6.69 0.21-0.53-0.86-1.63-1.22-4.43-0.9-11 1.29-15.43-2.06-9.46-6.73 3.69-2.89 7.18-5.4 9.44-7.51 1.68-1.55 7.11-3 10.89-4.26 5-1.67 9.21-1.86 13.73-2.23a38.9 38.9 0 0 0 6.95-1c0.3-0.4-1.9-0.13-3.06-0.13-4.17 0-2.07-0.93 0.61-1.75 3.74-1.14 10.36-1.82 15.91-2.33 4.16-0.35 4.11-0.33 1.16-0.23-7 0.28-15.11 0.6-24.89 1-5.18 0.25-6.37 0.2-3.06 0.17 1.81 0 1.23 0.09 1.65 0.19a42.66 42.66 0 0 0 7.32 0.19l14.1-0.33c2.94-0.08 6.27-0.1 9.83-0.08a20.06 20.06 0 0 1 3.53 0.21c0.67 0.17 0.52 0.33-1.43 0.27-11.93-0.32-20.61 0-30.94 0.14-3.56 0.06-7 0-11.17 0s-7.68 0.1-11 0.22c-6.67 0.26-14.56 0.49-23.65 1.05-2.42 0.15-4.72 0.31-6.58 0.4a81 81 0 0 0-8.46 0.74c-2.93 0.45-6.25 0.48-10.13 0.9-1.23 0.19-0.25 0.14 0.25 0.11 5.9-0.3 7.78-0.27 2.42 1.13-0.62 0.16-1 0.42-0.59 0.4 4.94-0.34 3.45 0.63 6.83 0.68 5.62 0.06 3 1.2-7.42 3.66 5.77-0.21 4.46 1.88 12.11 1.17 2-0.19 1.55 0.34 0.15 1.1a19 19 0 0 1-6.64 2.36c-3.34 0.59-6.67 1.19-10 1.82a29.52 29.52 0 0 0-4 0.83c-9.87 3.7-6.7 1-6.34-0.15 0.14-0.47 0.5-1 0-1.28-1-0.55-4.57 0.33-7.44 1-3.32 0.78-2.32 1.26-2.8 1.82-0.78 0.93-0.94 1.78-1.94 2.83-3 3.27-7.44 5.2-15 5.89-2.55 0.24-4 0.71-5.5 2a10.11 10.11 0 0 1-6.76 2.48c-5.82-0.51-10.89-1.5-10.33-4.54s-0.33-3.43-10.55-0.92c-6 1.52-9.23 1.74-8.38-0.28 0.28-0.63 1.24-1.14 3.15-1.67 6.44-1.79 13.08-3.77 18.26-4a46.13 46.13 0 0 0 14.64-2.94c4.53-1.54 8.45-1.65 12.25-1.95 1.32-0.89 1.14-1.46 4.23-2.41 1.25-0.38 1.39-0.69 0.6-0.67-3.62 0.06-2.29-1.08-1.62-1.92s-1-0.89-6.2 0.43c-4.35 1.14-6.54 1.39-8.32 1.19a32.07 32.07 0 0 0-4 0 24.78 24.78 0 0 0-8.06 1.79 202.5 202.5 0 0 1-22 7 66.25 66.25 0 0 0-10.15 2.91c-3.39 1.39-5.11 1.58-6.06 1.09-0.5-0.24-0.89-0.6-4.28 0.36 1.45 0.83-0.36 2.81 2.67 3.13 0.88 0.1 1.18 0.23-0.79 1.45-4.07 2.55-6 2.58-8 2.43a25.16 25.16 0 0 1-4-0.82c-1-0.21-2.76 0.1-5 1-3.07 1.33 0 0.73-0.41 1.18a13.67 13.67 0 0 1-6.54 4.45c-4.84 1.84-3.13 0-3-0.9 0.27-2.26-0.08-4-7.08-2.47-2.1 0.45-3.79 0.53-5.64 0.78a38.23 38.23 0 0 0-14 4c-3.8 1.85-8.49 3.09-12.68 4.55a280.27 280.27 0 0 0-30.06 12c-7.08 3.43-6.8 5.9-9.48 8.84s1.63 1 3.36 0.73c4.72-0.7 6 1.12 7.17 3.1 1 1.67 2.62 2.76 5.95 2.84 6.12 0.14 4.37 3.68-4.3 10.07-0.19 0.14-0.38 0.29-0.58 0.42-4.34 3-9.51 6.22-7.7 9 1 1.58 9.57-2.16 14.24-6a41.81 41.81 0 0 0 7.36-7.89 15.86 15.86 0 0 1 9.67-6.19c8.21-1.84 17.05-7.34 25.81-11.44 4.24-2 5.45-4.22 6.3-6 1.56-3.26 4.72-5.7 11.44-7.47 3.94-1 6.71-3.16 9.56-5 12.3-7.89 11.89-7.23 24.65-9.19 7.87-1.12 13-1.13 15.51 0.94 1.58 1.3 1.2 2.95-2.79 6a29.56 29.56 0 0 0-3.16 2.5c-1.09 1.13-2.7 2.63-1.78 3.11s3.61-0.88 5.57-1.57c5.65-2 11.39-4.13 17-5.78 6.66-1.94 8.09-1.37 4.94 2.08-2.62 2.89-5.69 6-8.82 9.33-3.42 3.61-3.47 6 0.11 7 2.23 0.67 4.33 1.47 6.44 2.3 4.3 1.66 3.36 6.32-3.55 11.09-6.13 4.2-7.2 8.48-11.68 12.81-1.59 1.53-0.2 1.62 1.09 1.4 6.2-1.06 3.95 3.14 1.69 5.52-4.76 5-6 9.34-7.44 14.08-0.8 2.67-1.79 4.88-5.44 3.25-5.17-2.3-10.23-4.61-19.54-0.74a8.28 8.28 0 0 1-7.89-0.55c-3.91-2.36-2.06-6.15 4.73-10.13 5.34-3.11 10.87-6.15 14.42-11.42-8.09 2.16-16 5.37-22.77 5.93a6.65 6.65 0 0 0-4.82 3.57c-1 2.07-2 4-5 4.7-2.85 0.7-3.88-0.59-3.79-2.37 0.16-3.29-1.7-4.56-6.26-3.63-1.29 0.27-2.66-0.12-3.89 1.68-0.88 1.28 0.51 1.19 1.35 1.42 5.54 1.48 4.41 5.12-3.48 11.34a19.61 19.61 0 0 0-1.76 1.39c-2.19 2.29-7.06 4.41-6.33 6.76 0.78 2.51 4.92 1.85 8.88 0.39a32.82 32.82 0 0 0 6.34-3.65c3.81-2.55 7.45-4.8 9.17-2.1 1.31 2.06-1.88 7.23-6.41 10-7.44 4.6-14.93 9.67-22.33 11.39-6.47 1.51-12.51 5.1-18.58 9.74-1.87 1.43-4.16 3.81-5.56 2.44-1.11-1.1-1.07-3 0.06-5.39 1.68-3.5 5.22-6.33 8.82-10.86-10.3 4.55-19.29 8.53-28.11 15.06-5.52 4.11-11.53 7.4-14.95 14.47-1.71 3.56-5.51 4.76-8.13 5.31-7.78 1.67-14.54 5.83-20.26 15.2a17.16 17.16 0 0 1-5.62 5.42c-4.32 2.59-7.72 6.53-11 10.94-1.24 1.7-2.51 4.32-4.14 4.42s-1-2.36-1.2-3.81a14.81 14.81 0 0 1 0.13-2.47c-2.93 3.31-3.58 6.34-4.49 9.21a36 36 0 0 1-11.12 16.81c-10.33 9-20.13 18.26-29.5 27.21-3.63 3.47-5.84 7.6-7.68 12.79-4.22 11.86-4.88 23.34-7 35.3-0.42 2.3-0.71 4.61-1.19 6.93s-0.56 5.69-2.49 6.89c-2.18 1.36-3.22-1-3.88-3.33-2.18-7.64-2.58-16.12-0.26-26.12 2.51-10.53 2.34-10.22-3.4-10.21a112.79 112.79 0 0 1-12.29-1.09c-2.59-0.26-4.89 0.18-6.56 7.05-1 4.36-2.55 4.2-3.88 3.47a12.69 12.69 0 0 0-6.75-1.51c-7.11 0.27-13.69 10.89-19.57 18.57-2.31 3-3.52 9.28-4.82 14.26-4.32 16.21-6.32 32.58-7.63 49.18-0.31 4.07 0.09 6.51 1.41 7.55s2.41 2.59 4-1.62c1.43-3.89 3.14-3 4.7-2.93 3.61 0.2 6.31-2.46 8.7-12.06 2.94-11.71 9.28-17.73 13.88-14.7 3.6 2.36 3.58 11.21-0.29 16.45-3.12 4.24-5 8.93-5.6 15.74a43.11 43.11 0 0 1-2.65 11c-1.86 5.12-0.93 6.43 1.46 6.26 3.3-0.24 6.73-0.22 10.31-0.54 2.65-0.24 3.84 1.88 3.89 7.12 0.12 11.24-2.21 21.82-2.88 32.69-0.47 7.22 2.61 17.66 6 19.59 2.47 1.43 4.69 0.48 6.86-2.14 6.26-7.44 8.09-7 12.32 4.68 2 5.29 3.38 5.25 5.2 0.65 1.32-3.31 2.92-6.31 3-10.79 0.13-7.95 2.81-11.91 7.63-11.83 3.73 0.08 6.16-2.13 7.81-8 1.3-4.59 4.38-8.06 7.31-4.9 2.7 2.91 2 7.93-0.12 12.31-3.48 7.11-3.63 16.6-0.71 21.16 1.45-2.22 0.15-4.66 0-6.88-0.62-7.52 2.08-12.34 5.78-15.74s7.07-0.49 9.71 3.76c2.4 3.84 5.71 3.22 8.32 4.87 7.1 4.5 13.4 2.21 20.26-0.8 1.64-0.72 3.21 0.83 4.3 2.7 1.56 2.67 3.59 3.56 5.92 3.42 5.21-0.31 7.44 4 6.81 10.17-0.55 5.55 1.07 6.6 4.48 7.16 3.9 0.64 7 3.76 8.6 8.7 3.58 11.15 10.49 14.88 18.82 16.12 2.61 0.38 5.23 0.85 7.88 1.28 12.54 2 21.43 10.32 26.42 26.22 1.39 4.37 4.59 8.12 6.84 12.27 1.23 2.28 2.71 4.78 3.06 7.19 0.76 5.37 1.42 8.8 7.42 10.37 4.83 1.25 5 7.8 4 12.43-0.59 2.65-2.05 4.83-3.32 7.72 3-0.47 3.48-3 4.27-4.91 2.06-5.09 5.28-8.07 10.92-6.86 6.09 1.3 11.61 4.2 14.73 11.54 2.51 5.84 4.39 12.83 9.84 4.62 1.07-1.59 2.93-0.65 4.33 0.66 5 4.7 10.09 5 15.09 3.32 8.1-2.73 15.28 0.42 22.17 7.86s14.7 14.14 23.9 18.31c6.64 3 8.74 9.37 10.29 15.49 4.44 17.45 5.62 33.1-4.18 44.57-10.78 12.7-6.05 30.15-2.24 46.11 2.86 11.89 6.26 23.4 8 33.75 1.07 6.55-2.19 11.43-9.34 12.51-5.61 0.84-11.37 1.18-13.76 5.11-1.11 1.84-4.69 1.48-7.19 2-7.45 1.64-8.39 5.65-3.51 13 3.24 4.89 5.84 9.4 4.7 12.84-0.51 1.56 0.65 3.67 1.51 5.63 4.07 9.23 4.64 16 2.24 21-0.84 1.78-3.65 1.75-8.7 0.33-5.22-1.49-10.32-2.78-16.24-4.41a30.36 30.36 0 0 0 8.25 4.25c11.21 4.57 17.16 9.13 15.83 12.12-0.77 1.74-3.23 2.62-8.63 2-4.37-0.5-4.54 0.34-0.82 2.47l0.89 0.55c8.39 5 8.31 4.92-4.14 2.25a24.9 24.9 0 0 0-5.17-0.86c2.14 1.31 5.68 2.45 8.66 3.57 4.4 1.65 9.1 3.15 13.13 4.64s6 2.4 4.48 2.81c-0.64 0.18-0.72 0.5-0.6 0.83 0.22 0.57 2.33 1.12 6.28 1.7 15 2.15 21.95 3.66 25.16 4.76 2.45 0.7 2.82 0.74 15.08 1.36 11.07 0.5 22.46 0.52 33.44 0.22a64.18 64.18 0 0 0 8.87-0.7c2.39-0.42-1.17-0.3-3.23-0.25-9.45 0.14-18 0.3-31.27 0.57h-3.87c-5.29-0.12-12.22 0-20.44-0.32-5.09-0.18-10.31-0.46-15.25-0.76a189.56 189.56 0 0 1-21.6-2.21c-6.16-1.11-12.15-2.46-20.2-4-5-1-9.8-2.23-5.9-2.32 1.44 0-0.95-0.81-2.73-1.46-5.42-1.95-11.19-4.16-17.15-6.61a46 46 0 0 0-7.19-2.26c-8.06-1.88-13.59-4-17.83-7.4a51.88 51.88 0 0 0-9.89-6c-4.78-2.33-7.45-4.85-11.12-7.25-11.08-7.24-16-14.5-25.48-23.07-4.2-3.79-8.62-7.9-9.81-11.6a9 9 0 0 0-2.21-3.07c-16-15.27-24.47-31.74-35.54-49.91-3.77-6.18-7.07-12.52-10.23-19a21.55 21.55 0 0 0-7.45-8.18c-9.71-7-19.09-14.29-28.17-21.21a48.7 48.7 0 0 1-13.07-15c-9.86-17.41-20.87-34-30.1-51.35-3.56-6.71-8.11-10.91-11.66-17-7.1-12.39-7.77-15.29-5-26a7.74 7.74 0 0 0-1.37-7.25c-3.92-5.73-4.57-11.33-3.52-17.57 1-5.58 1-12 4.63-14.91 1.78-1.44 0.18-7.24 1.53-9.66 6.67-11.89 2.22-26.76-0.82-41.29-0.38-1.85-0.68-3.73-1-5.6-0.41-2.39 0.15-5.9-2-6.42-1.83-0.45-2.7 2.29-3.66 4.41-1.33 2.94 0 9.68-3.29 9.31-2.33-0.26-3.68-4.82-5.44-7.37a30.57 30.57 0 0 0-8-8.29c-4-2.66-6.47-7.83-8-15.25-1.28-6.21-4.13-10.4-4.94-17-0.08-0.69-0.66-1.64-0.95-1.55-4.73 1.49-7.07-8.44-10.88-9.38-1.5-0.38-2.59-3-3.38-6a45.44 45.44 0 0 0-3.38-9.39c-1.11-2.11-2.32-3-3.65 0.16-1.58 3.82-3.16 3.72-4.67 2.18a9.35 9.35 0 0 1-2.48-3c-3.31-7.56-6.38-13.33-9-18.26-2.09-4-1.87-10.69-0.43-21 1-6.8 1.57-13.91 1.05-18.88a115.53 115.53 0 0 1-0.21-19.09c0.36-5.79 0.13-9.9 0.18-14.37a73.53 73.53 0 0 1 1.81-15.6c0.46-2.1 1-4.48 0.75-5.47-0.14-0.63-0.37-0.87-0.88 0.73a35.69 35.69 0 0 0-1.37 6.55c-0.44 3.93-0.83 7.84-1.15 11.69-0.51 6.13-1.23 12.82-2.16 20a24.43 24.43 0 0 0-0.23 6.57c0.52 2.84-0.06 8.34-0.66 13.84-0.25 2.38-0.72 5.09-1 3.06a81.13 81.13 0 0 1-0.62-8.68 78.59 78.59 0 0 1 0.9-11.32c0.69-4.82 0.87-7.82 0.51-9.1a28.27 28.27 0 0 1 0-6.39 35.78 35.78 0 0 1 0.55-4.63c0.45-2.32 0.55-1.66 0.7-1.33 0.06 0.12 0.14 0.12 0.22 0.18a30.78 30.78 0 0 0 0.56-4.68c0.4-5.16 1.21-11 2.28-17.39 1.12-6.53 2.24-13 1.58-13.82a10.21 10.21 0 0 1 0.23-3c1.12-7.1 2-13.6 4-22.08 0.6-2.5 0.87-4.24 1.15-6a85.7 85.7 0 0 1 3-12.45c1.86-5.52 3.81-11.31 5.67-17.73a67.3 67.3 0 0 1 3.3-8.57c4-9 8.29-17.85 13.14-28.45 3.32-7.17 3.78-9.83 4.4-13.45 0.48-2.67 1.18-4.79 3.22-6 0.51-0.31 0.88-0.53 1.33-1.94a7.45 7.45 0 0 1 1.25-2.38 18.57 18.57 0 0 0 4.91-9.48c1.09-4.75 3.66-10.91 2.56-13.33-0.57-1.27 1-4.68 4.17-8.38 3.85-4.38 5.38-7.76 3.25-8.06-1.54-0.22-3.59 0.37-5.42 0.71-1.14 0.21-2.08 0.14-1.89-1.56 0.32-2.74-1.3-1.89-3.66 0.4-3.71 3.58-7.38 8.67-10.24 10.68-0.91 0.62-2.94 3.81-1.86-0.26 0.05-0.17-0.56 0-0.94 0.4a34.42 34.42 0 0 1-5 4.47c-0.88 0.58-1.59 2.21-2 4.29-0.64 3.23-1.77 5.4-2.75 6.3-4.3 3.82-8.04 13.11-10.2 21.62-0.49 1.91-0.92 3.75-1.31 4.75-0.46 1.22-0.63-0.73-0.77-2.87a13.69 13.69 0 0 1 0.56-4.56 82.73 82.73 0 0 1 4.58-13.92 7.24 7.24 0 0 0 1-3.08c0.05-1.55-0.57-0.06-0.93 0.51-1.18 1.93-1.58 0.13-1-4.38a9.58 9.58 0 0 0 0-2.62c-0.06-0.47-0.11-1-0.17-1.45 1.84-3.57 1.07-9.58 3.45-13.55 2.83-4.63 6.1-8.89 9.49-10.21a17 17 0 0 0 7.45-4.92c-2 0.9-3.88 1.92-5.63 2.61-2.09 0.82-1.68-1.78-1.17-5.69 0.86-6.82 3-5.63 4.93-7a16.33 16.33 0 0 0 2.92-2.19c2.8-2.87 5.21-3.94 6.55-2.25 1.09 1.38 3.17-1.39 5-3.11 2.18-2 0.83-2.62 1.29-4a4.33 4.33 0 0 0 0.25-1.86c-0.39-3.1 1.51-4.68 4.31-6 8-3.87 16.33-6.85 25.84-11.11 3.27-1.45 6.52-2.69 10-4.12 8.82-3.63 16.26-4.78 20.66-3.1 2 0.78 6.3-0.55 9.88-1.17 6.73-1.2 14.14-2.75 17.08-0.81 1.14 0.76 4 0.49 6.1 0.63a6.66 6.66 0 0 0 4.15-0.86c6-3.08 8.38-3 10.81-2.72 1.91 0.27 5.22-0.34 10.46-2.69 2.45-1.08 4.21-1.44 4.88-1 1.3 0.78 4.91-0.2 9.56-2s6.77-2 7.54-1.23 2.94 0.78 6.24 0.22c6.61-1.11 8.42 0.46 15.7-1 1.93-0.36 4.29 0.12 6.9-2.4a10 10 0 0 1 1.7-0.7c3.55-0.26 8.17-2.67 12.45-3.74 0.15-0.92-3.4 0.16-6.25 1-7.23 2-12.51 3.12-14.91 2.4-0.85-0.24-0.78-0.81-0.22-1.56 1-1.35 3.65-2.49 7.25-3 5.55-0.74 11.81-2.45 19.15-4.36a56.33 56.33 0 0 1 14.85-2 91.85 91.85 0 0 0 12-0.65c2.83-0.3 4.72-0.38 1.28 1-2 0.8-1.83 1 1.68 0.28 1.87-0.4 4.81-0.92 4.38-0.64-2.33 1.54 3.61 0.28 7.05-0.1 2.47-0.26 1.15 0.41-0.51 1.22 10.85-3.35 15.89-2.57 25.72-4.8a32.64 32.64 0 0 0-6.05 0.63c-5 0.87-7.86 1-11.59 1.47-6.15 0.76-6.65 0-5.6-0.95 0.89-0.77-1.5-0.47-4-0.21-3.15 0.33-5.81 0.54-8.14 0.61-2.55 0.07 0.09-0.9 1.17-1.36 1.36-0.59 4.37-0.76 6.38-1 10.38-1.19 18.92-1.66 29.71-2.64 3-0.26 4.82-0.34 1.21 0.42-2.11 0.46-2.68 0.78-0.8 0.66 4.44-0.24 8.07-0.33 15.44-1.24zm-7.9 10c10.31-2 10.18-2.23 4.86 2 4.89-1.52 9-2.74 13.15-3.84 3.3-0.86 3.91-1.12 3.43-1.59s-3.06-0.77 5.28-2.45c2.07-0.42 3.7-1.21 3-1.36-2-0.45-13.11 1.26-18.51 3.23-3.02 1.14-5.97 2.29-11.21 4.03z"/>
 <path class="cls-1" transform="translate(16.78,11.47)" d="m1551.7 746.93c-4.13 3.17-7.08 5.3-10.05 7.46-4.27 3.07-5.26 3-3.17-0.35 0.24-0.39 0.65-0.85 0.94-1.27 6.41-9.16 5.78-9-1.6-7.74-10.32 1.73-25 9.46-40.13 16.53-7.16 3.35-13.51 6.26-19.61 7.46-4.34 0.87-11.13 4.21-16.9 6.26-6.46 2.31-10.19-0.67-6.27-5.29a18.42 18.42 0 0 1 3.47-2.85 47.15 47.15 0 0 0 11.18-9.88c6.74-8.47 15.84-18.36 17.32-26.74 0.28-1.58 2-4.23 4.15-4.88 5.47-1.66 6.58-5.3 8-8.34a72.86 72.86 0 0 1 7.09-12.66 18.42 18.42 0 0 1 4.66-5c3.81-2.41 7.36-5.75 10.89-8.92s6.79-5.3 9.3-4.72a1.79 1.79 0 0 0 1.57-0.18c8.32-6.4 15-7.33 22.58-12.82 5.47-4 9.13-8.83 12.41-15.2 0.4-0.79 0.68-1.58 1.07-2.36 3.37-6.9 5.78-8.67 7.51-5.25 2.2-3.67 4.5-9.51 6.38-5.77 0.24 0.47 1.33-1.12 1.77-2.08 2.92-6.37 7.26-10.61 10.5-16.39 2.69-4.82 4.52-4.85 4.46-0.91-0.06 3.13-1.57 9.05 3.46 1.81 1.17-1.7 0.94 0.81 2 0 1.76-7 5.74-11.52 8.77-17 1-1.87 3.25-3.86 1.87-5.7-0.3-0.41 0.53-1.83 1.06-2.56 1.48-2 3-4.29 4.27-4.77 0.88-0.33 0 1.83-0.29 3.13a47.65 47.65 0 0 0-0.8 5.13c2.3-7.52 3.67-7.43 4.87-5.85 1.52 2 2.88 4.17 6.2 0 1.2-1.54 1.59-0.45 0.84 3a51.43 51.43 0 0 1-6.49 15.9c-3.52 5.83-3.69 6.46-2.1 8.52 1 1.29 1.35 3.55 1.71 5.74 0.25 1.53 0.91 1.84 2.1 1.06 2.86-1.91 3.56-3.16 6-10.7 0.78-2.45 1.53-5 2.43-7.41a209 209 0 0 0 7-21.74 40.13 40.13 0 0 1 2-6c1-2.23 1.38-2.31 0.86 0.6-0.43 2.35-1 4.85-1.49 7.23-1.27 6.2-1.79 10.75-1.27 13.18 0.41 1.95-1 7-2.09 11.24-2.48 10.1-5.51 20.51-4.91 25.13a0.64 0.64 0 0 1 0 0.28c-1.86 7.11-1.41 10.21-3.14 16.83a48.52 48.52 0 0 0-1.13 5.41 21.53 21.53 0 0 1-0.62 3.71c-3.42 11.21-7 22.8-13.28 33.71-9.31 16-20.67 31.47-34.71 44a49.82 49.82 0 0 0-6.16 6.77c-3 3.91-5.77 5.65-7.83 5.65-3.36 0-7.77 2.3-14.23 7.47-3.29 2.61-4.3 2.52-3.9 0.76 0.65-3 0.59-2.93-5.12 1.65a11.83 11.83 0 0 1-4.58 2.47c-2.64 0.61-5.39 1.28-7.93 1.71-2.07 0.35-1.1-2.32 1.78-5a52.3 52.3 0 0 0 4.24-4.42c2.29-2.71 2.36-3.65-1.12-1.77-3.07 1.63-3.35 0.93-2.65-0.81 0.86-2.15 3.14-2.85 4.85-4.07 1-0.72 2.6-1.74 2.69-2.25 0.52-2.95 5.15-5.81 9.32-10.15z"/>
 <path class="cls-1" transform="translate(16.78,11.47)" d="m1637.3 533.59c1-3.59 0.56-5.4 0-6.82a44.43 44.43 0 0 1-1.69-8.28c-0.33-2.17-1-4.6 0.94-7.42 1.46-2.19 2.54-2.69 2.48 1.63 0 1.8 0.25 2 1 1 3.14-4.39 5.41-0.47 4.69 7.45-0.17 1.83-0.44 3.76-0.54 5.48-0.14 2.51-0.31 5.49 0.31 6.16 0.82 0.88 1.51-3 2.18-4.88 2.64-7.53 4.07-9 5.55-5.8 0.2 0.43 0.38 1.1 0.65 0.91 3.06-2.16 3.58 5.31 4.69 8 0.43 1.09 0.5 3.57 0.28 7.19a10.37 10.37 0 0 0 0.31 4.26c0.31 1.19-0.08 4.75-1.19 10.71a29.25 29.25 0 0 0-0.49 3.38c-0.29 3.75-1 9-1.32 12.36-0.09 1-0.27 2.34-0.54 4-0.46 2.83-0.74 4.73-1 4.36s-0.56-1.41-0.31-5.05c0.29-4.06-0.67-3.78-1-6.81-0.15-1.69-1.37 2.27-2.31 5.52-2.13 7.36-4 9.74-4.45 5.25-0.3-3-0.75-5.38-2.84-2.89-1.16 1.36-0.86-1.44-0.84-3.33a15.52 15.52 0 0 1 1.58-6c2.55-6.21 3.24-11.28 1.75-13.66-1.3-2-3.3-2.34-4.62-5.55-0.16-0.42-0.6-0.13-0.94-0.07-0.68 0.12-1.8 3.32-2.22 1.08a55.45 55.45 0 0 1-0.11-12.18z"/>
 <path class="cls-1" transform="translate(16.78,11.47)" d="m1603.5 474.31a6.65 6.65 0 0 1-1.72 4.46c-6 6.81-7.39 15.14-4 23.73a14.08 14.08 0 0 1 1 7c-0.42 3.81-1.25 7.13-3.81 7s-3.23 2.73-3.73 6.32c-0.53 3.8-1.32 7.2-3.87 9.48-1.92 1.71-2.44 4.9-2.41 7.41 0.06 7.24-3.94 11.41-6.87 16.36-1.59 2.69-2.63 1.42-2.9-0.78-0.65-5.13-3.37-4.54-6.62-3.2-6.1 2.52-11.48-3.17-12.36-12.17a212.27 212.27 0 0 0-3.41-21.62c-0.65-3.21-1.51-6.18 0.53-9.87 2.12-3.86 3.9-2.41 5.67-1 1.17 0.9 2.5 0.34 3.89-0.58 2.93-1.93 3.54-6.61 5.31-9.81 1.56-2.81 4.58-4.28 2.87-9.14a3.34 3.34 0 0 1 1.74-3.73c5.42-2.38 10-7.4 14.45-12.62a31.22 31.22 0 0 0 4.92-8.08c2.42-5.71 4.31-5.85 5.77-0.43 0.86 3.25 1.94 5.08 3.91 5.38 1.76 0.25 2.14 2.58 1.64 5.89z"/>
 <path class="cls-1" transform="translate(16.78,11.47)" d="m1569.6 593c-1.08 1.54-2.26 2.75-3.39 2.89-7.11 0.82-15.72 5-21.36-0.92a4 4 0 0 0-4.33-1c-5.69 2.45-9.26-1-14-1.62-4.12-0.52-5.32-4.62-3.24-11 1.14-3.5 0.31-4.09-1.61-3.9-4.43 0.44-6.19-3-7.85-7.51-2.45-6.67-4.82-13.79-8.79-19.49a5.84 5.84 0 0 1-1.34-3.23c0.07-10.8-4.66-18.91-5.42-29.76a10.47 10.47 0 0 0-4.2-8c-7.55-5.92-10.51-17.12-15-27.19a8.54 8.54 0 0 1-0.08-7.87c1.7-3.25 3.67-1.64 5.68-1.58 6.7 0.22 10.56 5.55 13.74 11.83 4.56 9 9.37 16.79 15.36 23.41 5.37 5.92 11.94 10.62 14.3 20.29a50.5 50.5 0 0 1 1.16 6.28c0.3 2.54-1.28 8.25 3.65 3 2.39-2.53 4.9 3.13 3.55 8.13-1.58 5.85-3.25 11.69-5.19 17.44s-1.49 8.86 2.06 10.51c6.47 3 12.33 6.53 20.25 3.49a2.52 2.52 0 0 1 3.52 1.54c2.39 5.92 6.3 8.39 11.42 8.15 2.53-0.11-0.14 4.85 1.06 6z"/>
 <path class="cls-1" transform="translate(16.78,11.47)" d="m1030.2 745.84c-0.21-6.93 3.67-12.77 12.12-17.46 5.34-3 6.56-7 5-11.22-3-8-1.92-15.9 6.61-23.83 2.7-2.51 5.26-4.13 9.08-4.11 8.67 0 17.15-4.7 19.53-12.39 2.55-8.33 10.83-12.55 16.25-18.85 3.09-3.62 6.57-1.85 6.86 2 0.68 9.27 1.61 19.07-1.31 27.27a55.3 55.3 0 0 1-14.56 22.17c-9.48 8.59-15.21 18.13-17.16 27.9-0.93 4.63-2.7 8.83-7.75 12.47-3.81 2.76-4.62 6.31-6.46 9.44a19 19 0 0 1-11.3 8.73c-6.12 2-10.57 1.9-12.69-2.34-2.95-5.9-8.55-11.38-4.22-19.78z"/>
 <path class="cls-1" transform="translate(16.78,11.47)" d="m1608.6 201.89a23.13 23.13 0 0 0-3.17-6.76c-2.22-3.44-4.66-6.88-5.21-10.83-0.2-1.49-1.3-2.33-2.12-3.38-3.21-4.08-6.32-8.18-6.14-12.44 0.06-1.38-0.91-3.2-2.38-5.12s-3-4.09-4.45-6.19c-1.1-1.57-1.54-2.92-1.34-3.79s1.16-0.35 2.33 0.82c5.23 5.23 10.07 10.12 14 11.55 1.23 0.45 3 2.92 4.26 5.71 1.09 2.38 1.93 4.49 1 5a0.43 0.43 0 0 0-0.16 0.5c1.56 6.36 1.17 9.06-4.36 2.62-0.59-0.69-1-0.4-0.64 0.75a11.33 11.33 0 0 0 2.94 5 41.59 41.59 0 0 1 7.2 8.62c3.3 5.08 6.15 9.76 6.42 15.74 0.1 2.43 2.52 7.51 4.53 11.09a48.1 48.1 0 0 1 5.27 13.18c0.66 3 0.52 4.59-1.34 1.08-2.3-4.28-3-3.58-3.33-0.87-0.07 0.65-0.2 1.75-0.46 1.52-2.85-2.54-2 1.3-1.84 4.71 0.1 3.17-1.82 0.39-3.37-2.51-0.9-1.7-2-4.73-2.9-4.37s0.43 3 0.88 4.75c1.19 4.55-0.72 4.79-1 7.33-0.13 1-1.18-0.81-1.71-2-0.9-2-1.76-4-2.62-6-0.5-1.15-0.93-2.9-1.66-2.64s-0.21 1.71 0.43 3.39c1.89 5 3.68 10 5.24 15 0.73 2.37 1.93 5.83 0.94 6.72s-2.78-2.15-4-4.54c-2.5-4.95-4.83-10-8.28-13.3a15.12 15.12 0 0 1-3.56-7.43c-0.45-2.86 1.27-1.8 2.34-1.74 0.87 0.05 1.45 0.21 0.54-2.53-2.2-6.57-1.41-9.85 1.76-9.43l4.61 0.61c2.1 0.29 2.16-1.81 0.65-6.37-1.28-3.8-3.69-9.94 1.33-4.34 1 1.17 1-0.3 1-1.22 0.1-2.09-0.75-5.01-1.63-7.89z"/>
 <path class="cls-1" transform="translate(16.78,11.47)" d="m689.59 25a3.38 3.38 0 0 1-2.4 2.66c-6.64 2.73-4 4.44 0.08 6.06 3.12 1.25 5.35 3 6.4 5.3 0.57 1.29 1.57 2.25 4.05 2.37 5.73 0.28 5.46 2.84 4.19 5.64-3 6.83-8.91 10.29-19.84 10.81-8.74 0.46-17.31 0.38-24.77 5.93-1.74 1.31-4.62 1.4-6 0.08s-4-3-1.47-5.25c3-2.63 2-4.81 2.37-7.31 0.54-4 5.78-7.59 10.41-10.31s6.8-3.94 2.7-6.8-8.22-6.17-6.63-10.54c1.17-3.24 10.29-7.46 16.11-7.55 2.61 0 4.25 0.75 4.16 1.84-0.19 2.11 1.2 2.89 5.75 2.67 6.07-0.33 4.78 2.4 4.89 4.4z"/>
 <path class="cls-1" transform="translate(16.78,11.47)" d="m1599.8 548.53c-2.09 6.41-3.25 12.13-5.43 17.69-0.48 1.22-0.66 2.92-1.62 3-0.48 0.06-0.76-0.85-1-1.46a2.64 2.64 0 0 1-0.25-1.51c2-13.19-0.44-26.12 7.28-40.86a16.1 16.1 0 0 0 2-7.53c0.2-7.57 4.52-14.4 8.31-14.07 4.18 0.36 8.09 1.5 12.27-3.86 0.83-1.07 1.86-1.21 2 0.51a18.36 18.36 0 0 1-0.82 7.54c-1.91 5-3.89 10.59-7.2 11-1.6 0.19-2.81 2-3.11 5.78a17.75 17.75 0 0 1-2.61 7.27c-3.94 7.23-4.65 13.16-2 17.52 1.31 2.21 1.63 5.48 1.28 9.47-0.15 1.79-0.32 3.92-1.61 5.39-1.08 1.22-1.87 0.46-2.12-0.65-1.28-5.49-6.34-5.37-5.37-15.23z"/>
 <path class="cls-1" transform="translate(16.78,11.47)" d="m812.21-7.22c-0.88 2.11 1.33 3.07 7.5 2.31a82 82 0 0 1 14.87-0.28c2.46 0.18 5.15 0.16 6.61-0.66 0.89-0.5 1.62-1.22 0.44-1.7a17.18 17.18 0 0 0-6.6-0.59c-4.23 0.24-6.68-0.13-5.49-1.25s-1.92-1-5.74-0.94c-3.6 0.1-6.91 0.37-10.68 0.39a37.15 37.15 0 0 1-10.18-0.93 15.47 15.47 0 0 0-7.53 0 34.33 34.33 0 0 1-10.07 1c-4.07 0-7.7 0.75-6.77 1.65s4.26 1.19 7.61 1.4a143.68 143.68 0 0 0 26.03-0.4z"/>
 <path class="cls-1" transform="translate(16.78,11.47)" d="m1624.6 757.83a9.08 9.08 0 0 1-1.85 4.45c-4.08 5.26-8.77 10.29-13.85 13a21.59 21.59 0 0 0-7.38 6.33 59.93 59.93 0 0 1-7.09 7c-6.37 5.77-10.46 4.25-15.16 5.15-1.71 0.3-1-2 0-3.81a12.46 12.46 0 0 1 5-4.54c6.5-3.52 12.55-8.88 18.1-13.79 1.71-1.49 3.2-2.73 4.31-2.54 1.74 0.29 3.61-1.06 5.86-3.83 3.11-3.82 6.31-6.74 8.72-11.63 0.87-1.72 2.34-3.26 2.79-2.44 0.67 1.32 1.62 2.82 0.55 6.65z"/>
 <path class="cls-1" transform="translate(16.78,11.47)" d="m1003.3-9.62-7.87-0.12c-3.28 0-5.69-0.16-6.8-0.31-1.77-0.18-6.63-0.33-7.92-0.26-0.78 0.06-0.45 0.15 3.16 0.32 1.43 0.07 2.83 0.17 4.25 0.26 3.14 0.19 3.72 0.46 3.85 0.72s-2.64 0.11-4.31 0c-6.85-0.36-13.63-0.71-20.4-0.94-5.4-0.22-8.78-0.78-6.33-0.78a32.34 32.34 0 0 1 5.61 0.27 145.38 145.38 0 0 0 14.65 1.18c6.28 0.27 13 0.42 17.33 1.08a34.52 34.52 0 0 0 8.51-0.27c3-0.37 5.4-0.65 2.83-0.88-1.67-0.12-4.27-0.2-6.56-0.27z"/>
 <path class="cls-1" transform="translate(16.78,11.47)" d="m608.52 5.39c-14.1 1.12-20.38-3.57-21.06-6.25-0.08-0.31 0.68-0.57 1.76-0.84 5.09-1.25 12.65-1.57 14.39-0.6a1.64 1.64 0 0 0 1.42 0.45c6.63-1.35 11.41-0.35 17.88-1.4 9-1.37 17.55-1.14 19.42 0.86 1 1.06-0.09 2.72-5.4 3.64-9.26 1.54-18.8 4.09-28.41 4.14z"/>
 <path class="cls-1" transform="translate(16.78,11.47)" d="m1623.1 423.4c-0.78-5 0.28-9.51 0-14.17-0.17-2.32 1.5-2.35 2.33-0.36a20.54 20.54 0 0 1 0.91 12.5 37.38 37.38 0 0 0-1.08 5.44c-0.44 4.8-1.08 9.06 2.27 7.28 1.1-0.58 1.73 1.49 1.89 3.89 0.4 6.11 0.82 12.18 0.83 18.33 0 3 0.39 7.56-2.11 8.31-0.13 0-0.29 0.6-0.4 1-1.81 6.15-3.28 6.56-4.84 1-0.68-2.43-1.23-5.15-1.84-7.78-1.07-4.58-2.59-4.75-4.71-0.71-0.69 1.3-1 5.86-2.31 3.26a13.61 13.61 0 0 1-0.69-9.85 7.35 7.35 0 0 1 1.52-2.88c3.85-3.83 3.27-9.28 2-15.13-0.62-2.84-1.28-5.66-1.91-8.56-0.53-2.46-0.71-5 0.61-6.71s2.71-1.3 3.47 1.24c0.94 3.35 2.24 4.15 4.06 3.9z"/>
 <path class="cls-1" transform="translate(16.78,11.47)" d="m1643.7 728.82a14 14 0 0 1-2.9 8.07c-1.61 1.84-2.78 4.35-4.14 8.31-1.45 4.22-3.73 7.73-6 11.37-0.64 1-1.52 2-1.84 0.83-0.37-1.34-1.08-2.62 0.25-5.14 1.75-3.36 2.83-6.5 2.63-9.89a9.09 9.09 0 0 1 1-3.2c2-2.58 2.73-7.12 4.1-10.3 1-2.29 1.09-4.85 1.34-7.3 0.19-1.8 0.35-3.6 0.56-5.42a7.76 7.76 0 0 1 0.78-3.06c0.41-0.6 0.65 0.1 0.6 1.11-0.23 4.58 1.56 4.24 1.37 9.26-0.06 1.26 0.46 0.84 0.87 0.47 1.35-1.22 1.33-1.13 1.38 4.89z"/>
 <path class="cls-1" transform="translate(16.78,11.47)" d="m60.23 311.75c7-1.94 10.89 4.47 15.55 8.71s8.56 10.07 14.2 13c2 1 3.32 3 3.06 7.08-0.21 3.61-1 5.48-3.46 5.74-7.44 0.78-14.24 0.82-16.85-10.94-0.79-3.58-2.74-5.34-5-6.13a10.78 10.78 0 0 1-4.73-2.56c-2.88-3.1-5.54-4-9.37 1.09-2.73 3.65-5.3 1.67-6.2-3.18-0.17-0.92 0-2.05 0.5-2.39 4.27-2.82 7.81-13.63 12.3-10.42z"/>
 <path class="cls-1" transform="translate(16.78,11.47)" d="m1537 104.44c-1.15-1.11-2.31-2.2-3.48-3.3-1.33-2.13-3.8-5.11-2.15-5.23 1.43-0.1 4.68 2.41 6.6 4.41 7.29 7.59 14.58 11.89 21.34 18.4a15.88 15.88 0 0 0 3.91 2.73 12.5 12.5 0 0 1 4.9 4.84c1.28 2.16 2.06 3.81 1.17 4.55-1.45 1.18 1.6 3.87 3.32 5.75 2.95 3.22 6 6 8 10.28 0.81 1.75 2 4 1.08 4.24-1.08 0.3-2.79-2.36-3.69-3.82-7.23-11.69-17.11-20.73-26.08-31.21-4.26-4.96-9.74-7.51-14.92-11.64z"/>
 <path class="cls-1" transform="translate(16.78,11.47)" d="m120 352.44c-0.7 6-1.53 9.6-5.1 7.18a4.7 4.7 0 0 0-6.25 0.49c-3.78 3.67-7.42 2.19-10.9 2.35s-3.63-5-3.6-9.37a8.21 8.21 0 0 1 1-3.44c1.86-3.41-2-9.64 1.46-9.82 6.09-0.29 14.48-9.65 18.71 2.88 1.29 3.89 5.41 5.19 4.68 9.73z"/>
 <path class="cls-1" transform="translate(16.78,11.47)" d="m1543.9 780.65c-0.35 0.34-1.08 1.12-2 1.87-3.14 2.91-20 11.31-23.13 11.76-2.45 0.44-1.8-1.82 1.4-3.9a58.84 58.84 0 0 0 9.24-7.58c3.44-3.35 6.82-5.25 8.38-4.34 1 0.59 2.68 0.15 5.33-1.06 4.36-2.01 4.61-0.91 0.78 3.25z"/>
 <path class="cls-1" transform="translate(16.78,11.47)" d="m1611.7 372.22c0.16 4.53 0.78 9.23-0.84 13-0.82 1.92-0.3 4.36 0.37 6.46a27.44 27.44 0 0 1 1.08 6.65c0.08 1.38 0.29 2.93-0.54 3.53s-1.38-0.42-1.78-1.57c-1.52-4.52-4-7.53-5.38-12.6-0.39-1.48-1.21-3.3-1.06-4.46 1-7.86-0.58-15.56-1.6-23.36-0.37-2.85 0.13-5.2 1.94-5.62 2.15-0.5 4.08-1 5.74 3.74s1.73 9.41 2.07 14.23z"/>
 <path class="cls-1" transform="translate(16.78,11.47)" d="m1106.3-5.74c-5.9 0.08-10.19-0.37-17.84 0.25a71.6 71.6 0 0 1-8.7 0.13 43.83 43.83 0 0 0-10 0.85c-3.26 0.71 0 0.84 0.8 1.12 2.14 0.85 9.23 0.45 15.45-0.51 4-0.59 6.78-0.63 8.26-0.25 1 0.29 2.38 0.52 5.87 0.16 3.92-0.39 8-0.78 10.06-1.23s-1.56-0.41-3.9-0.52z"/>
 <path class="cls-1" transform="translate(16.78,11.47)" d="m1569.5 592.86c0.87-2.8 2.24-3.74 3.72-4.19a23.87 23.87 0 0 0 6.55-3.15c3.25-2.2 4.44 0.56 3.8 4.66-0.46 2.94 0 3.5 1.32 3.19 2.48-0.6 1.08-2.71 1.63-4.08 0.25-0.63 0.41-1.31 0.69-1.9 1-2 6.92-4.52 8.11-3.49 1.57 1.31 0 5.06-0.76 7.6-0.94 3-2.46 2.86-3.65 2.68-2.32-0.38-4.26-0.17-4.8 6.33-0.28 3.26-2.46 6.29-3.43 3.86-2-5-3.27-10.94-10.59-5.92-1.85 1.27-1.45-3.84-2.56-5.48z"/>
 <path class="cls-1" transform="translate(16.78,11.47)" d="m948.43-3.88c3.8-0.06 7.44-0.09 11.15-0.17a10.46 10.46 0 0 0 6-1.56c1.58-1-1.1-0.84-3-0.87a90.46 90.46 0 0 1-13.51-0.95c-2.72-0.43-6.88-0.13-10.32-0.17a11.69 11.69 0 0 0-5.21 1.22c-1.25 0.62-0.61 1.1 0.55 1.54 3.39 1.3 9.62 0.67 14.34 0.96z"/>
 <path class="cls-1" transform="translate(16.78,11.47)" d="m646.25 45.34c-0.44 2.37-2.06 4.45-6.85 5-4.08 0.49-7.57 2.23-11.24 3.68-2.22 0.89-5.14 2.36-6.43 0.54-1.08-1.52-4.22-3-0.93-5.32 3.8-2.73 3.36-4.92 1.87-7.11-0.85-1.25-0.51-2.85 2.06-3.38 4.64-1 10.29-3 13.78-1.6 4.06 1.68 9.49 3.32 7.74 8.19z"/>
 <path class="cls-1" transform="translate(16.78,11.47)" d="m1631.8 498.35c0.32-3.38-0.41-5.61 0.88-7.8 0.61-1 1.23-1.09 1.77-0.59 1.09 1.05 0.78 3.83 0.51 6.42-1 9.44-4 18-6 27.12-0.32 1.49-0.79 3-1.19 4.43-0.49 1.8-0.59 4.59-1.64 5.06s-1.16-2.25-1-4.06a249.89 249.89 0 0 1 3.83-28.4c0.59-3.13 1.63-4.76 2.84-2.18z"/>
 <path class="cls-1" transform="translate(16.78,11.47)" d="m1659.7 538.67c0.23-0.26 0.42-1.54 1.16-8.12 0.44-3.94 0.4-4.1 0.35-4.63s-0.31 1.61-0.57 4c-0.34 3.08-0.48 4.83-0.61 6.87-0.17 2.42-0.64 6.37-1.1 9.46-0.73 4.84-1 4.65-0.49-0.49 0.37-3.91 0.7-5.65 1.1-6.65a3.37 3.37 0 0 1 0.16-0.44z"/>
 <path class="cls-1" transform="translate(16.78,11.47)" d="m1614.2 580.67c-1.08 4.55-2.52 8.39-5.28 9.88-2.55 1.37-4.9 6.78-7.61 8.72-1.83 1.32-3.58 3.12-3.78-0.44s1.27-5.1 3.1-7.25a13.07 13.07 0 0 0 3.33-7.79 8.52 8.52 0 0 1 2.26-5c1.49-1.28 0.91 0.88 0.87 2.34s3.19-0.55 3.4-2c0.65-4.09 1.73-6 3.69-6.37 2.27-0.4 0 4.31 0.26 6.16a8.87 8.87 0 0 1-0.24 1.75z"/>
 <path class="cls-1" transform="translate(16.78,11.47)" d="m1654 553.59c-0.13-1.73 0.09-4.07-0.33-4.51s-0.53 1.66-0.77 2.66c-0.66 2.64-0.81 7.46-1.67 9.36a17.69 17.69 0 0 0-0.15 5.14c0.27 1.68 0.57 0.43 0.83-1 0.46-2.53 1-2.19 1.47-4 0.87-3.69 1.71-8 2.6-11.15a18.13 18.13 0 0 0 0.52-5.43c-0.16-1.72-0.58-2.12-1-0.21a53.78 53.78 0 0 0-1.5 9.14z"/>
 <path class="cls-1" transform="translate(16.78,11.47)" d="m1308.4 4c-2.92 0-10-1.1-15.36-1.58-0.94-0.1-6.72-0.81-8.12-1.11s2 0 4.16 0.1c1.81 0.12 4.24 0.31 4.79 0.26 2.32-0.21 9.29 0.63 14.72 1.45 5.87 0.88 5.93 1.33-0.19 0.88z"/>
 <path class="cls-1" transform="translate(16.78,11.47)" d="m1598.8 309.83c0.57 5.07-0.08 9.62-0.45 14.33-0.31 3.89-1.92 2.49-3.14-0.78-3.68-9.8-5.34-16-3.19-24 0.48-1.84 0.94-3.42 2.43-2.65 1.33 0.68 2 2.78 2.55 4.83 0.66 2.66 1.19 5.37 1.8 8.27z"/>
 <path class="cls-1" transform="translate(16.78,11.47)" d="m796.52 156c0.33 5.07-4 5.83-8.13 6.09-6.21 0.38-17.13-7.45-16.65-11.89 0.62-5.85 5.8-5.86 10.88-5.78 10.09 0.19 14.17 3.49 13.9 11.58z"/>
 <path class="cls-1" transform="translate(16.78,11.47)" d="m1620.4 527.75c1-0.11 3.1-1.61 1.9 5-0.56 3 0.66 4.57 1.32 6.29s0.06 5.32-0.85 6.72c-1.23 1.88-3.51 2.78-3.39 0.06 0.29-6.12-2.1-8-2.65-12.94-0.1-0.92-1.44-0.51-0.86-2.59s1.57-1.87 2.37-2.13a17.63 17.63 0 0 1 2.16-0.41z"/>
 <path class="cls-1" transform="translate(16.78,11.47)" d="m364.18-0.11c1.54 0 4.19-0.1 6.61-0.17 1.68 0-1 0.1-2.88 0.28s-4.21 0.36-6.68 0.53c-3.67 0.25-9.23 0.33-8.21 0.11a14.62 14.62 0 0 1 3.46-0.4c2.87-0.18 5.15-0.24 7.7-0.35z"/>
 <path class="cls-1" transform="translate(16.78,11.47)" d="m312.05 3.39c-2.68 0.12-2.32-0.23 0.41-0.73a71.2 71.2 0 0 1 7.73-0.74c3.53-0.24 6.81-0.42 9.9-0.57 2.1-0.1 6.11-0.39 1.83 0.16-3.37 0.46-6.34 1-10.51 1.21-2.84 0.17-5 0.17-9.34 0.67z"/>
 <path class="cls-1" transform="translate(16.78,11.47)" d="m1620.9 419c-2.76-8.49-4.51-16.29-6.64-23.77-0.29-1-0.18-2.25 0.51-2.67 1.29-0.72 6.74 6.5 7 9.16a34.26 34.26 0 0 1-0.53 7.91c-0.34 2.28-0.23 4.82-0.34 9.37z"/>
 <path class="cls-1" transform="translate(16.78,11.47)" d="m1555.2 486.54c-0.16-2.72 1.75-2.47 2-4.34-1.24-1-3.84 2.9-4.08-1-0.18-2.81 2.19-3.28 3.46-4.62 1.08-1.14 2.46-1.72 3.29-3.13 2.72-4.65 4-0.87 5.92 0.46 2.56 1.73 1.55 5.25 1 7.65-0.76 3.39-3.18 4.22-5 4.12a20.33 20.33 0 0 0-6.59 0.86z"/>
 <path class="cls-1" transform="translate(16.78,11.47)" d="m916.88-4.31c2.36-0.2 5.36-0.11 6.09-1.45 0.45-0.77-4.58-2.06-8.21-2-2.75 0-4.41 0.59-5.26 1.27s4.65 2.18 7.38 2.18z"/>
 <path class="cls-1" transform="translate(16.78,11.47)" d="m1631.2 544.69a31.72 31.72 0 0 1-4-0.63c-1.49-0.4-1.82-3.29-1-6.88 0.91-4.09 2-1.89 2.83-2 1.46-0.25 2.82-0.13 3.78 1.29 0.85 1.25 0.53 4-0.12 6.81-0.48 2.16-1.03 1.85-1.49 1.41z"/>
 <path class="cls-1" transform="translate(16.78,11.47)" d="m28.88 128c1.19-2.6 2.66-6.08 4.71-7.24s0.3 2.34-0.76 4.91-5 8.79-5.76 9.11 0-2.57 1.81-6.78z"/>
 <path class="cls-1" transform="translate(16.78,11.47)" d="m752.88 135c-0.31 2.34-3.18 5.08-7.55 6.36-2.83 0.81-8.14-6.41-7.65-10.34 0.45-3.66 3.05-6.46 7.28-7.28s8.27 4.33 7.92 11.26z"/>
 <path class="cls-1" transform="translate(16.78,11.47)" d="m1657.6 545.43a20.81 20.81 0 0 0-0.21 3c0 0.69 0.17 0.34 0.3-0.36 0.49-2.54 1-5.14 1.42-7.92a38.46 38.46 0 0 0 0.49-4.9c0-1.64-0.14-1.31-0.37-0.34a86.64 86.64 0 0 0-1.63 10.52z"/>
 <path class="cls-1" transform="translate(16.78,11.47)" d="m358.47 9c2.79-0.21 5-0.42 1.08 1.23a48.3 48.3 0 0 1-12.34 3.26c-3.73 0.55-3.06-0.6-0.61-1.68a39.6 39.6 0 0 1 11.87-2.81z"/>
 <path class="cls-1" transform="translate(16.78,11.47)" d="m75.06 365.76c-3.71 0.2-7.45-5.27-6.89-9.66 0.36-2.93 1.68-4 3.25-4.28 2.9-0.47 7 4.76 6.59 8.55-0.35 2.8-0.61 6.17-2.95 5.39z"/>
 <g transform="translate(1900 .056601)" fill="#23b73c">
  <path class="cls-1" transform="translate(16.78,11.47)" d="m1537 104.44a78.37 78.37 0 0 0 14 14.09 36.31 36.31 0 0 1 11.77 14.95 15.57 15.57 0 0 0 1.18 2.52c7 11 7.26 18.61 8.78 27.34 0.89 5.34-0.2 5.87-4.78 3.16-3.92-2.3-2.91 2-2.72 4.72 0.29 4.27 3.58 10.52 3.57 15.09 0 1.51 1.77 2.84 2.88 3.87 3.31 3.08 6.55 6 9.69 9.17 4.87 4.77 11.28 18.8 10.41 23.69a6.6 6.6 0 0 1-4.83 5.62c-2.15 0.49-4.45-4.77-6.43-8.21-3.14-5.5-6.21-12.23-9.51-16.3-5-6.19-10.54-12.87-16.35-17.6-3.76-3.05-7-4.21-9.13-1-2 3.07-5-3.17-7.27-6.64-1-1.44-1-3.53-2.79-4.28-1.47-0.63-1.62 0.83-1.68 2.08-0.19 3.55-1.14 6.34-4.54 7.48 6 3.48 10.82 9.8 15.36 7.75 3.78-1.68 10.92 5.86 13.61 13 1.44 3.8 1.34 5.69-1.5 4.52-1.73-0.7-3.38-1.24-3.38 1.21s1.88 4.51 3.41 6.36c2.56 3.09 5.07 6.45 7.66 9 5.51 5.43 8.66 13.2 12.13 20.3 1.8 3.69 3.45 7.4 5.41 11 4.47 8.13 6.26 23.18 3.56 30.75a21.28 21.28 0 0 0-1.23 12.07c0.72 4.16-0.48 7-1.63 9.66s-2.54 5-3.69 7.82c-1.79 4.35-3.6 7.79-7.86 1-1.57-2.47-2.41-1.51-1.9 1.78 1 6.44-0.56 9.28-4.5 9.35-6.06 0.13-6.75 1.45-6.59 11.33 0 2.59 0.43 5.29 0.56 7.93 0.18 3.84 0.69 8.69-2.17 9.43s-5.48-2.81-7.33-6.59c-1.58-3.2-4.4-7-1.6-10.82 1-1.32 1.67-2.82-0.17-4.52-2.66-2.44-5.38-5-8-1.58-4 5.4-3.23 16.95 2.13 24.87a124.83 124.83 0 0 1 14.12 26.8c5.46 14.77 3.72 28.9 0.06 43.28a7.17 7.17 0 0 1-3.58 4.65c-2.52 1.43-4.18 3.88-5.32 8.07-1.74 6.33-5.74 6.88-8.22 1.25-5.16-11.69-12.49-20.8-20.65-29.35-1.82-1.9-2.4-5.63-5.62-6.83 0.46 8.82-3.71 16.89-3.32 24.24 0.41 7.5 2.37 16.1 6.28 22.57 4.55 7.57 7.52 16.64 14.06 20.9 2.59 1.69 1.87 7.47 1 11.47a30.6 30.6 0 0 0 0.15 14.77c0.79 3.1 1.65 7.1-0.79 10.17s-5.12 1.73-7.06 0.07c-6.56-5.59-11-15.09-12.86-25.94-2.24-13.35-6.74-25.53-9.88-39-1.73-7.45-3.09-14.78-2.37-23 0.81-9.36-2.21-18-4.19-26.87-1.43-6.38-3.93-12.41-5.13-19-0.81-4.42-2.36-5.24-5.37-3.46-8.7 5.12-17.22-1.54-17.23-14.85 0-12.24-6.45-19.1-12.21-26.64-3.29-4.29-7-8.17-9.66-13.2-2.26-4.18-4.91-5.83-7.72-2.8s-6 3.75-9.91 3.83c-5.42 0.11-9.56 2.88-10.26 9.94-0.77 7.68-6.44 9.71-10.36 13.73-5.88 6-11.33 12.45-14.18 21.82a13.12 13.12 0 0 1-7.69 8.83c-5.26 2.19-7.51 6.76-6.66 13.68a56.22 56.22 0 0 1-1.64 20.7c-2.06 8.22-2 18.8 1.18 24.14s7.32 11.37 12.46 15.44c6 4.71 5.3 15.94-0.62 21.49-3.12 2.94-7 4.07-10.14 1.86-4.18-2.95-6.11-8.13-4.92-14.32 1-5.14 1.68-10-1-14.74-2.6 1.5-2.36 4.59-3.34 6.86-3.34 7.76-10.55 9.74-15.26 3.59-4.86-6.33-9.71-13.36-10.61-22.19-1.37-13.28-8-23.66-13.51-34.91-5-10.34-9.94-20.84-15.78-31-7.23-12.55-5.26-27.18-7.39-40.76-0.45-2.9 0.4-6.55-3.07-7.51-3.3-0.91-3.16 2.83-3.91 5.18-2.48 7.79-8.3 8.77-14 2-4.59-5.44-8.79-11.46-10.65-18.51s-5.85-10.56-12.26-10c-6 0.49-10-2.15-13.42-7.88-4.43-7.41-11.58-9.89-18.37-8.66-8.9 1.61-17.86-1-26.84-1.72-5.93-0.5-11.72-2.19-17.62-0.39-4.78 1.46-7.64-2.77-10.32-6.57-7.14-10.06-7.2-10.09-17.23-5.41-3.61 1.69-7.44 3-11.31 0.38-12.73-8.49-29.36-11.6-37.13-27.39a9.7 9.7 0 0 0-4.41-3.74c-5.22-2.4-12-6.57-15.23-0.91-2.91 5.1 3.68 8.87 8.09 11.65 6.92 4.38 12.84 9.11 13.94 17.71 0.3 2.39 1.1 4.89 4.8 3.9 8.08-2.16 10.22-0.89 10.26 7.62 0 6.5 1.47 8.52 7.56 6.06a8.47 8.47 0 0 1 5.47-0.27c6 2.05 8.76-0.95 11.4-5.27 5.13-8.39 11.62-7.79 16.5 1.94 2.92 5.84 6.49 8.67 12.42 9.12 8.92 0.68 14 5.69 16.13 15s7.07 18.94-2.63 26c-1.32 1-0.93 3.06-0.56 4.69 2.08 9.13-1.73 14.26-8.39 19.75-9.76 8-20 14.3-32.68 16.63a15.82 15.82 0 0 0-9.58 5.76c-3.47 4.31-7.66 6.82-13.37 6.5-4.59-0.26-7.51 3-10.23 6.14-5.28 6.17-11.7 10.12-19.82 11-5 0.55-8.42 3.67-12.07 6.91-10 8.82-13.66 8-21.23-3.13-5.93-8.64-11-17.51-11.65-28.3-1.11-18.28-12-30.89-25.44-41.21-10-7.63-15.53-16.53-16.2-28.66-0.38-6.87-1.72-13.32-9.55-16.62-2-0.85-4.06-3.64-4.67-5.85-3.39-12.09-13.22-20.21-19.63-30.25-1.75-2.74-3.39-6.32-7.77-3.62-3.69 2.27-4.22 4.65-1 8.47 4.56 5.44 6.29 12.26 9.09 18.66 4.14 9.7 10.14 18.89 16.3 27.75 4.32 6.22 6.62 12.52 6.76 19.8 0.22 11.63 3.77 21.79 13.65 29.28 6.52 5 10 11.88 11.1 19.91 0.67 5.15 3.4 8.36 7.83 10.53 13.17 6.46 20.07 18.19 25 31.29 2.78 7.27 21.18 17 28.67 14.73 4.81-1.47 9.61-3.15 13.56-6.45a14.3 14.3 0 0 1 12.39-3.19c3.86 0.68 7.55 0.54 10.95-2.21 4.2-3.42 7.39-1.7 10.18 2.6 5.94 9.19 6 19.5-0.51 28.24-4.1 5.51-7 11.59-9.91 17.84-11 23.88-23.73 46.55-44.13 64.34-11.26 9.82-22 20.71-28.92 34.46-5.06 10-11.82 19.08-19.31 27.59-6.85 7.75-12.27 15.93-7.61 26 1.27 2.77 0.47 6.55 0.41 9.84-0.06 2.84-0.42 6 1.7 7.83 8.11 7 6.25 16.38 4.6 25.31a161.86 161.86 0 0 0-2.21 17.76c-1 13.44-10.24 22.9-23.23 29.66-11.67 6.07-21.95 13.42-32.72 19.9-3.57 2.15-5.6 4.77-5.66 8.07 0 2.39-0.48 4.82-0.15 7.07 1.88 13.49-7.25 22.54-21.56 29.75a14.18 14.18 0 0 0-8 10.8c-1.2 6-5.25 9.58-13.14 13.08-8.1 3.6-14 8.7-21.42 12.22-10.12 4.8-22.14 7.48-33.36 10.41-2.62 0.68-5.45 0-8-0.48a50.7 50.7 0 0 0-21.44 0.6c-6.35 1.45-13.05 2.31-18.65-0.33-6-2.88-9.4-6.63-4.9-11.4 2.17-2.29 1.43-4.37-1.23-6.36-4.65-3.46-8.31-7.57-12.68-11.58-6.89-6.28-9.49-14.54-11-23.51-2.36-13.77-5.23-29-18-43.34-7.67-8.57-10.77-18-9-30 1.62-10.63 4.71-19.78 12.37-28.73 5.54-6.48 7.06-15.22 0.74-22.91-5.25-6.36-3.29-13.76-4.65-20.57-3.6-17.95-13.83-32.19-27.53-45.15a61.28 61.28 0 0 1-10.92-13.87c-3.18-5.45-3.53-10.54 0.6-15.43 2.33-2.77 3.25-5.62 1.94-9.26s0.36-7.2 1.89-10.52a28.13 28.13 0 0 0 2.34-14.06c-0.53-7.35-4.58-11.67-11.87-10.27-13.91 2.67-22.57-2.64-30-14.5-6.09-9.72-16.94-8.33-26.7-6.26-12.49 2.65-22.1 11.54-34.08 15-2.13 0.61-4.47 2.2-6.35 1.72-12.6-3.2-24.76 0.91-37.06 0.28-1.12-0.06-2.44-0.31-3.33 0.16-14.61 7.74-23.78-1.22-33.28-11.36a104.13 104.13 0 0 0-21.85-17.52c-7.66-4.68-11.5-12.45-11.4-21.63 0-3.29 0.6-7-2.55-8.36-8.79-3.65-13.76-12.06-21.17-17.3-6.32-4.48-10.41-11.05-6.88-19.75 1-2.4 1.06-4.57-0.33-6.42-5.17-6.85-3.44-12.88 0.61-20.07 8-14.16 7.09-30.08 7.78-45.35 0.1-2.29-1.26-4.77-2.49-6.78-4.95-8.15-3.24-15.87 3.07-22.91 13.91-15.5 26.37-31.85 35.18-50.41 2.76-5.8 9.23-8.37 14.81-10.63 12.92-5.23 20.54-13.39 22.79-26.7 2.12-12.45 9.13-22.38 22.94-27.06 7-2.37 9.56-8.64 14-13.16 2.84-2.91 5.21-5.24 9.55-3 12.58 6.59 26.32 2.57 37.28-4.84 14-9.35 28-9.3 42.88-9.35s29.63 3.19 44.8-0.19c7.26-1.61 11.89 0.25 11.89 7.36s6.34 14.54-2.57 21.26a2.32 2.32 0 0 0-0.14 2c8 2 9.39 12.75 20.52 11.6 10-1 18.5 2.9 23.85 11.32 2.07 3.27 5.43 4.16 9.16 4.68 4.18 0.59 8.41 1.3 11.68 4.07 2.63 2.25 4.71 5.87 9 2.67 3.58-2.65 6.6-5.41 5.58-10.45-2.36-11.77 5.06-18.39 18.11-17 2.68 0.28 4.47 1.67 6.56 3 8.39 5.43 16.78 10.6 27.83 11.22 7.68 0.44 15.34 3 22.94 5 5.24 1.32 9.87 1.32 14.24-1.68 5-3.38 10.14-3.59 16.42-1.22 4.79 1.82 10.4 1.73 15.64 2.06 2.94 0.19 5.55-1.27 6-4.1 1.91-11.22 4.22-22.14 4.77-32.94 0.42-8.48-5.66-11.72-14-7.86s-15.93 4.8-24.36-0.68c-3.18-2.06-5.24-0.93-7.34 1.63-4.16 5.07-9.48 5.3-14.15 0.41-10.3-10.71-19-22-24.35-34.25-1.42-3.23-9.51-4.75-14.58-2.24-3 1.49-5.69 3.11-9.47 2.89-1.56-0.09-3.62 0-3.77 1.67-0.12 1.54 1.8 2.16 3.2 2.83 4 1.92 8.38 3.32 9.06 8.21 0.46 3.35 0.79 6.08-4.08 6.86a5 5 0 0 0-4.49 4.39c-0.3 1.78 0.14 4.23-2.8 4.5a5.88 5.88 0 0 1-5.7-3.56c-3.77-8.68-12.33-13.71-18.86-20-4.76-4.57-12.47-6.43-15.44-12.86-1.42 2.37 0.06 4.71-2.45 6.09-4.9 2.67-5.66 6.87-5.75 11.42a5.64 5.64 0 0 1-4.72 5.87c-4 0.91-5.69-2.07-6.23-4.25-1.79-7.17-8-9.21-14.89-11.78-11.4-4.26-18.24-12.92-26.33-19.76-1.93-1.65-3.18-3.79-5.06-5.43-6.4-5.55-13.1-5.71-20.43-0.09-5.8 4.49-11 7.43-18.46 2.92-4.15-2.49-13.3 1.09-15.46 7.48-3.46 10.42-14.21 13.07-23.25 17.53-5.73 2.85-8.92 5.64-9.19 11.35-0.53 12.23-12.45 20.27-26 16.71-6.49-1.69-12.08-3.7-18.56 1.53-1.62 1.31-4.74 2-6.12 0.85-5.66-4.85-14.07-6.84-17.19-13.95-4-9.15-7.07-17.65 1.53-27.54 3.5-4 3.11-8.9 2.9-13.19-0.18-3.53 1.89-5.64 6-6.8 7.11-2 14.24-4.5 20.66-1 2.28 1.24 5.27 1.11 8.12 0.44a82.86 82.86 0 0 1 20.9-2.35c3.64 0.1 6.16-0.84 5.83-4.3-0.2-2 1-3.91 2.57-5.72 4.23-5 2-10.17-5-11-6.09-0.73-10.2-2.78-11.74-7-1.37-3.75 0.57-5.62 6.06-5.42 3.71 0.15 6.85-0.1 9.84-2.26a6.82 6.82 0 0 1 5-1.21c7.77 1.23 13.59-1.89 19-5.73a50.34 50.34 0 0 1 14.55-7.2c11.35-3.53 17.8-10.73 28.21-14.43 4.74-1.7 8.52-2.95 13.46-1.79 1.9 0.45 4.38 0.89 5.9-0.56s-0.59-2.29-2.19-3a10.29 10.29 0 0 1-5-4.5c-1.46-2.45 1.17-4.26 4.44-5.77 3.87-1.77 7.94-1.4 12-0.69 3.87 0.68 3.56 2.41 3.51 4.26-0.06 2.5-5 5.21-0.13 7.86 4.68 2.53 9.65-0.68 14.33 0h0.72c9.34 1 18.63 1.27 26.85-2.6 0.86-0.4 2.8-0.23 4.16-0.08 11.4 1.31 18.39-1.46 20.74-7.5a6.93 6.93 0 0 1 3.52-3.49c2.54-1.28 5.24-2.1 7.93 0.09 0.89 0.72 1.93 1.66 3.81 1.15s1.43-1.67 0.87-2.55a7.56 7.56 0 0 0-2-1.45c-3.25-2.18-5-4.17 1.43-5.68-13.07-1.22-20.57-6.42-18.57-10.73-7.42 0-11.76 2-17.17 3.64-3.5 1-4 2 0.52 3.06 8.91 2.05 9.27 5.78 0.34 8.6-5 1.57-7.61 3.64-7.43 6.81s-1.57 5.91-9.36 5.52a11.41 11.41 0 0 0-3.93 0.82c-7.94 2.78-10.38 2.59-14.25-2-3.24-3.76-7.67-7-8.94-10.7-0.55-1.57-2.56-1.83-5.61-1s-6.38 1.65-8.7 3.16a17.17 17.17 0 0 1-13.67 2.36c-4.86-1.15-9.56-5.5-7.56-7.3s1.05-3.08-0.68-4.43c-3.7-2.84-2.84-3.93 4.64-5.53a274.12 274.12 0 0 0 33.64-8.91c3-1 7.75-1.69 11.61-2.4a40.11 40.11 0 0 0 4.32-0.81c7.4-2.6 19.94-2.07 32-2.27 2.58 0 5.42 0.08 7.71-0.07 7.8-0.48 16.62-0.43 24.91-0.5 6.51 0 13.93 0.05 19.07 0.89a29 29 0 0 0 8.3 0.35 28.13 28.13 0 0 1 3.14-0.15c11.21 0.33 22.46 0.48 33.86 1.29 5.8 0.42 9.3 1.12 10.6 2.5 0.42 0.44 0.19 1.38 3.94 1 2.2-0.23 7.95 0.39 5.69-1.06-1.77-1.17 4.83-2.25 9.81-1.95a7.52 7.52 0 0 1 3.25 0.59c0.44 0.42 3 1 0.13 1.33-0.75 0.08-2.12 0.11-1.18 0.43a9.11 9.11 0 0 0 3.48 0.31c2.54-0.32 4.79-0.69 7.21-1 3.56-0.42 0-1-1.43-1.51-1.15-0.41-2.77-0.94 0.83-0.81 2.29 0.1 6.92-0.18 8.1 0.8 0.37 0.33 1.93 0.5 4.8 0.41a125 125 0 0 1 13.31 0.45 149.78 149.78 0 0 0 16.69 0.38 46.07 46.07 0 0 1 8.45 0.2c3.06 0.36 4.54 0.13 5.26-0.24-3.28-0.48-6.36-0.08-9.47-0.74-1.44-0.3-3.76-0.57-3.3-0.81a9.53 9.53 0 0 1 2.65-0.05c2.2 0.15 5.47 0.27 6 0.62 0.83 0.54 1.26 0.29 3.09 0.31 10.77 0.24 20.86 0 34.41 2 2.75 0.41 5.86 0.77 9.76 1a98.51 98.51 0 0 0-11.55-1.54c-9-1-15.24-2.09-14.07-2.29s9 0 15.08 0.28a56.07 56.07 0 0 1 6.59 0.54c1.43 0.25 3.79 0.51 6.3 0.84 5.47 0.74 10.81 1.68 17.44 2.52a22.59 22.59 0 0 1 7.55 2.03c0.81 0.38 0.69 1.08 3.65 1.19 2.53 0.09 3.56-0.36 1.56-1.14a21.25 21.25 0 0 0-5-1.53c-5.85-0.83-10.13-2-16.27-2.4-3.07-0.23-5.2-0.68-7.46-1s-3.14-0.52-1.69-0.56a58.31 58.31 0 0 1 6.18 0.33c4.94 0.54 9.11 0.71 14 1-7.55-1.12 0.5-0.5 4.26-0.45-6.49-0.69-6.24-0.5 1.87-0.27l6.57 0.25c4.37 0.2 9.17 0.28 4.4 0.13-2.88 0 0.57 0.17 4.2 0.26 5.36 0.17 10.92 0.3 13.2 0.54 1.08 0.13 7.52 0.22 11.15 0.36 3.34 0.13 6.8 0.21 6.17 0.38-0.37 0.12 3.29 0.19 2.73 0.34-3.55-0.11-7.16-0.19-10.39-0.31a61.92 61.92 0 0 0-9.89 0.27c-2 0.33-1.44 0.83 2.47 0.84 3.31 0 7.39-0.12 10.59 0 0.7 0 2.76-0.06 3.1-0.11a85.11 85.11 0 0 1 12.22-0.3c13.44 0.12 27.66 0.57 39 1 4.69 0.21 10.71 0.34 16.26 0.9 4.17 0.39 18.14 1.83 19.86 1.68 4.23-0.35 16.26 0.67 26.72 1.53 1.8 0.15 3.83 0.35 5.62 0.5 2 0.18 3.65 0.28 2.16-0.14-2.17-0.57 0.45-0.41 4.21-0.09 5.77 0.51 11 1 15.91 1.29 4.67 0.34 10.24 0.94 16.47 2s11.73 1.92 17.48 2.91a22.42 22.42 0 0 0 4.13 0.53c2.9-1 15.59 1.15 22.82 1.61 3.26 0.21 3.48 0-0.46-1.17a13.93 13.93 0 0 0-3.83-0.67c-3.59-0.53-8.25-1.4-8.74-1.87s-2.25-0.83-5.76-1.3c-3.31-0.45-6.15-1-8.66-1.42-1.37-0.22 0.36-0.11 1.59 0a76.83 76.83 0 0 1 9.93 1.31 47.91 47.91 0 0 0 9.82 1.49c1.33 0 0.94-0.18-1.09-0.63-4.63-1-4.87-1.56 0-1.09 4.18 0.41 8.8 1 13.31 1.6a31.37 31.37 0 0 1 6.5 1.49c1.57 0.56-0.69 0.28-2.36 0.11-2.38-0.24-4.76-0.47-7-0.67-2.66-0.23-2.61 0 0.28 0.82a33.21 33.21 0 0 0 7.21 1.3c11.41 1.07 22.07 1.77 36.91 4.59 4.55 0.88 8.38 1.46 11.8 1.81a134.31 134.31 0 0 1 13.44 2 38.14 38.14 0 0 0 9.72 0.9c4.65-0.1 10.87 0.89 21.1 4.59 11.08 4.1 18.91 5.7 24.39 5.58 3.65 0 6.07-1 14.41 2.22 1.34 0.52 2.15 0.54 1-0.32-5.43-3.92 0-2.48 4.09-1.5 8.51 2.08 16.08 3.79 22 4.1-1.67-0.28-3.52-0.68-5-0.79-2.29-0.19-4.78-2-7-3s-1.39-1.45-1.26-1.87c0.29-1 2.81-0.57 6.23 0.52 3.12 1 6.3 1.84 9.06 4.23a19.77 19.77 0 0 0 7.39 3.79c11 3.74 19.66 4.71 30.87 10.69 9.68 5.33 15.5 6.29 22.41 8.93a26 26 0 0 1 14.59 13.34c0.71 1.42 0.14 1.42-0.64 1.27a13.42 13.42 0 0 1-4.38-2.12c-7.68-5-13.31-5.5-22-10.73-0.38-0.22-1-0.3-1-0.22 1.27 1.8 2.44 3.61 4 5.54 1.17 1.5 2.22 1.52 3.25 2 3.64 1.72 6.25 1.83 10.53 4.9 3.08 2.22 5.66 4.62 7.13 7.44s-0.62 2.13-2.42 1.5c-3.9-1.36-5.61-0.53-4.37 3.51 1 3.56-0.36 3.25-5.45-0.44-1.58-1.13-3.08-2.1-3.55-1.59-0.81 0.89-2.33 0.9-4.63 0.15-1.36-0.44-1.58 0.17-0.19 2s3.18 3.41 4.45 3.58c1.83 0.25 3.93 1.83 6.42 4.45a16.49 16.49 0 0 0 3.44 2.88 20.16 20.16 0 0 1 7 7 24.81 24.81 0 0 0 3.74 4.36c3.6 3.54 4.56 5.7 4.15 7.68s3.22 6.59 4.26 9.65c0.12 0.35 0.66 1 0.92 1.48 1.41 2.6 4.12 6.16 3.13 7.21s-3.71-2.9-5.89-5.28a70.86 70.86 0 0 0-9.55-8.81c-9.84-7.31-19.68-17.27-29.66-28.3-1.25-1.38-3.09-3.28-2.79-3.76 1-1.71-2.32-5.31-5.29-8.68-1.8-2-1.68-3-1.6-4s-0.53-2.4-3.07-4.49a7.06 7.06 0 0 0-3.6-1.81c-1.66-0.14-0.26 1.51 1.1 3.14 1.54 1.87 2.3 3.38 1.2 3.62s-3.29-1.8-5.11-3.06c-3.49-2.45-8.62-4.15-9.73-3.38-0.73 0.51 0.31 1.49 2.26 3.15 6.37 5.48 6.58 6.5 2.82 6.56-3.12 0.07-7.15-1.22-13-4.66-4.19-2.45-6.55-2.86-7.61-1.76s-3.51 1.09-8.66-1.65c-7-3.65-10.38-2.58-7.2 2.19 2.86 4.33 7.69 9.58 8 13.49 0.13 1.56 4.37 3.8 6 3.64 1.78-0.17 3-0.73 6.8 2.52 0.92 0.8 2 1.22 2.18 0.85 1.76-3.2 8.33 2.17 13.58 5.82 2.55 1.76 5.11 4.12 7.61 6.24 1.01 1.05 2.17 2.14 3.32 3.25zm-551.64 21.56c5.44-0.21 8.62-0.13 11.63-0.51 4.17-0.52 5.12-3.53 5.93-6.35 0.62-2.19-1.2-3.76-3.47-4.83-12.06-5.73-22.73-13.29-35.79-16.87-3.65-1-5.37-3.59-6.59-6-0.94-1.86 1-2.78 3-3.24 3.68-0.86 9.72-1.66 7.1-5-2.29-2.94-7 0.25-10.49 1.11-4.87 1.22-10.18 2.31-5.79 8.26 1.13 1.53 1.82 4-1.39 5.09s-6.39 1.51-9.57-0.44-6.59-3.88-9.1-6.24c-3.77-3.52-8.1-3.63-12.74-3.08s-6.79 2.89-7.25 6.37c-0.27 2-0.58 4.13-2.72 5.33-5.94 3.29-2.94 10.17-8 14.06-1.08 0.82 0.39 1.81 1.5 2.56 8.48 5.73 23.48 6.13 31.39 0.48 6.69-4.74 14.08-6 23.1-3.27a48.42 48.42 0 0 1 13.84 7.2c5.4 3.8 11 6.12 15.41 5.37zm116.64 34.61c10 0.67 12.2-2.61 7.36-10-5-7.63-11.08-14.69-13.82-22.7-2-5.81-6.1-10.08-13.78-11.56a23.49 23.49 0 0 1-7.21-3.24c-10.16-6.21-11.95-16.74-4.15-21.52a5.57 5.57 0 0 1 4.09-0.36c1.72 0.32 3.75 2.72 5.11 0.64 0.23-0.35-0.1-1.18-0.51-1.64-1.48-1.65-3.52-1.9-5.54-1.89a59.21 59.21 0 0 0-24.67 5.22c-3.07 1.39-5.65 3.71-2.53 7.16 5.62 6.19 10.59 13.85 17.32 18.75 10.11 7.34 11.23 14.15 9.94 22.67-0.41 2.71-0.37 5.51 2.88 7.56 8.31 5.3 16.98 9.8 25.51 10.93zm-276.78-41.61c-5.95-5-15.35-3.72-20.13-9-4.43-4.89-7.35-10.53-13.48-14.08a22.39 22.39 0 0 0-6-2.56c-3.23-0.77-6.73-0.91-9.74 0.79-2.26 1.27-3.15 2.85 0 4.15 9.16 3.75 16.47 9.4 24 15.26 6.62 5.03 14.62 8.76 25.35 5.44zm68.88-125c3.21 1.23 5.3 2.27 7.8 3.27 2.15 0.87 5.67 1.55 8 0.83 3.21-1 6.26-0.84 10.3 0a9.3 9.3 0 0 0 5.33-0.42c2-0.5 0.33-1.19-0.44-1.73-1.22-0.84-3.43-0.49-4.88-0.38a73.75 73.75 0 0 1-22.46-1.24c-0.47-0.11-1.2-0.13-3.65-0.33z"/>
  <path class="cls-1" transform="translate(16.78,11.47)" d="m312.07 3.39c1.22-0.08 3.33-0.26 2.51-0.05-2.39 0.65-0.73 0.66 2.66 0.36 1-0.08 0.93 0.11 0.79 0.13-3.63 0.43-3.39 1-7.09 1.42-1.52 0.19-3.21 0.44-4.55 0.58-4.82 0.54-9.34 0.9-14.36 2.79a46.37 46.37 0 0 1-6.59 1.45c-7 1.27-10.15 2.31-12.13 4-1.29 1.11-5.25 2.6-9.12 3.22-5.19 0.8-12.32 3.51-17 4.08 5.53-0.46 9.5-0.09 19.6-3.15a13.41 13.41 0 0 0 3.57-1.22c3.26-2.43 7.88-2.61 10.67-3 4-0.57 6.05-0.38 2.59 1.49-0.93 0.51-3.44 1.44-1.69 1.33a28.62 28.62 0 0 0 5.15-1.19c2.89-0.86 1.56-0.91 2.16-1.34 3.38-2.36 1.4-3.32 5.45-5.33a9 9 0 0 1 4.11-1.07c2.3 0 5.24-0.65 8.87-1.33a70.59 70.59 0 0 1 10.06-1.36c1.68 0 4.29-0.39 8.15-0.92-1.3-0.16-1.89-0.41-0.39-0.91a14.55 14.55 0 0 1 3.1-0.66 22.89 22.89 0 0 1 3.23-0.25c3.55-0.07 8.33-0.43 14.59-0.95 4.16-0.32 8.71-0.65 4 0.17-1.48 0.28-0.62 0.26 1 0.13 3.56-0.28 6.64-0.46 11.45-0.94 0.1-0.1-3.6 0.18-1.71-0.09 2.09-0.29 3.87-0.32 5.49-0.43 3.47-0.2 5.71-0.39 6.51-0.54 1.06-0.2 4.45-0.31 7.36-0.41s8.93-0.37 3.27 0c-2.19 0.15-3.91 0.3-6.79 0.47-1.76 0.11-3.81 0.2-6.31 0.53a69.46 69.46 0 0 1 9-0.32c0.34 0 2.55-0.1 4-0.17a50.57 50.57 0 0 0 6.1-0.54 28.78 28.78 0 0 1 3.09-0.27c2.54-0.15 2.91-0.14 3.48-0.15h0.84c0.91 0 2.15-0.07 4.63-0.21l2.14-0.12c0.21 0-1.23 0-2.67 0.09-6.65 0.29-6.66 0.18-5.17 0.21h7.93c6.11 0 12.48 0.05 18.43 0.17 4.78 0.11 7.77 0 5.22-0.4-1-0.16-1.65-0.26-0.3-0.33a21 21 0 0 1 4.33 0.11 49.51 49.51 0 0 0 8.54 0.5c28-0.14 57 0.41 82.41 0 3.7-0.06 7.47-0.11 11-0.23 2.17-0.06 5.32 0 3-0.93-1.15-0.45 1.6-0.25 3-0.18 8.48 0.44 15.19 0.35 22 0.26 1.33 0 2.62-0.09 4.17 0 20.08 1.55 34.05 0.37 51.96 1.11 9.23 0.42 18 0.56 27 0.93a70.35 70.35 0 0 0 14.79-0.75 39.86 39.86 0 0 1 7.58-0.63c2.25 0.05 4.46 0.08 3.49-1.15-0.6-0.74 1.91-0.48 3.34-0.49 7 0 14 0 21.44 0.39 1.71 0.1 4.84 0.41 3.43-0.73-0.93-0.75-0.75-1.83-5.15-1.95-5.79-0.2-11.92-0.62-17.65-0.62-7.25-0.1-11.51-1.67-17-2.25-1.64-0.19-0.21-0.28 0.18-0.4 1.4-0.44-0.58-0.78-4.65-0.86-1.19 0-2.79 0-3.5-0.08-8.1-0.52-18.26 0-28.58 0.35-0.34 0-0.7 0-1.17 0.07 0.3 0.11 4.18 0 3.94 0.13s-1.68 0.63-5.69 1.09c-4.48 0.52-5.43 0.19-6.7 0-3.62-0.5-4.76-0.48-12.73 0.44 1 0.12 3.23-0.07 4.72-0.08 1.76 0 5.09-0.26 3.68 0.25-1.08 0.39-1.5 0.85-5.75 1.32-12 1.34-23.62 2.45-34.49 2.83a142 142 0 0 0-16.64 1.57c-10.82 1.62-21.63 3.62-32.57 4.53-7.32 0.63-16.66 2.12-23.68 5.67a15.13 15.13 0 0 1-3.35 1.42c-12.83 2.4-23.09 7.84-35.27 11.83-3.61 1.16-5.94 1.44-6.69 0.21-0.53-0.86-1.63-1.22-4.43-0.9-11 1.29-15.43-2.06-9.46-6.73 3.69-2.89 7.18-5.4 9.44-7.51 1.68-1.55 7.11-3 10.89-4.26 5-1.67 9.21-1.86 13.73-2.23a38.9 38.9 0 0 0 6.95-1c0.3-0.4-1.9-0.13-3.06-0.13-4.17 0-2.07-0.93 0.61-1.75 3.74-1.14 10.36-1.82 15.91-2.33 4.16-0.35 4.11-0.33 1.16-0.23-7 0.28-15.11 0.6-24.89 1-5.18 0.25-6.37 0.2-3.06 0.17 1.81 0 1.23 0.09 1.65 0.19a42.66 42.66 0 0 0 7.32 0.19l14.1-0.33c2.94-0.08 6.27-0.1 9.83-0.08a20.06 20.06 0 0 1 3.53 0.21c0.67 0.17 0.52 0.33-1.43 0.27-11.93-0.32-20.61 0-30.94 0.14-3.56 0.06-7 0-11.17 0s-7.68 0.1-11 0.22c-6.67 0.26-14.56 0.49-23.65 1.05-2.42 0.15-4.72 0.31-6.58 0.4a81 81 0 0 0-8.46 0.74c-2.93 0.45-6.25 0.48-10.13 0.9-1.23 0.19-0.25 0.14 0.25 0.11 5.9-0.3 7.78-0.27 2.42 1.13-0.62 0.16-1 0.42-0.59 0.4 4.94-0.34 3.45 0.63 6.83 0.68 5.62 0.06 3 1.2-7.42 3.66 5.77-0.21 4.46 1.88 12.11 1.17 2-0.19 1.55 0.34 0.15 1.1a19 19 0 0 1-6.64 2.36c-3.34 0.59-6.67 1.19-10 1.82a29.52 29.52 0 0 0-4 0.83c-9.87 3.7-6.7 1-6.34-0.15 0.14-0.47 0.5-1 0-1.28-1-0.55-4.57 0.33-7.44 1-3.32 0.78-2.32 1.26-2.8 1.82-0.78 0.93-0.94 1.78-1.94 2.83-3 3.27-7.44 5.2-15 5.89-2.55 0.24-4 0.71-5.5 2a10.11 10.11 0 0 1-6.76 2.48c-5.82-0.51-10.89-1.5-10.33-4.54s-0.33-3.43-10.55-0.92c-6 1.52-9.23 1.74-8.38-0.28 0.28-0.63 1.24-1.14 3.15-1.67 6.44-1.79 13.08-3.77 18.26-4a46.13 46.13 0 0 0 14.64-2.94c4.53-1.54 8.45-1.65 12.25-1.95 1.32-0.89 1.14-1.46 4.23-2.41 1.25-0.38 1.39-0.69 0.6-0.67-3.62 0.06-2.29-1.08-1.62-1.92s-1-0.89-6.2 0.43c-4.35 1.14-6.54 1.39-8.32 1.19a32.07 32.07 0 0 0-4 0 24.78 24.78 0 0 0-8.06 1.79 202.5 202.5 0 0 1-22 7 66.25 66.25 0 0 0-10.15 2.91c-3.39 1.39-5.11 1.58-6.06 1.09-0.5-0.24-0.89-0.6-4.28 0.36 1.45 0.83-0.36 2.81 2.67 3.13 0.88 0.1 1.18 0.23-0.79 1.45-4.07 2.55-6 2.58-8 2.43a25.16 25.16 0 0 1-4-0.82c-1-0.21-2.76 0.1-5 1-3.07 1.33 0 0.73-0.41 1.18a13.67 13.67 0 0 1-6.54 4.45c-4.84 1.84-3.13 0-3-0.9 0.27-2.26-0.08-4-7.08-2.47-2.1 0.45-3.79 0.53-5.64 0.78a38.23 38.23 0 0 0-14 4c-3.8 1.85-8.49 3.09-12.68 4.55a280.27 280.27 0 0 0-30.06 12c-7.08 3.43-6.8 5.9-9.48 8.84s1.63 1 3.36 0.73c4.72-0.7 6 1.12 7.17 3.1 1 1.67 2.62 2.76 5.95 2.84 6.12 0.14 4.37 3.68-4.3 10.07-0.19 0.14-0.38 0.29-0.58 0.42-4.34 3-9.51 6.22-7.7 9 1 1.58 9.57-2.16 14.24-6a41.81 41.81 0 0 0 7.36-7.89 15.86 15.86 0 0 1 9.67-6.19c8.21-1.84 17.05-7.34 25.81-11.44 4.24-2 5.45-4.22 6.3-6 1.56-3.26 4.72-5.7 11.44-7.47 3.94-1 6.71-3.16 9.56-5 12.3-7.89 11.89-7.23 24.65-9.19 7.87-1.12 13-1.13 15.51 0.94 1.58 1.3 1.2 2.95-2.79 6a29.56 29.56 0 0 0-3.16 2.5c-1.09 1.13-2.7 2.63-1.78 3.11s3.61-0.88 5.57-1.57c5.65-2 11.39-4.13 17-5.78 6.66-1.94 8.09-1.37 4.94 2.08-2.62 2.89-5.69 6-8.82 9.33-3.42 3.61-3.47 6 0.11 7 2.23 0.67 4.33 1.47 6.44 2.3 4.3 1.66 3.36 6.32-3.55 11.09-6.13 4.2-7.2 8.48-11.68 12.81-1.59 1.53-0.2 1.62 1.09 1.4 6.2-1.06 3.95 3.14 1.69 5.52-4.76 5-6 9.34-7.44 14.08-0.8 2.67-1.79 4.88-5.44 3.25-5.17-2.3-10.23-4.61-19.54-0.74a8.28 8.28 0 0 1-7.89-0.55c-3.91-2.36-2.06-6.15 4.73-10.13 5.34-3.11 10.87-6.15 14.42-11.42-8.09 2.16-16 5.37-22.77 5.93a6.65 6.65 0 0 0-4.82 3.57c-1 2.07-2 4-5 4.7-2.85 0.7-3.88-0.59-3.79-2.37 0.16-3.29-1.7-4.56-6.26-3.63-1.29 0.27-2.66-0.12-3.89 1.68-0.88 1.28 0.51 1.19 1.35 1.42 5.54 1.48 4.41 5.12-3.48 11.34a19.61 19.61 0 0 0-1.76 1.39c-2.19 2.29-7.06 4.41-6.33 6.76 0.78 2.51 4.92 1.85 8.88 0.39a32.82 32.82 0 0 0 6.34-3.65c3.81-2.55 7.45-4.8 9.17-2.1 1.31 2.06-1.88 7.23-6.41 10-7.44 4.6-14.93 9.67-22.33 11.39-6.47 1.51-12.51 5.1-18.58 9.74-1.87 1.43-4.16 3.81-5.56 2.44-1.11-1.1-1.07-3 0.06-5.39 1.68-3.5 5.22-6.33 8.82-10.86-10.3 4.55-19.29 8.53-28.11 15.06-5.52 4.11-11.53 7.4-14.95 14.47-1.71 3.56-5.51 4.76-8.13 5.31-7.78 1.67-14.54 5.83-20.26 15.2a17.16 17.16 0 0 1-5.62 5.42c-4.32 2.59-7.72 6.53-11 10.94-1.24 1.7-2.51 4.32-4.14 4.42s-1-2.36-1.2-3.81a14.81 14.81 0 0 1 0.13-2.47c-2.93 3.31-3.58 6.34-4.49 9.21a36 36 0 0 1-11.12 16.81c-10.33 9-20.13 18.26-29.5 27.21-3.63 3.47-5.84 7.6-7.68 12.79-4.22 11.86-4.88 23.34-7 35.3-0.42 2.3-0.71 4.61-1.19 6.93s-0.56 5.69-2.49 6.89c-2.18 1.36-3.22-1-3.88-3.33-2.18-7.64-2.58-16.12-0.26-26.12 2.51-10.53 2.34-10.22-3.4-10.21a112.79 112.79 0 0 1-12.29-1.09c-2.59-0.26-4.89 0.18-6.56 7.05-1 4.36-2.55 4.2-3.88 3.47a12.69 12.69 0 0 0-6.75-1.51c-7.11 0.27-13.69 10.89-19.57 18.57-2.31 3-3.52 9.28-4.82 14.26-4.32 16.21-6.32 32.58-7.63 49.18-0.31 4.07 0.09 6.51 1.41 7.55s2.41 2.59 4-1.62c1.43-3.89 3.14-3 4.7-2.93 3.61 0.2 6.31-2.46 8.7-12.06 2.94-11.71 9.28-17.73 13.88-14.7 3.6 2.36 3.58 11.21-0.29 16.45-3.12 4.24-5 8.93-5.6 15.74a43.11 43.11 0 0 1-2.65 11c-1.86 5.12-0.93 6.43 1.46 6.26 3.3-0.24 6.73-0.22 10.31-0.54 2.65-0.24 3.84 1.88 3.89 7.12 0.12 11.24-2.21 21.82-2.88 32.69-0.47 7.22 2.61 17.66 6 19.59 2.47 1.43 4.69 0.48 6.86-2.14 6.26-7.44 8.09-7 12.32 4.68 2 5.29 3.38 5.25 5.2 0.65 1.32-3.31 2.92-6.31 3-10.79 0.13-7.95 2.81-11.91 7.63-11.83 3.73 0.08 6.16-2.13 7.81-8 1.3-4.59 4.38-8.06 7.31-4.9 2.7 2.91 2 7.93-0.12 12.31-3.48 7.11-3.63 16.6-0.71 21.16 1.45-2.22 0.15-4.66 0-6.88-0.62-7.52 2.08-12.34 5.78-15.74s7.07-0.49 9.71 3.76c2.4 3.84 5.71 3.22 8.32 4.87 7.1 4.5 13.4 2.21 20.26-0.8 1.64-0.72 3.21 0.83 4.3 2.7 1.56 2.67 3.59 3.56 5.92 3.42 5.21-0.31 7.44 4 6.81 10.17-0.55 5.55 1.07 6.6 4.48 7.16 3.9 0.64 7 3.76 8.6 8.7 3.58 11.15 10.49 14.88 18.82 16.12 2.61 0.38 5.23 0.85 7.88 1.28 12.54 2 21.43 10.32 26.42 26.22 1.39 4.37 4.59 8.12 6.84 12.27 1.23 2.28 2.71 4.78 3.06 7.19 0.76 5.37 1.42 8.8 7.42 10.37 4.83 1.25 5 7.8 4 12.43-0.59 2.65-2.05 4.83-3.32 7.72 3-0.47 3.48-3 4.27-4.91 2.06-5.09 5.28-8.07 10.92-6.86 6.09 1.3 11.61 4.2 14.73 11.54 2.51 5.84 4.39 12.83 9.84 4.62 1.07-1.59 2.93-0.65 4.33 0.66 5 4.7 10.09 5 15.09 3.32 8.1-2.73 15.28 0.42 22.17 7.86s14.7 14.14 23.9 18.31c6.64 3 8.74 9.37 10.29 15.49 4.44 17.45 5.62 33.1-4.18 44.57-10.78 12.7-6.05 30.15-2.24 46.11 2.86 11.89 6.26 23.4 8 33.75 1.07 6.55-2.19 11.43-9.34 12.51-5.61 0.84-11.37 1.18-13.76 5.11-1.11 1.84-4.69 1.48-7.19 2-7.45 1.64-8.39 5.65-3.51 13 3.24 4.89 5.84 9.4 4.7 12.84-0.51 1.56 0.65 3.67 1.51 5.63 4.07 9.23 4.64 16 2.24 21-0.84 1.78-3.65 1.75-8.7 0.33-5.22-1.49-10.32-2.78-16.24-4.41a30.36 30.36 0 0 0 8.25 4.25c11.21 4.57 17.16 9.13 15.83 12.12-0.77 1.74-3.23 2.62-8.63 2-4.37-0.5-4.54 0.34-0.82 2.47l0.89 0.55c8.39 5 8.31 4.92-4.14 2.25a24.9 24.9 0 0 0-5.17-0.86c2.14 1.31 5.68 2.45 8.66 3.57 4.4 1.65 9.1 3.15 13.13 4.64s6 2.4 4.48 2.81c-0.64 0.18-0.72 0.5-0.6 0.83 0.22 0.57 2.33 1.12 6.28 1.7 15 2.15 21.95 3.66 25.16 4.76 2.45 0.7 2.82 0.74 15.08 1.36 11.07 0.5 22.46 0.52 33.44 0.22a64.18 64.18 0 0 0 8.87-0.7c2.39-0.42-1.17-0.3-3.23-0.25-9.45 0.14-18 0.3-31.27 0.57h-3.87c-5.29-0.12-12.22 0-20.44-0.32-5.09-0.18-10.31-0.46-15.25-0.76a189.56 189.56 0 0 1-21.6-2.21c-6.16-1.11-12.15-2.46-20.2-4-5-1-9.8-2.23-5.9-2.32 1.44 0-0.95-0.81-2.73-1.46-5.42-1.95-11.19-4.16-17.15-6.61a46 46 0 0 0-7.19-2.26c-8.06-1.88-13.59-4-17.83-7.4a51.88 51.88 0 0 0-9.89-6c-4.78-2.33-7.45-4.85-11.12-7.25-11.08-7.24-16-14.5-25.48-23.07-4.2-3.79-8.62-7.9-9.81-11.6a9 9 0 0 0-2.21-3.07c-16-15.27-24.47-31.74-35.54-49.91-3.77-6.18-7.07-12.52-10.23-19a21.55 21.55 0 0 0-7.45-8.18c-9.71-7-19.09-14.29-28.17-21.21a48.7 48.7 0 0 1-13.07-15c-9.86-17.41-20.87-34-30.1-51.35-3.56-6.71-8.11-10.91-11.66-17-7.1-12.39-7.77-15.29-5-26a7.74 7.74 0 0 0-1.37-7.25c-3.92-5.73-4.57-11.33-3.52-17.57 1-5.58 1-12 4.63-14.91 1.78-1.44 0.18-7.24 1.53-9.66 6.67-11.89 2.22-26.76-0.82-41.29-0.38-1.85-0.68-3.73-1-5.6-0.41-2.39 0.15-5.9-2-6.42-1.83-0.45-2.7 2.29-3.66 4.41-1.33 2.94 0 9.68-3.29 9.31-2.33-0.26-3.68-4.82-5.44-7.37a30.57 30.57 0 0 0-8-8.29c-4-2.66-6.47-7.83-8-15.25-1.28-6.21-4.13-10.4-4.94-17-0.08-0.69-0.66-1.64-0.95-1.55-4.73 1.49-7.07-8.44-10.88-9.38-1.5-0.38-2.59-3-3.38-6a45.44 45.44 0 0 0-3.38-9.39c-1.11-2.11-2.32-3-3.65 0.16-1.58 3.82-3.16 3.72-4.67 2.18a9.35 9.35 0 0 1-2.48-3c-3.31-7.56-6.38-13.33-9-18.26-2.09-4-1.87-10.69-0.43-21 1-6.8 1.57-13.91 1.05-18.88a115.53 115.53 0 0 1-0.21-19.09c0.36-5.79 0.13-9.9 0.18-14.37a73.53 73.53 0 0 1 1.81-15.6c0.46-2.1 1-4.48 0.75-5.47-0.14-0.63-0.37-0.87-0.88 0.73a35.69 35.69 0 0 0-1.37 6.55c-0.44 3.93-0.83 7.84-1.15 11.69-0.51 6.13-1.23 12.82-2.16 20a24.43 24.43 0 0 0-0.23 6.57c0.52 2.84-0.06 8.34-0.66 13.84-0.25 2.38-0.72 5.09-1 3.06a81.13 81.13 0 0 1-0.62-8.68 78.59 78.59 0 0 1 0.9-11.32c0.69-4.82 0.87-7.82 0.51-9.1a28.27 28.27 0 0 1 0-6.39 35.78 35.78 0 0 1 0.55-4.63c0.45-2.32 0.55-1.66 0.7-1.33 0.06 0.12 0.14 0.12 0.22 0.18a30.78 30.78 0 0 0 0.56-4.68c0.4-5.16 1.21-11 2.28-17.39 1.12-6.53 2.24-13 1.58-13.82a10.21 10.21 0 0 1 0.23-3c1.12-7.1 2-13.6 4-22.08 0.6-2.5 0.87-4.24 1.15-6a85.7 85.7 0 0 1 3-12.45c1.86-5.52 3.81-11.31 5.67-17.73a67.3 67.3 0 0 1 3.3-8.57c4-9 8.29-17.85 13.14-28.45 3.32-7.17 3.78-9.83 4.4-13.45 0.48-2.67 1.18-4.79 3.22-6 0.51-0.31 0.88-0.53 1.33-1.94a7.45 7.45 0 0 1 1.25-2.38 18.57 18.57 0 0 0 4.91-9.48c1.09-4.75 3.66-10.91 2.56-13.33-0.57-1.27 1-4.68 4.17-8.38 3.85-4.38 5.38-7.76 3.25-8.06-1.54-0.22-3.59 0.37-5.42 0.71-1.14 0.21-2.08 0.14-1.89-1.56 0.32-2.74-1.3-1.89-3.66 0.4-3.71 3.58-7.38 8.67-10.24 10.68-0.91 0.62-2.94 3.81-1.86-0.26 0.05-0.17-0.56 0-0.94 0.4a34.42 34.42 0 0 1-5 4.47c-0.88 0.58-1.59 2.21-2 4.29-0.64 3.23-1.77 5.4-2.75 6.3-4.3 3.82-8.04 13.11-10.2 21.62-0.49 1.91-0.92 3.75-1.31 4.75-0.46 1.22-0.63-0.73-0.77-2.87a13.69 13.69 0 0 1 0.56-4.56 82.73 82.73 0 0 1 4.58-13.92 7.24 7.24 0 0 0 1-3.08c0.05-1.55-0.57-0.06-0.93 0.51-1.18 1.93-1.58 0.13-1-4.38a9.58 9.58 0 0 0 0-2.62c-0.06-0.47-0.11-1-0.17-1.45 1.84-3.57 1.07-9.58 3.45-13.55 2.83-4.63 6.1-8.89 9.49-10.21a17 17 0 0 0 7.45-4.92c-2 0.9-3.88 1.92-5.63 2.61-2.09 0.82-1.68-1.78-1.17-5.69 0.86-6.82 3-5.63 4.93-7a16.33 16.33 0 0 0 2.92-2.19c2.8-2.87 5.21-3.94 6.55-2.25 1.09 1.38 3.17-1.39 5-3.11 2.18-2 0.83-2.62 1.29-4a4.33 4.33 0 0 0 0.25-1.86c-0.39-3.1 1.51-4.68 4.31-6 8-3.87 16.33-6.85 25.84-11.11 3.27-1.45 6.52-2.69 10-4.12 8.82-3.63 16.26-4.78 20.66-3.1 2 0.78 6.3-0.55 9.88-1.17 6.73-1.2 14.14-2.75 17.08-0.81 1.14 0.76 4 0.49 6.1 0.63a6.66 6.66 0 0 0 4.15-0.86c6-3.08 8.38-3 10.81-2.72 1.91 0.27 5.22-0.34 10.46-2.69 2.45-1.08 4.21-1.44 4.88-1 1.3 0.78 4.91-0.2 9.56-2s6.77-2 7.54-1.23 2.94 0.78 6.24 0.22c6.61-1.11 8.42 0.46 15.7-1 1.93-0.36 4.29 0.12 6.9-2.4a10 10 0 0 1 1.7-0.7c3.55-0.26 8.17-2.67 12.45-3.74 0.15-0.92-3.4 0.16-6.25 1-7.23 2-12.51 3.12-14.91 2.4-0.85-0.24-0.78-0.81-0.22-1.56 1-1.35 3.65-2.49 7.25-3 5.55-0.74 11.81-2.45 19.15-4.36a56.33 56.33 0 0 1 14.85-2 91.85 91.85 0 0 0 12-0.65c2.83-0.3 4.72-0.38 1.28 1-2 0.8-1.83 1 1.68 0.28 1.87-0.4 4.81-0.92 4.38-0.64-2.33 1.54 3.61 0.28 7.05-0.1 2.47-0.26 1.15 0.41-0.51 1.22 10.85-3.35 15.89-2.57 25.72-4.8a32.64 32.64 0 0 0-6.05 0.63c-5 0.87-7.86 1-11.59 1.47-6.15 0.76-6.65 0-5.6-0.95 0.89-0.77-1.5-0.47-4-0.21-3.15 0.33-5.81 0.54-8.14 0.61-2.55 0.07 0.09-0.9 1.17-1.36 1.36-0.59 4.37-0.76 6.38-1 10.38-1.19 18.92-1.66 29.71-2.64 3-0.26 4.82-0.34 1.21 0.42-2.11 0.46-2.68 0.78-0.8 0.66 4.44-0.24 8.07-0.33 15.44-1.24zm-7.9 10c10.31-2 10.18-2.23 4.86 2 4.89-1.52 9-2.74 13.15-3.84 3.3-0.86 3.91-1.12 3.43-1.59s-3.06-0.77 5.28-2.45c2.07-0.42 3.7-1.21 3-1.36-2-0.45-13.11 1.26-18.51 3.23-3.02 1.14-5.97 2.29-11.21 4.03z"/>
  <path class="cls-1" transform="translate(16.78,11.47)" d="m1551.7 746.93c-4.13 3.17-7.08 5.3-10.05 7.46-4.27 3.07-5.26 3-3.17-0.35 0.24-0.39 0.65-0.85 0.94-1.27 6.41-9.16 5.78-9-1.6-7.74-10.32 1.73-25 9.46-40.13 16.53-7.16 3.35-13.51 6.26-19.61 7.46-4.34 0.87-11.13 4.21-16.9 6.26-6.46 2.31-10.19-0.67-6.27-5.29a18.42 18.42 0 0 1 3.47-2.85 47.15 47.15 0 0 0 11.18-9.88c6.74-8.47 15.84-18.36 17.32-26.74 0.28-1.58 2-4.23 4.15-4.88 5.47-1.66 6.58-5.3 8-8.34a72.86 72.86 0 0 1 7.09-12.66 18.42 18.42 0 0 1 4.66-5c3.81-2.41 7.36-5.75 10.89-8.92s6.79-5.3 9.3-4.72a1.79 1.79 0 0 0 1.57-0.18c8.32-6.4 15-7.33 22.58-12.82 5.47-4 9.13-8.83 12.41-15.2 0.4-0.79 0.68-1.58 1.07-2.36 3.37-6.9 5.78-8.67 7.51-5.25 2.2-3.67 4.5-9.51 6.38-5.77 0.24 0.47 1.33-1.12 1.77-2.08 2.92-6.37 7.26-10.61 10.5-16.39 2.69-4.82 4.52-4.85 4.46-0.91-0.06 3.13-1.57 9.05 3.46 1.81 1.17-1.7 0.94 0.81 2 0 1.76-7 5.74-11.52 8.77-17 1-1.87 3.25-3.86 1.87-5.7-0.3-0.41 0.53-1.83 1.06-2.56 1.48-2 3-4.29 4.27-4.77 0.88-0.33 0 1.83-0.29 3.13a47.65 47.65 0 0 0-0.8 5.13c2.3-7.52 3.67-7.43 4.87-5.85 1.52 2 2.88 4.17 6.2 0 1.2-1.54 1.59-0.45 0.84 3a51.43 51.43 0 0 1-6.49 15.9c-3.52 5.83-3.69 6.46-2.1 8.52 1 1.29 1.35 3.55 1.71 5.74 0.25 1.53 0.91 1.84 2.1 1.06 2.86-1.91 3.56-3.16 6-10.7 0.78-2.45 1.53-5 2.43-7.41a209 209 0 0 0 7-21.74 40.13 40.13 0 0 1 2-6c1-2.23 1.38-2.31 0.86 0.6-0.43 2.35-1 4.85-1.49 7.23-1.27 6.2-1.79 10.75-1.27 13.18 0.41 1.95-1 7-2.09 11.24-2.48 10.1-5.51 20.51-4.91 25.13a0.64 0.64 0 0 1 0 0.28c-1.86 7.11-1.41 10.21-3.14 16.83a48.52 48.52 0 0 0-1.13 5.41 21.53 21.53 0 0 1-0.62 3.71c-3.42 11.21-7 22.8-13.28 33.71-9.31 16-20.67 31.47-34.71 44a49.82 49.82 0 0 0-6.16 6.77c-3 3.91-5.77 5.65-7.83 5.65-3.36 0-7.77 2.3-14.23 7.47-3.29 2.61-4.3 2.52-3.9 0.76 0.65-3 0.59-2.93-5.12 1.65a11.83 11.83 0 0 1-4.58 2.47c-2.64 0.61-5.39 1.28-7.93 1.71-2.07 0.35-1.1-2.32 1.78-5a52.3 52.3 0 0 0 4.24-4.42c2.29-2.71 2.36-3.65-1.12-1.77-3.07 1.63-3.35 0.93-2.65-0.81 0.86-2.15 3.14-2.85 4.85-4.07 1-0.72 2.6-1.74 2.69-2.25 0.52-2.95 5.15-5.81 9.32-10.15z"/>
  <path class="cls-1" transform="translate(16.78,11.47)" d="m1637.3 533.59c1-3.59 0.56-5.4 0-6.82a44.43 44.43 0 0 1-1.69-8.28c-0.33-2.17-1-4.6 0.94-7.42 1.46-2.19 2.54-2.69 2.48 1.63 0 1.8 0.25 2 1 1 3.14-4.39 5.41-0.47 4.69 7.45-0.17 1.83-0.44 3.76-0.54 5.48-0.14 2.51-0.31 5.49 0.31 6.16 0.82 0.88 1.51-3 2.18-4.88 2.64-7.53 4.07-9 5.55-5.8 0.2 0.43 0.38 1.1 0.65 0.91 3.06-2.16 3.58 5.31 4.69 8 0.43 1.09 0.5 3.57 0.28 7.19a10.37 10.37 0 0 0 0.31 4.26c0.31 1.19-0.08 4.75-1.19 10.71a29.25 29.25 0 0 0-0.49 3.38c-0.29 3.75-1 9-1.32 12.36-0.09 1-0.27 2.34-0.54 4-0.46 2.83-0.74 4.73-1 4.36s-0.56-1.41-0.31-5.05c0.29-4.06-0.67-3.78-1-6.81-0.15-1.69-1.37 2.27-2.31 5.52-2.13 7.36-4 9.74-4.45 5.25-0.3-3-0.75-5.38-2.84-2.89-1.16 1.36-0.86-1.44-0.84-3.33a15.52 15.52 0 0 1 1.58-6c2.55-6.21 3.24-11.28 1.75-13.66-1.3-2-3.3-2.34-4.62-5.55-0.16-0.42-0.6-0.13-0.94-0.07-0.68 0.12-1.8 3.32-2.22 1.08a55.45 55.45 0 0 1-0.11-12.18z"/>
  <path class="cls-1" transform="translate(16.78,11.47)" d="m1603.5 474.31a6.65 6.65 0 0 1-1.72 4.46c-6 6.81-7.39 15.14-4 23.73a14.08 14.08 0 0 1 1 7c-0.42 3.81-1.25 7.13-3.81 7s-3.23 2.73-3.73 6.32c-0.53 3.8-1.32 7.2-3.87 9.48-1.92 1.71-2.44 4.9-2.41 7.41 0.06 7.24-3.94 11.41-6.87 16.36-1.59 2.69-2.63 1.42-2.9-0.78-0.65-5.13-3.37-4.54-6.62-3.2-6.1 2.52-11.48-3.17-12.36-12.17a212.27 212.27 0 0 0-3.41-21.62c-0.65-3.21-1.51-6.18 0.53-9.87 2.12-3.86 3.9-2.41 5.67-1 1.17 0.9 2.5 0.34 3.89-0.58 2.93-1.93 3.54-6.61 5.31-9.81 1.56-2.81 4.58-4.28 2.87-9.14a3.34 3.34 0 0 1 1.74-3.73c5.42-2.38 10-7.4 14.45-12.62a31.22 31.22 0 0 0 4.92-8.08c2.42-5.71 4.31-5.85 5.77-0.43 0.86 3.25 1.94 5.08 3.91 5.38 1.76 0.25 2.14 2.58 1.64 5.89z"/>
  <path class="cls-1" transform="translate(16.78,11.47)" d="m1569.6 593c-1.08 1.54-2.26 2.75-3.39 2.89-7.11 0.82-15.72 5-21.36-0.92a4 4 0 0 0-4.33-1c-5.69 2.45-9.26-1-14-1.62-4.12-0.52-5.32-4.62-3.24-11 1.14-3.5 0.31-4.09-1.61-3.9-4.43 0.44-6.19-3-7.85-7.51-2.45-6.67-4.82-13.79-8.79-19.49a5.84 5.84 0 0 1-1.34-3.23c0.07-10.8-4.66-18.91-5.42-29.76a10.47 10.47 0 0 0-4.2-8c-7.55-5.92-10.51-17.12-15-27.19a8.54 8.54 0 0 1-0.08-7.87c1.7-3.25 3.67-1.64 5.68-1.58 6.7 0.22 10.56 5.55 13.74 11.83 4.56 9 9.37 16.79 15.36 23.41 5.37 5.92 11.94 10.62 14.3 20.29a50.5 50.5 0 0 1 1.16 6.28c0.3 2.54-1.28 8.25 3.65 3 2.39-2.53 4.9 3.13 3.55 8.13-1.58 5.85-3.25 11.69-5.19 17.44s-1.49 8.86 2.06 10.51c6.47 3 12.33 6.53 20.25 3.49a2.52 2.52 0 0 1 3.52 1.54c2.39 5.92 6.3 8.39 11.42 8.15 2.53-0.11-0.14 4.85 1.06 6z"/>
  <path class="cls-1" transform="translate(16.78,11.47)" d="m1030.2 745.84c-0.21-6.93 3.67-12.77 12.12-17.46 5.34-3 6.56-7 5-11.22-3-8-1.92-15.9 6.61-23.83 2.7-2.51 5.26-4.13 9.08-4.11 8.67 0 17.15-4.7 19.53-12.39 2.55-8.33 10.83-12.55 16.25-18.85 3.09-3.62 6.57-1.85 6.86 2 0.68 9.27 1.61 19.07-1.31 27.27a55.3 55.3 0 0 1-14.56 22.17c-9.48 8.59-15.21 18.13-17.16 27.9-0.93 4.63-2.7 8.83-7.75 12.47-3.81 2.76-4.62 6.31-6.46 9.44a19 19 0 0 1-11.3 8.73c-6.12 2-10.57 1.9-12.69-2.34-2.95-5.9-8.55-11.38-4.22-19.78z"/>
  <path class="cls-1" transform="translate(16.78,11.47)" d="m1608.6 201.89a23.13 23.13 0 0 0-3.17-6.76c-2.22-3.44-4.66-6.88-5.21-10.83-0.2-1.49-1.3-2.33-2.12-3.38-3.21-4.08-6.32-8.18-6.14-12.44 0.06-1.38-0.91-3.2-2.38-5.12s-3-4.09-4.45-6.19c-1.1-1.57-1.54-2.92-1.34-3.79s1.16-0.35 2.33 0.82c5.23 5.23 10.07 10.12 14 11.55 1.23 0.45 3 2.92 4.26 5.71 1.09 2.38 1.93 4.49 1 5a0.43 0.43 0 0 0-0.16 0.5c1.56 6.36 1.17 9.06-4.36 2.62-0.59-0.69-1-0.4-0.64 0.75a11.33 11.33 0 0 0 2.94 5 41.59 41.59 0 0 1 7.2 8.62c3.3 5.08 6.15 9.76 6.42 15.74 0.1 2.43 2.52 7.51 4.53 11.09a48.1 48.1 0 0 1 5.27 13.18c0.66 3 0.52 4.59-1.34 1.08-2.3-4.28-3-3.58-3.33-0.87-0.07 0.65-0.2 1.75-0.46 1.52-2.85-2.54-2 1.3-1.84 4.71 0.1 3.17-1.82 0.39-3.37-2.51-0.9-1.7-2-4.73-2.9-4.37s0.43 3 0.88 4.75c1.19 4.55-0.72 4.79-1 7.33-0.13 1-1.18-0.81-1.71-2-0.9-2-1.76-4-2.62-6-0.5-1.15-0.93-2.9-1.66-2.64s-0.21 1.71 0.43 3.39c1.89 5 3.68 10 5.24 15 0.73 2.37 1.93 5.83 0.94 6.72s-2.78-2.15-4-4.54c-2.5-4.95-4.83-10-8.28-13.3a15.12 15.12 0 0 1-3.56-7.43c-0.45-2.86 1.27-1.8 2.34-1.74 0.87 0.05 1.45 0.21 0.54-2.53-2.2-6.57-1.41-9.85 1.76-9.43l4.61 0.61c2.1 0.29 2.16-1.81 0.65-6.37-1.28-3.8-3.69-9.94 1.33-4.34 1 1.17 1-0.3 1-1.22 0.1-2.09-0.75-5.01-1.63-7.89z"/>
  <path class="cls-1" transform="translate(16.78,11.47)" d="m689.59 25a3.38 3.38 0 0 1-2.4 2.66c-6.64 2.73-4 4.44 0.08 6.06 3.12 1.25 5.35 3 6.4 5.3 0.57 1.29 1.57 2.25 4.05 2.37 5.73 0.28 5.46 2.84 4.19 5.64-3 6.83-8.91 10.29-19.84 10.81-8.74 0.46-17.31 0.38-24.77 5.93-1.74 1.31-4.62 1.4-6 0.08s-4-3-1.47-5.25c3-2.63 2-4.81 2.37-7.31 0.54-4 5.78-7.59 10.41-10.31s6.8-3.94 2.7-6.8-8.22-6.17-6.63-10.54c1.17-3.24 10.29-7.46 16.11-7.55 2.61 0 4.25 0.75 4.16 1.84-0.19 2.11 1.2 2.89 5.75 2.67 6.07-0.33 4.78 2.4 4.89 4.4z"/>
  <path class="cls-1" transform="translate(16.78,11.47)" d="m1599.8 548.53c-2.09 6.41-3.25 12.13-5.43 17.69-0.48 1.22-0.66 2.92-1.62 3-0.48 0.06-0.76-0.85-1-1.46a2.64 2.64 0 0 1-0.25-1.51c2-13.19-0.44-26.12 7.28-40.86a16.1 16.1 0 0 0 2-7.53c0.2-7.57 4.52-14.4 8.31-14.07 4.18 0.36 8.09 1.5 12.27-3.86 0.83-1.07 1.86-1.21 2 0.51a18.36 18.36 0 0 1-0.82 7.54c-1.91 5-3.89 10.59-7.2 11-1.6 0.19-2.81 2-3.11 5.78a17.75 17.75 0 0 1-2.61 7.27c-3.94 7.23-4.65 13.16-2 17.52 1.31 2.21 1.63 5.48 1.28 9.47-0.15 1.79-0.32 3.92-1.61 5.39-1.08 1.22-1.87 0.46-2.12-0.65-1.28-5.49-6.34-5.37-5.37-15.23z"/>
  <path class="cls-1" transform="translate(16.78,11.47)" d="m812.21-7.22c-0.88 2.11 1.33 3.07 7.5 2.31a82 82 0 0 1 14.87-0.28c2.46 0.18 5.15 0.16 6.61-0.66 0.89-0.5 1.62-1.22 0.44-1.7a17.18 17.18 0 0 0-6.6-0.59c-4.23 0.24-6.68-0.13-5.49-1.25s-1.92-1-5.74-0.94c-3.6 0.1-6.91 0.37-10.68 0.39a37.15 37.15 0 0 1-10.18-0.93 15.47 15.47 0 0 0-7.53 0 34.33 34.33 0 0 1-10.07 1c-4.07 0-7.7 0.75-6.77 1.65s4.26 1.19 7.61 1.4a143.68 143.68 0 0 0 26.03-0.4z"/>
  <path class="cls-1" transform="translate(16.78,11.47)" d="m1624.6 757.83a9.08 9.08 0 0 1-1.85 4.45c-4.08 5.26-8.77 10.29-13.85 13a21.59 21.59 0 0 0-7.38 6.33 59.93 59.93 0 0 1-7.09 7c-6.37 5.77-10.46 4.25-15.16 5.15-1.71 0.3-1-2 0-3.81a12.46 12.46 0 0 1 5-4.54c6.5-3.52 12.55-8.88 18.1-13.79 1.71-1.49 3.2-2.73 4.31-2.54 1.74 0.29 3.61-1.06 5.86-3.83 3.11-3.82 6.31-6.74 8.72-11.63 0.87-1.72 2.34-3.26 2.79-2.44 0.67 1.32 1.62 2.82 0.55 6.65z"/>
  <path class="cls-1" transform="translate(16.78,11.47)" d="m1003.3-9.62-7.87-0.12c-3.28 0-5.69-0.16-6.8-0.31-1.77-0.18-6.63-0.33-7.92-0.26-0.78 0.06-0.45 0.15 3.16 0.32 1.43 0.07 2.83 0.17 4.25 0.26 3.14 0.19 3.72 0.46 3.85 0.72s-2.64 0.11-4.31 0c-6.85-0.36-13.63-0.71-20.4-0.94-5.4-0.22-8.78-0.78-6.33-0.78a32.34 32.34 0 0 1 5.61 0.27 145.38 145.38 0 0 0 14.65 1.18c6.28 0.27 13 0.42 17.33 1.08a34.52 34.52 0 0 0 8.51-0.27c3-0.37 5.4-0.65 2.83-0.88-1.67-0.12-4.27-0.2-6.56-0.27z"/>
  <path class="cls-1" transform="translate(16.78,11.47)" d="m608.52 5.39c-14.1 1.12-20.38-3.57-21.06-6.25-0.08-0.31 0.68-0.57 1.76-0.84 5.09-1.25 12.65-1.57 14.39-0.6a1.64 1.64 0 0 0 1.42 0.45c6.63-1.35 11.41-0.35 17.88-1.4 9-1.37 17.55-1.14 19.42 0.86 1 1.06-0.09 2.72-5.4 3.64-9.26 1.54-18.8 4.09-28.41 4.14z"/>
  <path class="cls-1" transform="translate(16.78,11.47)" d="m1623.1 423.4c-0.78-5 0.28-9.51 0-14.17-0.17-2.32 1.5-2.35 2.33-0.36a20.54 20.54 0 0 1 0.91 12.5 37.38 37.38 0 0 0-1.08 5.44c-0.44 4.8-1.08 9.06 2.27 7.28 1.1-0.58 1.73 1.49 1.89 3.89 0.4 6.11 0.82 12.18 0.83 18.33 0 3 0.39 7.56-2.11 8.31-0.13 0-0.29 0.6-0.4 1-1.81 6.15-3.28 6.56-4.84 1-0.68-2.43-1.23-5.15-1.84-7.78-1.07-4.58-2.59-4.75-4.71-0.71-0.69 1.3-1 5.86-2.31 3.26a13.61 13.61 0 0 1-0.69-9.85 7.35 7.35 0 0 1 1.52-2.88c3.85-3.83 3.27-9.28 2-15.13-0.62-2.84-1.28-5.66-1.91-8.56-0.53-2.46-0.71-5 0.61-6.71s2.71-1.3 3.47 1.24c0.94 3.35 2.24 4.15 4.06 3.9z"/>
  <path class="cls-1" transform="translate(16.78,11.47)" d="m1643.7 728.82a14 14 0 0 1-2.9 8.07c-1.61 1.84-2.78 4.35-4.14 8.31-1.45 4.22-3.73 7.73-6 11.37-0.64 1-1.52 2-1.84 0.83-0.37-1.34-1.08-2.62 0.25-5.14 1.75-3.36 2.83-6.5 2.63-9.89a9.09 9.09 0 0 1 1-3.2c2-2.58 2.73-7.12 4.1-10.3 1-2.29 1.09-4.85 1.34-7.3 0.19-1.8 0.35-3.6 0.56-5.42a7.76 7.76 0 0 1 0.78-3.06c0.41-0.6 0.65 0.1 0.6 1.11-0.23 4.58 1.56 4.24 1.37 9.26-0.06 1.26 0.46 0.84 0.87 0.47 1.35-1.22 1.33-1.13 1.38 4.89z"/>
  <path class="cls-1" transform="translate(16.78,11.47)" d="m60.23 311.75c7-1.94 10.89 4.47 15.55 8.71s8.56 10.07 14.2 13c2 1 3.32 3 3.06 7.08-0.21 3.61-1 5.48-3.46 5.74-7.44 0.78-14.24 0.82-16.85-10.94-0.79-3.58-2.74-5.34-5-6.13a10.78 10.78 0 0 1-4.73-2.56c-2.88-3.1-5.54-4-9.37 1.09-2.73 3.65-5.3 1.67-6.2-3.18-0.17-0.92 0-2.05 0.5-2.39 4.27-2.82 7.81-13.63 12.3-10.42z"/>
  <path class="cls-1" transform="translate(16.78,11.47)" d="m1537 104.44c-1.15-1.11-2.31-2.2-3.48-3.3-1.33-2.13-3.8-5.11-2.15-5.23 1.43-0.1 4.68 2.41 6.6 4.41 7.29 7.59 14.58 11.89 21.34 18.4a15.88 15.88 0 0 0 3.91 2.73 12.5 12.5 0 0 1 4.9 4.84c1.28 2.16 2.06 3.81 1.17 4.55-1.45 1.18 1.6 3.87 3.32 5.75 2.95 3.22 6 6 8 10.28 0.81 1.75 2 4 1.08 4.24-1.08 0.3-2.79-2.36-3.69-3.82-7.23-11.69-17.11-20.73-26.08-31.21-4.26-4.96-9.74-7.51-14.92-11.64z"/>
  <path class="cls-1" transform="translate(16.78,11.47)" d="m120 352.44c-0.7 6-1.53 9.6-5.1 7.18a4.7 4.7 0 0 0-6.25 0.49c-3.78 3.67-7.42 2.19-10.9 2.35s-3.63-5-3.6-9.37a8.21 8.21 0 0 1 1-3.44c1.86-3.41-2-9.64 1.46-9.82 6.09-0.29 14.48-9.65 18.71 2.88 1.29 3.89 5.41 5.19 4.68 9.73z"/>
  <path class="cls-1" transform="translate(16.78,11.47)" d="m1543.9 780.65c-0.35 0.34-1.08 1.12-2 1.87-3.14 2.91-20 11.31-23.13 11.76-2.45 0.44-1.8-1.82 1.4-3.9a58.84 58.84 0 0 0 9.24-7.58c3.44-3.35 6.82-5.25 8.38-4.34 1 0.59 2.68 0.15 5.33-1.06 4.36-2.01 4.61-0.91 0.78 3.25z"/>
  <path class="cls-1" transform="translate(16.78,11.47)" d="m1611.7 372.22c0.16 4.53 0.78 9.23-0.84 13-0.82 1.92-0.3 4.36 0.37 6.46a27.44 27.44 0 0 1 1.08 6.65c0.08 1.38 0.29 2.93-0.54 3.53s-1.38-0.42-1.78-1.57c-1.52-4.52-4-7.53-5.38-12.6-0.39-1.48-1.21-3.3-1.06-4.46 1-7.86-0.58-15.56-1.6-23.36-0.37-2.85 0.13-5.2 1.94-5.62 2.15-0.5 4.08-1 5.74 3.74s1.73 9.41 2.07 14.23z"/>
  <path class="cls-1" transform="translate(16.78,11.47)" d="m1106.3-5.74c-5.9 0.08-10.19-0.37-17.84 0.25a71.6 71.6 0 0 1-8.7 0.13 43.83 43.83 0 0 0-10 0.85c-3.26 0.71 0 0.84 0.8 1.12 2.14 0.85 9.23 0.45 15.45-0.51 4-0.59 6.78-0.63 8.26-0.25 1 0.29 2.38 0.52 5.87 0.16 3.92-0.39 8-0.78 10.06-1.23s-1.56-0.41-3.9-0.52z"/>
  <path class="cls-1" transform="translate(16.78,11.47)" d="m1569.5 592.86c0.87-2.8 2.24-3.74 3.72-4.19a23.87 23.87 0 0 0 6.55-3.15c3.25-2.2 4.44 0.56 3.8 4.66-0.46 2.94 0 3.5 1.32 3.19 2.48-0.6 1.08-2.71 1.63-4.08 0.25-0.63 0.41-1.31 0.69-1.9 1-2 6.92-4.52 8.11-3.49 1.57 1.31 0 5.06-0.76 7.6-0.94 3-2.46 2.86-3.65 2.68-2.32-0.38-4.26-0.17-4.8 6.33-0.28 3.26-2.46 6.29-3.43 3.86-2-5-3.27-10.94-10.59-5.92-1.85 1.27-1.45-3.84-2.56-5.48z"/>
  <path class="cls-1" transform="translate(16.78,11.47)" d="m948.43-3.88c3.8-0.06 7.44-0.09 11.15-0.17a10.46 10.46 0 0 0 6-1.56c1.58-1-1.1-0.84-3-0.87a90.46 90.46 0 0 1-13.51-0.95c-2.72-0.43-6.88-0.13-10.32-0.17a11.69 11.69 0 0 0-5.21 1.22c-1.25 0.62-0.61 1.1 0.55 1.54 3.39 1.3 9.62 0.67 14.34 0.96z"/>
  <path class="cls-1" transform="translate(16.78,11.47)" d="m646.25 45.34c-0.44 2.37-2.06 4.45-6.85 5-4.08 0.49-7.57 2.23-11.24 3.68-2.22 0.89-5.14 2.36-6.43 0.54-1.08-1.52-4.22-3-0.93-5.32 3.8-2.73 3.36-4.92 1.87-7.11-0.85-1.25-0.51-2.85 2.06-3.38 4.64-1 10.29-3 13.78-1.6 4.06 1.68 9.49 3.32 7.74 8.19z"/>
  <path class="cls-1" transform="translate(16.78,11.47)" d="m1631.8 498.35c0.32-3.38-0.41-5.61 0.88-7.8 0.61-1 1.23-1.09 1.77-0.59 1.09 1.05 0.78 3.83 0.51 6.42-1 9.44-4 18-6 27.12-0.32 1.49-0.79 3-1.19 4.43-0.49 1.8-0.59 4.59-1.64 5.06s-1.16-2.25-1-4.06a249.89 249.89 0 0 1 3.83-28.4c0.59-3.13 1.63-4.76 2.84-2.18z"/>
  <path class="cls-1" transform="translate(16.78,11.47)" d="m1659.7 538.67c0.23-0.26 0.42-1.54 1.16-8.12 0.44-3.94 0.4-4.1 0.35-4.63s-0.31 1.61-0.57 4c-0.34 3.08-0.48 4.83-0.61 6.87-0.17 2.42-0.64 6.37-1.1 9.46-0.73 4.84-1 4.65-0.49-0.49 0.37-3.91 0.7-5.65 1.1-6.65a3.37 3.37 0 0 1 0.16-0.44z"/>
  <path class="cls-1" transform="translate(16.78,11.47)" d="m1614.2 580.67c-1.08 4.55-2.52 8.39-5.28 9.88-2.55 1.37-4.9 6.78-7.61 8.72-1.83 1.32-3.58 3.12-3.78-0.44s1.27-5.1 3.1-7.25a13.07 13.07 0 0 0 3.33-7.79 8.52 8.52 0 0 1 2.26-5c1.49-1.28 0.91 0.88 0.87 2.34s3.19-0.55 3.4-2c0.65-4.09 1.73-6 3.69-6.37 2.27-0.4 0 4.31 0.26 6.16a8.87 8.87 0 0 1-0.24 1.75z"/>
  <path class="cls-1" transform="translate(16.78,11.47)" d="m1654 553.59c-0.13-1.73 0.09-4.07-0.33-4.51s-0.53 1.66-0.77 2.66c-0.66 2.64-0.81 7.46-1.67 9.36a17.69 17.69 0 0 0-0.15 5.14c0.27 1.68 0.57 0.43 0.83-1 0.46-2.53 1-2.19 1.47-4 0.87-3.69 1.71-8 2.6-11.15a18.13 18.13 0 0 0 0.52-5.43c-0.16-1.72-0.58-2.12-1-0.21a53.78 53.78 0 0 0-1.5 9.14z"/>
  <path class="cls-1" transform="translate(16.78,11.47)" d="m1308.4 4c-2.92 0-10-1.1-15.36-1.58-0.94-0.1-6.72-0.81-8.12-1.11s2 0 4.16 0.1c1.81 0.12 4.24 0.31 4.79 0.26 2.32-0.21 9.29 0.63 14.72 1.45 5.87 0.88 5.93 1.33-0.19 0.88z"/>
  <path class="cls-1" transform="translate(16.78,11.47)" d="m1598.8 309.83c0.57 5.07-0.08 9.62-0.45 14.33-0.31 3.89-1.92 2.49-3.14-0.78-3.68-9.8-5.34-16-3.19-24 0.48-1.84 0.94-3.42 2.43-2.65 1.33 0.68 2 2.78 2.55 4.83 0.66 2.66 1.19 5.37 1.8 8.27z"/>
  <path class="cls-1" transform="translate(16.78,11.47)" d="m796.52 156c0.33 5.07-4 5.83-8.13 6.09-6.21 0.38-17.13-7.45-16.65-11.89 0.62-5.85 5.8-5.86 10.88-5.78 10.09 0.19 14.17 3.49 13.9 11.58z"/>
  <path class="cls-1" transform="translate(16.78,11.47)" d="m1620.4 527.75c1-0.11 3.1-1.61 1.9 5-0.56 3 0.66 4.57 1.32 6.29s0.06 5.32-0.85 6.72c-1.23 1.88-3.51 2.78-3.39 0.06 0.29-6.12-2.1-8-2.65-12.94-0.1-0.92-1.44-0.51-0.86-2.59s1.57-1.87 2.37-2.13a17.63 17.63 0 0 1 2.16-0.41z"/>
  <path class="cls-1" transform="translate(16.78,11.47)" d="m364.18-0.11c1.54 0 4.19-0.1 6.61-0.17 1.68 0-1 0.1-2.88 0.28s-4.21 0.36-6.68 0.53c-3.67 0.25-9.23 0.33-8.21 0.11a14.62 14.62 0 0 1 3.46-0.4c2.87-0.18 5.15-0.24 7.7-0.35z"/>
  <path class="cls-1" transform="translate(16.78,11.47)" d="m312.05 3.39c-2.68 0.12-2.32-0.23 0.41-0.73a71.2 71.2 0 0 1 7.73-0.74c3.53-0.24 6.81-0.42 9.9-0.57 2.1-0.1 6.11-0.39 1.83 0.16-3.37 0.46-6.34 1-10.51 1.21-2.84 0.17-5 0.17-9.34 0.67z"/>
  <path class="cls-1" transform="translate(16.78,11.47)" d="m1620.9 419c-2.76-8.49-4.51-16.29-6.64-23.77-0.29-1-0.18-2.25 0.51-2.67 1.29-0.72 6.74 6.5 7 9.16a34.26 34.26 0 0 1-0.53 7.91c-0.34 2.28-0.23 4.82-0.34 9.37z"/>
  <path class="cls-1" transform="translate(16.78,11.47)" d="m1555.2 486.54c-0.16-2.72 1.75-2.47 2-4.34-1.24-1-3.84 2.9-4.08-1-0.18-2.81 2.19-3.28 3.46-4.62 1.08-1.14 2.46-1.72 3.29-3.13 2.72-4.65 4-0.87 5.92 0.46 2.56 1.73 1.55 5.25 1 7.65-0.76 3.39-3.18 4.22-5 4.12a20.33 20.33 0 0 0-6.59 0.86z"/>
  <path class="cls-1" transform="translate(16.78,11.47)" d="m916.88-4.31c2.36-0.2 5.36-0.11 6.09-1.45 0.45-0.77-4.58-2.06-8.21-2-2.75 0-4.41 0.59-5.26 1.27s4.65 2.18 7.38 2.18z"/>
  <path class="cls-1" transform="translate(16.78,11.47)" d="m1631.2 544.69a31.72 31.72 0 0 1-4-0.63c-1.49-0.4-1.82-3.29-1-6.88 0.91-4.09 2-1.89 2.83-2 1.46-0.25 2.82-0.13 3.78 1.29 0.85 1.25 0.53 4-0.12 6.81-0.48 2.16-1.03 1.85-1.49 1.41z"/>
  <path class="cls-1" transform="translate(16.78,11.47)" d="m28.88 128c1.19-2.6 2.66-6.08 4.71-7.24s0.3 2.34-0.76 4.91-5 8.79-5.76 9.11 0-2.57 1.81-6.78z"/>
  <path class="cls-1" transform="translate(16.78,11.47)" d="m752.88 135c-0.31 2.34-3.18 5.08-7.55 6.36-2.83 0.81-8.14-6.41-7.65-10.34 0.45-3.66 3.05-6.46 7.28-7.28s8.27 4.33 7.92 11.26z"/>
  <path class="cls-1" transform="translate(16.78,11.47)" d="m1657.6 545.43a20.81 20.81 0 0 0-0.21 3c0 0.69 0.17 0.34 0.3-0.36 0.49-2.54 1-5.14 1.42-7.92a38.46 38.46 0 0 0 0.49-4.9c0-1.64-0.14-1.31-0.37-0.34a86.64 86.64 0 0 0-1.63 10.52z"/>
  <path class="cls-1" transform="translate(16.78,11.47)" d="m358.47 9c2.79-0.21 5-0.42 1.08 1.23a48.3 48.3 0 0 1-12.34 3.26c-3.73 0.55-3.06-0.6-0.61-1.68a39.6 39.6 0 0 1 11.87-2.81z"/>
  <path class="cls-1" transform="translate(16.78,11.47)" d="m75.06 365.76c-3.71 0.2-7.45-5.27-6.89-9.66 0.36-2.93 1.68-4 3.25-4.28 2.9-0.47 7 4.76 6.59 8.55-0.35 2.8-0.61 6.17-2.95 5.39z"/>
 </g>
</svg>
